<svg width="56" height="56" viewBox="0 0 56 56" fill="none" xmlns="http://www.w3.org/2000/svg">
<path d="M28 54C28 55.1046 27.1034 56.0074 26.0017 55.9286C23.0087 55.7144 20.0651 55.0202 17.2849 53.8686C13.8877 52.4615 10.801 50.399 8.20101 47.799C5.60097 45.1989 3.5385 42.1122 2.13137 38.7151C0.724234 35.318 -5.19934e-06 31.677 -5.03862e-06 28C-4.87789e-06 24.323 0.724238 20.682 2.13137 17.2849C3.5385 13.8877 5.60097 10.801 8.20101 8.20101C10.801 5.60097 13.8877 3.5385 17.2849 2.13137C20.0651 0.97976 23.0087 0.285547 26.0017 0.0713965C27.1034 -0.00743455 28 0.895429 28 2L28 28L28 54Z" fill="#FEDF89"/>
<circle cx="27" cy="27" r="10" transform="rotate(-180 27 27)" fill="#F79009"/>
</svg>
