<svg width="30" height="41" viewBox="0 0 30 41" fill="none" xmlns="http://www.w3.org/2000/svg">
<g clip-path="url(#clip0_406_1293)">
<path d="M29.1414 17.0307L7.06452 40.306C6.81221 40.5584 6.49682 40.6845 6.11836 40.6845C5.86605 40.6845 5.67682 40.6214 5.42451 40.4953C4.9199 40.1799 4.73067 39.5491 4.9199 38.9814L11.6061 22.0768H1.38759C0.946052 22.0768 0.56759 21.8876 0.315283 21.5091C0.0629748 21.1937 -0.000102006 20.7522 0.189129 20.3107L7.75836 1.0722C7.94759 0.567582 8.38913 0.252197 8.95682 0.252197H24.4107C24.8522 0.252197 25.2307 0.504505 25.483 0.882967C25.7353 1.26143 25.7353 1.70297 25.5461 2.14451L19.1122 14.886H28.1953C28.6999 14.886 29.1414 15.2014 29.3307 15.643C29.583 16.0845 29.5199 16.6522 29.1414 17.0307Z" fill="url(#paint0_linear_406_1293)"/>
</g>
<defs>
<linearGradient id="paint0_linear_406_1293" x1="0.0786437" y1="40.6843" x2="38.5432" y2="12.7122" gradientUnits="userSpaceOnUse">
<stop stop-color="#FF7A00"/>
<stop offset="1" stop-color="#FFD439"/>
</linearGradient>
<clipPath id="clip0_406_1293">
<rect width="29.6462" height="41" fill="white"/>
</clipPath>
</defs>
</svg>
