<svg width="304" height="235" viewBox="0 0 304 235" fill="none" xmlns="http://www.w3.org/2000/svg">
<g clip-path="url(#clip0_406_1543)">
<path opacity="0.4" d="M136.645 26.2251C162.314 13.693 214.373 37.3729 228.259 67.6691C232.645 77.237 231.308 83.2845 238.905 91.9126C255.586 110.857 275.954 105.79 282.642 118.516C289.265 131.122 278.48 153.366 256.521 164.55C231.885 177.101 224.519 187.195 192.012 186.401C133.887 184.983 96.4549 193.312 63.5116 201.494C-0.706112 209.267 0.847548 175.843 0.847548 175.843C1.95712 162.172 26.6906 113.265 38.4219 104.289" stroke="#9EBEFF" stroke-miterlimit="10" stroke-linecap="round" stroke-dasharray="4 4"/>
<path d="M159.461 196.961C177.731 176.919 182.743 184.54 209.562 178.509C241.131 171.411 254.875 127.558 255.838 104.669C256.58 87.0298 240.591 50.0533 208.592 35.1102C186.812 24.9396 129.037 3.27642 75.6792 42.1695C52.854 58.8075 -19.355 126.701 55.7464 191.976C73.2248 207.168 123.206 236.741 159.461 196.961Z" fill="#2633AD" fill-opacity="0.4"/>
<path d="M127.108 151.221C130.051 153.222 133.198 153.751 134.158 152.397L142.66 140.374C143.623 139.014 142.006 136.267 139.049 134.24L139.005 134.209C136.061 132.209 132.915 131.68 131.955 133.034L123.452 145.057C122.49 146.417 124.106 149.163 127.063 151.191L127.108 151.221Z" fill="#CECDFF"/>
<path d="M140.596 143.176L137.935 147.083L127.112 139.913L129.995 135.682C129.995 135.682 130.469 138.453 134.19 140.821C138.572 143.608 140.596 143.176 140.596 143.176Z" fill="#2C3BD6"/>
<path d="M162.255 147.129C188.467 147.129 209.717 125.895 209.717 99.7021C209.717 73.5088 188.467 52.275 162.255 52.275C136.043 52.275 114.793 73.5088 114.793 99.7021C114.793 125.895 136.043 147.129 162.255 147.129Z" fill="#9EBEFF"/>
<path d="M162.255 137.644C183.225 137.644 200.225 120.657 200.225 99.7021C200.225 78.7474 183.225 61.7603 162.255 61.7603C141.285 61.7603 124.286 78.7474 124.286 99.7021C124.286 120.657 141.285 137.644 162.255 137.644Z" fill="#273388"/>
<path d="M187.762 125.19C201.849 111.113 201.849 88.2908 187.762 74.2142C173.675 60.1376 150.836 60.1376 136.749 74.2142C122.662 88.2908 122.662 111.113 136.749 125.19C150.836 139.267 173.675 139.267 187.762 125.19Z" fill="#DDEBFF"/>
<path d="M67.8534 226.694C68.8545 229.12 71.0102 230.643 72.2507 231.519C73.4662 232.378 75.9281 234.117 78.8255 234.156C82.2034 234.203 84.7837 231.922 87.3891 229.316C90.8997 225.806 95.7183 220.442 100.821 212.81L127.495 173.643C136.79 159.996 142.1 147.27 139.297 145.364C137.056 144.931 134.927 144.046 133.04 142.763C131.154 141.48 129.549 139.826 128.324 137.902C125.52 135.995 115.623 145.601 106.328 159.248L79.6531 198.415C74.4206 206.037 71.1904 212.472 69.2165 216.957C67.7966 220.189 66.5402 223.512 67.8534 226.694Z" fill="#9EBEFF"/>
<path d="M178.759 126.171C179.451 126.641 180.279 126.868 181.115 126.819C181.95 126.77 182.746 126.446 183.378 125.898C193.779 116.877 195.783 106.44 195.633 99.2728C195.395 87.911 189.677 77.5145 184.152 73.112C183.763 72.7958 183.315 72.5598 182.835 72.4176C182.354 72.2755 181.85 72.2299 181.351 72.2836C180.853 72.3374 180.37 72.4893 179.931 72.7306C179.491 72.972 179.104 73.2979 178.792 73.6897C178.479 74.0815 178.248 74.5312 178.11 75.013C177.973 75.4948 177.932 75.999 177.991 76.4966C178.05 76.9941 178.206 77.4751 178.452 77.9116C178.698 78.3482 179.028 78.7318 179.424 79.0401C182.885 81.797 187.85 89.9459 188.049 99.4311C188.216 107.498 184.973 114.476 178.405 120.172C177.966 120.553 177.621 121.03 177.396 121.565C177.17 122.101 177.071 122.681 177.105 123.26C177.139 123.84 177.306 124.404 177.593 124.91C177.879 125.415 178.278 125.848 178.759 126.175V126.171Z" fill="#F3F5FF"/>
<path d="M190.883 98.7676C191.169 98.9618 191.503 99.074 191.849 99.0922C192.194 99.1103 192.538 99.0337 192.843 98.8706C193.148 98.7074 193.403 98.464 193.579 98.1667C193.756 97.8694 193.848 97.5294 193.845 97.1837C193.803 91.8908 192.439 86.7005 189.897 82.178C188.13 79.0339 185.824 76.2248 183.083 73.879C182.896 73.705 182.676 73.5705 182.436 73.4836C182.196 73.3967 181.941 73.3591 181.686 73.3731C181.431 73.3871 181.182 73.4524 180.953 73.5652C180.724 73.6779 180.52 73.8357 180.353 74.0291C180.186 74.2225 180.061 74.4475 179.983 74.6907C179.906 74.9339 179.878 75.1901 179.903 75.4442C179.927 75.6982 180.002 75.9447 180.124 76.169C180.245 76.3933 180.411 76.5906 180.611 76.7493C183.015 78.8063 185.039 81.2697 186.589 84.027C189.405 89.0431 190.027 93.9658 190.052 97.212C190.054 97.5192 190.13 97.8213 190.275 98.0923C190.42 98.3633 190.628 98.5951 190.883 98.7676Z" fill="white"/>
<path d="M144.348 101.356C144.443 97.386 141.299 94.0917 137.327 93.9975C133.354 93.9033 130.058 97.0448 129.963 101.014C129.869 104.984 133.013 108.278 136.985 108.372C140.957 108.466 144.254 105.325 144.348 101.356Z" fill="#F3F5FF"/>
<path d="M142.296 102.988C143.516 101.768 143.516 99.7902 142.296 98.5703C141.075 97.3505 139.096 97.3505 137.875 98.5703C136.654 99.7902 136.654 101.768 137.875 102.988C139.096 104.208 141.075 104.208 142.296 102.988Z" fill="white" stroke="white" stroke-miterlimit="10"/>
<path d="M106.2 159.441L91.2075 181.456C96.185 188.776 103.812 193.88 112.481 195.692L127.473 173.679C118.803 171.867 111.176 166.762 106.199 159.441L106.2 159.441Z" fill="#9EBEFF"/>
<path d="M117.9 163.987C114.508 161.639 111.482 158.805 108.917 155.575C109.312 155.03 109.708 154.495 110.103 153.968C115.455 160.75 122.802 165.683 131.109 168.07C130.765 168.63 130.413 169.194 130.051 169.763C125.716 168.503 121.613 166.553 117.9 163.987Z" fill="#273388"/>
<path d="M108.917 155.575C114.317 162.382 121.703 167.341 130.051 169.763C129.239 171.042 128.383 172.339 127.498 173.643L127.474 173.678C118.805 171.866 111.178 166.762 106.201 159.441L106.332 159.248C107.19 157.988 108.052 156.763 108.917 155.575Z" fill="#E4E7FF"/>
<path d="M76.9803 0C68.1227 3.18454 59.269 6.3763 50.4192 9.57529C41.4343 12.8232 32.4521 16.0794 23.4728 19.344C22.5376 26.1932 21.4806 41.0497 28.5534 57.5176C33.4346 68.8844 40.2805 76.574 44.8889 80.9748C55.8468 68.8767 69.4472 59.4647 84.6346 53.4694C79.7579 45.5577 76.5618 36.7282 75.245 27.5298C73.9282 18.3314 74.5189 8.96063 76.9803 0Z" fill="#DDEBFF"/>
<path d="M37.6094 51.3872C38.7969 54.1519 40.2577 56.7913 41.9701 59.266C43.7526 61.8445 45.7931 64.2349 48.0602 66.4004C49.0613 65.2933 50.205 64.107 51.4923 62.8765C54.2689 60.2241 57.2654 57.8115 60.4497 55.6646C61.6861 54.831 62.9057 54.0682 64.0971 53.3704C67.1088 51.6074 70.2515 50.0778 73.4975 48.7954C72.3971 47.0072 72.6966 47.6949 71.0489 44.4779C69.9026 42.2387 68.1657 36.2923 67.6527 33.2486C66.612 27.0289 66.935 20.6576 68.5995 14.5749C62.9311 16.6134 57.2648 18.6564 51.6007 20.7039C45.8505 22.7819 40.1016 24.866 34.3542 26.9562C33.7585 31.3396 33.0828 40.8473 37.6094 51.3872Z" fill="#3F51F3"/>
<path d="M41.9698 59.266C43.7523 61.8444 45.7928 64.2349 48.0599 66.4003C49.061 65.2932 50.2047 64.1069 51.492 62.8765C54.2686 60.224 57.2651 57.8115 60.4494 55.6646C61.6858 54.8309 62.9054 54.0682 64.0968 53.3704C63.7898 53.0778 63.5862 52.5567 63.1524 52.4784C59.4424 51.8115 58.4697 51.0612 55.8485 49.1913C52.2754 46.6412 49.559 42.6822 47.687 43.2807C42.2943 45.0047 49.8819 54.0848 47.4776 55.3161C46.0068 56.0664 43.6884 52.5934 42.2167 53.2053C41.516 53.4971 40.8769 54.2549 41.9698 59.266Z" fill="#EBF1FF"/>
<path d="M51.4959 62.8761C54.2725 60.2237 57.2691 57.8111 60.4533 55.6642C61.6897 54.8306 62.9094 54.0678 64.1007 53.37C67.1124 51.607 70.2551 50.0775 73.5011 48.795C72.4007 47.0068 72.017 46.8776 70.8315 43.7289C65.0751 41.0871 62.4455 32.7297 59.076 33.5534C57.0429 34.0536 57.1288 40.8111 57.8029 43.5046C59.2278 49.2018 61.0974 49.266 61.1725 51.1367C61.215 52.2096 60.5201 52.7415 59.8243 53.0816C57.4275 54.2545 55.9801 50.619 53.3296 51.8586C51.1589 52.8715 50.962 57.5441 51.4959 62.8761Z" fill="#D2DBFC"/>
<path d="M248.252 47.3756C257.365 50.5602 266.475 53.7519 275.581 56.9509C284.826 60.1988 294.068 63.455 303.308 66.7196C304.27 73.5689 305.358 88.4253 298.08 104.893C293.057 116.264 286.011 123.95 281.272 128.352C275.33 121.982 268.643 116.351 261.354 111.579C254.765 107.263 247.732 103.664 240.377 100.842C243.47 95.9565 247.85 87.6617 249.774 76.5492C251.446 66.8327 250.926 56.8658 248.252 47.3756Z" fill="#EDF4FF"/>
<path d="M288.759 98.7625C287.534 101.533 286.03 104.173 284.272 106.641C282.431 109.227 280.33 111.617 278.002 113.776C276.971 112.669 275.796 111.482 274.471 110.252C271.607 107.594 268.524 105.181 265.255 103.04C263.983 102.206 262.728 101.444 261.501 100.746C258.396 98.9809 255.163 97.4524 251.829 96.1732C252.962 94.385 252.653 95.0728 254.349 91.8557C255.528 89.6166 257.315 83.6702 257.843 80.6265C258.913 74.4071 258.58 68.0274 256.87 61.9528C262.701 63.9913 268.531 66.0343 274.36 68.0817C280.275 70.1598 286.19 72.2439 292.105 74.3341C292.721 78.7149 293.417 88.2227 288.759 98.7625Z" fill="#FFB523"/>
<path d="M284.272 106.641C282.431 109.227 280.33 111.617 278.002 113.776C276.971 112.669 275.795 111.482 274.471 110.252C271.607 107.594 268.524 105.181 265.255 103.04C263.982 102.206 262.728 101.444 261.5 100.746C261.817 100.453 262.025 99.9322 262.472 99.8539C266.289 99.187 267.291 98.4367 269.987 96.5668C273.664 94.0167 276.459 90.0577 278.385 90.6562C283.933 92.3802 276.127 101.46 278.601 102.692C280.114 103.442 282.5 99.9689 284.014 100.581C284.739 100.873 285.396 101.63 284.272 106.641Z" fill="#EBF1FF"/>
<path d="M274.471 110.252C271.607 107.594 268.524 105.181 265.255 103.04C263.983 102.206 262.728 101.444 261.501 100.746C258.396 98.9809 255.163 97.4524 251.829 96.1733C252.962 94.3851 253.356 94.2559 254.582 91.1072C260.505 88.4653 263.211 80.108 266.679 80.9317C268.77 81.4277 268.681 88.1894 267.989 90.8829C266.522 96.5809 264.598 96.6443 264.521 98.515C264.477 99.5879 265.189 100.12 265.908 100.46C268.375 101.633 269.864 97.9973 272.591 99.2369C274.817 100.247 275.02 104.92 274.471 110.252Z" fill="#DDEBFF"/>
</g>
<defs>
<clipPath id="clip0_406_1543">
<rect width="304" height="234.755" fill="white"/>
</clipPath>
</defs>
</svg>
