<svg width="239" height="195" viewBox="0 0 239 195" fill="none" xmlns="http://www.w3.org/2000/svg">
<g clip-path="url(#clip0_406_1579)">
<path d="M32.5864 61.4546C35.9864 32.4998 95.3319 -13.5906 155.296 28.3636" stroke="#3F51F3" stroke-dasharray="4 4"/>
<path d="M23.4494 92.3212C23.3817 92.3212 23.3169 92.2948 23.269 92.2477C23.2212 92.2007 23.1943 92.1368 23.1943 92.0703V91.8193C23.1943 91.753 23.2211 91.6894 23.2688 91.6425C23.3164 91.5956 23.381 91.5692 23.4484 91.5692C23.5158 91.5692 23.5804 91.5956 23.6281 91.6425C23.6757 91.6894 23.7025 91.753 23.7025 91.8193V92.0693C23.7028 92.1022 23.6964 92.1349 23.6838 92.1653C23.6712 92.1958 23.6526 92.2236 23.6291 92.247C23.6056 92.2704 23.5776 92.289 23.5468 92.3017C23.5159 92.3145 23.4828 92.3211 23.4494 92.3212Z" fill="#4C3965"/>
<path d="M187.378 92.3212C187.31 92.3212 187.246 92.2948 187.198 92.2477C187.15 92.2007 187.123 92.1368 187.123 92.0703V91.8212C187.123 91.7547 187.15 91.6909 187.197 91.6437C187.245 91.5965 187.31 91.5697 187.377 91.5692C187.444 91.5695 187.509 91.5959 187.557 91.6428C187.604 91.6896 187.631 91.753 187.631 91.8193V92.0703C187.631 92.1031 187.625 92.1356 187.612 92.166C187.6 92.1964 187.581 92.224 187.557 92.2473C187.534 92.2706 187.506 92.2892 187.475 92.3018C187.444 92.3145 187.411 92.3211 187.378 92.3212Z" fill="#4C3965"/>
<g opacity="0.19">
<path d="M187.732 109.957C215.568 109.957 238.133 87.7527 238.133 60.3625C238.133 32.9723 215.568 10.7682 187.732 10.7682C159.897 10.7682 137.332 32.9723 137.332 60.3625C137.332 87.7527 159.897 109.957 187.732 109.957Z" fill="#EDF4FF"/>
</g>
<g opacity="0.19">
<path d="M66.535 177.973C88.4203 177.973 106.162 160.515 106.162 138.98C106.162 117.445 88.4203 99.9872 66.535 99.9872C44.6497 99.9872 26.9082 117.445 26.9082 138.98C26.9082 160.515 44.6497 177.973 66.535 177.973Z" fill="#EDF4FF"/>
</g>
<path d="M190.354 26.8559H139.782C137.764 26.8557 135.765 27.2468 133.901 28.0068C132.036 28.7667 130.342 29.8807 128.915 31.285C127.488 32.6893 126.356 34.3565 125.583 36.1913C124.811 38.0262 124.413 39.9928 124.414 41.9788V179.876C124.416 183.885 126.036 187.73 128.918 190.564C131.8 193.398 135.708 194.991 139.782 194.99H190.35C194.426 194.99 198.335 193.397 201.217 190.561C204.099 187.725 205.718 183.878 205.718 179.867V41.9702C205.716 37.9615 204.096 34.1177 201.215 31.2836C198.334 28.4494 194.427 26.8569 190.354 26.8559ZM204.566 179.867C204.566 187.578 198.191 193.852 190.355 193.852H139.782C131.945 193.852 125.57 187.578 125.57 179.867V41.9702C125.57 34.2594 131.945 27.9858 139.782 27.9858H150.964V28.5822C150.964 29.0948 151.067 29.6023 151.266 30.0759C151.466 30.5494 151.758 30.9797 152.126 31.3421C152.494 31.7046 152.932 31.9921 153.413 32.1882C153.894 32.3844 154.41 32.4853 154.931 32.4853H175.2C175.721 32.4853 176.237 32.3844 176.718 32.1882C177.199 31.9921 177.637 31.7046 178.005 31.3421C178.373 30.9797 178.665 30.5494 178.865 30.0759C179.064 29.6023 179.167 29.0948 179.167 28.5822V27.9858H190.349C198.185 27.9858 204.56 34.2594 204.56 41.9702L204.566 179.867Z" fill="#2633AD"/>
<path d="M204.566 41.9749V179.866C204.566 187.578 198.192 193.852 190.356 193.852H139.783C132.206 193.852 125.997 187.99 125.591 180.635C125.577 180.38 125.57 180.124 125.57 179.866V41.9749C125.57 34.2632 131.945 27.9896 139.783 27.9896H150.965V28.586C150.965 29.6212 151.382 30.6139 152.126 31.3459C152.87 32.0779 153.879 32.4891 154.931 32.4891H175.2C176.252 32.4889 177.261 32.0776 178.005 31.3457C178.749 30.6138 179.167 29.6212 179.168 28.586V27.9896H190.349C198.19 27.9896 204.566 34.2632 204.566 41.9749Z" fill="white"/>
<path d="M198.484 69.9714H130.942V70.3159H198.484V69.9714Z" fill="#D0D5DD"/>
<path d="M198.484 59.2813H130.942V59.6258H198.484V59.2813Z" fill="#D0D5DD"/>
<path d="M164.444 72.13H125.594V126.147H164.444V72.13Z" fill="#F2F4F7"/>
<path d="M204.572 72.13H165.722V126.147H204.572V72.13Z" fill="#F2F4F7"/>
<path d="M164.444 151.963H125.594V174.701H164.444V151.963Z" fill="#F2F4F7"/>
<path d="M204.565 151.963H165.723V174.701H204.565V151.963Z" fill="#F2F4F7"/>
<path d="M160.019 76.7403C159.311 75.9978 158.308 75.8938 157.464 76.474L156.991 76.8004L156.517 76.474C155.674 75.8938 154.674 75.9969 153.962 76.7403C153.335 77.3987 153.03 78.5668 153.848 79.5727L156.991 83.4424L160.133 79.5727C160.951 78.5668 160.647 77.3987 160.019 76.7403Z" fill="white"/>
<path d="M156.991 77.4092L157.753 76.8844C159.224 75.8709 160.883 77.8606 159.739 79.2701L156.991 82.6551L154.242 79.2701C153.098 77.8625 154.757 75.8728 156.229 76.8844L156.991 77.4092Z" fill="#D0D5DD"/>
<path d="M199.978 76.7403C199.27 75.9978 198.267 75.8938 197.424 76.474L196.95 76.8004L196.477 76.474C195.633 75.8938 194.634 75.9969 193.923 76.7403C193.294 77.3987 192.991 78.5668 193.808 79.5727L196.95 83.4424L200.093 79.5727C200.91 78.5668 200.607 77.3987 199.978 76.7403Z" fill="white"/>
<g opacity="0.25">
<path d="M196.95 77.4093L197.713 76.8844C199.185 75.8709 200.843 77.8607 199.7 79.2702L196.95 82.6551L194.201 79.2702C193.058 77.8626 194.716 75.8728 196.188 76.8844L196.95 77.4093Z" fill="white"/>
<path d="M196.951 82.9289L194.064 79.3761C193.369 78.5172 193.628 77.5266 194.161 76.9664C194.751 76.3471 195.586 76.2603 196.287 76.7431L196.95 77.1993L197.612 76.7431C198.313 76.2603 199.148 76.3471 199.738 76.9664C200.272 77.5266 200.531 78.5191 199.835 79.3761L196.951 82.9289ZM195.353 76.7813C195.176 76.7854 195.002 76.8247 194.842 76.8969C194.681 76.9691 194.536 77.0726 194.417 77.2012C194.162 77.4611 194.012 77.8045 193.998 78.1659C193.983 78.5272 194.104 78.8813 194.338 79.1604L196.951 82.3783L199.563 79.1604C199.797 78.8813 199.918 78.5272 199.903 78.1659C199.889 77.8045 199.739 77.4611 199.484 77.2012C199.132 76.8319 198.483 76.5647 197.813 77.0256L196.951 77.6192L196.088 77.0256C195.875 76.8706 195.618 76.7851 195.353 76.7813Z" fill="#002D4E"/>
</g>
<path d="M160.019 156.574C159.311 155.831 158.308 155.727 157.464 156.308L156.991 156.634L156.517 156.308C155.674 155.727 154.674 155.831 153.962 156.575C153.335 157.233 153.03 158.4 153.848 159.407L156.991 163.277L160.133 159.407C160.951 158.399 160.647 157.232 160.019 156.574Z" fill="white"/>
<g opacity="0.25">
<path d="M156.991 157.242L157.753 156.717C159.224 155.703 160.883 157.693 159.739 159.103L156.991 162.488L154.242 159.103C153.098 157.695 154.757 155.705 156.229 156.717L156.991 157.242Z" fill="white"/>
<path d="M156.991 162.761L154.105 159.209C153.409 158.35 153.667 157.359 154.202 156.799C154.791 156.181 155.626 156.093 156.328 156.577L156.991 157.032L157.652 156.577C158.354 156.093 159.188 156.181 159.779 156.799C160.313 157.359 160.571 158.353 159.876 159.209L156.991 162.761ZM155.396 156.614C155.22 156.618 155.046 156.658 154.885 156.73C154.724 156.802 154.58 156.906 154.461 157.035C154.205 157.295 154.056 157.638 154.041 157.999C154.027 158.361 154.148 158.715 154.382 158.994L156.995 162.211L159.607 158.994C159.841 158.715 159.962 158.361 159.948 157.999C159.933 157.638 159.783 157.295 159.528 157.035C159.176 156.664 158.526 156.397 157.857 156.858L156.995 157.453L156.132 156.858C155.918 156.703 155.661 156.618 155.396 156.614Z" fill="#002D4E"/>
</g>
<path d="M199.978 156.574C199.27 155.831 198.267 155.727 197.424 156.308L196.95 156.634L196.477 156.308C195.633 155.727 194.634 155.831 193.923 156.575C193.294 157.233 192.991 158.4 193.808 159.407L196.95 163.277L200.093 159.407C200.91 158.399 200.607 157.232 199.978 156.574Z" fill="white"/>
<g opacity="0.25">
<path d="M196.95 157.242L197.713 156.717C199.185 155.703 200.843 157.693 199.7 159.103L196.95 162.488L194.201 159.103C193.058 157.695 194.716 155.705 196.188 156.717L196.95 157.242Z" fill="white"/>
<path d="M196.951 162.761L194.064 159.209C193.369 158.35 193.628 157.359 194.161 156.799C194.751 156.181 195.586 156.093 196.287 156.577L196.95 157.032L197.612 156.577C198.313 156.093 199.148 156.181 199.738 156.799C200.272 157.359 200.531 158.353 199.835 159.209L196.951 162.761ZM195.353 156.614C195.176 156.618 195.002 156.658 194.841 156.73C194.681 156.802 194.536 156.906 194.417 157.035C194.162 157.295 194.012 157.638 193.998 157.999C193.983 158.361 194.104 158.715 194.338 158.994L196.951 162.211L199.563 158.994C199.797 158.715 199.918 158.361 199.903 157.999C199.889 157.638 199.739 157.295 199.484 157.035C199.132 156.664 198.483 156.397 197.813 156.858L196.951 157.453L196.088 156.858C195.875 156.703 195.618 156.618 195.353 156.614Z" fill="#002D4E"/>
</g>
<path d="M144.183 132.566H128.017V135.875H144.183V132.566Z" fill="#D0D5DD"/>
<path d="M136.164 141.218H128.017V144.527H136.164V141.218Z" fill="#D0D5DD"/>
<path d="M145.733 141.218H137.586V144.527H145.733V141.218Z" fill="#D0D5DD"/>
<path d="M150.519 139.055H128.017V140.073H150.519V139.055Z" fill="#D0D5DD"/>
<path d="M175.545 41.4033H153.042V42.4215H175.545V41.4033Z" fill="#D0D5DD"/>
<path d="M185.555 132.566H169.389V135.875H185.555V132.566Z" fill="#D0D5DD"/>
<path d="M177.537 141.218H169.389V144.527H177.537V141.218Z" fill="#D0D5DD"/>
<path d="M187.107 141.218H178.959V144.527H187.107V141.218Z" fill="#D0D5DD"/>
<path d="M191.892 139.055H169.389V140.073H191.892V139.055Z" fill="#D0D5DD"/>
<path d="M134.891 42.6964L131.603 39.7924L134.891 36.8894L135.124 37.1452L132.127 39.7924L135.124 42.4406L134.891 42.6964Z" fill="#002D4E"/>
<path d="M138.88 39.6206H131.865V39.9651H138.88V39.6206Z" fill="#002D4E"/>
<path d="M204.942 174.701H204.564" stroke="#002D4E" stroke-width="3" stroke-miterlimit="10"/>
<path d="M125.594 174.701H125.426" stroke="#002D4E" stroke-width="3" stroke-miterlimit="10"/>
<g opacity="0.25">
<path d="M138.625 187.746L135.829 186.299L133.033 187.746L133.567 184.683L131.305 182.513L134.431 182.066L135.829 179.279L137.227 182.066L140.354 182.513L138.091 184.683L138.625 187.746ZM132.057 182.753L133.943 184.566L133.497 187.121L135.829 185.915L138.157 187.121L137.712 184.566L139.598 182.753L136.991 182.38L135.827 180.056L134.664 182.38L132.057 182.753Z" fill="#D0D5DD"/>
</g>
<g opacity="0.25">
<path d="M159.301 179.641H150.621V179.986H159.301V179.641Z" fill="#D0D5DD"/>
<path d="M155.095 187.037H150.621V187.382H155.095V187.037Z" fill="#D0D5DD"/>
<path d="M155.9 184.571H150.621V184.916H155.9V184.571Z" fill="#D0D5DD"/>
<path d="M159.301 182.106H150.621V182.451H159.301V182.106Z" fill="#D0D5DD"/>
<path d="M157.87 184.08C158.238 183.204 157.815 182.2 156.925 181.837C156.035 181.474 155.014 181.89 154.646 182.766C154.277 183.642 154.7 184.646 155.59 185.009C156.48 185.372 157.501 184.956 157.87 184.08Z" fill="#D0D5DD"/>
<path d="M156.259 185.312C155.879 185.312 155.507 185.201 155.192 184.994C154.876 184.786 154.629 184.491 154.484 184.146C154.338 183.801 154.3 183.421 154.374 183.054C154.448 182.688 154.631 182.351 154.899 182.086C155.168 181.822 155.51 181.642 155.883 181.569C156.255 181.496 156.641 181.533 156.992 181.676C157.343 181.819 157.643 182.062 157.854 182.372C158.065 182.683 158.178 183.048 158.178 183.422C158.177 183.923 157.975 184.403 157.615 184.757C157.255 185.112 156.768 185.311 156.259 185.312ZM156.259 181.876C155.948 181.876 155.644 181.967 155.386 182.137C155.128 182.306 154.927 182.548 154.808 182.83C154.689 183.113 154.658 183.423 154.719 183.723C154.779 184.023 154.929 184.298 155.149 184.514C155.368 184.73 155.648 184.877 155.953 184.937C156.258 184.996 156.573 184.965 156.86 184.848C157.147 184.731 157.392 184.533 157.565 184.279C157.737 184.025 157.829 183.726 157.829 183.42C157.828 183.011 157.662 182.619 157.368 182.33C157.073 182.041 156.674 181.878 156.259 181.878V181.876Z" fill="#D0D5DD"/>
<path d="M157.724 184.622L157.477 184.865L159.221 186.582L159.469 186.339L157.724 184.622Z" fill="#D0D5DD"/>
</g>
<g opacity="0.25">
<path d="M174.138 188.106L170.143 183.187C169.194 182.018 169.547 180.662 170.276 179.897C171.078 179.056 172.216 178.937 173.168 179.594L174.138 180.262L175.108 179.594C176.062 178.937 177.198 179.056 178 179.897C178.729 180.66 179.082 182.018 178.133 183.187L174.138 188.106ZM171.896 179.517C171.638 179.523 171.384 179.581 171.15 179.686C170.915 179.791 170.705 179.942 170.531 180.13C169.902 180.79 169.597 181.961 170.417 182.97L174.138 187.55L177.858 182.97C178.678 181.961 178.373 180.79 177.744 180.13C177.23 179.592 176.283 179.201 175.308 179.873L174.138 180.679L172.967 179.873C172.656 179.648 172.282 179.525 171.896 179.52V179.517Z" fill="#D0D5DD"/>
</g>
<path d="M197.196 188.178H189.381L188.431 182.375H198.146L197.196 188.178ZM189.68 187.834H196.905L197.743 182.72H188.848L189.68 187.834Z" fill="#D0D5DD"/>
<path d="M195.436 183.868H195.086V181.005C195.086 180.502 194.883 180.019 194.522 179.663C194.16 179.308 193.67 179.108 193.159 179.108C192.647 179.108 192.157 179.308 191.795 179.663C191.434 180.019 191.231 180.502 191.231 181.005V183.868H190.88V181.005C190.88 180.41 191.121 179.84 191.548 179.419C191.975 178.999 192.555 178.762 193.159 178.762C193.764 178.762 194.344 178.999 194.771 179.419C195.198 179.84 195.439 180.41 195.439 181.005L195.436 183.868Z" fill="#D0D5DD"/>
<path d="M204.538 174.562H125.426V174.907H204.538V174.562Z" fill="#002D4E"/>
<path d="M129.103 149.044H128.533V148.244H129.107C129.175 148.463 129.301 148.572 129.495 148.572C129.631 148.572 129.7 148.518 129.7 148.41C129.7 148.382 129.694 148.355 129.681 148.331C129.669 148.307 129.651 148.285 129.628 148.269C129.527 148.201 129.418 148.144 129.305 148.099C129.145 148.033 128.992 147.953 128.847 147.86C128.75 147.794 128.67 147.707 128.612 147.606C128.53 147.462 128.499 147.296 128.523 147.133C128.547 146.97 128.626 146.819 128.746 146.704C128.902 146.572 129.103 146.502 129.309 146.508C129.516 146.503 129.717 146.571 129.878 146.699V146.543H130.455V147.257H129.885C129.816 147.06 129.692 146.962 129.515 146.962C129.391 146.962 129.328 147.013 129.328 147.118C129.326 147.14 129.331 147.162 129.34 147.182C129.349 147.202 129.363 147.219 129.381 147.232C129.487 147.298 129.598 147.356 129.713 147.407C129.885 147.487 130.053 147.577 130.215 147.676C130.264 147.709 130.308 147.748 130.346 147.792C130.389 147.839 130.426 147.891 130.457 147.946C130.522 148.063 130.555 148.194 130.554 148.328C130.555 148.428 130.535 148.528 130.493 148.62C130.452 148.712 130.391 148.794 130.315 148.861C130.235 148.935 130.14 148.992 130.037 149.03C129.934 149.068 129.825 149.086 129.715 149.082C129.495 149.084 129.281 149.015 129.105 148.886L129.103 149.044Z" fill="#D0D5DD"/>
<path d="M136.014 149.118H134.992V148.496H135.194V147.142H134.986V146.52H136.582L136.97 147.523L137.368 146.52H138.95V147.142H138.744V148.496H138.956V149.118H137.579V148.496H137.79V147.045L136.992 149.118H136.598L135.808 147.063V148.495H136.017L136.014 149.118Z" fill="#D0D5DD"/>
<path d="M145.664 149.061H143.152V148.439H143.389V147.085H143.152V146.464H144.66V147.085H144.41V148.439H145.035V148.022H145.664V149.061Z" fill="#D0D5DD"/>
<path d="M170.032 149.044H169.459V148.244H170.032C170.1 148.463 170.226 148.572 170.42 148.572C170.557 148.572 170.625 148.518 170.625 148.41C170.626 148.382 170.619 148.355 170.607 148.331C170.594 148.307 170.576 148.285 170.554 148.269C170.452 148.201 170.344 148.144 170.23 148.099C170.07 148.033 169.917 147.953 169.772 147.86C169.676 147.794 169.595 147.707 169.537 147.606C169.455 147.462 169.424 147.296 169.448 147.133C169.473 146.97 169.551 146.819 169.671 146.704C169.828 146.572 170.029 146.502 170.236 146.508C170.442 146.503 170.643 146.571 170.803 146.699V146.543H171.38V147.257H170.811C170.741 147.06 170.617 146.962 170.44 146.962C170.316 146.962 170.254 147.013 170.254 147.118C170.253 147.14 170.256 147.162 170.266 147.182C170.275 147.202 170.289 147.219 170.306 147.232C170.413 147.297 170.524 147.356 170.638 147.407C170.811 147.487 170.978 147.577 171.14 147.676C171.189 147.709 171.233 147.748 171.271 147.792C171.314 147.839 171.351 147.891 171.382 147.946C171.447 148.063 171.481 148.194 171.479 148.328C171.48 148.428 171.46 148.528 171.419 148.62C171.378 148.712 171.317 148.794 171.241 148.861C171.079 149.01 170.862 149.09 170.64 149.082C170.42 149.084 170.206 149.015 170.03 148.886L170.032 149.044Z" fill="#D0D5DD"/>
<path d="M176.943 149.118H175.921V148.496H176.124V147.142H175.915V146.52H177.508L177.896 147.523L178.295 146.52H179.877V147.142H179.67V148.496H179.883V149.118H178.505V148.496H178.716V147.045L177.919 149.118H177.524L176.735 147.063V148.495H176.943V149.118Z" fill="#D0D5DD"/>
<path d="M186.595 149.061H184.082V148.439H184.32V147.085H184.082V146.464H185.59V147.085H185.34V148.439H185.964V148.022H186.595V149.061Z" fill="#D0D5DD"/>
<path d="M194.182 99.9557L193.891 99.0539C193.869 98.9838 193.821 98.9243 193.756 98.8872C193.692 98.8501 193.616 98.838 193.543 98.8533C193.47 98.8687 193.406 98.9102 193.362 98.97C193.319 99.0297 193.3 99.1032 193.309 99.176H193.293L194.004 113.039C194.006 113.079 194 113.119 193.986 113.156C193.972 113.194 193.95 113.228 193.922 113.257C193.894 113.286 193.861 113.309 193.823 113.325C193.786 113.34 193.746 113.348 193.705 113.348H175.678C175.638 113.348 175.598 113.34 175.561 113.324C175.523 113.309 175.49 113.286 175.462 113.257C175.434 113.228 175.412 113.194 175.398 113.156C175.384 113.119 175.378 113.079 175.38 113.039L176.08 99.405C176.079 99.3984 176.079 99.3917 176.08 99.385L176.117 99.0777C176.129 99.0039 176.111 98.9284 176.069 98.8665C176.026 98.8047 175.961 98.7612 175.887 98.7449C175.813 98.7287 175.735 98.7408 175.67 98.7788C175.604 98.8169 175.556 98.878 175.535 98.9498L175.191 99.9614C175.169 100.028 175.122 100.085 175.06 100.121C174.999 100.157 174.926 100.17 174.855 100.158L169.662 99.2323C169.621 99.2251 169.583 99.2099 169.549 99.1877C169.515 99.1654 169.486 99.1366 169.464 99.1029C169.442 99.0692 169.427 99.0314 169.42 98.9918C169.413 98.9522 169.414 98.9116 169.424 98.8725L170.543 94.3806C171.044 92.3688 172.156 90.5547 173.73 89.1795C175.304 87.8044 177.266 86.9333 179.356 86.6822C179.417 86.6749 179.48 86.6863 179.534 86.715C179.589 86.7437 179.633 86.7882 179.661 86.8426C180.429 88.2969 182.39 89.3314 184.69 89.3314C186.989 89.3314 188.952 88.2969 189.718 86.8426C189.746 86.7882 189.791 86.7437 189.845 86.715C189.9 86.6863 189.962 86.6749 190.024 86.6822C192.113 86.9333 194.076 87.8044 195.65 89.1795C197.224 90.5547 198.336 92.3688 198.837 94.3806L199.956 98.8725C199.966 98.9116 199.967 98.9522 199.96 98.9919C199.954 99.0315 199.939 99.0694 199.916 99.1031C199.894 99.1368 199.865 99.1657 199.831 99.1879C199.797 99.2101 199.758 99.2253 199.718 99.2323L194.517 100.157C194.446 100.169 194.373 100.155 194.311 100.118C194.249 100.081 194.203 100.023 194.182 99.9557Z" fill="#FFB523"/>
<path d="M195.497 93.7794C195.197 91.9309 193.759 90.551 192.264 89.5289C191.806 89.2159 191.332 88.9249 190.859 88.6348C190.54 88.4439 190.247 88.9354 190.568 89.13C192.069 90.0509 193.656 91.032 194.498 92.6238C194.716 93.0338 194.864 93.4756 194.938 93.9321C194.963 94.0848 195.157 94.1697 195.297 94.1325C195.37 94.1101 195.431 94.0611 195.469 93.9954C195.506 93.9297 195.516 93.8524 195.497 93.7794Z" fill="white"/>
<path d="M196.367 95.9161C196.365 95.8403 196.334 95.768 196.281 95.7128C196.226 95.6596 196.152 95.6295 196.075 95.6288C195.93 95.6355 195.767 95.7558 195.784 95.9151C195.817 96.2453 195.851 96.5755 195.881 96.9067C195.883 96.9821 195.914 97.054 195.966 97.109C195.993 97.1357 196.026 97.1569 196.061 97.1713C196.096 97.1857 196.134 97.193 196.173 97.193C196.317 97.1872 196.48 97.066 196.464 96.9067C196.434 96.5765 196.4 96.2463 196.367 95.9161Z" fill="white"/>
<path d="M188.855 109.995C185.955 110.041 183.055 110.046 180.155 110.011C179.343 110.001 178.531 109.988 177.719 109.972C177.344 109.964 177.344 110.538 177.719 110.545C180.619 110.602 183.519 110.619 186.419 110.596C187.231 110.589 188.043 110.58 188.855 110.568C189.231 110.563 189.232 109.989 188.855 109.995Z" fill="white"/>
<path d="M191.499 110.079H190.671C190.594 110.079 190.52 110.109 190.465 110.163C190.411 110.217 190.38 110.289 190.38 110.365C190.38 110.441 190.411 110.514 190.465 110.568C190.52 110.621 190.594 110.652 190.671 110.652H191.499C191.576 110.652 191.65 110.621 191.705 110.568C191.759 110.514 191.79 110.441 191.79 110.365C191.79 110.289 191.759 110.217 191.705 110.163C191.65 110.109 191.576 110.079 191.499 110.079Z" fill="white"/>
<path d="M139.006 91.8441C139.006 91.8441 139.006 91.8526 139.006 91.8565L138.557 99.5424L133.875 115.057H155.862L151.138 99.406L150.689 91.7229H150.699C150.67 91.511 151.02 91.4471 151.095 91.6503L151.289 92.1876C151.308 92.2304 151.341 92.2657 151.382 92.2876C151.424 92.3095 151.472 92.3166 151.519 92.3078L155.049 91.7563C155.075 91.7541 155.099 91.7467 155.122 91.7343C155.144 91.722 155.164 91.7051 155.179 91.6848C155.194 91.6645 155.205 91.6412 155.21 91.6165C155.216 91.5918 155.216 91.5662 155.21 91.5415L154.451 88.8638C153.748 86.3826 151.342 84.5761 148.469 84.2745C148.429 84.2692 148.388 84.2754 148.351 84.2923C148.314 84.3092 148.283 84.3362 148.261 84.3699C147.742 85.2364 146.41 85.8539 144.849 85.8539C143.289 85.8539 141.957 85.2364 141.437 84.3699C141.415 84.3362 141.384 84.3092 141.347 84.2923C141.31 84.2754 141.269 84.2692 141.229 84.2745C138.356 84.5761 135.95 86.3845 135.248 88.8638L134.489 91.5415C134.483 91.5662 134.483 91.5918 134.489 91.6165C134.494 91.6412 134.505 91.6645 134.52 91.6848C134.535 91.7051 134.555 91.722 134.577 91.7343C134.6 91.7467 134.624 91.7541 134.65 91.7563L138.174 92.3078C138.22 92.3165 138.268 92.3096 138.309 92.2883C138.35 92.267 138.383 92.2325 138.402 92.1905L138.635 91.5874C138.712 91.387 139.059 91.4537 139.03 91.6637L139.006 91.8441Z" fill="#3F51F3"/>
<path d="M145.932 86.917C145.065 86.9423 144.197 86.8784 143.343 86.7261C142.954 86.6619 142.57 86.5713 142.193 86.4551C141.915 86.3597 141.628 86.228 141.46 85.978C141.253 85.6716 140.748 85.9589 140.957 86.2643C141.416 86.9447 142.314 87.1079 143.078 87.2529C144.018 87.4326 144.975 87.5113 145.932 87.4877C146.306 87.481 146.307 86.9075 145.932 86.917Z" fill="white"/>
<path d="M148.668 86.2766C148.629 86.2125 148.567 86.1654 148.493 86.1449C148.418 86.1273 148.338 86.1378 148.269 86.1745L147.798 86.4188C147.733 86.4574 147.685 86.5187 147.663 86.5906C147.644 86.6651 147.655 86.7442 147.693 86.811C147.731 86.8759 147.794 86.9235 147.867 86.9437C147.943 86.9613 148.023 86.9508 148.092 86.9141L148.563 86.6689C148.629 86.6313 148.677 86.57 148.697 86.498C148.717 86.4233 148.707 86.3438 148.668 86.2766Z" fill="white"/>
<path d="M50.531 58.576H19.4443C15.0261 58.576 11.4443 62.1577 11.4443 66.576V125.101C11.4443 129.519 15.0261 133.101 19.4443 133.101H50.531C54.9493 133.101 58.531 129.519 58.531 125.101V66.576C58.531 62.1577 54.9493 58.576 50.531 58.576Z" fill="#002D4E"/>
<path d="M47.3237 54.1509H8.75C4.33172 54.1509 0.75 57.7326 0.75 62.1509V122.029C0.75 126.447 4.33172 130.029 8.74999 130.029H47.3237C51.742 130.029 55.3237 126.447 55.3237 122.029V62.1509C55.3237 57.7326 51.742 54.1509 47.3237 54.1509Z" fill="#F2F4F7"/>
<path d="M20.0942 83.6094C20.0942 83.6094 20.0942 83.6199 20.0942 83.6256L19.4909 93.9531L13.1997 114.798H42.7462L36.3997 93.7651L35.7926 83.4462H35.8072C35.7684 83.1599 36.2397 83.075 36.3386 83.3508L36.6005 84.0732C36.6255 84.1307 36.6697 84.178 36.7258 84.2073C36.7819 84.2367 36.8465 84.2462 36.9089 84.2345L41.6532 83.493C41.6874 83.4902 41.7206 83.4803 41.7506 83.4639C41.7806 83.4475 41.8067 83.425 41.8271 83.3979C41.8476 83.3708 41.862 83.3398 41.8693 83.3068C41.8766 83.2738 41.8766 83.2397 41.8695 83.2067L40.8493 79.6089C39.9047 76.2775 36.6723 73.8468 32.8124 73.4422C32.7583 73.4357 32.7035 73.4442 32.6541 73.4668C32.6047 73.4894 32.5628 73.5252 32.5331 73.5701C31.8348 74.7353 30.0455 75.5646 27.9478 75.5646C25.85 75.5646 24.0617 74.7353 23.3625 73.5701C23.3327 73.5252 23.2908 73.4894 23.2414 73.4668C23.192 73.4442 23.1372 73.4357 23.0831 73.4422C19.2232 73.8478 15.9918 76.2784 15.0472 79.6089L14.027 83.2076C14.0197 83.2406 14.0196 83.2748 14.0269 83.3079C14.0341 83.3409 14.0485 83.372 14.0689 83.3992C14.0894 83.4263 14.1156 83.4488 14.1457 83.4651C14.1757 83.4815 14.209 83.4913 14.2432 83.4939L18.9789 84.2354C19.0405 84.2471 19.1044 84.2381 19.1602 84.2097C19.216 84.1813 19.2604 84.1352 19.2863 84.0789L19.5986 83.2677C19.7023 82.9986 20.1679 83.0883 20.1281 83.3708L20.0942 83.6094Z" fill="#7799FF"/>
<path d="M29.4007 76.9854C28.2353 77.0181 27.0697 76.9308 25.9229 76.7249C25.4 76.6389 24.8838 76.5174 24.378 76.3613C24.0036 76.2382 23.6176 76.0559 23.3926 75.7238C23.1152 75.3125 22.4364 75.6981 22.7137 76.1122C23.3315 77.0265 24.5428 77.246 25.5631 77.4406C26.8259 77.6826 28.1117 77.7885 29.3977 77.7565C29.9021 77.7432 29.9021 76.973 29.4007 76.9854Z" fill="white"/>
<path d="M33.077 76.1257C33.0253 76.0393 32.9415 75.976 32.8433 75.9491C32.7414 75.9247 32.634 75.9383 32.5417 75.9873L31.9074 76.3166C31.8201 76.3685 31.756 76.451 31.728 76.5475C31.7144 76.5971 31.7109 76.6489 31.7177 76.6998C31.7246 76.7507 31.7416 76.7998 31.7678 76.8443C31.8191 76.9311 31.903 76.9945 32.0015 77.0208C32.1034 77.0453 32.2108 77.0317 32.3031 76.9827L32.9364 76.6534C32.9813 76.6282 33.0206 76.5945 33.052 76.5542C33.0834 76.5139 33.1064 76.4678 33.1195 76.4187C33.1326 76.3695 33.1356 76.3183 33.1283 76.268C33.121 76.2177 33.1036 76.1693 33.077 76.1257Z" fill="white"/>
<path d="M86.3682 37.2094C96.7813 37.2094 105.223 28.8758 105.223 18.5958C105.223 8.31573 96.7813 -0.0178833 86.3682 -0.0178833C75.9551 -0.0178833 67.5137 8.31573 67.5137 18.5958C67.5137 28.8758 75.9551 37.2094 86.3682 37.2094Z" fill="#3F51F3"/>
<path d="M105.699 92.848C105.699 92.848 108.668 95.606 111.553 97.9593C114.438 100.313 116.061 101.961 115.909 105.68" stroke="white" stroke-width="3" stroke-miterlimit="10" stroke-linecap="round"/>
<path d="M86.4878 93.0379C86.4878 93.0379 91.4339 93.3347 91.847 99.176C92.2601 105.017 90.3632 107.371 90.3632 107.371" stroke="white" stroke-width="3" stroke-miterlimit="10" stroke-linecap="round"/>
<g clip-path="url(#clip1_406_1579)">
<path d="M83.9754 21.1263L86.6426 18.4993M86.6426 18.4993L89.3098 21.1263M86.6426 18.4993V24.41M91.9771 21.6142C92.7916 20.9516 93.3107 19.9494 93.3107 18.8277C93.3107 16.8328 91.6687 15.2156 89.6433 15.2156C89.4975 15.2156 89.3612 15.1408 89.2873 15.0171C88.4177 13.5638 86.8123 12.5887 84.9756 12.5887C82.2136 12.5887 79.9746 14.7939 79.9746 17.5142C79.9746 18.8711 80.5317 20.0999 81.4329 20.9907" stroke="#F5F9FF" stroke-width="1.66667" stroke-linecap="round" stroke-linejoin="round"/>
</g>
</g>
<defs>
<clipPath id="clip0_406_1579">
<rect width="238" height="195" fill="white" transform="translate(0.75)"/>
</clipPath>
<clipPath id="clip1_406_1579">
<rect width="16.0033" height="15.7618" fill="white" transform="translate(78.6411 10.6185)"/>
</clipPath>
</defs>
</svg>
