<svg width="305" height="219" viewBox="0 0 305 219" fill="none" xmlns="http://www.w3.org/2000/svg">
<g clip-path="url(#clip0_406_1668)">
<g opacity="0.2">
<path d="M44.5627 45.3963C41.0214 43.7411 35.1643 46.4321 33.2969 50.3714C29.7319 57.8911 41.2615 68.7816 45.4548 67.6128C50.1405 66.3071 51.0653 48.4361 44.5627 45.3963Z" stroke="#0F31AC" stroke-miterlimit="10" stroke-linecap="round" stroke-dasharray="50 50 50 50 50 50"/>
<path d="M26.522 62.7134C25.2612 61.9833 11.9019 54.2449 4.34133 60.369C-0.966757 64.6694 -1.01788 73.861 2.97134 79.0266C10.8725 89.2586 35.3726 84.6714 37.9145 77.3502C39.6264 72.42 31.5898 65.6491 26.522 62.7134Z" stroke="#0F31AC" stroke-miterlimit="10" stroke-linecap="round" stroke-dasharray="50 50 50 50 50 50"/>
<path d="M81.2951 202.607C114.447 194.363 152.116 185.97 210.609 187.399C243.322 188.199 250.734 178.028 275.527 165.382C297.625 154.112 308.478 131.699 301.812 118.997C295.083 106.173 274.585 111.278 257.799 92.1896C250.154 83.4956 251.499 77.4021 247.086 67.7611C233.111 37.2337 180.723 13.3731 154.891 26.0008C120.763 42.6831 149.94 114.768 111.791 134.456C87.6604 146.912 69.4217 123 45.5954 141.254C33.7897 150.298 19.3509 162.985 18.2343 176.76C18.2343 176.76 16.6708 210.44 81.2951 202.607Z" stroke="url(#paint0_linear_406_1668)" stroke-miterlimit="10" stroke-linecap="round" stroke-dasharray="4 4"/>
<path d="M262.675 170.098C262.675 170.098 256.22 177.275 249.762 187.123C243.941 196.003 239.514 207.97 238.536 217.959C235.794 217.85 232.783 217.748 229.527 217.651C210.244 217.077 182.405 216.718 151.45 216.718C116.258 216.718 85.0947 217.183 65.9506 217.898C65.2913 217.923 64.6465 217.948 64.0162 217.973C40.1153 193.132 -8.01365 149.857 36.278 132.055C36.278 132.055 39.5228 131.226 44.3874 129.446C59.784 123.809 91.4231 108.65 87.9038 80.0594C87.9038 80.0594 86.7048 74.7249 86.7048 67.3022C86.7048 49.9457 93.258 21.1757 137.008 22.4887C163.501 23.285 187.901 34.5894 202.652 52.6834C217.122 70.4304 240.257 92.2634 259.101 79.7998C263.45 76.9223 269.201 75.8547 274.57 77.1202C288.128 80.3172 303.535 96.8515 262.675 170.098Z" fill="#7799FF"/>
</g>
<path d="M58.0444 73.5286H274.333C282.893 73.5286 289.833 80.4682 289.833 89.0286V201.245C289.833 209.806 282.893 216.745 274.333 216.745H58.0444C49.484 216.745 42.5444 209.806 42.5444 201.245V89.0286C42.5444 80.4682 49.484 73.5286 58.0444 73.5286Z" fill="#F2F4F7" stroke="#2633AD"/>
<path d="M128.75 92.3624V92.3624C128.75 90.9454 129.216 89.5938 130.035 88.6036C130.853 87.6148 131.951 87.0714 133.083 87.0714H255.332C256.465 87.0714 257.563 87.6148 258.381 88.6036C259.2 89.5937 259.666 90.9453 259.667 92.3624C259.667 93.7797 259.201 95.1316 258.381 96.122C257.563 97.1111 256.465 97.6547 255.332 97.6547H133.083C132.521 97.6547 131.964 97.521 131.441 97.2592C130.918 96.9974 130.44 96.6119 130.035 96.122C129.629 95.632 129.306 95.0479 129.085 94.4022C128.864 93.7565 128.75 93.0633 128.75 92.3624Z" fill="white" stroke="#273388" stroke-width="0.5"/>
<path d="M255.54 93.9758L253.749 92.1918C253.852 91.9726 253.905 91.7332 253.904 91.491C253.904 90.6612 253.301 89.988 252.556 89.988C251.812 89.988 251.208 90.6612 251.208 91.491C251.208 92.3207 251.812 92.994 252.556 92.994C252.863 92.9926 253.159 92.879 253.388 92.6744L255.164 94.4441C255.19 94.4714 255.222 94.4927 255.258 94.5065C255.293 94.5202 255.331 94.526 255.369 94.5236C255.407 94.5212 255.443 94.5106 255.477 94.4925C255.51 94.4744 255.539 94.4492 255.562 94.4188C255.612 94.3547 255.637 94.2745 255.633 94.1932C255.629 94.1118 255.596 94.0346 255.54 93.9758ZM252.556 92.7207C251.949 92.7207 251.455 92.1698 251.455 91.491C251.455 90.8122 251.951 90.2613 252.556 90.2613C253.162 90.2613 253.658 90.8122 253.658 91.491C253.658 92.1698 253.169 92.7207 252.556 92.7207Z" fill="#ACBCF8"/>
<path d="M251.747 90.8895C251.747 90.8895 251.478 91.5187 251.747 92.0377" stroke="white" stroke-width="0.97" stroke-miterlimit="10" stroke-linecap="round"/>
<path d="M269.063 92.9158H274.091L275.043 89.0701C275.059 89.0071 275.06 88.9412 275.047 88.8776C275.033 88.814 275.005 88.7544 274.965 88.7031C274.925 88.6519 274.874 88.6105 274.816 88.5821C274.757 88.5536 274.693 88.5389 274.628 88.539H267.979L269.063 92.9158ZM273.82 92.5687H269.335L268.423 88.8861H274.628C274.64 88.8861 274.653 88.8888 274.664 88.8942C274.675 88.8996 274.684 88.9074 274.692 88.9171C274.699 88.9267 274.705 88.938 274.707 88.95C274.71 88.9621 274.709 88.9745 274.706 88.9864L273.82 92.5687Z" fill="#829CF8"/>
<path d="M269.009 93.4711H274.437C274.461 93.473 274.485 93.47 274.507 93.4621C274.53 93.4543 274.551 93.4418 274.569 93.4255C274.586 93.4092 274.6 93.3894 274.61 93.3674C274.62 93.3454 274.624 93.3216 274.624 93.2976C274.624 93.2735 274.62 93.2498 274.61 93.2278C274.6 93.2058 274.586 93.186 274.569 93.1697C274.551 93.1534 274.53 93.1409 274.507 93.133C274.485 93.1252 274.461 93.1221 274.437 93.124H269.013C268.842 93.124 268.743 93.0447 268.743 93.0193C268.743 92.994 268.842 92.9158 269.013 92.9158H273.985C274.009 92.9177 274.033 92.9146 274.056 92.9067C274.079 92.8989 274.099 92.8864 274.117 92.8701C274.135 92.8538 274.149 92.834 274.158 92.812C274.168 92.79 274.173 92.7662 274.173 92.7422C274.173 92.7182 274.168 92.6944 274.158 92.6724C274.149 92.6504 274.135 92.6306 274.117 92.6143C274.099 92.598 274.079 92.5855 274.056 92.5777C274.033 92.5698 274.009 92.5668 273.985 92.5687H269.013C268.667 92.5687 268.396 92.767 268.396 93.0193C268.396 93.2717 268.663 93.4711 269.009 93.4711Z" fill="#829CF8"/>
<path d="M269.175 92.8199C269.189 92.8215 269.204 92.8215 269.218 92.8199C269.262 92.8085 269.301 92.78 269.324 92.7405C269.348 92.7011 269.355 92.654 269.344 92.6095L268.145 87.8624C268.115 87.7451 268.047 87.6412 267.951 87.5667C267.855 87.4922 267.738 87.4513 267.617 87.4503H266.657C266.633 87.4484 266.609 87.4515 266.586 87.4593C266.563 87.4672 266.542 87.4797 266.525 87.496C266.507 87.5123 266.493 87.5321 266.483 87.5541C266.474 87.5761 266.469 87.5998 266.469 87.6239C266.469 87.6479 266.474 87.6717 266.483 87.6937C266.493 87.7157 266.507 87.7355 266.525 87.7518C266.542 87.7681 266.563 87.7806 266.586 87.7884C266.609 87.7963 266.633 87.7993 266.657 87.7974H267.617C267.661 87.7976 267.704 87.8124 267.738 87.8395C267.773 87.8666 267.798 87.9046 267.808 87.9473L269.007 92.6943C269.017 92.7308 269.039 92.7628 269.07 92.7854C269.1 92.8081 269.137 92.8202 269.175 92.8199Z" fill="#829CF8"/>
<path d="M273.747 95.264C273.927 95.264 274.103 95.2105 274.253 95.1104C274.403 95.0103 274.52 94.8679 274.589 94.7014C274.657 94.5349 274.675 94.3517 274.64 94.1749C274.605 93.9981 274.518 93.8358 274.391 93.7083C274.264 93.5809 274.101 93.4941 273.925 93.4589C273.748 93.4238 273.565 93.4418 273.399 93.5108C273.232 93.5797 273.09 93.6965 272.99 93.8464C272.89 93.9963 272.836 94.1725 272.836 94.3527C272.837 94.5943 272.933 94.8259 273.104 94.9967C273.274 95.1676 273.506 95.2637 273.747 95.264ZM273.747 93.7885C273.859 93.7885 273.968 93.8216 274.06 93.8836C274.153 93.9456 274.225 94.0337 274.268 94.1368C274.311 94.2399 274.322 94.3533 274.3 94.4628C274.278 94.5722 274.225 94.6727 274.146 94.7516C274.067 94.8305 273.966 94.8843 273.857 94.906C273.748 94.9278 273.634 94.9166 273.531 94.8739C273.428 94.8312 273.34 94.7589 273.278 94.6661C273.216 94.5733 273.183 94.4643 273.183 94.3527C273.183 94.2783 273.197 94.2045 273.225 94.1356C273.253 94.0667 273.295 94.0041 273.347 93.9512C273.4 93.8984 273.462 93.8564 273.531 93.8278C273.599 93.7991 273.673 93.7842 273.747 93.7841V93.7885Z" fill="#829CF8"/>
<path d="M269.32 95.264C269.5 95.264 269.677 95.2105 269.826 95.1104C269.976 95.0103 270.093 94.8679 270.162 94.7014C270.231 94.5349 270.249 94.3517 270.214 94.1749C270.178 93.9981 270.092 93.8358 269.964 93.7083C269.837 93.5809 269.675 93.4941 269.498 93.4589C269.321 93.4238 269.138 93.4418 268.972 93.5108C268.805 93.5797 268.663 93.6965 268.563 93.8464C268.463 93.9963 268.41 94.1725 268.41 94.3527C268.41 94.5943 268.506 94.8259 268.677 94.9967C268.847 95.1676 269.079 95.2637 269.32 95.264ZM269.32 93.7885C269.432 93.7885 269.541 93.8216 269.634 93.8836C269.726 93.9456 269.799 94.0337 269.841 94.1368C269.884 94.2399 269.895 94.3533 269.873 94.4628C269.852 94.5722 269.798 94.6727 269.719 94.7516C269.64 94.8305 269.54 94.8843 269.43 94.906C269.321 94.9278 269.208 94.9166 269.105 94.8739C269.002 94.8312 268.914 94.7589 268.852 94.6661C268.79 94.5733 268.757 94.4643 268.757 94.3527C268.756 94.2783 268.77 94.2045 268.799 94.1356C268.827 94.0667 268.868 94.0041 268.92 93.9512C268.973 93.8984 269.035 93.8564 269.104 93.8278C269.172 93.7991 269.246 93.7842 269.32 93.7841V93.7885Z" fill="#829CF8"/>
<path d="M119.625 91.0899H114.009C113.863 91.0899 113.723 91.0318 113.62 90.9285C113.517 90.8252 113.458 90.6851 113.458 90.5389C113.458 90.3928 113.517 90.2527 113.62 90.1493C113.723 90.046 113.863 89.988 114.009 89.988H119.625C119.771 89.988 119.911 90.046 120.015 90.1493C120.118 90.2527 120.176 90.3928 120.176 90.5389C120.176 90.6851 120.118 90.8252 120.015 90.9285C119.911 91.0318 119.771 91.0899 119.625 91.0899Z" fill="#9EBEFF"/>
<path d="M119.625 93.0737H114.009C113.863 93.0737 113.723 93.0157 113.62 92.9123C113.517 92.809 113.458 92.6689 113.458 92.5228C113.458 92.3766 113.517 92.2365 113.62 92.1332C113.723 92.0298 113.863 91.9718 114.009 91.9718H119.625C119.771 91.9718 119.911 92.0298 120.015 92.1332C120.118 92.2365 120.176 92.3766 120.176 92.5228C120.176 92.6689 120.118 92.809 120.015 92.9123C119.911 93.0157 119.771 93.0737 119.625 93.0737Z" fill="#9EBEFF"/>
<path d="M119.625 95.0575H114.009C113.863 95.0575 113.723 94.9994 113.62 94.8961C113.517 94.7928 113.458 94.6526 113.458 94.5065C113.458 94.3604 113.517 94.2203 113.62 94.1169C113.723 94.0136 113.863 93.9556 114.009 93.9556H119.625C119.771 93.9556 119.911 94.0136 120.015 94.1169C120.118 94.2203 120.176 94.3604 120.176 94.5065C120.176 94.6526 120.118 94.7928 120.015 94.8961C119.911 94.9994 119.771 95.0575 119.625 95.0575Z" fill="#9EBEFF"/>
<path d="M60.362 95.4975H57.25V89.988H60.362V90.7494H58.1497V92.248H60.2233V93.0017H58.1497V94.7306H60.362V95.4975Z" fill="#7799FF"/>
<path d="M63.1371 95.5729C62.5072 95.5729 62.03 95.3892 61.7055 95.0219C61.381 94.6546 61.2173 94.1268 61.2144 93.4385C61.2144 92.7377 61.3854 92.1988 61.7275 91.822C62.0696 91.4451 62.5645 91.2571 63.212 91.2578C63.6204 91.2513 64.0254 91.3348 64.398 91.5024L64.1304 92.2142C63.8377 92.0861 63.5244 92.0115 63.2054 91.9939C62.4852 91.9939 62.1251 92.4714 62.1251 93.4263C62.1251 93.8936 62.2146 94.2443 62.3938 94.4787C62.487 94.5967 62.6075 94.6904 62.7448 94.7518C62.882 94.8132 63.0321 94.8405 63.1822 94.8313C63.574 94.8319 63.9592 94.7305 64.3 94.5371V95.3084C64.1429 95.4009 63.9724 95.4682 63.7945 95.5079C63.5783 95.5531 63.3579 95.5749 63.1371 95.5729Z" fill="#7799FF"/>
<path d="M68.9673 93.4073C68.9673 94.0883 68.7929 94.6194 68.4442 95.0006C68.0955 95.3819 67.6098 95.5729 66.9873 95.5736C66.6261 95.5808 66.2697 95.4894 65.9565 95.3092C65.6557 95.1322 65.4154 94.8683 65.2672 94.5522C65.0999 94.1942 65.0174 93.8024 65.026 93.4073C65.026 92.7314 65.1993 92.2043 65.5458 91.826C65.8923 91.4477 66.3805 91.2582 67.0104 91.2574C67.6117 91.2574 68.0889 91.4514 68.442 91.8392C68.7951 92.2271 68.9702 92.7498 68.9673 93.4073ZM65.9367 93.4073C65.9367 94.3696 66.292 94.8504 67.0027 94.8497C67.7133 94.8489 68.0646 94.3681 68.0566 93.4073C68.0566 92.456 67.7027 91.9785 66.995 91.9748C66.6239 91.9748 66.3541 92.0982 66.1878 92.3439C66.0215 92.5897 65.9367 92.9478 65.9367 93.4073Z" fill="#7799FF"/>
<path d="M73.4909 95.4968H72.6033V92.9283C72.6033 92.6102 72.5431 92.3726 72.4227 92.2154C72.3542 92.1338 72.2671 92.0698 72.1689 92.0288C72.0706 91.9878 71.9639 91.9709 71.8578 91.9795C71.5164 91.9795 71.2661 92.0897 71.1067 92.3101C70.9474 92.5305 70.8678 92.9 70.8678 93.4186V95.4935H69.9868V91.3283H70.6795L70.8039 91.8793H70.8491C70.966 91.6787 71.1411 91.5184 71.3512 91.4198C71.577 91.3104 71.825 91.2549 72.0758 91.2578C72.7153 91.2578 73.1392 91.476 73.3477 91.9123H73.4083C73.5323 91.706 73.7121 91.5391 73.927 91.4308C74.1661 91.3116 74.4307 91.2522 74.6978 91.2578C75.1941 91.2578 75.556 91.3834 75.7836 91.6346C76.0112 91.8859 76.1246 92.2686 76.1239 92.7828V95.498H75.2429V92.9294C75.2429 92.6113 75.182 92.3737 75.0601 92.2165C74.9914 92.1349 74.9041 92.0709 74.8057 92.0299C74.7072 91.9889 74.6004 91.972 74.4941 91.9807C74.1494 91.9807 73.8983 92.0908 73.7387 92.3024C73.579 92.514 73.4997 92.8468 73.4997 93.2941L73.4909 95.4968Z" fill="#7799FF"/>
<path d="M80.8616 95.4969H79.9729V92.9283C79.9729 92.6102 79.9127 92.3726 79.7923 92.2154C79.7242 92.1334 79.6372 92.0691 79.5388 92.0281C79.4404 91.987 79.3336 91.9704 79.2274 91.9796C78.886 91.9796 78.6357 92.0898 78.4764 92.3102C78.3171 92.5305 78.2374 92.9 78.2374 93.4187V95.4936H77.3564V91.3284H78.0491L78.1736 91.8793H78.2187C78.3362 91.6792 78.5112 91.5191 78.7209 91.4198C78.9466 91.3105 79.1947 91.2551 79.4455 91.2578C80.0849 91.2578 80.5089 91.476 80.7174 91.9124H80.7779C80.9024 91.706 81.0826 91.5391 81.2977 91.4308C81.5368 91.3114 81.8014 91.252 82.0686 91.2578C82.5648 91.2578 82.9268 91.3834 83.1544 91.6347C83.3819 91.8859 83.4954 92.2687 83.4946 92.7829V95.498H82.6137V92.9294C82.6137 92.6113 82.5527 92.3737 82.4309 92.2165C82.3622 92.1349 82.2749 92.0708 82.1765 92.0298C82.078 91.9888 81.9711 91.9719 81.8648 91.9807C81.5213 91.9807 81.2691 92.0909 81.1105 92.3024C80.9519 92.514 80.8715 92.8468 80.8715 93.2942L80.8616 95.4969Z" fill="#7799FF"/>
<path d="M86.5404 95.5736C85.8936 95.5736 85.3874 95.3845 85.0218 95.0061C84.6562 94.6278 84.4727 94.1077 84.4712 93.4458C84.4712 92.7649 84.6404 92.2301 84.9789 91.8415C85.3173 91.4528 85.7827 91.2582 86.3752 91.2574C86.9258 91.2574 87.3601 91.4242 87.6779 91.7577C87.9958 92.0912 88.1551 92.5507 88.1559 93.1362V93.6144H85.3819C85.394 94.0188 85.5041 94.3296 85.7123 94.5466C85.9204 94.7637 86.2078 94.8772 86.5822 94.8772C86.8131 94.8787 87.0435 94.8555 87.2694 94.8078C87.5041 94.7537 87.7329 94.6762 87.9521 94.5764V95.2948C87.7423 95.3966 87.5202 95.4706 87.2914 95.5152C87.0434 95.5579 86.792 95.5774 86.5404 95.5736ZM86.3785 91.9274C86.2535 91.9219 86.1287 91.9429 86.0124 91.989C85.896 92.0352 85.7908 92.1054 85.7035 92.1952C85.5174 92.4131 85.4106 92.6877 85.4006 92.9742H87.2903C87.2852 92.6304 87.2022 92.37 87.0414 92.193C86.9569 92.1031 86.8538 92.0328 86.7393 91.987C86.6248 91.9411 86.5017 91.9208 86.3785 91.9274Z" fill="#7799FF"/>
<path d="M91.2753 91.2579C91.4231 91.2549 91.5707 91.2675 91.7158 91.2953L91.6299 92.1196C91.5014 92.0893 91.3699 92.0741 91.2379 92.0744C91.0782 92.0682 90.919 92.0959 90.7707 92.1558C90.6225 92.2156 90.4886 92.3061 90.3778 92.4215C90.153 92.666 90.0342 92.9897 90.0475 93.3217V95.498H89.1665V91.3328H89.8592L89.9759 92.0678H90.0211C90.1492 91.8289 90.3346 91.6256 90.5606 91.476C90.7721 91.3341 91.0208 91.2582 91.2753 91.2579Z" fill="#7799FF"/>
<path d="M94.1659 95.5729C93.536 95.5729 93.0588 95.3892 92.7343 95.0219C92.4098 94.6546 92.2461 94.1268 92.2432 93.4385C92.2432 92.7377 92.4146 92.1988 92.7574 91.822C93.1003 91.4451 93.5951 91.2571 94.2419 91.2578C94.6503 91.2513 95.0553 91.3348 95.4279 91.5024L95.1603 92.2142C94.8672 92.0861 94.5535 92.0114 94.2342 91.9939C93.514 91.9939 93.1539 92.4714 93.1539 93.4263C93.1539 93.8936 93.2438 94.2443 93.4237 94.4787C93.5169 94.5968 93.6373 94.6905 93.7746 94.7519C93.9119 94.8133 94.062 94.8406 94.2121 94.8313C94.6039 94.8319 94.9891 94.7305 95.3299 94.5371V95.3084C95.1725 95.401 95.0015 95.4682 94.8233 95.5079C94.6071 95.5532 94.3867 95.575 94.1659 95.5729Z" fill="#7799FF"/>
<path d="M98.123 95.5736C97.4755 95.5736 96.9689 95.3845 96.6033 95.0061C96.2377 94.6278 96.0542 94.1077 96.0527 93.4458C96.0527 92.7649 96.2223 92.2301 96.5615 91.8415C96.9007 91.4528 97.3661 91.2582 97.9578 91.2574C98.507 91.2574 98.9409 91.4242 99.2595 91.7577C99.5781 92.0912 99.7374 92.5507 99.7374 93.1362V93.6144H96.9634C96.9767 94.0192 97.0868 94.3299 97.2938 94.5466C97.4986 94.767 97.7894 94.8772 98.1627 94.8772C98.3935 94.8787 98.6239 94.8555 98.8498 94.8078C99.0846 94.7537 99.3133 94.6762 99.5326 94.5764V95.2948C99.3248 95.3959 99.105 95.47 98.8785 95.5152C98.629 95.558 98.3761 95.5776 98.123 95.5736ZM97.9611 91.9274C97.8359 91.9218 97.711 91.9428 97.5945 91.9889C97.4779 92.0351 97.3725 92.1054 97.285 92.1952C97.0989 92.4131 96.9921 92.6877 96.9822 92.9742H98.8718C98.866 92.6304 98.783 92.37 98.623 92.193C98.5385 92.1033 98.4356 92.0331 98.3213 91.9872C98.207 91.9413 98.0841 91.9209 97.9611 91.9274Z" fill="#7799FF"/>
<path d="M106.298 109.589H57.8007C56.3192 109.589 55.1182 110.791 55.1182 112.273V193.735C55.1182 195.217 56.3192 196.419 57.8007 196.419H106.298C107.78 196.419 108.981 195.217 108.981 193.735V112.273C108.981 110.791 107.78 109.589 106.298 109.589Z" fill="white"/>
<path d="M106.778 160.821V114.334C106.778 112.93 105.641 111.793 104.239 111.793H59.8598C58.4574 111.793 57.3204 112.93 57.3204 114.334V160.821C57.3204 162.224 58.4574 163.362 59.8598 163.362H104.239C105.641 163.362 106.778 162.224 106.778 160.821Z" fill="#EDF4FF"/>
<path d="M64.5952 173.478C66.0543 173.367 67.5134 173.305 68.9726 173.264C69.7016 173.238 70.4317 173.233 71.1607 173.217L73.3499 173.202L75.538 173.216C76.2681 173.232 76.9971 173.237 77.7272 173.263C79.1864 173.303 80.6455 173.363 82.1046 173.483C80.6455 173.593 79.1864 173.658 77.7272 173.698C76.9971 173.724 76.2681 173.729 75.538 173.744L73.3499 173.758L71.1607 173.743C70.4317 173.729 69.7016 173.723 68.9726 173.698C67.5178 173.652 66.0543 173.592 64.5952 173.478Z" fill="#829CF8"/>
<path d="M64.5952 177.004C67.5046 176.893 70.4129 176.831 73.3224 176.79C74.7771 176.765 76.2318 176.759 77.6854 176.744L82.0495 176.728L86.4125 176.742C87.8673 176.758 89.322 176.763 90.7767 176.789C93.6861 176.83 96.5944 176.889 99.5038 177.009C96.5944 177.119 93.6861 177.184 90.7767 177.224C89.322 177.25 87.8673 177.255 86.4125 177.27L82.0495 177.285L77.6854 177.269C76.2318 177.255 74.7771 177.249 73.3224 177.224C70.4129 177.178 67.5046 177.118 64.5952 177.004Z" fill="#829CF8"/>
<path d="M79.7366 186.288L80.7872 185.764L81.83 186.304L81.6384 185.174L82.4907 184.382L81.3223 184.208L80.8059 183.178L80.2751 184.2L79.1045 184.357L79.9447 185.161L79.7366 186.288Z" fill="#DEE4FC"/>
<path d="M76.1591 186.288L77.2096 185.764L78.2525 186.304L78.0609 185.174L78.9132 184.382L77.7448 184.208L77.2284 183.178L76.6976 184.2L75.5259 184.357L76.3672 185.161L76.1591 186.288Z" fill="#FDB606"/>
<path d="M72.5149 186.288L73.5655 185.764L74.6083 186.304L74.4167 185.174L75.2702 184.382L74.1007 184.208L73.5853 183.178L73.0545 184.2L71.8828 184.357L72.723 185.161L72.5149 186.288Z" fill="#FDB606"/>
<path d="M68.8725 186.288L69.923 185.764L70.9659 186.304L70.7743 185.174L71.6266 184.382L70.4571 184.208L69.9417 183.178L69.411 184.2L68.2393 184.357L69.0806 185.161L68.8725 186.288Z" fill="#FDB606"/>
<path d="M65.2284 186.288L66.279 185.764L67.3218 186.304L67.1302 185.174L67.9825 184.382L66.8142 184.208L66.2977 183.178L65.7669 184.2L64.5952 184.357L65.4365 185.161L65.2284 186.288Z" fill="#FDB606"/>
<path d="M276.18 109.334H227.683C226.201 109.334 225 110.536 225 112.019V193.481C225 194.963 226.201 196.165 227.683 196.165H276.18C277.662 196.165 278.863 194.963 278.863 193.481V112.019C278.863 110.536 277.662 109.334 276.18 109.334Z" fill="white"/>
<path d="M276.66 160.567V114.079C276.66 112.676 275.523 111.538 274.121 111.538H229.742C228.339 111.538 227.202 112.676 227.202 114.079V160.567C227.202 161.97 228.339 163.108 229.742 163.108H274.121C275.523 163.108 276.66 161.97 276.66 160.567Z" fill="#EDF4FF"/>
<path d="M234.477 173.223C236.366 173.113 238.257 173.05 240.148 173.009C241.093 172.984 242.038 172.979 242.983 172.963L245.819 172.948L248.655 172.962C249.6 172.977 250.544 172.983 251.49 173.008C253.38 173.049 255.271 173.109 257.162 173.229C255.271 173.339 253.38 173.404 251.49 173.444C250.544 173.47 249.6 173.474 248.655 173.49L245.819 173.504L242.983 173.489C242.038 173.474 241.093 173.469 240.148 173.444C238.257 173.397 236.366 173.338 234.477 173.223Z" fill="#829CF8"/>
<path d="M234.477 176.749C237.385 176.639 240.294 176.576 243.204 176.536C244.657 176.51 246.112 176.505 247.567 176.489L251.931 176.474L256.294 176.488C257.749 176.504 259.203 176.509 260.658 176.534C263.566 176.575 266.476 176.635 269.385 176.755C266.476 176.865 263.566 176.93 260.658 176.97C259.203 176.996 257.749 177.001 256.294 177.016L251.931 177.03L247.567 177.015C246.112 177.001 244.657 176.995 243.204 176.97C240.291 176.923 237.385 176.864 234.477 176.749Z" fill="#829CF8"/>
<path d="M249.593 186.034L250.644 185.509L251.686 186.049L251.495 184.92L252.347 184.128L251.179 183.954L250.662 182.923L250.132 183.946L248.961 184.102L249.801 184.907L249.593 186.034Z" fill="#FDB606"/>
<path d="M246.015 186.034L247.066 185.509L248.108 186.049L247.917 184.92L248.769 184.128L247.601 183.954L247.084 182.923L246.554 183.946L245.382 184.102L246.223 184.907L246.015 186.034Z" fill="#FDB606"/>
<path d="M242.371 186.034L243.422 185.509L244.465 186.049L244.273 184.92L245.127 184.128L243.957 183.954L243.442 182.923L242.911 183.946L241.739 184.102L242.579 184.907L242.371 186.034Z" fill="#FDB606"/>
<path d="M238.729 186.034L239.779 185.509L240.821 186.049L240.631 184.92L241.483 184.128L240.314 183.954L239.798 182.923L239.267 183.946L238.096 184.102L238.937 184.907L238.729 186.034Z" fill="#FDB606"/>
<path d="M235.084 186.034L236.135 185.509L237.178 186.049L236.986 184.92L237.839 184.128L236.67 183.954L236.154 182.923L235.623 183.946L234.451 184.102L235.293 184.907L235.084 186.034Z" fill="#FDB606"/>
<path d="M251.892 140.078L251.861 140.154L251.757 140.417L251.226 141.156L249.794 143.14L248.632 144.757L247.311 146.592L246.226 148.102L245.345 149.33C240.745 151.534 240.742 148.415 241.105 146.484C241.189 146.033 241.303 145.587 241.447 145.151L241.842 144.169L242.401 142.782L242.969 141.378L243.385 140.347C243.54 139.964 243.662 139.569 243.747 139.165C243.831 138.774 243.882 138.375 243.899 137.975C243.907 137.79 243.907 137.603 243.899 137.418C243.89 137.197 243.873 136.977 243.843 136.757C243.784 136.299 243.681 135.849 243.536 135.411V135.401L243.2 134.777L242.209 132.933L241.342 131.319L240.311 129.406L239.54 127.973C239.517 127.932 239.496 127.889 239.478 127.845C239.287 127.418 239.265 126.934 239.414 126.491C239.564 126.048 239.875 125.677 240.285 125.452L244.019 123.401C244.396 123.193 244.834 123.122 245.257 123.201C245.681 123.279 246.064 123.502 246.342 123.831C246.449 123.956 246.539 124.096 246.608 124.245L247.395 125.929L248.153 127.55L249.119 129.616L249.854 131.191L250.892 133.41L251.629 134.986L251.749 135.24C252.102 135.994 252.298 136.812 252.322 137.644C252.347 138.476 252.2 139.305 251.892 140.078Z" fill="#7799FF"/>
<path d="M251.891 140.078L251.86 140.154L249.477 138.831C248.461 138.27 247.319 137.975 246.157 137.975H243.905C243.913 137.79 243.913 137.603 243.905 137.418H245.874C247.213 137.418 248.522 137.026 249.64 136.291L251.634 134.987L251.754 135.241C252.106 135.995 252.301 136.813 252.324 137.645C252.348 138.477 252.201 139.305 251.891 140.078Z" fill="#9BB0F9"/>
<path d="M250.897 133.411L243.849 136.756C243.79 136.299 243.688 135.849 243.542 135.411V135.401L243.206 134.777L249.86 131.192L250.897 133.411Z" fill="#9BB0F9"/>
<path d="M249.125 129.617L242.214 132.933L241.347 131.319L248.16 127.551L249.125 129.617Z" fill="#9BB0F9"/>
<path d="M247.4 125.93L240.315 129.406L239.544 127.973C239.521 127.932 239.5 127.889 239.481 127.845L246.345 123.831C246.453 123.956 246.543 124.096 246.612 124.246L247.4 125.93Z" fill="#9BB0F9"/>
<path d="M251.225 141.157L249.793 143.14C248.283 142.179 245.674 140.907 242.966 141.377L243.382 140.345C243.538 139.963 243.659 139.568 243.744 139.164C245.559 139.323 248.925 139.786 251.225 141.157Z" fill="#9BB0F9"/>
<path d="M248.636 144.761L247.315 146.595C245.919 145.662 243.861 144.502 241.844 144.171L242.403 142.784C243.95 142.832 246.387 143.185 248.636 144.761Z" fill="#9BB0F9"/>
<path d="M246.238 148.105L245.357 149.334C240.757 151.538 240.754 148.418 241.117 146.487C242.627 146.678 244.765 147.114 246.238 148.105Z" fill="#9BB0F9"/>
<path d="M262.908 145.173L262.853 145.232L262.66 145.44L261.897 145.938L259.849 147.274L258.182 148.363L256.292 149.598L254.736 150.613L253.468 151.439C248.384 151.83 249.504 148.923 250.542 147.252C250.784 146.861 251.051 146.487 251.342 146.132L252.064 145.36L253.087 144.268L254.123 143.166L254.883 142.355C255.44 141.762 255.892 141.076 256.218 140.33C256.293 140.159 256.36 139.985 256.422 139.811C256.495 139.602 256.558 139.388 256.61 139.171C256.72 138.723 256.786 138.265 256.809 137.804V137.794L256.721 137.093L256.461 135.013L256.234 133.194L255.965 131.038L255.763 129.425C255.757 129.378 255.752 129.33 255.751 129.283C255.728 128.816 255.882 128.357 256.181 127.998C256.481 127.639 256.904 127.405 257.367 127.343L261.591 126.781C262.017 126.723 262.451 126.815 262.817 127.041C263.184 127.268 263.461 127.614 263.6 128.022C263.656 128.177 263.689 128.339 263.699 128.503L263.826 130.359L263.947 132.144L264.101 134.419L264.22 136.154L264.387 138.598L264.504 140.333L264.524 140.614C264.581 141.444 264.467 142.277 264.189 143.061C263.911 143.846 263.475 144.564 262.908 145.173Z" fill="#7799FF"/>
<path d="M262.908 145.173L262.853 145.233L261.105 143.139C260.36 142.247 259.401 141.559 258.318 141.14L256.218 140.327C256.293 140.156 256.36 139.982 256.422 139.808L258.257 140.519C259.505 141.003 260.868 141.111 262.176 140.83L264.506 140.33L264.525 140.611C264.583 141.442 264.468 142.275 264.19 143.06C263.912 143.845 263.475 144.564 262.908 145.173Z" fill="#9BB0F9"/>
<path d="M264.388 138.597L256.61 139.17C256.72 138.722 256.787 138.264 256.81 137.803V137.794L256.722 137.092L264.221 136.153L264.388 138.597Z" fill="#9BB0F9"/>
<path d="M264.104 134.418L256.463 135.012L256.237 133.193L263.95 132.143L264.104 134.418Z" fill="#9BB0F9"/>
<path d="M263.827 130.358L255.966 131.037L255.764 129.425C255.759 129.377 255.753 129.329 255.752 129.282L263.601 128.021C263.657 128.176 263.69 128.338 263.701 128.502L263.827 130.358Z" fill="#9BB0F9"/>
<path d="M261.898 145.938L259.849 147.274C258.788 145.832 256.814 143.704 254.123 143.165L254.883 142.354C255.165 142.054 255.421 141.729 255.647 141.383C257.276 142.18 260.248 143.824 261.898 145.938Z" fill="#9BB0F9"/>
<path d="M258.183 148.363L256.292 149.598C255.327 148.223 253.826 146.403 252.064 145.361L253.087 144.269C254.511 144.867 256.654 146.081 258.183 148.363Z" fill="#9BB0F9"/>
<path d="M254.736 150.613L253.468 151.439C248.384 151.829 249.504 148.923 250.542 147.252C251.886 147.978 253.726 149.158 254.736 150.613Z" fill="#9BB0F9"/>
<path d="M99.2327 144.161L98.8715 152.303L98.8616 152.514L98.8176 153.497C98.8108 153.653 98.7439 153.801 98.6309 153.909C98.5178 154.018 98.3674 154.078 98.2108 154.078H95.4357C95.2745 154.078 95.1199 154.014 95.0059 153.9C94.8919 153.786 94.8279 153.631 94.8279 153.47V150.001C94.8279 150.001 94.0757 134.712 91.5242 133.202C91.489 133.18 91.4522 133.16 91.4141 133.143L90.3503 151.98C90.3401 152.159 90.2609 152.327 90.1295 152.449C89.998 152.571 89.8245 152.636 89.6455 152.633L83.0614 152.493L79.9614 152.427L80.3469 127.358C81.1213 127.04 81.8567 126.633 82.5383 126.146C83.9555 125.143 85.6019 123.492 85.9631 121.077C85.9631 121.077 89.7865 121.077 92.6684 122.927L92.6783 122.934C93.7949 123.653 94.7706 124.651 95.3212 126.036C95.319 126.035 99.0125 134.575 99.2327 144.161Z" fill="#E09DA9"/>
<path d="M84.3665 126.641L83.0616 152.492H82.6762L74.4446 152.53C74.2685 152.531 74.0987 152.465 73.9698 152.345C73.8409 152.225 73.7626 152.06 73.7508 151.885L72.4734 132.812C72.4734 132.812 72.4459 132.86 72.3963 132.957C72.3611 133.029 72.3137 133.125 72.2576 133.249C71.6706 134.529 70.0551 138.681 69.6146 146.472L69.1929 152.3L69.1774 152.51L69.1048 153.511C69.0936 153.664 69.0248 153.808 68.9123 153.912C68.7997 154.017 68.6517 154.075 68.498 154.075H65.7901C65.6338 154.075 65.4835 154.015 65.3704 153.907C65.2572 153.799 65.1899 153.652 65.1822 153.496L65.136 152.51L65.125 152.261L64.8794 147.023C64.8794 147.023 64.8794 137.877 66.311 132.808C66.311 132.808 66.9904 126.406 71.1916 123.07C71.1976 123.064 71.2043 123.059 71.2114 123.054C72.7531 121.837 74.7573 121.032 77.3782 121.098C77.5786 121.098 77.7813 121.113 77.9883 121.128C77.9883 121.128 77.9002 124.487 82.5473 126.138C83.1414 126.348 83.7493 126.516 84.3665 126.641Z" fill="#E09DA9"/>
<path opacity="0.1" d="M72.3917 132.957C72.3564 133.029 72.3091 133.124 72.2529 133.249C72.6582 127.205 71.8377 124.351 71.1825 123.073C71.1253 122.963 71.0724 122.859 71.0151 122.77C71.0812 122.863 71.1429 122.959 71.2023 123.057C72.9136 125.846 72.6802 130.462 72.3917 132.957Z" fill="black"/>
<path opacity="0.1" d="M92.6739 122.933C92.0132 124.134 91.1135 126.959 91.5264 133.202C91.4912 133.179 91.4544 133.16 91.4163 133.143C91.1146 130.662 90.8217 125.769 92.6673 122.926C92.6992 122.873 92.7345 122.822 92.7708 122.77C92.7356 122.821 92.7058 122.875 92.6739 122.933Z" fill="black"/>
<path opacity="0.1" d="M84.3663 126.641L83.0613 152.492H82.6759L83.8157 127.082C78.4781 125.924 77.4671 122.919 77.3691 121.102C77.5696 121.102 77.7722 121.116 77.9792 121.131C77.9792 121.131 77.8691 125.319 84.3663 126.641Z" fill="black"/>
<path opacity="0.1" d="M69.1841 152.303L69.1687 152.514H65.1272L65.1162 152.265L69.1841 152.303Z" fill="black"/>
<path opacity="0.1" d="M98.8674 152.303L98.8575 152.514H94.8237V152.266L98.8674 152.303Z" fill="black"/>
<path d="M82.5603 128.744C82.8948 128.744 83.1659 128.473 83.1659 128.138C83.1659 127.804 82.8948 127.532 82.5603 127.532C82.2258 127.532 81.9546 127.804 81.9546 128.138C81.9546 128.473 82.2258 128.744 82.5603 128.744Z" fill="#E07084"/>
<path d="M82.4304 131.716C82.7649 131.716 83.036 131.445 83.036 131.11C83.036 130.775 82.7649 130.504 82.4304 130.504C82.0959 130.504 81.8247 130.775 81.8247 131.11C81.8247 131.445 82.0959 131.716 82.4304 131.716Z" fill="#E07084"/>
<path d="M82.3388 134.685C82.6728 134.666 82.9284 134.38 82.9098 134.046C82.8911 133.711 82.6052 133.456 82.2712 133.474C81.9372 133.493 81.6816 133.779 81.7003 134.113C81.719 134.447 82.0049 134.703 82.3388 134.685Z" fill="#E07084"/>
<path d="M82.361 137.629C82.6785 137.524 82.8507 137.181 82.7456 136.863C82.6405 136.546 82.2978 136.373 81.9802 136.479C81.6627 136.584 81.4905 136.927 81.5956 137.244C81.7008 137.562 82.0435 137.734 82.361 137.629Z" fill="#E07084"/>
<path d="M82.6438 140.054C82.6385 140.174 82.5978 140.29 82.5269 140.386C82.4559 140.483 82.358 140.556 82.2454 140.597C82.1328 140.638 82.0106 140.645 81.8943 140.616C81.7779 140.587 81.6727 140.525 81.5919 140.436C81.511 140.348 81.4582 140.238 81.4401 140.119C81.422 140.001 81.4394 139.879 81.4901 139.771C81.5408 139.662 81.6226 139.571 81.725 139.509C81.8275 139.447 81.946 139.417 82.0657 139.422C82.1452 139.425 82.2232 139.445 82.2952 139.478C82.3673 139.512 82.432 139.56 82.4857 139.618C82.5394 139.677 82.581 139.746 82.6081 139.821C82.6353 139.895 82.6474 139.975 82.6438 140.054Z" fill="#E07084"/>
<path d="M81.9482 143.601C82.2822 143.583 82.5378 143.297 82.5191 142.962C82.5005 142.628 82.2146 142.373 81.8806 142.391C81.5466 142.41 81.291 142.696 81.3097 143.03C81.3284 143.364 81.6142 143.62 81.9482 143.601Z" fill="#E07084"/>
<path d="M81.7795 146.578C82.114 146.578 82.3852 146.306 82.3852 145.972C82.3852 145.637 82.114 145.366 81.7795 145.366C81.445 145.366 81.1738 145.637 81.1738 145.972C81.1738 146.306 81.445 146.578 81.7795 146.578Z" fill="#E07084"/>
<path d="M81.6486 149.551C81.9831 149.551 82.2543 149.279 82.2543 148.945C82.2543 148.61 81.9831 148.339 81.6486 148.339C81.3141 148.339 81.043 148.61 81.043 148.945C81.043 149.279 81.3141 149.551 81.6486 149.551Z" fill="#E07084"/>
<path d="M219.18 109.334H170.683C169.201 109.334 168 110.536 168 112.019V193.481C168 194.963 169.201 196.165 170.683 196.165H219.18C220.662 196.165 221.863 194.963 221.863 193.481V112.019C221.863 110.536 220.662 109.334 219.18 109.334Z" fill="white"/>
<path d="M219.66 160.567V114.079C219.66 112.676 218.523 111.538 217.121 111.538H172.742C171.339 111.538 170.202 112.676 170.202 114.079V160.567C170.202 161.97 171.339 163.108 172.742 163.108H217.121C218.523 163.108 219.66 161.97 219.66 160.567Z" fill="#EDF4FF"/>
<path d="M177.477 173.223C180.385 173.113 183.294 173.05 186.204 173.009C187.658 172.984 189.112 172.979 190.567 172.963L194.931 172.948L199.294 172.962C200.749 172.977 202.203 172.983 203.658 173.008C206.566 173.049 209.476 173.109 212.385 173.229C209.476 173.339 206.566 173.404 203.658 173.444C202.203 173.47 200.749 173.474 199.294 173.49L194.931 173.504L190.567 173.489C189.112 173.474 187.658 173.469 186.204 173.444C183.294 173.397 180.385 173.338 177.477 173.223Z" fill="#829CF8"/>
<path d="M177.477 176.749C179.165 176.639 180.853 176.576 182.542 176.536C183.386 176.51 184.23 176.505 185.075 176.489L187.608 176.474L190.141 176.488C190.984 176.504 191.829 176.509 192.673 176.534C194.362 176.575 196.05 176.635 197.739 176.755C196.05 176.865 194.362 176.93 192.673 176.97C191.829 176.996 190.984 177.001 190.141 177.016L187.608 177.03L185.075 177.015C184.23 177.001 183.386 176.995 182.542 176.97C180.853 176.923 179.165 176.864 177.477 176.749Z" fill="#829CF8"/>
<path d="M192.634 186.034L193.685 185.509L194.728 186.049L194.536 184.92L195.388 184.128L194.22 183.954L193.703 182.923L193.173 183.946L192.001 184.102L192.842 184.907L192.634 186.034Z" fill="#DEE4FC"/>
<path d="M189.056 186.034L190.107 185.509L191.149 186.049L190.958 184.92L191.81 184.128L190.642 183.954L190.125 182.923L189.595 183.946L188.423 184.102L189.264 184.907L189.056 186.034Z" fill="#DEE4FC"/>
<path d="M185.412 186.034L186.463 185.509L187.506 186.049L187.314 184.92L188.168 184.128L186.998 183.954L186.483 182.923L185.952 183.946L184.78 184.102L185.621 184.907L185.412 186.034Z" fill="#FDB606"/>
<path d="M181.77 186.034L182.82 185.509L183.863 186.049L183.672 184.92L184.524 184.128L183.355 183.954L182.839 182.923L182.308 183.946L181.137 184.102L181.978 184.907L181.77 186.034Z" fill="#FDB606"/>
<path d="M178.125 186.034L179.176 185.509L180.219 186.049L180.027 184.92L180.88 184.128L179.711 183.954L179.195 182.923L178.664 183.946L177.492 184.102L178.334 184.907L178.125 186.034Z" fill="#FDB606"/>
<path d="M206.192 135.582C206.192 135.582 206.192 135.591 206.192 135.596C206.158 135.848 206.101 136.097 206.024 136.339C205.846 136.869 205.583 137.368 205.246 137.814C205.133 137.969 205.036 138.134 204.955 138.307C204.841 138.55 204.75 138.804 204.681 139.064C204.515 139.708 204.416 140.367 204.386 141.032C204.372 141.279 204.362 141.531 204.36 141.789C204.35 142.419 204.372 143.083 204.414 143.756C204.43 144.007 204.45 144.26 204.473 144.513C204.53 145.174 204.605 145.835 204.693 146.481C204.726 146.736 204.763 146.99 204.803 147.238C204.907 147.935 205.018 148.6 205.134 149.206C205.182 149.47 205.228 149.724 205.276 149.963C205.421 150.712 205.554 151.328 205.646 151.739C205.661 151.808 205.661 151.879 205.645 151.947C205.629 152.015 205.598 152.079 205.554 152.134C205.51 152.188 205.454 152.232 205.391 152.263C205.328 152.293 205.259 152.309 205.189 152.309H184.18C184.106 152.308 184.034 152.29 183.968 152.256C183.903 152.222 183.846 152.173 183.803 152.113C183.76 152.053 183.732 151.984 183.721 151.911C183.71 151.838 183.716 151.764 183.739 151.694C183.936 151.097 184.109 150.52 184.258 149.963C184.33 149.705 184.393 149.454 184.454 149.206C184.623 148.518 184.759 147.862 184.864 147.238C184.905 146.98 184.945 146.728 184.974 146.481C185.071 145.783 185.13 145.128 185.159 144.513C185.171 144.253 185.179 144.001 185.18 143.756C185.188 143.099 185.157 142.442 185.087 141.789C185.059 141.523 185.026 141.271 184.988 141.032C184.883 140.364 184.723 139.705 184.508 139.064C184.499 139.035 184.488 139.007 184.479 138.977C184.402 138.756 184.33 138.531 184.259 138.307C184.065 137.661 183.91 137.004 183.797 136.339C183.753 136.088 183.716 135.835 183.686 135.582C183.605 134.929 183.562 134.272 183.558 133.614C183.558 133.361 183.558 133.11 183.569 132.857C183.579 132.539 183.598 132.221 183.627 131.905C183.658 131.563 183.694 131.224 183.737 130.89C183.767 130.635 183.8 130.382 183.835 130.133C183.931 129.453 184.041 128.793 184.159 128.165C184.208 127.906 184.259 127.655 184.309 127.408C184.455 126.698 184.609 126.035 184.758 125.44C184.824 125.173 184.89 124.921 184.952 124.683C185.142 123.97 185.315 123.389 185.441 122.984C185.499 122.796 185.616 122.631 185.775 122.515C185.933 122.398 186.125 122.336 186.322 122.337H188.667C188.907 122.338 189.138 122.432 189.31 122.6C189.481 122.768 189.581 122.997 189.587 123.237C189.6 123.721 189.64 124.204 189.709 124.683C189.749 124.948 189.795 125.201 189.85 125.44C189.879 125.564 189.908 125.686 189.94 125.803C190.093 126.376 190.341 126.919 190.676 127.408C190.865 127.682 191.083 127.936 191.325 128.165C193.203 129.947 196.306 129.984 198.232 128.165C198.475 127.936 198.694 127.682 198.884 127.408C199.125 127.065 199.325 126.695 199.48 126.306C199.59 126.016 199.7 125.727 199.78 125.444C199.86 125.185 199.926 124.931 199.984 124.687C200.104 124.18 200.195 123.667 200.258 123.15C200.285 122.927 200.393 122.722 200.561 122.572C200.729 122.423 200.946 122.341 201.17 122.341H202.895C203.077 122.342 203.255 122.396 203.406 122.497C203.558 122.599 203.676 122.743 203.745 122.911C203.998 123.524 204.23 124.116 204.441 124.687C204.533 124.945 204.624 125.196 204.707 125.444C204.944 126.132 205.147 126.789 205.324 127.412C205.397 127.67 205.465 127.922 205.527 128.169C205.706 128.867 205.847 129.522 205.957 130.137C206.006 130.397 206.048 130.649 206.083 130.894C206.193 131.613 206.255 132.268 206.288 132.861C206.301 133.127 206.309 133.378 206.311 133.618C206.318 134.275 206.279 134.931 206.192 135.582Z" fill="#FFB523"/>
<path d="M189.843 125.44H184.756C184.822 125.173 184.888 124.921 184.95 124.683H189.703C189.742 124.948 189.788 125.202 189.843 125.44Z" fill="#EB9C00"/>
<path d="M204.696 125.44H199.773C199.854 125.181 199.92 124.926 199.978 124.683H204.435C204.526 124.941 204.618 125.192 204.696 125.44Z" fill="#EB9C00"/>
<path d="M191.318 128.165H184.16C184.21 127.906 184.26 127.655 184.31 127.408H190.673C190.861 127.682 191.077 127.936 191.318 128.165Z" fill="#EB9C00"/>
<path d="M205.52 128.165H198.226C198.468 127.936 198.687 127.682 198.877 127.408H205.317C205.39 127.666 205.458 127.918 205.52 128.165Z" fill="#EB9C00"/>
<path d="M206.077 130.89H183.735C183.765 130.635 183.798 130.382 183.833 130.133H205.951C206 130.393 206.042 130.644 206.077 130.89Z" fill="#EB9C00"/>
<path d="M206.304 133.614H183.558C183.558 133.362 183.558 133.11 183.569 132.857H206.281C206.294 133.122 206.302 133.374 206.304 133.614Z" fill="#EB9C00"/>
<path d="M206.193 135.582C206.193 135.582 206.193 135.591 206.193 135.596C206.159 135.848 206.102 136.097 206.024 136.339H183.801C183.757 136.088 183.72 135.835 183.69 135.582H206.193Z" fill="#EB9C00"/>
<path d="M204.954 138.307C204.84 138.55 204.748 138.804 204.68 139.064H184.51C184.501 139.035 184.49 139.007 184.481 138.977C184.404 138.756 184.331 138.531 184.261 138.307H204.954Z" fill="#EB9C00"/>
<path d="M204.384 141.032C204.37 141.279 204.36 141.531 204.358 141.789H185.094C185.066 141.523 185.033 141.271 184.995 141.032H204.384Z" fill="#EB9C00"/>
<path d="M204.476 144.513H185.16C185.172 144.253 185.18 144.002 185.181 143.756H204.412C204.428 144.007 204.448 144.265 204.476 144.513Z" fill="#EB9C00"/>
<path d="M204.797 147.24H184.865C184.907 146.982 184.947 146.73 184.975 146.483H204.687C204.723 146.737 204.76 146.99 204.797 147.24Z" fill="#EB9C00"/>
<path d="M205.265 149.963H184.255C184.326 149.705 184.39 149.454 184.451 149.206H205.123C205.171 149.47 205.218 149.724 205.265 149.963Z" fill="#EB9C00"/>
<path d="M162.18 109.334H113.683C112.201 109.334 111 110.536 111 112.019V193.481C111 194.963 112.201 196.165 113.683 196.165H162.18C163.662 196.165 164.863 194.963 164.863 193.481V112.019C164.863 110.536 163.662 109.334 162.18 109.334Z" fill="white"/>
<path d="M162.66 160.567V114.079C162.66 112.676 161.523 111.538 160.121 111.538H115.742C114.339 111.538 113.202 112.676 113.202 114.079V160.567C113.202 161.97 114.339 163.108 115.742 163.108H160.121C161.523 163.108 162.66 161.97 162.66 160.567Z" fill="#EDF4FF"/>
<path d="M120.477 173.223C123.385 173.113 126.294 173.05 129.204 173.009C130.657 172.984 132.112 172.979 133.567 172.963L137.931 172.948L142.294 172.962C143.749 172.977 145.203 172.983 146.658 173.008C149.566 173.049 152.476 173.109 155.385 173.229C152.476 173.339 149.566 173.404 146.658 173.444C145.203 173.47 143.749 173.474 142.294 173.49L137.931 173.504L133.567 173.489C132.112 173.474 130.657 173.469 129.204 173.444C126.294 173.397 123.387 173.338 120.477 173.223Z" fill="#829CF8"/>
<path d="M120.477 176.749C121.724 176.639 122.972 176.576 124.221 176.535C125.469 176.495 126.716 176.475 127.965 176.474C129.214 176.473 130.46 176.49 131.709 176.534C132.958 176.578 134.204 176.635 135.453 176.755C134.204 176.865 132.957 176.93 131.709 176.969C130.461 177.009 129.213 177.03 127.965 177.03C126.717 177.03 125.468 177.012 124.221 176.969C122.973 176.927 121.724 176.864 120.477 176.749Z" fill="#829CF8"/>
<path d="M135.662 186.034L136.713 185.509L137.756 186.049L137.564 184.92L138.417 184.128L137.248 183.954L136.732 182.923L136.201 183.946L135.03 184.102L135.871 184.907L135.662 186.034Z" fill="#DEE4FC"/>
<path d="M132.084 186.034L133.135 185.509L134.178 186.049L133.986 184.92L134.839 184.128L133.67 183.954L133.154 182.923L132.623 183.946L131.451 184.102L132.293 184.907L132.084 186.034Z" fill="#DEE4FC"/>
<path d="M128.441 186.034L129.491 185.509L130.534 186.049L130.342 184.92L131.196 184.128L130.026 183.954L129.511 182.923L128.98 183.946L127.809 184.102L128.649 184.907L128.441 186.034Z" fill="#FDB606"/>
<path d="M124.798 186.034L125.849 185.509L126.891 186.049L126.7 184.92L127.552 184.128L126.383 183.954L125.868 182.923L125.337 183.946L124.165 184.102L125.006 184.907L124.798 186.034Z" fill="#FDB606"/>
<path d="M121.154 186.034L122.204 185.509L123.247 186.049L123.056 184.92L123.908 184.128L122.739 183.954L122.223 182.923L121.692 183.946L120.521 184.102L121.362 184.907L121.154 186.034Z" fill="#FDB606"/>
<path d="M153.728 149.063C153.669 149.75 152.977 149.87 151.979 149.671C149.122 149.1 143.78 145.911 143.78 145.911C138.916 143.312 122.449 131.202 122.449 131.202C121.347 129.709 123.498 130.32 123.498 130.32L129.393 131.91L129.555 131.954C130.12 131.57 130.851 130.92 131.598 130.198C133.336 128.518 135.159 126.452 135.159 126.452C136.872 124.075 139.193 125.129 139.193 125.129C141.689 125.613 144.059 126.605 146.156 128.045C149 129.998 150.356 132.097 150.356 132.097C152.069 134.308 149.638 137.571 149.638 137.571C149.024 138.48 148.678 139.625 148.485 140.703C148.44 140.955 148.402 141.203 148.375 141.444C148.296 142.068 148.264 142.642 148.253 143.097C148.615 143.464 148.955 143.812 149.275 144.141C149.91 144.794 150.464 145.378 150.946 145.895C152.982 148.073 153.728 149.063 153.728 149.063Z" fill="#3F51F3"/>
<path d="M149.274 144.133C147.182 143.851 142.501 142.461 134.414 136.372C134.414 136.372 131.236 134.121 129.394 131.907L129.555 131.951C130.12 131.567 130.852 130.917 131.598 130.195C134.287 132.54 142.524 139.387 148.485 140.693C148.348 141.485 148.27 142.286 148.252 143.089C148.613 143.455 148.954 143.803 149.274 144.133Z" fill="#9BB0F9"/>
<path opacity="0.1" d="M153.728 149.063C153.67 149.75 152.977 149.87 151.979 149.671C149.531 147.783 144.152 142.874 147.456 138.308C150.111 134.637 148.039 130.547 146.156 128.035C149.001 129.987 150.356 132.087 150.356 132.087C152.07 134.298 149.638 137.561 149.638 137.561C149.025 138.47 148.679 139.615 148.485 140.693C148.44 140.945 148.403 141.193 148.375 141.434C148.297 142.058 148.265 142.632 148.254 143.087C148.615 143.454 148.956 143.802 149.276 144.13C149.91 144.784 150.464 145.368 150.947 145.885C152.983 148.073 153.728 149.063 153.728 149.063Z" fill="black"/>
<path d="M156.719 208.485C157.631 208.485 158.371 207.745 158.371 206.832C158.371 205.919 157.631 205.179 156.719 205.179C155.806 205.179 155.067 205.919 155.067 206.832C155.067 207.745 155.806 208.485 156.719 208.485Z" fill="#EBEFFD"/>
<path d="M161.454 208.485C162.366 208.485 163.105 207.745 163.105 206.832C163.105 205.919 162.366 205.179 161.454 205.179C160.541 205.179 159.802 205.919 159.802 206.832C159.802 207.745 160.541 208.485 161.454 208.485Z" fill="#D7DFFC"/>
<path d="M166.189 208.485C167.101 208.485 167.841 207.745 167.841 206.832C167.841 205.919 167.101 205.179 166.189 205.179C165.277 205.179 164.537 205.919 164.537 206.832C164.537 207.745 165.277 208.485 166.189 208.485Z" fill="#CDD7FB"/>
<path d="M170.924 208.485C171.837 208.485 172.576 207.745 172.576 206.832C172.576 205.919 171.837 205.179 170.924 205.179C170.012 205.179 169.272 205.919 169.272 206.832C169.272 207.745 170.012 208.485 170.924 208.485Z" fill="#D7DFFC"/>
<path d="M175.66 208.485C176.572 208.485 177.311 207.745 177.311 206.832C177.311 205.919 176.572 205.179 175.66 205.179C174.747 205.179 174.008 205.919 174.008 206.832C174.008 207.745 174.747 208.485 175.66 208.485Z" fill="#EBEFFD"/>
</g>
<defs>
<linearGradient id="paint0_linear_406_1668" x1="18.2265" y1="203.787" x2="182.231" y2="-54.5907" gradientUnits="userSpaceOnUse">
<stop stop-color="#0017E4"/>
<stop offset="1" stop-color="#3793FF"/>
</linearGradient>
<clipPath id="clip0_406_1668">
<rect width="304" height="218.327" fill="white" transform="translate(0.25 0.336365)"/>
</clipPath>
</defs>
</svg>
