<svg width="73" height="72" viewBox="0 0 73 72" fill="none" xmlns="http://www.w3.org/2000/svg">
<g clip-path="url(#clip0_406_1393)">
<path d="M24.138 8.85797H20.2881V18.0056H24.138V8.85797Z" fill="#DEDEDE"/>
<path d="M28.0326 15.0327H16.3933C14.4257 15.0327 12.8306 16.6278 12.8306 18.5955V25.1642H31.5955V18.5955C31.5955 16.6278 30.0004 15.0327 28.0326 15.0327Z" fill="#F2F2F2"/>
<path opacity="0.1" d="M20.6121 15.0327H16.3933C14.4257 15.0327 12.8306 16.6278 12.8306 18.5955V25.1642H17.0493V18.5955C17.0493 16.6278 18.6444 15.0327 20.6121 15.0327Z" fill="black"/>
<path d="M31.7306 10.8222C31.3927 10.8256 31.0509 10.7646 30.7241 10.6314C29.6542 10.1953 28.526 9.97428 27.3708 9.97428H21.881C19.4103 9.97428 16.9704 9.32628 14.8252 8.10059C13.5453 7.36905 13.1008 5.73878 13.8321 4.45895C14.5635 3.17912 16.194 2.73489 17.4737 3.46586C18.8136 4.23156 20.3377 4.63628 21.8812 4.63628H27.3709C29.2204 4.63628 31.0266 4.99024 32.7393 5.68844C35.3847 6.7669 34.5746 10.7937 31.7306 10.8222Z" fill="#F2F2F2"/>
<path d="M37.258 23.2467C35.8466 21.5818 33.7781 20.6168 31.5955 20.6168H12.8306C10.6479 20.6168 8.57948 21.5818 7.16802 23.2467C3.58784 27.4698 1.38818 33.1972 1.38818 39.505C1.38818 45.8129 3.58784 51.5403 7.16802 55.7634C8.57948 57.4283 10.6479 58.3933 12.8306 58.3933H31.5955C33.7781 58.3933 35.8466 57.4283 37.258 55.7634C40.8382 51.5403 43.0379 45.8129 43.0379 39.505C43.0379 33.1972 40.8382 27.4698 37.258 23.2467Z" fill="#EF878B"/>
<path opacity="0.1" d="M15.6055 55.7634C12.0254 51.5404 9.8257 45.8129 9.8257 39.505C9.8257 33.1971 12.0254 27.4697 15.6055 23.2466C17.017 21.5818 19.0855 20.6166 21.2681 20.6166H12.8306C10.6479 20.6166 8.57948 21.5816 7.16802 23.2466C3.58784 27.4697 1.38818 33.1971 1.38818 39.505C1.38818 45.8129 3.58784 51.5404 7.16802 55.7634C8.57948 57.4283 10.6479 58.3934 12.8306 58.3934H21.2681C19.0855 58.3934 17.017 57.4284 15.6055 55.7634Z" fill="black"/>
<path d="M57.219 28.8636H48.7917C47.2523 28.8636 46.0044 30.1116 46.0044 31.651V39.3549H60.0063V31.651C60.0063 30.1116 58.7584 28.8636 57.219 28.8636Z" fill="#F2F2F2"/>
<path opacity="0.1" d="M53.0105 28.8636H48.7917C47.2523 28.8636 46.0044 30.1117 46.0044 31.651V39.3549H50.2232V31.651C50.2232 30.1116 51.4711 28.8636 53.0105 28.8636Z" fill="black"/>
<path d="M65.8851 35.6865H40.126C37.1469 35.6865 34.7319 38.1016 34.7319 41.0806V57.6268C34.7319 60.606 37.147 63.0209 40.126 63.0209H65.8849C68.8641 63.0209 71.279 60.6058 71.279 57.6268V41.0807C71.2792 38.1016 68.8641 35.6865 65.8851 35.6865Z" fill="#72C773"/>
<path d="M40.1259 58.4457C39.6744 58.4457 39.3071 58.0784 39.3071 57.627V44.131C39.3071 43.6796 39.6744 43.3123 40.1259 43.3123H65.8847C66.3363 43.3123 66.7036 43.6796 66.7036 44.131V57.627C66.7036 58.0784 66.3363 58.4457 65.8847 58.4457H40.1259Z" fill="#F2F2F2"/>
<path opacity="0.1" d="M43.1695 57.627V41.0808C43.1695 38.1016 45.5845 35.6866 48.5637 35.6866H40.1262C37.147 35.6866 34.7319 38.1017 34.7319 41.0808V57.627C34.7319 60.6061 37.147 63.0211 40.1262 63.0211H48.5637C45.5844 63.0211 43.1695 60.606 43.1695 57.627Z" fill="black"/>
<path d="M39.6707 47.8832H20.7746C17.1455 47.8832 14.2036 50.8252 14.2036 54.4542V62.315C14.2036 65.9441 17.1455 68.886 20.7746 68.886H39.6707C43.2998 68.886 46.2417 65.9441 46.2417 62.315V54.4542C46.2417 50.8252 43.2998 47.8832 39.6707 47.8832Z" fill="#DEDEDE"/>
<path opacity="0.1" d="M18.4224 62.315V54.4542C18.4224 50.8251 21.3643 47.8832 24.9934 47.8832H20.7746C17.1455 47.8832 14.2036 50.8251 14.2036 54.4542V62.315C14.2036 65.9441 17.1455 68.886 20.7746 68.886H24.9934C21.3643 68.886 18.4224 65.9441 18.4224 62.315Z" fill="black"/>
<path d="M35.0802 53.7481H25.3652C23.4994 53.7481 21.9868 55.2607 21.9868 57.1265V59.6427C21.9868 61.5085 23.4994 63.0211 25.3652 63.0211H35.0802C36.946 63.0211 38.4585 61.5085 38.4585 59.6427V57.1265C38.4585 55.2607 36.946 53.7481 35.0802 53.7481Z" fill="#F2F2F2"/>
<path d="M35.0802 52.6878H25.3652C22.9209 52.6878 20.9321 54.6765 20.9321 57.1209V59.6371C20.9321 62.0814 22.9209 64.0702 25.3652 64.0702H35.0802C37.5245 64.0702 39.5132 62.0814 39.5132 59.6371V57.1209C39.5132 54.6765 37.5246 52.6878 35.0802 52.6878ZM37.4038 59.6371C37.4038 60.9183 36.3614 61.9608 35.0802 61.9608H25.3652C24.084 61.9608 23.0415 60.9183 23.0415 59.6371V57.1209C23.0415 55.8396 24.084 54.7972 25.3652 54.7972H35.0802C36.3614 54.7972 37.4038 55.8396 37.4038 57.1209V59.6371Z" fill="black"/>
<path d="M65.8848 34.6263H61.061V31.6455C61.061 29.5269 59.3375 27.8034 57.219 27.8034H48.7917C46.6733 27.8034 44.9498 29.5269 44.9498 31.6455V34.6263H43.6609C42.8499 30.0911 40.9247 25.9352 38.0626 22.5591C36.6754 20.9228 34.7438 19.8872 32.6502 19.6248V18.5901C32.6502 16.0441 30.5788 13.9727 28.0326 13.9727H25.1927V11.0235C26.9443 11.0235 28.6696 10.9274 30.3259 11.6027C32.509 12.4927 34.9002 11.0922 35.3336 8.82001C36.1586 4.49465 30.4556 3.57609 27.3707 3.57609H21.8811C20.5208 3.57609 19.1777 3.21946 17.9967 2.54446C16.2346 1.53801 13.9223 2.16998 12.9164 3.93018C11.8977 5.71289 12.5192 7.992 14.3019 9.01069C15.8335 9.8858 17.5052 10.4849 19.2334 10.7896V13.9724H16.3935C13.8474 13.9724 11.7759 16.0438 11.7759 18.5898V19.6245C9.68226 19.8871 7.75064 20.9225 6.36351 22.5588C5.98973 22.9997 5.61988 23.4708 5.26452 23.9592C4.92168 24.4301 5.0256 25.0898 5.49655 25.4325C5.96751 25.7753 6.62718 25.6716 6.97003 25.2005C7.29501 24.7541 7.63223 24.3242 7.97254 23.9227C9.18853 22.4882 10.9593 21.6656 12.8306 21.6656H31.5955C33.4668 21.6656 35.2374 22.4884 36.4535 23.9229C38.9964 26.9224 40.7332 30.6022 41.5152 34.626H40.1258C36.5698 34.626 33.677 37.519 33.677 41.0748V46.8227C33.677 46.8227 20.7852 46.8227 20.7745 46.8227C16.6412 46.8227 13.1487 50.3227 13.1487 54.4484V57.3328H12.8304C10.9591 57.3328 9.18853 56.51 7.9724 55.0756C4.40671 50.8696 2.44288 45.3379 2.44288 39.4994C2.44288 35.7534 3.27256 32.0438 4.84236 28.7721C5.09422 28.2468 4.87274 27.617 4.3475 27.365C3.82227 27.113 3.19241 27.3346 2.94041 27.8597C1.2349 31.4146 0.333496 35.4395 0.333496 39.4994C0.333496 45.8368 2.47508 51.853 6.36351 56.4398C7.98112 58.3479 10.3383 59.4424 12.8306 59.4424H13.1488V62.3095C13.1488 66.5143 16.5697 69.9352 20.7746 69.9352H39.6706C43.2693 69.9352 46.2917 67.4287 47.0889 64.0703H65.8847C69.4407 64.0703 72.3335 61.1773 72.3335 57.6215V41.0751C72.3336 37.5191 69.4407 34.6263 65.8848 34.6263ZM14.7479 4.97672C15.1827 4.21565 16.1914 3.94228 16.9505 4.37597C18.4495 5.23251 20.1546 5.68533 21.8812 5.68533C25.351 5.68533 29.0637 5.27948 32.3411 6.65944C33.2011 7.01002 33.3807 7.80089 33.2619 8.42415C33.0771 9.39305 32.0653 10.0333 31.1224 9.64913C28.8913 8.73985 26.4944 8.9138 24.1381 8.9138C21.0137 8.9138 18.1334 8.77036 15.3486 7.17905C14.5757 6.73749 14.3063 5.74945 14.7479 4.97672ZM21.3428 11.0132C21.3438 11.0132 21.3449 11.0132 21.3459 11.0132C21.524 11.0194 23.0832 11.0232 23.0832 11.0232V13.9724H21.3426L21.3428 11.0132ZM13.8853 19.5563V18.5898C13.8853 17.2069 15.0104 16.0818 16.3935 16.0818H28.0327C29.4158 16.0818 30.5409 17.2069 30.5409 18.5898V19.5563H13.8853ZM47.0592 31.6453C47.0592 30.6899 47.8364 29.9127 48.7917 29.9127H57.219C58.1744 29.9127 58.9516 30.6899 58.9516 31.6453V34.6262H47.0592V31.6453ZM39.6706 67.8257H20.7745C17.7328 67.8257 15.2581 65.3511 15.2581 62.3094V54.4485C15.2581 51.4068 17.7328 48.9322 20.7745 48.9322H39.6706C42.7123 48.9322 45.1871 51.4068 45.1871 54.4485C45.1871 54.4485 45.1871 62.2976 45.1871 62.3094C45.1871 65.311 42.673 67.8257 39.6706 67.8257ZM40.3619 46.8539V44.3614H65.649V57.3854H47.2964V54.4485C47.2964 54.4404 47.2959 54.4324 47.2959 54.4242C47.2874 51.497 45.5021 48.7407 42.8451 47.5173C42.0659 47.1587 41.2166 46.931 40.3619 46.8539ZM70.2243 57.6213C70.2243 60.0141 68.2776 61.9608 65.8848 61.9608H47.2964V59.4946H65.8848C66.9179 59.4946 67.7584 58.6542 67.7584 57.6212V44.1252C67.7584 43.0922 66.9179 42.2518 65.8848 42.2518H40.1259C39.0929 42.2518 38.2525 43.0922 38.2525 44.1252V46.8229H35.7865V41.0751C35.7865 38.6823 37.7332 36.7357 40.1259 36.7357H65.8848C68.2777 36.7357 70.2243 38.6823 70.2243 41.0751V57.6213Z" fill="black"/>
</g>
<defs>
<clipPath id="clip0_406_1393">
<rect width="72" height="72" fill="white" transform="translate(0.333496)"/>
</clipPath>
</defs>
</svg>
