<svg width="72" height="72" viewBox="0 0 72 72" fill="none" xmlns="http://www.w3.org/2000/svg">
<g clip-path="url(#clip0_406_1413)">
<path d="M60.5749 28.1117C60.5749 28.1117 70.945 38.8419 70.945 55.2886C70.945 55.2886 61.9193 58.5836 48.1783 58.5836C42.7767 58.5836 38.1021 58.0745 34.4204 57.4557C28.7361 56.5022 25.4116 55.2886 25.4116 55.2886C25.4116 38.8419 35.7817 28.1117 35.7817 28.1117V21.4037L30.1902 16.8121L25.4116 12.8885L34.5371 4.70801C35.6551 3.70532 37.0347 3.15826 38.4368 3.06404C39.0908 3.02045 39.7475 3.07529 40.3874 3.22858C41.421 3.47609 42.404 3.98095 43.2393 4.74036L44.2125 5.62633C46.4598 7.67391 49.8968 7.67391 52.1455 5.62633L53.1186 4.74036C53.954 3.98095 54.937 3.47609 55.9706 3.22858C57.9831 2.74622 60.1811 3.23842 61.8195 4.70801L70.945 12.8885L60.5749 21.4037V28.1117Z" fill="#80B4FB"/>
<path d="M38.9811 16.524V28.763C38.9811 28.763 34.7481 41.6222 34.7481 47.9112C34.7481 50.4144 34.599 54.0216 34.4204 57.4558C28.7361 56.5023 25.4116 55.2887 25.4116 55.2887C25.4116 38.8419 35.7817 28.1118 35.7817 28.1118V14.8588H37.3159C38.2356 14.8587 38.9811 15.6043 38.9811 16.524Z" fill="#61A2F9"/>
<path d="M38.4368 3.06403C35.2586 6.0243 31.574 12.2528 30.1902 16.8121L25.4116 12.8885L34.5371 4.708C35.6551 3.7053 37.0347 3.15825 38.4368 3.06403Z" fill="#61A2F9"/>
<path d="M55.9705 3.22858C55.6344 4.81067 52.9989 16.4422 48.1781 18.1312C43.3573 16.4422 40.7233 4.81067 40.3872 3.22858C41.4208 3.47609 42.4038 3.98095 43.2392 4.74035L44.2124 5.62633C46.4596 7.67391 49.8966 7.67391 52.1453 5.62633L53.1185 4.74035C53.9538 3.98095 54.9368 3.47609 55.9705 3.22858Z" fill="#61A2F9"/>
<path d="M39.6669 44.0064C28.4489 43.4205 17.2311 43.4205 6.01317 44.0064C3.73355 44.1255 1.86133 45.8544 1.57206 48.1187C0.878325 53.5487 0.878325 58.9786 1.57206 64.4086C1.86133 66.6729 3.73355 68.4019 6.01317 68.5209C17.2311 69.1068 28.4489 69.1068 39.6669 68.5209C41.9465 68.4018 43.8187 66.6729 44.108 64.4086C44.8017 58.9786 44.8017 53.5487 44.108 48.1187C43.8186 45.8544 41.9464 44.1255 39.6669 44.0064Z" fill="#DB5B6F"/>
<path d="M8.05951 68.6212C7.37745 68.5903 6.6954 68.5565 6.01334 68.5214C3.73372 68.4018 1.86193 66.6735 1.57223 64.4079C0.878919 58.9782 0.878919 53.5484 1.57223 48.1187C1.86193 45.8545 3.73372 44.1248 6.01334 44.0067C6.6954 43.9715 7.37745 43.9377 8.05951 43.9068C6.61242 44.6226 5.56051 46.0261 5.34534 47.7123C4.61688 53.4134 4.61688 59.1146 5.34534 64.8143C5.56051 66.5005 6.61242 67.904 8.05951 68.6212Z" fill="#D54653"/>
<path d="M44.1074 55.3146C43.8185 57.5788 41.9463 59.3072 39.6667 59.4259C28.4493 60.0131 17.2319 60.0131 6.01282 59.4259C3.73306 59.3072 1.86098 57.5788 1.57199 55.3146C1.41983 54.1226 1.30184 52.9305 1.2145 51.7385C1.00468 54.6951 1.00004 57.6517 1.20157 60.6084C2.05041 61.8947 3.47809 62.7559 5.10308 62.8406C16.9286 63.4594 28.7523 63.4594 40.5763 62.8406C42.202 62.7559 43.6302 61.894 44.4788 60.6068C44.6803 57.6485 44.6755 54.6903 44.4653 51.7322C44.3795 52.9263 44.2614 54.1205 44.1074 55.3146Z" fill="#D54653"/>
<path d="M28.5197 63.1194C25.1293 63.3049 21.7392 63.3049 18.3488 63.1194C16.8651 63.0383 15.6822 61.8639 15.5628 60.3828C15.399 58.3498 15.399 56.3169 15.5628 54.2839C15.6822 52.8028 16.8651 51.6284 18.3487 51.5472C21.739 51.3617 25.1292 51.3617 28.5195 51.5472C30.0032 51.6284 31.1862 52.8028 31.3054 54.2839C31.4692 56.3169 31.4692 58.3498 31.3054 60.3828C31.1863 61.8639 30.0035 63.0383 28.5197 63.1194Z" fill="#FFD064"/>
<path d="M23.4345 59.5112C22.0472 59.5112 20.6433 59.4781 19.2512 59.413C19.1669 58.0302 19.1669 56.6365 19.2512 55.2537C20.6433 55.1886 22.0472 55.1555 23.4345 55.1555C24.8217 55.1555 26.2256 55.1886 27.6176 55.2537C27.7018 56.6365 27.7018 58.0302 27.6176 59.413C26.2256 59.4781 24.8217 59.5112 23.4345 59.5112Z" fill="#DB5B6F"/>
<path d="M66.6854 35.0261C64.5361 31.0979 62.3995 28.5594 61.6298 27.7V21.9021L71.6146 13.7034C71.8523 13.5081 71.993 13.2188 71.9997 12.9111C72.0064 12.6034 71.8783 12.3082 71.6492 12.1029L64.0945 5.33156C63.6608 4.94286 62.994 4.97942 62.6051 5.41298C62.2163 5.84669 62.2528 6.51356 62.6865 6.9024L69.3258 12.8533L61.6303 19.1723V14.8589C61.6303 14.2764 61.1582 13.8041 60.5755 13.8041C59.9929 13.8041 59.5208 14.2764 59.5208 14.8589L59.5202 27.2199C51.9893 28.4387 44.3674 28.4386 36.8365 27.2196V14.8589C36.8365 14.2764 36.3644 13.8041 35.7818 13.8041C35.1992 13.8041 34.7271 14.2764 34.7271 14.8589V19.1727L27.0309 12.8533L35.2414 5.49314C36.4492 4.41001 38.0091 3.95985 39.5102 4.13817C39.8193 5.466 40.5292 8.25119 41.6194 11.0258C43.4107 15.5852 45.5002 18.3109 47.8296 19.127C47.9426 19.1665 48.0604 19.1863 48.1783 19.1863C48.2961 19.1863 48.4141 19.1665 48.5269 19.127C50.8563 18.3109 52.9459 15.5852 54.7377 11.026C55.826 8.25653 56.5351 5.47866 56.8455 4.14759C57.7747 4.03649 58.7344 4.16081 59.6266 4.54276C60.1625 4.77213 60.7821 4.52364 61.0113 3.98826C61.2407 3.45273 60.9924 2.83284 60.457 2.60361C57.7475 1.44355 54.5886 1.9764 52.4087 3.96055L51.4354 4.84652C49.5784 6.53747 46.7788 6.53747 44.9225 4.84652L43.9494 3.96055C41.0754 1.34426 36.7263 1.32809 33.8331 3.92272L24.7074 12.1032C24.4782 12.3085 24.3502 12.6038 24.357 12.9114C24.3636 13.2191 24.5044 13.5084 24.742 13.7037L34.7268 21.9023V27.6994C34.0353 28.4689 32.2583 30.5704 30.3643 33.7928C28.7603 32.938 27.0639 32.0941 25.3455 31.2398C23.8438 30.493 22.3314 29.7409 20.8795 28.9772C22.2984 27.2003 23.393 25.189 23.8727 22.8311C24.6056 19.2277 23.5335 16.0089 20.9311 14C18.464 12.0956 15.0665 11.671 12.4765 12.9436C11.0882 13.6257 8.75924 15.3959 8.75924 19.5873C8.75924 22.2404 10.4441 24.7486 13.9105 27.2552C14.9948 28.0392 16.2138 28.7986 17.5112 29.5396C15.9027 31.1218 14.0567 32.5301 12.3127 33.8601C8.558 36.7239 4.99569 39.4432 4.90358 43.1069C2.60652 43.6576 0.834154 45.5731 0.52561 47.9858C-0.175855 53.4788 -0.175855 59.0492 0.52561 64.5425C0.879999 67.3122 3.16454 69.429 5.95803 69.5754C11.5591 69.8675 17.1995 70.0134 22.84 70.0134C28.4804 70.0134 34.1213 69.8673 39.7224 69.5754C42.5166 69.4288 44.8004 67.3119 45.1531 64.5425C45.3633 62.9002 45.5091 61.2509 45.5936 59.5989C46.4517 59.6246 47.317 59.6384 48.1783 59.6384C61.9474 59.6384 70.9309 56.4167 71.3066 56.2796C71.7227 56.1276 71.9997 55.7318 71.9997 55.2889C71.9999 46.5695 69.11 39.4572 66.6854 35.0261ZM43.5024 6.40555C46.1677 8.8341 50.189 8.8341 52.8559 6.40583L53.8291 5.52C54.0268 5.34 54.2359 5.17672 54.454 5.03019C54.0877 6.42749 53.5257 8.34358 52.7749 10.254C51.0167 14.7279 49.3567 16.4044 48.1787 16.9881C47.0008 16.4044 45.3408 14.7279 43.583 10.254C42.8323 8.3433 42.2702 6.42595 41.9039 5.02808C42.121 5.17476 42.3303 5.33845 42.5297 5.51986L43.5024 6.40555ZM10.8693 19.5867C10.8693 17.2947 11.7468 15.652 13.4072 14.8362C14.1017 14.495 14.8952 14.3295 15.712 14.3295C17.077 14.3295 18.5063 14.7921 19.6426 15.6692C20.7836 16.5498 22.5817 18.5967 21.8061 22.4099C21.381 24.5002 20.3409 26.3187 18.9835 27.949C14.425 25.3945 10.8693 22.6824 10.8693 19.5867ZM6.068 45.0601C7.94809 44.9625 9.82888 44.8809 11.6582 44.8177C12.2404 44.7974 12.6959 44.3093 12.6757 43.7271C12.6554 43.1447 12.1709 42.691 11.5851 42.7095C10.0933 42.7611 8.56728 42.8253 7.03554 42.8999C7.30723 40.3328 10.245 38.0899 13.5924 35.5369C15.5589 34.0369 17.6464 32.4447 19.4407 30.6009C21.057 31.4623 22.7445 32.3015 24.4066 33.128C26.0703 33.9554 27.7475 34.7894 29.3381 35.6381C28.2932 37.6234 27.2657 39.9337 26.4151 42.5365C22.867 42.497 19.3248 42.5123 15.8091 42.5895C15.2266 42.6023 14.7649 43.0847 14.7777 43.6672C14.7905 44.2496 15.2704 44.7161 15.8552 44.6984C23.7178 44.5258 31.7111 44.6476 39.613 45.0601C41.3872 45.1521 42.8374 46.4945 43.0613 48.2527C43.2094 49.4102 43.3233 50.5714 43.4068 51.7346C43.3216 52.9018 43.2058 54.0606 43.0613 55.1817C42.8375 56.9385 41.3869 58.2802 39.6113 58.3723C37.2231 58.4971 34.824 58.5942 32.4587 58.6653C32.5093 57.1758 32.4766 55.6802 32.3572 54.1993C32.1959 52.1961 30.5709 50.6032 28.5776 50.4942C25.1646 50.3074 21.7037 50.3073 18.2916 50.4942C16.2982 50.6032 14.6733 52.1961 14.5119 54.1993C14.3916 55.6915 14.3592 57.1986 14.4115 58.6994C11.6339 58.6255 8.83364 58.5172 6.068 58.3723C4.29296 58.2803 2.84222 56.9386 2.61861 55.1813C2.47714 54.0734 2.36112 52.9184 2.2728 51.7472C2.35634 50.5798 2.47025 49.4144 2.61861 48.2527C2.84334 46.4948 4.29409 45.1521 6.068 45.0601ZM31.1943 36.6614C34.6112 38.6167 37.3721 40.6622 38.2998 42.886C35.0841 42.7324 31.8565 42.6259 28.6299 42.5681C29.3903 40.3663 30.285 38.3866 31.1943 36.6614ZM30.2545 60.298C30.1774 61.2544 29.4069 62.0145 28.4623 62.0663C28.4621 62.0663 28.4621 62.0663 28.4621 62.0663C25.126 62.2488 21.7431 62.2488 18.4066 62.0663C17.462 62.0145 16.6915 61.2544 16.6144 60.298C16.456 58.3308 16.456 56.3359 16.6144 54.3687C16.6915 53.4123 17.462 52.6522 18.4068 52.6004C20.0748 52.5092 21.7546 52.4635 23.4345 52.4635C25.1143 52.4635 26.7941 52.5092 28.4623 52.6004C29.4069 52.6522 30.1774 53.4123 30.2545 54.3687C30.413 56.3359 30.413 58.3308 30.2545 60.298ZM39.6127 67.4683C28.4834 68.0486 17.1976 68.0486 6.0687 67.4683C4.29451 67.3752 2.84334 66.032 2.61861 64.2746C2.38601 62.4529 2.23497 60.6223 2.16185 58.789C3.14429 59.774 4.47986 60.4023 5.95831 60.479C8.80762 60.6283 11.6942 60.7391 14.5553 60.8135C14.8646 62.6513 16.4145 64.07 18.2915 64.1726C19.9979 64.266 21.7162 64.3127 23.4345 64.3127C25.1527 64.3127 26.8712 64.266 28.5773 64.1726C30.4658 64.0693 32.0228 62.6339 32.3187 60.7799C34.7649 60.7081 37.249 60.6082 39.7207 60.479C41.2 60.4023 42.5362 59.7736 43.5187 58.7883C43.4455 60.6218 43.2942 62.4529 43.0611 64.275C42.8372 66.0323 41.3869 67.3752 39.6127 67.4683ZM66.4289 55.4732C66.2119 52.3024 65.8109 49.1432 65.2329 46.0642C65.1255 45.4917 64.5748 45.1149 64.0017 45.2222C63.4292 45.3297 63.0522 45.881 63.1598 46.4535C63.7418 49.5545 64.138 52.7399 64.3439 55.9352C63.5317 56.1016 62.6109 56.2744 61.5917 56.4426C61.4642 52.2009 61.0115 47.9773 60.2411 43.8701C60.1337 43.2976 59.5824 42.9208 59.01 43.0278C58.4375 43.1353 58.0605 43.6864 58.1679 44.2589C58.9334 48.341 59.3776 52.5418 59.4911 56.7599C56.3462 57.1914 52.5056 57.5287 48.1784 57.5287C47.3418 57.5287 46.5012 57.5155 45.6676 57.4906C45.7272 54.3163 45.5566 51.1383 45.1534 47.9861C44.8372 45.5024 42.9689 43.5459 40.5731 43.0623C39.7988 39.8393 36.4897 37.2503 32.2246 34.8163C33.9103 31.963 35.4875 30.0384 36.1761 29.2487C40.1599 29.9117 44.1694 30.2441 48.179 30.2441C52.1882 30.2441 56.1974 29.9118 60.1811 29.2489C60.9725 30.154 62.9317 32.5469 64.8691 36.1022C67.0891 40.1757 69.7223 46.6323 69.8825 54.5304C69.1965 54.7469 68.0202 55.0932 66.4289 55.4732Z" fill="black"/>
<path d="M27.6668 54.2001C26.258 54.1341 24.8341 54.1008 23.4344 54.1008C22.0346 54.1008 20.6105 54.1341 19.2017 54.2001C18.6637 54.2253 18.2311 54.6518 18.1982 55.1896C18.1117 56.6119 18.1117 58.0545 18.1982 59.477C18.2309 60.0147 18.6637 60.4413 19.2017 60.4664C20.6094 60.5323 22.0336 60.5657 23.4344 60.5657C24.8351 60.5657 26.2591 60.5324 27.6668 60.4664C28.2049 60.4413 28.6375 60.0147 28.6704 59.477C28.7568 58.0545 28.7568 56.612 28.6704 55.1896C28.6376 54.6519 28.205 54.2253 27.6668 54.2001ZM26.6089 58.399C24.4889 58.4751 22.3797 58.4751 20.2599 58.399C20.2373 57.6895 20.2373 56.9771 20.2599 56.2676C22.3811 56.1914 24.4877 56.1914 26.6089 56.2676C26.6315 56.9771 26.6315 57.6895 26.6089 58.399Z" fill="black"/>
</g>
<defs>
<clipPath id="clip0_406_1413">
<rect width="72" height="72" fill="white"/>
</clipPath>
</defs>
</svg>
