<svg width="73" height="72" viewBox="0 0 73 72" fill="none" xmlns="http://www.w3.org/2000/svg">
<path d="M64.792 61.875V69.75H61.417L59.167 65.25V61.875H64.792Z" fill="#CE892A"/>
<path d="M64.792 61.875V67.5H60.292L59.167 65.25V61.875H64.792Z" fill="#B0792C"/>
<path d="M31.042 65.25V5.625C31.042 4.72989 31.3976 3.87145 32.0305 3.23851C32.6634 2.60558 33.5219 2.25 34.417 2.25H65.917C66.8121 2.25 67.6705 2.60558 68.3035 3.23851C68.9364 3.87145 69.292 4.72989 69.292 5.625V61.875C69.292 62.7701 68.9364 63.6285 68.3035 64.2615C67.6705 64.8944 66.8121 65.25 65.917 65.25H31.042Z" fill="#EAAE48"/>
<path d="M49.042 61.875V69.75H45.667L43.417 65.25V61.875H49.042Z" fill="#EAAE48"/>
<path d="M49.042 61.875V67.5H44.542L43.417 65.25V61.875H49.042Z" fill="#D7A147"/>
<path d="M20.917 61.875V65.25L18.667 69.75H15.292V61.875H20.917Z" fill="#EAAE48"/>
<path d="M20.917 61.875V65.25L19.792 67.5H15.292V61.875H20.917Z" fill="#D7A147"/>
<path d="M10.792 56.25V33.75C10.792 32.8549 11.1476 31.9964 11.7805 31.3635C12.4134 30.7306 13.2719 30.375 14.167 30.375H50.167C51.0621 30.375 51.9205 30.7306 52.5535 31.3635C53.1864 31.9964 53.542 32.8549 53.542 33.75V56.25H10.792Z" fill="#CACAC9"/>
<path d="M46.792 55.125V49.6111C46.792 45.9096 49.7256 42.8127 53.4265 42.751C54.3177 42.7358 55.203 42.8972 56.0314 43.2259C56.8599 43.5546 57.615 44.0442 58.2532 44.6663C58.8915 45.2884 59.4002 46.0307 59.75 46.8504C60.0999 47.6701 60.284 48.551 60.2916 49.4423C60.2992 50.3335 60.1302 51.2174 59.7945 52.043C59.4587 52.8686 58.9627 53.6195 58.3352 54.2525C57.7077 54.8854 56.9611 55.3878 56.1384 55.7306C55.3157 56.0735 54.4333 56.25 53.542 56.25V61.875C53.542 62.7701 53.1864 63.6286 52.5535 64.2615C51.9205 64.8944 51.0621 65.25 50.167 65.25H14.167C13.2719 65.25 12.4134 64.8944 11.7805 64.2615C11.1476 63.6286 10.792 62.7701 10.792 61.875V56.25C9.45697 56.25 8.15193 55.8541 7.0419 55.1124C5.93186 54.3707 5.0667 53.3165 4.55581 52.0831C4.04492 50.8497 3.91124 49.4925 4.17169 48.1831C4.43214 46.8738 5.07502 45.671 6.01902 44.727C6.96303 43.783 8.16576 43.1402 9.47514 42.8797C10.7845 42.6193 12.1417 42.7529 13.3751 43.2638C14.6085 43.7747 15.6627 44.6399 16.4044 45.7499C17.1461 46.8599 17.542 48.165 17.542 49.5V55.125C17.542 55.125 22.042 52.875 32.167 52.875C42.292 52.875 46.792 55.125 46.792 55.125Z" fill="#E4E4E3"/>
<path d="M33.292 23.625H10.792L11.917 10.125H32.167L33.292 23.625Z" fill="#E4E4E3"/>
<path d="M10.792 46.125C10.1245 46.125 9.47196 46.3229 8.91694 46.6938C8.36193 47.0646 7.92935 47.5917 7.6739 48.2084C7.41845 48.8251 7.35162 49.5037 7.48184 50.1584C7.61207 50.8131 7.93351 51.4145 8.40551 51.8865C8.87751 52.3585 9.47888 52.6799 10.1336 52.8102C10.7882 52.9404 11.4668 52.8735 12.0835 52.6181C12.7003 52.3626 13.2274 51.9301 13.5982 51.375C13.9691 50.82 14.167 50.1675 14.167 49.5C14.166 48.6052 13.8101 47.7473 13.1774 47.1146C12.5447 46.4819 11.6868 46.126 10.792 46.125ZM10.792 50.625C10.5695 50.625 10.352 50.559 10.167 50.4354C9.98197 50.3118 9.83778 50.1361 9.75263 49.9305C9.66748 49.725 9.6452 49.4988 9.68861 49.2805C9.73202 49.0623 9.83916 48.8618 9.9965 48.7045C10.1538 48.5472 10.3543 48.44 10.5725 48.3966C10.7907 48.3532 11.0169 48.3755 11.2225 48.4606C11.4281 48.5458 11.6038 48.69 11.7274 48.875C11.851 49.06 11.917 49.2775 11.917 49.5C11.9167 49.7983 11.798 50.0842 11.5871 50.2951C11.3762 50.506 11.0903 50.6247 10.792 50.625Z" fill="black"/>
<path d="M53.542 46.125C52.8745 46.125 52.222 46.3229 51.6669 46.6938C51.1119 47.0646 50.6793 47.5917 50.4239 48.2084C50.1685 48.8251 50.1016 49.5037 50.2318 50.1584C50.3621 50.8131 50.6835 51.4145 51.1555 51.8865C51.6275 52.3585 52.2289 52.6799 52.8836 52.8102C53.5383 52.9404 54.2168 52.8735 54.8335 52.6181C55.4502 52.3626 55.9774 51.9301 56.3482 51.375C56.7191 50.82 56.917 50.1675 56.917 49.5C56.916 48.6052 56.5601 47.7473 55.9274 47.1146C55.2947 46.4819 54.4368 46.126 53.542 46.125ZM53.542 50.625C53.3195 50.625 53.102 50.559 52.917 50.4354C52.732 50.3118 52.5878 50.1361 52.5026 49.9305C52.4175 49.725 52.3952 49.4988 52.4386 49.2805C52.482 49.0623 52.5892 48.8618 52.7465 48.7045C52.9038 48.5472 53.1043 48.44 53.3225 48.3966C53.5407 48.3532 53.7669 48.3755 53.9725 48.4606C54.1781 48.5458 54.3538 48.69 54.4774 48.875C54.601 49.06 54.667 49.2775 54.667 49.5C54.6667 49.7983 54.548 50.0842 54.3371 50.2951C54.1262 50.506 53.8403 50.6247 53.542 50.625Z" fill="black"/>
<path d="M61.417 49.5C61.417 48.4545 61.2088 47.4196 60.8046 46.4554C60.4004 45.4912 59.8083 44.6172 59.0628 43.8843C58.3173 43.1514 57.4333 42.5742 56.4624 42.1865C55.4915 41.7988 54.4531 41.6083 53.4078 41.6261C49.1395 41.6974 45.667 45.2794 45.667 49.6111V53.3904C42.5852 52.5516 38.0905 51.75 32.167 51.75C26.2434 51.75 21.7488 52.5516 18.667 53.3904V49.5C18.667 48.4401 18.453 47.3911 18.0379 46.4159C17.6228 45.4406 17.0151 44.5592 16.2513 43.8245C15.4874 43.0897 14.5831 42.5167 13.5925 42.1398C12.6018 41.7628 11.5453 41.5898 10.4862 41.6309C8.50705 41.7143 6.63136 42.5379 5.23063 43.9387C3.82989 45.3394 3.00626 47.2151 2.92286 49.1943C2.84778 51.1392 3.49525 53.0432 4.7405 54.5391C5.98575 56.0351 7.74064 57.0171 9.66696 57.2961V61.875C9.6683 63.0681 10.1428 64.2119 10.9865 65.0555C11.8301 65.8991 12.9739 66.3737 14.167 66.375V69.75C14.167 70.0484 14.2855 70.3345 14.4965 70.5455C14.7074 70.7565 14.9936 70.875 15.292 70.875H18.667C18.8759 70.875 19.0807 70.8168 19.2584 70.707C19.4361 70.5972 19.5797 70.44 19.6731 70.2532L21.6122 66.375H42.7217L44.6608 70.2532C44.7542 70.44 44.8978 70.5972 45.0755 70.707C45.2533 70.8168 45.458 70.875 45.667 70.875H49.042C49.3403 70.875 49.6265 70.7565 49.8374 70.5455C50.0484 70.3345 50.167 70.0484 50.167 69.75V66.375C51.36 66.3737 52.5038 65.8991 53.3475 65.0555C54.1911 64.2119 54.6656 63.0681 54.667 61.875V57.2948C56.5403 57.0219 58.2529 56.0843 59.4921 54.6532C60.7314 53.2222 61.4146 51.3931 61.417 49.5ZM17.9717 68.625H16.417V66.375H19.0967L17.9717 68.625ZM47.917 68.625H46.3622L45.2372 66.375H47.917V68.625ZM53.542 55.125C53.2436 55.125 52.9574 55.2435 52.7465 55.4545C52.5355 55.6655 52.417 55.9516 52.417 56.25V61.875C52.4162 62.4715 52.179 63.0434 51.7572 63.4652C51.3354 63.887 50.7635 64.1243 50.167 64.125H14.167C13.5704 64.1243 12.9986 63.887 12.5767 63.4652C12.1549 63.0434 11.9177 62.4715 11.917 61.875V56.25C11.917 55.9516 11.7984 55.6655 11.5875 55.4545C11.3765 55.2435 11.0903 55.125 10.792 55.125C10.0347 55.125 9.28528 54.9721 8.58856 54.6755C7.89184 54.3789 7.26217 53.9447 6.73731 53.3989C6.21244 52.8531 5.80319 52.2069 5.53408 51.4991C5.26496 50.7913 5.14153 50.0364 5.17117 49.2798C5.23079 47.8667 5.81885 46.5276 6.81891 45.5275C7.81898 44.5275 9.15813 43.9394 10.5712 43.8798C11.3278 43.8501 12.0827 43.9734 12.7905 44.2425C13.4983 44.5115 14.1446 44.9207 14.6904 45.4455C15.2363 45.9703 15.6706 46.5999 15.9673 47.2966C16.2639 47.9933 16.4169 48.7428 16.417 49.5V54.0844C14.6435 54.7031 13.7116 55.2153 13.6154 55.2694L14.7161 57.2318C14.7742 57.1995 20.6628 54 32.167 54C43.6711 54 49.5597 57.1995 49.6154 57.2306L50.7185 55.2694C50.6223 55.2153 49.6904 54.7026 47.917 54.0844V49.6111C47.917 46.4996 50.397 43.9268 53.4453 43.8758C54.188 43.863 54.926 43.9973 55.6165 44.2712C56.3069 44.545 56.9364 44.9529 57.4684 45.4713C58.0004 45.9897 58.4245 46.6084 58.7161 47.2916C59.0077 47.9747 59.1612 48.7089 59.1676 49.4517C59.1739 50.1945 59.0331 50.9312 58.7533 51.6193C58.4734 52.3073 58.06 52.9332 57.537 53.4606C57.014 53.9881 56.3916 54.4068 55.706 54.6924C55.0203 54.9781 54.2848 55.1251 53.542 55.125Z" fill="black"/>
<path d="M11.917 33.75C11.9177 33.1535 12.155 32.5816 12.5768 32.1598C12.9986 31.738 13.5705 31.5007 14.167 31.5H50.167C50.7635 31.5007 51.3354 31.738 51.7572 32.1598C52.179 32.5816 52.4163 33.1535 52.417 33.75V39.375H54.667V33.75C54.6657 32.5569 54.1911 31.4131 53.3475 30.5695C52.5039 29.7259 51.3601 29.2513 50.167 29.25H14.167C12.9739 29.2513 11.8301 29.7259 10.9865 30.5695C10.1429 31.4131 9.66833 32.5569 9.66699 33.75V39.375H11.917V33.75Z" fill="black"/>
<path d="M25.417 36H27.667V38.25H25.417V36Z" fill="black"/>
<path d="M31.042 41.625H33.292V43.875H31.042V41.625Z" fill="black"/>
<path d="M19.792 41.625H22.042V43.875H19.792V41.625Z" fill="black"/>
<path d="M25.417 47.25H27.667V49.5H25.417V47.25Z" fill="black"/>
<path d="M36.667 36H38.917V38.25H36.667V36Z" fill="black"/>
<path d="M42.292 41.625H44.542V43.875H42.292V41.625Z" fill="black"/>
<path d="M36.667 47.25H38.917V49.5H36.667V47.25Z" fill="black"/>
<path d="M65.917 1.125H34.417C33.2239 1.12634 32.0801 1.60088 31.2365 2.4445C30.3929 3.28812 29.9183 4.43194 29.917 5.625V6.75H32.167V5.625C32.1677 5.02848 32.405 4.45659 32.8268 4.03479C33.2486 3.61299 33.8205 3.37571 34.417 3.375H49.042V27H51.292V3.375H65.917C66.5135 3.37571 67.0854 3.61299 67.5072 4.03479C67.929 4.45659 68.1663 5.02848 68.167 5.625V61.875C68.1663 62.4715 67.929 63.0434 67.5072 63.4652C67.0854 63.887 66.5135 64.1243 65.917 64.125H55.792V66.375H58.4717L60.4108 70.2532C60.5043 70.44 60.6479 70.5972 60.8256 70.707C61.0033 70.8168 61.2081 70.875 61.417 70.875H64.792C65.0904 70.875 65.3765 70.7565 65.5875 70.5455C65.7985 70.3345 65.917 70.0484 65.917 69.75V66.375C67.1101 66.3737 68.2539 65.8991 69.0975 65.0555C69.9411 64.2119 70.4157 63.0681 70.417 61.875V5.625C70.4157 4.43194 69.9411 3.28812 69.0975 2.4445C68.2539 1.60088 67.1101 1.12634 65.917 1.125ZM63.667 68.625H62.1122L60.9872 66.375H63.667V68.625Z" fill="black"/>
<path d="M10.7919 24.75H20.9169V27H23.1669V24.75H33.292C33.4476 24.75 33.6015 24.7177 33.744 24.6552C33.8865 24.5926 34.0145 24.5012 34.1198 24.3867C34.2252 24.2722 34.3056 24.137 34.3561 23.9898C34.4066 23.8426 34.4259 23.6866 34.413 23.5315L33.288 10.0315C33.2646 9.75029 33.1363 9.48817 32.9286 9.29712C32.721 9.10606 32.4491 9.00001 32.167 9H23.1669V6.75H20.9169V9H11.9169C11.6348 9.00001 11.3629 9.10606 11.1553 9.29712C10.9476 9.48817 10.8193 9.75029 10.7959 10.0315L9.67089 23.5315C9.65795 23.6866 9.67733 23.8426 9.72779 23.9898C9.77826 24.137 9.85872 24.2722 9.96408 24.3867C10.0694 24.5012 10.1974 24.5926 10.3399 24.6552C10.4824 24.7177 10.6363 24.75 10.7919 24.75ZM12.9521 11.25H31.1318L32.0694 22.5H12.0145L12.9521 11.25Z" fill="black"/>
</svg>
