<svg width="73" height="72" viewBox="0 0 73 72" fill="none" xmlns="http://www.w3.org/2000/svg">
<g clip-path="url(#clip0_406_1461)">
<path d="M56.7653 36.7296C55.5303 43.0201 71.028 44.8464 65.1 58.9693C58.7319 74.14 19.6567 79.3384 5.34489 46.8254C-9.76737 12.4942 22.6824 -4.30819 42.9041 2.68804C59.5619 8.45128 59.7098 21.7305 56.7653 36.7296Z" fill="#FFE9C8"/>
<path d="M56.7653 36.7296C59.7098 21.7305 59.5619 8.45114 42.9041 2.68804C34.7123 -0.146114 24.5142 0.925729 16.2837 5.48564C24.0079 2.01614 33.0025 1.40371 40.3729 3.95367C57.0306 9.7169 57.1786 22.9961 54.234 37.9952C52.9991 44.2858 68.4968 46.1121 62.5687 60.2349C61.2592 63.3547 58.5657 66.052 54.9896 68.0871C59.8209 65.9745 63.497 62.7881 65.1 58.9693C71.028 44.8466 55.5303 43.0201 56.7653 36.7296Z" fill="#FFDCA7"/>
<path d="M57.3127 56.6956C59.0558 54.9525 59.0558 52.1264 57.3127 50.3833C55.5696 48.6402 52.7435 48.6402 51.0004 50.3833C49.2573 52.1264 49.2573 54.9525 51.0004 56.6956C52.7435 58.4387 55.5696 58.4387 57.3127 56.6956Z" fill="#009E65"/>
<path d="M54.168 49.0753C53.7282 49.0753 53.3037 49.14 52.9023 49.2584C54.7511 49.8042 56.1009 51.5137 56.1009 53.5394C56.1009 55.5651 54.7511 57.2747 52.9023 57.8205C53.3037 57.939 53.7282 58.0036 54.168 58.0036C56.6334 58.0036 58.6321 56.0049 58.6321 53.5394C58.6322 51.074 56.6335 49.0753 54.168 49.0753Z" fill="#008954"/>
<path d="M40.0667 62.4677C42.5322 62.4677 44.5308 60.4691 44.5308 58.0036C44.5308 55.5381 42.5322 53.5394 40.0667 53.5394C37.6012 53.5394 35.6025 55.5381 35.6025 58.0036C35.6025 60.4691 37.6012 62.4677 40.0667 62.4677Z" fill="#00E0A7"/>
<path d="M40.0664 53.5394C39.6267 53.5394 39.2021 53.6041 38.8008 53.7225C40.6496 54.2683 41.9993 55.9779 41.9993 58.0036C41.9993 60.0293 40.6496 61.7389 38.8008 62.2846C39.2021 62.4032 39.6267 62.4677 40.0664 62.4677C42.5318 62.4677 44.5305 60.469 44.5305 58.0036C44.5305 55.5381 42.5318 53.5394 40.0664 53.5394Z" fill="#00C988"/>
<path d="M17.3274 46.3227C19.7929 46.3227 21.7916 44.324 21.7916 41.8586C21.7916 39.3931 19.7929 37.3944 17.3274 37.3944C14.8619 37.3944 12.8633 39.3931 12.8633 41.8586C12.8633 44.324 14.8619 46.3227 17.3274 46.3227Z" fill="#00DDFF"/>
<path d="M17.3276 37.3944C16.8879 37.3944 16.4634 37.4591 16.062 37.5775C17.9108 38.1233 19.2605 39.8329 19.2605 41.8586C19.2605 43.8843 17.9108 45.5938 16.062 46.1396C16.4634 46.2582 16.8879 46.3227 17.3276 46.3227C19.7931 46.3227 21.7918 44.324 21.7918 41.8586C21.7918 39.393 19.7931 37.3944 17.3276 37.3944Z" fill="#00D0FD"/>
<path d="M17.4084 30.4863C19.1515 28.7432 19.1515 25.9171 17.4084 24.174C15.6653 22.4309 12.8392 22.4309 11.0961 24.174C9.353 25.9171 9.353 28.7432 11.0961 30.4863C12.8392 32.2294 15.6653 32.2294 17.4084 30.4863Z" fill="#FF656B"/>
<path d="M14.2568 22.8674C13.8171 22.8674 13.3926 22.9321 12.9912 23.0505C14.84 23.5963 16.1897 25.3059 16.1897 27.3316C16.1897 29.3573 14.84 31.0669 12.9912 31.6126C13.3926 31.7312 13.8171 31.7957 14.2568 31.7957C16.7223 31.7957 18.721 29.797 18.721 27.3316C18.721 24.8661 16.7223 22.8674 14.2568 22.8674Z" fill="#FF3E4C"/>
<path d="M23.9085 20.4906C26.374 20.4906 28.3726 18.4919 28.3726 16.0265C28.3726 13.561 26.374 11.5623 23.9085 11.5623C21.443 11.5623 19.4443 13.561 19.4443 16.0265C19.4443 18.4919 21.443 20.4906 23.9085 20.4906Z" fill="#FF9A00"/>
<path d="M23.9082 11.5622C23.4685 11.5622 23.0439 11.6269 22.6426 11.7453C24.4914 12.291 25.8411 14.0006 25.8411 16.0263C25.8411 18.052 24.4914 19.7616 22.6426 20.3074C23.0439 20.4259 23.4685 20.4905 23.9082 20.4905C26.3736 20.4905 28.3723 18.4918 28.3723 16.0263C28.3723 13.5609 26.3738 11.5622 23.9082 11.5622Z" fill="#EF8800"/>
<path d="M42.5687 17.4698C44.1368 15.5664 43.865 12.7523 41.9616 11.1843C40.0583 9.61623 37.2442 9.88805 35.6761 11.7914C34.1081 13.6947 34.3799 16.5089 36.2832 18.0769C38.1866 19.645 41.0007 19.3731 42.5687 17.4698Z" fill="#FFDC00"/>
<path d="M39.1221 10.1855C38.6823 10.1855 38.2578 10.2501 37.8564 10.3685C39.7052 10.9143 41.055 12.6239 41.055 14.6496C41.055 16.6753 39.7052 18.3849 37.8564 18.9306C38.2578 19.0492 38.6823 19.1137 39.1221 19.1137C41.5875 19.1137 43.5862 17.115 43.5862 14.6496C43.5862 12.1842 41.5875 10.1855 39.1221 10.1855Z" fill="#FFBF00"/>
<path d="M38.6783 44.1818L34.7539 40.2576L37.8858 32.7388L46.197 41.05L38.6783 44.1818Z" fill="#E6E2E6"/>
<path d="M36.7472 47.7502L31.1856 42.1886C30.4264 41.4292 30.4264 40.1982 31.1856 39.439C31.9449 38.6796 33.176 38.6796 33.9353 39.439L39.4969 45.0006C40.2561 45.7599 40.2561 46.991 39.4969 47.7502C38.7375 48.5094 37.5065 48.5094 36.7472 47.7502Z" fill="#FFDC00"/>
<path d="M35.912 46.9146L32.0216 43.0242C30.4616 42.7182 28.7826 43.1692 27.574 44.3777C25.6454 46.3064 23.6851 55.2511 23.6851 55.2511C23.6851 55.2511 32.6298 53.291 34.5585 51.3621C35.767 50.1536 36.218 48.4746 35.912 46.9146Z" fill="#BC6640"/>
<path d="M46.197 41.05L37.8857 32.7388L65.6538 8.55239C66.9825 7.39519 68.9802 7.46395 70.226 8.70975C71.4719 9.95569 71.5407 11.9534 70.3833 13.2819L46.197 41.05Z" fill="#8C808A"/>
<path d="M44.4073 39.2603L36.8887 42.392L38.6785 44.1818L46.1972 41.05L44.4073 39.2603Z" fill="#D8D1D7"/>
<path d="M39.497 45.0006L37.7072 43.2107C38.4665 43.9701 38.4665 45.2011 37.7072 45.9603C36.9479 46.7197 35.7168 46.7196 34.9575 45.9603L36.7474 47.7502C37.5066 48.5094 38.7378 48.5094 39.497 47.7502C40.2563 46.9908 40.2563 45.7598 39.497 45.0006Z" fill="#FFBF00"/>
<path d="M35.912 46.9146L34.1221 45.1247C34.4281 46.6847 33.9771 48.3638 32.7686 49.5723C31.4784 50.8625 27.0491 52.1667 24.2574 52.8888C23.8999 54.2703 23.6851 55.251 23.6851 55.251C23.6851 55.251 32.6298 53.2907 34.5585 51.362C35.767 50.1535 36.218 48.4746 35.912 46.9146Z" fill="#A05638"/>
<path d="M68.5937 11.4922L44.4072 39.2603L46.1971 41.0501L70.3836 13.282C71.5408 11.9534 71.4721 9.95569 70.2263 8.70989C69.9103 8.39391 69.5456 8.154 69.1561 7.99017C69.6379 9.13641 69.4575 10.5006 68.5937 11.4922Z" fill="#7B7179"/>
<path d="M44.6559 14.5974C44.6559 11.548 42.1747 9.06721 39.1248 9.06721C36.0749 9.06721 33.5938 11.548 33.5938 14.5974C33.5938 17.6467 36.0749 20.1275 39.1248 20.1275C42.1747 20.1274 44.6559 17.6466 44.6559 14.5974ZM35.7078 14.5974C35.7078 12.7136 37.2406 11.181 39.1248 11.181C41.0089 11.181 42.5417 12.7136 42.5417 14.5974C42.5417 16.4812 41.0089 18.0138 39.1248 18.0138C37.2407 18.0138 35.7078 16.4812 35.7078 14.5974Z" fill="black"/>
<path d="M29.4083 15.9768C29.4083 12.9275 26.9271 10.4467 23.8773 10.4467C20.8274 10.4467 18.3462 12.9275 18.3462 15.9768C18.3462 19.0261 20.8274 21.5069 23.8773 21.5069C26.9271 21.5069 29.4083 19.0261 29.4083 15.9768ZM20.4603 15.9768C20.4603 14.093 21.9932 12.5605 23.8774 12.5605C25.7615 12.5605 27.2944 14.093 27.2944 15.9768C27.2944 17.8606 25.7616 19.3932 23.8774 19.3932C21.9932 19.3933 20.4603 17.8608 20.4603 15.9768Z" fill="black"/>
<path d="M14.2049 21.7751C11.1552 21.7751 8.67383 24.2559 8.67383 27.3052C8.67383 30.3545 11.155 32.8352 14.2049 32.8352C17.2548 32.8352 19.736 30.3545 19.736 27.3052C19.736 24.2559 17.2548 21.7751 14.2049 21.7751ZM14.2049 30.7215C12.3208 30.7215 10.7878 29.189 10.7878 27.3052C10.7878 25.4214 12.3207 23.8888 14.2049 23.8888C16.0891 23.8888 17.6219 25.4214 17.6219 27.3052C17.6219 29.189 16.089 30.7215 14.2049 30.7215Z" fill="black"/>
<path d="M11.7515 41.8615C11.7515 44.9108 14.2327 47.3916 17.2824 47.3916C20.3321 47.3916 22.8133 44.9108 22.8133 41.8615C22.8133 38.8122 20.3321 36.3315 17.2824 36.3315C14.2327 36.3315 11.7515 38.8124 11.7515 41.8615ZM20.6994 41.8615C20.6994 43.7453 19.1666 45.2779 17.2824 45.2779C15.3983 45.2779 13.8655 43.7453 13.8655 41.8615C13.8655 39.9777 15.3983 38.4452 17.2824 38.4452C19.1665 38.4452 20.6994 39.9777 20.6994 41.8615Z" fill="black"/>
<path d="M45.602 58.0393C45.602 54.99 43.1208 52.5092 40.071 52.5092C37.0212 52.5092 34.54 54.99 34.54 58.0393C34.54 61.0888 37.0212 63.5695 40.071 63.5695C43.1208 63.5695 45.602 61.0888 45.602 58.0393ZM36.6541 58.0393C36.6541 56.1555 38.1869 54.623 40.071 54.623C41.9552 54.623 43.488 56.1555 43.488 58.0393C43.488 59.9231 41.9552 61.4558 40.071 61.4558C38.1869 61.4559 36.6541 59.9233 36.6541 58.0393Z" fill="black"/>
<path d="M59.735 53.5662C59.735 50.5169 57.2538 48.0361 54.2039 48.0361C51.1542 48.0361 48.6729 50.5169 48.6729 53.5662C48.6729 56.6155 51.154 59.0963 54.2039 59.0963C57.2538 59.0963 59.735 56.6154 59.735 53.5662ZM50.787 53.5662C50.787 51.6824 52.3198 50.1498 54.2039 50.1498C56.0881 50.1498 57.621 51.6824 57.621 53.5662C57.621 55.45 56.0881 56.9825 54.2039 56.9825C52.3198 56.9825 50.787 55.45 50.787 53.5662Z" fill="black"/>
<path d="M65.3456 17.4832C64.9621 17.9232 65.0082 18.5908 65.4483 18.9742C65.8886 19.3577 66.5563 19.3118 66.9395 18.8715L71.2521 13.9212C72.7706 12.1783 72.6794 9.53269 71.0448 7.8982C69.4102 6.26386 66.7642 6.17287 65.0208 7.69092L57.6296 14.1277C55.3198 8.25694 50.6045 4.15308 43.2608 1.61269C37.0555 -0.533954 29.5018 -0.53775 22.5371 1.6027C15.1957 3.85847 9.00471 8.27466 5.10405 14.0376C4.77696 14.5211 4.90352 15.1779 5.38713 15.505C5.87046 15.8321 6.52774 15.7057 6.85497 15.2221C10.4862 9.85697 16.2761 5.73778 23.1582 3.62292C29.7036 1.61156 36.7789 1.60664 42.5696 3.60998C49.5805 6.03506 53.9563 9.96539 55.9262 15.6109L37.1916 31.9264C37.0701 32.0323 36.9721 32.1681 36.9102 32.3169L34.3657 38.4247C33.1886 37.5293 31.498 37.6156 30.4237 38.6897C29.5261 39.5872 29.3187 40.9148 29.7961 42.0141C28.679 42.2525 27.6367 42.8057 26.8038 43.6385C24.7124 45.7296 22.829 54.1066 22.6211 55.055C22.459 55.7944 23.1402 56.4761 23.8799 56.3136C24.8284 56.1057 33.207 54.2227 35.2985 52.1317C36.1313 51.2989 36.6846 50.2568 36.9231 49.1399C37.3049 49.3057 37.7134 49.3912 38.1228 49.3912C38.8924 49.3912 39.6621 49.0982 40.2481 48.5124C41.3224 47.4382 41.4088 45.7481 40.5133 44.5711L46.622 42.0269C46.771 41.965 46.9067 41.867 47.0127 41.7454L56.7558 30.5615C56.5223 32.3767 56.1959 34.3486 55.7698 36.5185C55.1813 39.5159 57.4679 41.5516 59.8887 43.7071C61.7302 45.3465 63.6343 47.0419 64.68 49.3535C65.8619 51.9663 65.7001 54.99 64.1854 58.5979C62.4537 62.7224 57.9805 66.2212 51.9123 68.1965C51.3858 68.3681 51.0765 68.9368 51.2179 69.4718C51.3709 70.0507 51.9973 70.3918 52.567 70.2065C59.2198 68.0406 64.165 64.1076 66.1347 59.416C70.1008 49.9693 65.011 45.4375 61.2947 42.1287C58.9346 40.0274 57.5054 38.6519 57.8443 36.9256C58.5274 33.4472 58.9617 30.4542 59.171 27.7892L64.1621 22.06C64.5455 21.62 64.4994 20.9524 64.0593 20.5689C63.6191 20.1856 62.9514 20.2316 62.5679 20.6717L46.1626 39.5033L39.4344 32.7763L66.4094 9.28463C67.3181 8.49305 68.6978 8.54058 69.55 9.39277C70.4021 10.2448 70.4497 11.6241 69.6581 12.5328L65.3456 17.4832ZM33.8035 50.6371C32.7426 51.6978 28.4059 53.0349 25.072 53.863C25.9001 50.5297 27.2376 46.1938 28.2985 45.133C29.1452 44.2865 30.325 43.8827 31.5051 44.021L34.9156 47.4308C35.0539 48.6105 34.6504 49.7905 33.8035 50.6371ZM38.7531 47.0177C38.4055 47.3653 37.8399 47.3653 37.4922 47.0177L31.9184 41.4449C31.5708 41.0974 31.5708 40.5318 31.9184 40.1843C32.2617 39.841 32.8361 39.841 33.1793 40.1843L38.7531 45.7571C39.1007 46.1048 39.1007 46.6703 38.7531 47.0177ZM38.927 42.942L35.995 40.0105L38.2547 34.5867L44.3518 40.6828L38.927 42.942Z" fill="black"/>
<path d="M47.9415 69.2184C40.3188 70.6944 32.2381 69.7081 25.1876 66.4411C16.8627 62.5838 10.311 55.6581 6.24059 46.4129C3.86009 41.0058 2.58392 35.8068 2.44752 30.9603C2.32391 26.5656 3.13419 22.4582 4.85586 18.7523C5.10181 18.223 4.87203 17.5947 4.34258 17.3488C3.81313 17.1027 3.18467 17.3327 2.93858 17.862C-0.950265 26.2327 -0.477625 36.3999 4.30573 47.2643C8.5865 56.9876 15.4999 64.2819 24.2987 68.3588C29.4907 70.7646 35.2116 72 40.9291 72C43.4158 72 45.9019 71.7661 48.3434 71.2935C48.9166 71.1825 49.2913 70.6281 49.1803 70.055C49.0692 69.482 48.514 69.1078 47.9415 69.2184Z" fill="black"/>
</g>
<defs>
<clipPath id="clip0_406_1461">
<rect width="72" height="72" fill="white" transform="translate(0.333496)"/>
</clipPath>
</defs>
</svg>
