<svg width="76" height="71" viewBox="0 0 76 71" fill="none" xmlns="http://www.w3.org/2000/svg">
<path d="M71.4636 42.9254C69.4404 46.6523 66.7002 49.739 63.5073 52.1034C46.4339 42.2916 44.1767 14.8935 56.8974 3.17697C58.0256 3.61324 59.1373 4.12842 60.2269 4.72401C73.8476 12.1601 78.8782 29.264 71.4636 42.9254Z" fill="#FFB25A"/>
<path d="M63.5076 52.1034C54.9991 58.4107 43.2799 59.605 33.3746 54.1969C19.7538 46.7595 14.7218 29.6571 22.1377 15.9942C28.9586 3.42578 43.939 -1.85127 56.8977 3.17712C49.538 17.7185 50.8131 37.8421 63.5076 52.1034Z" fill="#FF9C20"/>
<path d="M9.68516 40.5684L11.832 51.8652L9.68516 62.1631C7.10087 60.1932 4.88322 58.1265 3.13611 56.3352C0.439005 53.5702 0.439005 49.1598 3.13611 46.3947C4.88322 44.6035 7.10087 42.5383 9.68516 40.5684Z" fill="#DF8A57"/>
<path d="M44.7466 51.3649L42.0836 66.6344C40.0723 67.6439 37.9437 68.4852 35.7276 69.06C19.8733 62.221 19.1208 40.1324 29.5437 32.842C34.0146 32.8643 38.2599 34.1791 42.0838 36.0969L44.7466 51.3649Z" fill="#EAAA83"/>
<path d="M35.727 69.0599C33.692 69.587 31.5812 69.8908 29.4199 69.8908C24.9045 69.8908 20.6176 68.5716 16.7581 66.6344L13.6943 51.3649L16.7581 36.0969C20.6175 34.1612 24.9043 32.8405 29.4199 32.8405C29.4615 32.8405 29.5016 32.8405 29.5431 32.842C22.6913 43.0535 23.6843 59.5171 35.727 69.0599Z" fill="#DF8A57"/>
<path d="M55.7043 56.3352C53.9572 58.1265 51.7396 60.1932 49.1566 62.1631L46.8008 51.3657L49.1566 40.5683C51.7394 42.5382 53.9571 44.6034 55.7043 46.3946C58.4029 49.1598 58.4029 53.5702 55.7043 56.3352Z" fill="#EAAA83"/>
<path d="M16.7581 36.097V66.6346C14.1901 65.3481 11.8136 63.7892 9.68506 62.1632V40.5684C11.8136 38.9424 14.1901 37.3835 16.7581 36.097Z" fill="#D7DDF5"/>
<path d="M49.1565 40.5684V62.1631C47.0279 63.7875 44.65 65.348 42.0835 66.6344V36.097C44.65 37.3835 47.0279 38.9424 49.1565 40.5684Z" fill="#F3F5FC"/>
<path d="M72.4343 43.4565C76.1617 36.5885 76.9995 28.6755 74.7934 21.1754C72.587 13.6749 67.6007 7.48493 60.7526 3.74598C56.2245 1.27385 51.1193 0.0421708 45.9966 0.190472C41.03 0.337433 36.1374 1.75508 31.8591 4.30405C31.3305 4.61896 31.1567 5.30419 31.4708 5.83426C31.785 6.36463 32.468 6.53884 32.9963 6.22377C35.3309 4.83218 37.8362 3.8249 40.418 3.19998C42.7884 10.0468 42.3287 17.5204 39.1429 24.011L23.6658 15.5609C25.0991 13.157 26.8769 11.0095 28.9623 9.16657C29.4235 8.75889 29.4681 8.05327 29.0618 7.5905C28.6551 7.12788 27.9521 7.08321 27.4906 7.49074C24.9333 9.75084 22.8032 12.4322 21.1593 15.4601C18.0409 21.2068 16.9346 27.8516 18.0044 34.2764C16.5178 34.9278 15.0244 35.7025 13.5269 36.6007C9.69592 38.8982 5.9323 41.9301 2.34041 45.6122C0.8311 47.1594 0 49.2018 0 51.3633C0 53.5249 0.8311 55.5672 2.34041 57.1142C5.9323 60.7964 9.69592 63.8284 13.5269 66.1259C18.9231 69.3623 24.2695 71.0033 29.4174 71.0033C34.5653 71.0033 39.9115 69.3623 45.308 66.1259C49.1558 63.8172 52.9595 60.7543 56.5537 57.0506C63.3484 54.6357 68.9807 49.8193 72.4332 43.459C72.4338 43.4575 72.434 43.4569 72.4343 43.4565ZM70.9891 41.3981L55.5129 32.9485C59.2216 26.7373 65.2366 22.2914 72.2633 20.5743C74.647 27.4361 74.1884 34.9196 70.9891 41.3981ZM71.4403 18.4789C63.9312 20.3965 57.515 25.2017 53.5559 31.88L48.3054 29.0135L60.654 6.26264C65.4671 9.14841 69.1981 13.3887 71.4403 18.4789ZM45.2855 29.9075L42.4915 35.0553C40.2522 33.9391 38.0261 33.1006 35.8239 32.5444C37.4387 30.8879 38.8492 29.0461 40.0365 27.0416L45.2855 29.9075ZM45.3078 36.6008C45.024 36.4306 44.7403 36.2658 44.4567 36.1044L47.2409 30.975L52.4895 33.8407C51.5131 35.813 50.7648 37.8769 50.2543 40.0049C48.6239 38.7361 46.9722 37.599 45.3078 36.6008ZM42.6215 2.76311C48.0432 1.91842 53.6788 2.72425 58.6977 5.19683L46.35 27.946L41.0996 25.0795C44.5395 18.1267 45.0831 10.1231 42.6215 2.76311ZM22.6012 17.5225L38.0801 25.9735C36.7391 28.2213 35.0941 30.2466 33.1754 32.0102C31.9127 31.8199 30.6591 31.7234 29.4173 31.7234C26.3782 31.7234 23.2699 32.2958 20.123 33.4302C19.3206 28.0114 20.1864 22.447 22.6012 17.5225ZM3.93151 55.5521C1.63994 53.2031 1.63994 49.5233 3.93151 47.1743C5.17304 45.9017 6.74083 44.4064 8.57092 42.8884V59.8383C6.74098 58.32 5.17304 56.8249 3.93151 55.5521ZM17.8695 65.9182V60.4635C17.8695 59.8467 17.3712 59.3469 16.7563 59.3469C16.1415 59.3469 15.6432 59.8467 15.6432 60.4635V64.7584C13.9145 63.7849 12.2909 62.702 10.7973 61.59V41.1365C12.2909 40.0246 13.9145 38.9416 15.6432 37.9681V55.2527C15.6432 55.8694 16.1415 56.3693 16.7563 56.3693C17.3712 56.3693 17.8695 55.8694 17.8695 55.2527V36.8084C21.4198 35.1084 25.3322 33.9567 29.4173 33.9567C33.5024 33.9567 37.4148 35.1084 40.9651 36.8085V65.9182C37.4148 67.6183 33.5024 68.77 29.4173 68.77C25.3322 68.77 21.4198 67.6183 17.8695 65.9182ZM43.1915 64.7584V37.9681C44.9202 38.9416 46.5437 40.0246 48.0374 41.1365V61.5899C46.5437 62.702 44.9202 63.7849 43.1915 64.7584ZM50.2637 59.8381V42.8884C52.0938 44.4064 53.6617 45.9017 54.9031 47.1743C57.1945 49.5233 57.1945 53.2034 54.9031 55.5523C53.6617 56.8249 52.0938 58.32 50.2637 59.8381ZM58.4521 53.8478C58.7026 53.0536 58.8346 52.2182 58.8346 51.3633C58.8346 49.2018 58.0035 47.1595 56.4943 45.6125C55.0834 44.1661 53.6457 42.8217 52.1882 41.5813C52.6458 39.2702 53.4025 37.0326 54.4458 34.9088L69.9252 43.3601C67.1961 47.9323 63.2114 51.5644 58.4521 53.8478Z" fill="black"/>
<path d="M36.6796 50.2466H35.3809V48.6851C35.3809 48.0684 34.8826 47.5686 34.2678 47.5686C33.6529 47.5686 33.1546 48.0684 33.1546 48.6851V50.2466H30.5305V48.6851C30.5305 48.0684 30.0322 47.5686 29.4174 47.5686C28.8026 47.5686 28.3043 48.0684 28.3043 48.6851V50.2466H25.6801V48.6851C25.6801 48.0684 25.1818 47.5686 24.5669 47.5686C23.9521 47.5686 23.4538 48.0684 23.4538 48.6851V50.2466H22.1551C21.5403 50.2466 21.042 50.7465 21.042 51.3632C21.042 51.9799 21.5403 52.4798 22.1551 52.4798H23.4538V54.0413C23.4538 54.658 23.9521 55.1578 24.5669 55.1578C25.1818 55.1578 25.6801 54.658 25.6801 54.0413V52.4798H28.3043V54.0413C28.3043 54.658 28.8026 55.1578 29.4174 55.1578C30.0322 55.1578 30.5305 54.658 30.5305 54.0413V52.4798H33.1546V54.0413C33.1546 54.658 33.6529 55.1578 34.2678 55.1578C34.8826 55.1578 35.3809 54.658 35.3809 54.0413V52.4798H36.6796C37.2944 52.4798 37.7927 51.9799 37.7927 51.3632C37.7927 50.7465 37.2944 50.2466 36.6796 50.2466Z" fill="black"/>
</svg>
