<svg width="73" height="72" viewBox="0 0 73 72" fill="none" xmlns="http://www.w3.org/2000/svg">
<path d="M68.6222 47.3407L64.4626 40.599C64.4626 40.4929 64.4706 40.3883 64.4706 40.2829C64.4712 35.1795 63.0361 30.1783 60.3284 25.8483C57.6208 21.5183 53.7494 18.0333 49.1546 15.7898L45.8282 10.3982C44.9146 8.91701 43.6359 7.69394 42.114 6.84556C40.5922 5.99718 38.8779 5.55176 37.1345 5.55176C35.3912 5.55176 33.6769 5.99718 32.1551 6.84556C30.6332 7.69394 29.3545 8.91701 28.4408 10.3982L25.1188 15.7898C20.524 18.0333 16.6526 21.5183 13.945 25.8483C11.2374 30.1783 9.80225 35.1795 9.80285 40.2829C9.80285 40.3883 9.80941 40.4929 9.81086 40.599L5.6512 47.3407C4.69924 48.8839 4.17722 50.6525 4.13898 52.4641C4.10075 54.2757 4.54769 56.0647 5.43369 57.6465C6.3197 59.2282 7.61269 60.5456 9.17928 61.4625C10.7459 62.3795 12.5293 62.8629 14.3456 62.8629H21.8099C26.3344 65.9186 31.6729 67.5518 37.1367 67.5518C42.6005 67.5518 47.939 65.9186 52.4636 62.8629H59.9278C61.7441 62.8629 63.5276 62.3795 65.0942 61.4625C66.6607 60.5456 67.9537 59.2282 68.8397 57.6465C69.7258 56.0647 70.1727 54.2757 70.1345 52.4641C70.0962 50.6525 69.5742 48.8839 68.6222 47.3407ZM13.7039 55.3532C13.1952 55.3533 12.6979 55.2029 12.2748 54.9211C11.8518 54.6392 11.522 54.2385 11.3273 53.7697C11.1325 53.3008 11.0815 52.7849 11.1808 52.2871C11.28 51.7893 11.5249 51.3321 11.8847 50.9732C12.2444 50.6144 12.7027 50.37 13.2017 50.271C13.7006 50.172 14.2178 50.2229 14.6878 50.4172C15.1577 50.6115 15.5594 50.9404 15.8419 51.3625C16.1245 51.7845 16.2752 52.2807 16.2751 52.7882C16.2751 53.1253 16.2084 53.4592 16.079 53.7706C15.9496 54.082 15.7598 54.365 15.5207 54.6032C15.2816 54.8414 14.9977 55.0303 14.6853 55.159C14.373 55.2877 14.0383 55.3537 13.7003 55.3532H13.7039ZM37.1367 12.5454C37.6454 12.5454 38.1427 12.6959 38.5656 12.9778C38.9886 13.2598 39.3182 13.6606 39.5129 14.1294C39.7075 14.5983 39.7584 15.1142 39.6591 15.6119C39.5598 16.1096 39.3148 16.5668 38.955 16.9256C38.5953 17.2844 38.1369 17.5287 37.638 17.6276C37.1391 17.7265 36.6219 17.6756 36.152 17.4813C35.6821 17.287 35.2805 16.958 34.998 16.536C34.7155 16.114 34.5647 15.6179 34.5649 15.1104C34.5651 14.43 34.8361 13.7776 35.3184 13.2966C35.8007 12.8156 36.4548 12.5454 37.1367 12.5454ZM37.1367 49.2967C35.3493 49.2969 33.6021 48.7682 32.1159 47.7776C30.6298 46.7869 29.4715 45.3788 28.7876 43.7314C28.1037 42.084 27.9249 40.2712 28.2738 38.5224C28.6228 36.7736 29.4837 35.1673 30.7478 33.9067C32.012 32.6461 33.6224 31.7878 35.3756 31.4404C37.1287 31.093 38.9457 31.2721 40.5968 31.955C42.2479 32.638 43.6589 33.7941 44.6512 35.2771C45.6436 36.7601 46.1729 38.5034 46.172 40.2866C46.1711 42.6765 45.2187 44.9683 43.5243 46.6579C41.83 48.3476 39.5324 49.2967 37.1367 49.2967ZM60.5731 55.3532C60.0644 55.3532 59.5672 55.2027 59.1442 54.9207C58.7213 54.6388 58.3916 54.238 58.197 53.7691C58.0024 53.3003 57.9515 52.7844 58.0508 52.2866C58.1501 51.7889 58.3951 51.3318 58.7548 50.973C59.1146 50.6142 59.5729 50.3699 60.0718 50.2709C60.5708 50.172 61.0879 50.2229 61.5578 50.4173C62.0278 50.6116 62.4294 50.9405 62.7119 51.3626C62.9944 51.7846 63.1451 52.2807 63.145 52.7882C63.145 53.1251 63.0784 53.4587 62.9492 53.7699C62.8199 54.0812 62.6305 54.364 62.3917 54.6022C62.1528 54.8404 61.8693 55.0293 61.5573 55.1581C61.2453 55.287 60.9108 55.3533 60.5731 55.3532Z" fill="#0087FF"/>
<path d="M36.6367 25.5518C33.7689 25.5518 30.9655 26.4315 28.581 28.0797C26.1964 29.7279 24.3379 32.0706 23.2405 34.8115C22.143 37.5524 21.8559 40.5684 22.4153 43.4781C22.9748 46.3878 24.3558 49.0606 26.3837 51.1583C28.4115 53.2561 30.9952 54.6847 33.8079 55.2635C36.6206 55.8423 39.5361 55.5453 42.1856 54.4099C44.8352 53.2746 47.0997 51.352 48.693 48.8853C50.2863 46.4186 51.1367 43.5185 51.1367 40.5518C51.1367 36.5735 49.609 32.7582 46.8898 29.9452C44.1705 27.1321 40.4824 25.5518 36.6367 25.5518ZM36.6367 49.8434C34.8599 49.8436 33.123 49.2986 31.6456 48.2774C30.1682 47.2562 29.0167 45.8048 28.3369 44.1065C27.657 42.4083 27.4793 40.5397 27.8262 38.7369C28.173 36.9342 29.0289 35.2784 30.2856 33.9789C31.5422 32.6795 33.1432 31.7947 34.886 31.4366C36.6287 31.0785 38.435 31.2632 40.0764 31.9671C41.7177 32.6711 43.1203 33.8629 44.1069 35.3916C45.0934 36.9203 45.6195 38.7174 45.6187 40.5555C45.6177 43.0192 44.671 45.3816 42.9866 47.1233C41.3023 48.865 39.0183 49.8434 36.6367 49.8434Z" fill="#FFDA2D"/>
<path d="M13.7322 26.0037C13.8696 26.099 14.0244 26.1662 14.1879 26.2016C14.3513 26.2371 14.5201 26.2399 14.6846 26.21C14.8491 26.1802 15.0062 26.1182 15.1467 26.0276C15.2873 25.937 15.4086 25.8196 15.5037 25.6821C15.6245 25.506 15.7482 25.3336 15.8747 25.1619C16.0745 24.8896 16.1578 24.549 16.1064 24.2153C16.055 23.8815 15.8732 23.5818 15.6008 23.3821C15.3285 23.1823 14.988 23.099 14.6542 23.1504C14.3204 23.2017 14.0207 23.3836 13.821 23.656C13.682 23.8458 13.5445 24.0386 13.4099 24.2322C13.3148 24.3696 13.2476 24.5245 13.2123 24.6879C13.177 24.8514 13.1742 25.0202 13.2042 25.1847C13.2341 25.3492 13.2961 25.5062 13.3867 25.6467C13.4773 25.7872 13.5947 25.9085 13.7322 26.0037Z" fill="#002390"/>
<path d="M18.7501 21.8525C20.7221 19.9321 22.9858 18.336 25.4571 17.1237C25.673 17.0178 25.8544 16.8528 25.9802 16.6479L29.3027 11.2497C30.1016 9.95207 31.2195 8.88062 32.5498 8.13743C33.8801 7.39423 35.3785 7.00405 36.9024 7.00405C38.4262 7.00405 39.9247 7.39423 41.255 8.13743C42.5853 8.88062 43.7031 9.95207 44.502 11.2497L47.8246 16.6479C47.9504 16.8528 48.1318 17.0178 48.3477 17.1237C52.1504 18.9823 55.4419 21.741 57.9365 25.1604C60.431 28.5797 62.0533 32.5563 62.6623 36.7448C62.706 37.0476 62.8573 37.3245 63.0884 37.5249C63.3195 37.7253 63.615 37.8357 63.9209 37.8361C63.9823 37.836 64.0435 37.8317 64.1043 37.823C64.2698 37.7991 64.429 37.7428 64.5728 37.6574C64.7166 37.572 64.8421 37.459 64.9423 37.3251C65.0424 37.1911 65.1151 37.0387 65.1563 36.8766C65.1976 36.7145 65.2064 36.5459 65.1824 36.3803C64.5236 31.8438 62.782 27.5327 60.1048 23.8116C57.4277 20.0905 53.8938 17.0689 49.802 15.0022L46.6737 9.91397C45.6469 8.24593 44.21 6.86861 42.5001 5.91324C40.7901 4.95788 38.864 4.4563 36.9053 4.4563C34.9465 4.4563 33.0204 4.95788 31.3105 5.91324C29.6005 6.86861 28.1637 8.24593 27.1369 9.91397L24.0086 15.0022C21.4245 16.3115 19.0544 18.0059 16.9793 20.0272C16.8496 20.141 16.7444 20.28 16.6701 20.4357C16.5958 20.5914 16.5539 20.7606 16.5469 20.933C16.54 21.1054 16.5682 21.2775 16.6298 21.4386C16.6914 21.5998 16.7851 21.7468 16.9052 21.8706C17.0254 21.9945 17.1695 22.0926 17.3287 22.1591C17.4879 22.2255 17.659 22.2589 17.8315 22.2572C18.0041 22.2555 18.1745 22.2188 18.3324 22.1492C18.4903 22.0797 18.6324 21.9787 18.7501 21.8525Z" fill="#002390"/>
<path d="M69.4353 46.9016L65.2804 40.1509C65.1948 40.0046 65.0808 39.8768 64.9451 39.7751C64.8094 39.6734 64.6547 39.5999 64.4902 39.5588C64.3257 39.5177 64.1546 39.5099 63.987 39.5358C63.8194 39.5617 63.6587 39.6208 63.5143 39.7097C63.3699 39.7986 63.2447 39.9154 63.146 40.0533C63.0474 40.1913 62.9773 40.3475 62.9399 40.5129C62.9024 40.6783 62.8984 40.8495 62.928 41.0165C62.9577 41.1834 63.0204 41.3428 63.1124 41.4852L67.2666 48.2358C68.0989 49.5879 68.5555 51.1375 68.5891 52.7249C68.6227 54.3122 68.2321 55.8798 67.4577 57.2659C66.6833 58.652 65.5531 59.8063 64.1837 60.6098C62.8143 61.4133 61.2554 61.8368 59.6676 61.8368H52.2106C51.956 61.8363 51.7071 61.9123 51.4962 62.055C49.9513 63.1026 48.298 63.9807 46.565 64.6741C46.2515 64.7995 46.0006 65.0443 45.8676 65.3547C45.7346 65.6651 45.7303 66.0156 45.8557 66.3292C45.9811 66.6427 46.226 66.8936 46.5364 67.0266C46.8468 67.1597 47.1973 67.1639 47.5108 67.0385C49.2912 66.3254 50.9952 65.4345 52.5969 64.3794H59.6669C61.7076 64.3795 63.7114 63.8351 65.4715 62.8024C67.2317 61.7696 68.6844 60.286 69.6798 58.5045C70.6752 56.723 71.1772 54.7081 71.1341 52.6679C71.091 50.6276 70.5043 48.6358 69.4346 46.8979L69.4353 46.9016Z" fill="#002390"/>
<path d="M42.3795 65.9538C42.234 65.9858 42.0812 66.0171 41.9306 66.0454C41.6192 66.1048 41.3412 66.2782 41.1509 66.5318C40.9606 66.7853 40.8718 67.1007 40.9017 67.4162C40.9316 67.7318 41.0782 68.0249 41.3127 68.2381C41.5473 68.4513 41.8529 68.5694 42.1699 68.5692C42.2514 68.5692 42.3328 68.5616 42.4129 68.5466C42.5788 68.5137 42.7444 68.4797 42.9098 68.4448C43.2401 68.3745 43.529 68.1758 43.7129 67.8925C43.8967 67.6092 43.9605 67.2644 43.8901 66.9341C43.8198 66.6038 43.6211 66.3149 43.3378 66.1311C43.0545 65.9472 42.7098 65.8834 42.3795 65.9538Z" fill="#002390"/>
<path d="M36.9022 66.5309C31.6985 66.5399 26.6127 64.9808 22.3082 62.0567C22.0973 61.914 21.8484 61.838 21.5938 61.8385H14.1367C12.5488 61.8387 10.9896 61.4152 9.61995 60.6116C8.25034 59.808 7.11998 58.6535 6.34553 57.2672C5.57109 55.8809 5.18062 54.3131 5.21442 52.7255C5.24822 51.1379 5.70507 49.5881 6.53782 48.2361L10.6919 41.4854C10.8178 41.2813 10.8834 41.0457 10.8811 40.8059L10.8731 40.5026C10.8637 36.7118 11.6896 32.9655 13.2921 29.5301C13.3674 29.378 13.4115 29.2124 13.4218 29.0429C13.4321 28.8735 13.4085 28.7037 13.3522 28.5436C13.296 28.3835 13.2083 28.2362 13.0943 28.1104C12.9803 27.9847 12.8423 27.883 12.6884 27.8113C12.5345 27.7397 12.3679 27.6995 12.1983 27.6932C12.0287 27.6869 11.8595 27.7146 11.7007 27.7746C11.542 27.8346 11.3968 27.9258 11.2738 28.0428C11.1508 28.1597 11.0524 28.3001 10.9844 28.4556C9.22879 32.2177 8.32151 36.3197 8.32678 40.4713L4.36909 46.9018C3.29934 48.6397 2.71265 50.6315 2.66955 52.6718C2.62645 54.712 3.1285 56.7269 4.12389 58.5083C5.11929 60.2898 6.57199 61.7735 8.33211 62.8062C10.0922 63.839 12.096 64.3834 14.1367 64.3833H21.2068C25.8646 67.4543 31.3231 69.0868 36.9022 69.0773C37.2399 69.0773 37.5637 68.9431 37.8025 68.7044C38.0412 68.4656 38.1754 68.1418 38.1754 67.8041C38.1754 67.4664 38.0412 67.1426 37.8025 66.9038C37.5637 66.6651 37.2399 66.5309 36.9022 66.5309Z" fill="#002390"/>
<path d="M21.061 40.5025C21.0612 43.6356 21.9904 46.6984 23.7312 49.3035C25.472 51.9085 27.9462 53.9389 30.8409 55.1378C33.7356 56.3367 36.9208 56.6503 39.9937 56.039C43.0667 55.4276 45.8893 53.9188 48.1048 51.7033C50.3202 49.4877 51.8289 46.665 52.4401 43.592C53.0513 40.5191 52.7375 37.3339 51.5385 34.4392C50.3394 31.5446 48.309 29.0705 45.7038 27.3298C43.0987 25.5891 40.0359 24.6601 36.9027 24.6601C32.7026 24.6649 28.6759 26.3356 25.706 29.3056C22.7362 32.2756 21.0657 36.3024 21.061 40.5025ZM36.9027 27.2064C39.5325 27.2062 42.1032 27.9859 44.2899 29.4468C46.4765 30.9077 48.1808 32.9842 49.1873 35.4138C50.1937 37.8433 50.4571 40.5167 49.9442 43.096C49.4312 45.6752 48.1649 48.0444 46.3055 49.904C44.446 51.7636 42.0769 53.03 39.4977 53.5431C36.9185 54.0562 34.245 53.7929 31.8154 52.7866C29.3858 51.7802 27.3092 50.076 25.8482 47.8895C24.3872 45.7029 23.6073 43.1322 23.6073 40.5025C23.612 36.9777 25.0142 33.5986 27.5065 31.1061C29.9989 28.6136 33.3779 27.2112 36.9027 27.2064Z" fill="#002390"/>
<path d="M36.9026 50.8005C37.2403 50.8005 37.5641 50.6663 37.8029 50.4275C38.0416 50.1888 38.1758 49.865 38.1758 49.5273C38.1758 49.1896 38.0416 48.8658 37.8029 48.627C37.5641 48.3883 37.2403 48.2541 36.9026 48.2541C35.0554 48.2542 33.2689 47.5946 31.8649 46.3942C30.461 45.1937 29.5318 43.5314 29.2449 41.7066C28.9579 39.8819 29.332 38.0146 30.2998 36.4412C31.2676 34.8678 32.7654 33.6917 34.5235 33.1248C36.2815 32.5579 38.1842 32.6375 39.8889 33.3491C41.5935 34.0607 42.9879 35.3577 43.821 37.0064C44.6541 38.6551 44.8711 40.547 44.4328 42.3415C43.9946 44.136 42.93 45.7149 41.4307 46.794C41.1567 46.9915 40.9724 47.2897 40.9183 47.6231C40.8642 47.9565 40.9448 48.2977 41.1422 48.5717C41.3397 48.8457 41.638 49.03 41.9713 49.0841C42.3047 49.1382 42.6459 49.0576 42.9199 48.8602C44.9117 47.4264 46.326 45.3286 46.9081 42.9446C47.4902 40.5605 47.2018 38.047 46.095 35.8567C44.9881 33.6664 43.1355 31.9433 40.8708 30.9979C38.6062 30.0525 36.0783 29.9468 33.7427 30.6999C31.407 31.4531 29.417 33.0155 28.1312 35.1058C26.8455 37.1961 26.3483 39.6768 26.7295 42.1011C27.1106 44.5254 28.3449 46.734 30.21 48.3289C32.0752 49.9238 34.4485 50.8003 36.9026 50.8005Z" fill="#002390"/>
<path d="M36.9018 14.004C37.2395 14.004 37.5633 13.8699 37.8021 13.6311C38.0408 13.3924 38.175 13.0685 38.175 12.7309C38.175 12.3932 38.0408 12.0694 37.8021 11.8306C37.5633 11.5918 37.2395 11.4577 36.9018 11.4577C36.1419 11.4576 35.399 11.6828 34.767 12.1049C34.1351 12.527 33.6426 13.127 33.3517 13.8291C33.0608 14.5312 32.9846 15.3037 33.1329 16.0491C33.2811 16.7944 33.647 17.4791 34.1844 18.0164C34.7217 18.5538 35.4064 18.9197 36.1517 19.068C36.8971 19.2162 37.6697 19.14 38.3717 18.8491C39.0738 18.5583 39.6738 18.0657 40.0959 17.4338C40.518 16.8019 40.7433 16.0589 40.7431 15.299C40.7431 14.9613 40.609 14.6375 40.3702 14.3987C40.1315 14.16 39.8076 14.0258 39.47 14.0258C39.1323 14.0258 38.8085 14.16 38.5697 14.3987C38.3309 14.6375 38.1968 14.9613 38.1968 15.299C38.1968 15.5551 38.1209 15.8055 37.9786 16.0184C37.8363 16.2314 37.634 16.3974 37.3974 16.4954C37.1608 16.5934 36.9004 16.6191 36.6492 16.5691C36.398 16.5191 36.1672 16.3958 35.9861 16.2147C35.805 16.0336 35.6817 15.8028 35.6317 15.5516C35.5818 15.3004 35.6074 15.0401 35.7054 14.8034C35.8034 14.5668 35.9694 14.3646 36.1824 14.2223C36.3953 14.08 36.6457 14.004 36.9018 14.004Z" fill="#002390"/>
<path d="M9.65088 53.023C9.65088 53.7828 9.87621 54.5257 10.2984 55.1575C10.7205 55.7893 11.3206 56.2817 12.0226 56.5725C12.7247 56.8633 13.4972 56.9394 14.2424 56.7912C14.9877 56.6429 15.6723 56.277 16.2096 55.7397C16.7469 55.2024 17.1128 54.5178 17.2611 53.7725C17.4093 53.0272 17.3333 52.2547 17.0425 51.5527C16.7517 50.8506 16.2592 50.2506 15.6274 49.8284C14.9956 49.4063 14.2528 49.1809 13.4929 49.1809C12.4743 49.1821 11.4977 49.5872 10.7775 50.3075C10.0572 51.0278 9.65203 52.0043 9.65088 53.023ZM14.7879 53.023C14.7879 53.2793 14.7119 53.5298 14.5695 53.7429C14.4271 53.956 14.2247 54.1221 13.9878 54.2201C13.751 54.3182 13.4905 54.3438 13.2391 54.2937C12.9878 54.2437 12.7569 54.1202 12.5757 53.9389C12.3945 53.7576 12.2712 53.5267 12.2213 53.2753C12.1714 53.0239 12.1971 52.7634 12.2953 52.5266C12.3935 52.2899 12.5597 52.0875 12.7728 51.9453C12.986 51.803 13.2366 51.7271 13.4929 51.7272C13.8359 51.7284 14.1645 51.8654 14.4068 52.1082C14.6491 52.351 14.7853 52.6799 14.7857 53.023H14.7879Z" fill="#002390"/>
<path d="M56.4722 53.023C56.4722 53.7829 56.6975 54.5257 57.1197 55.1575C57.5419 55.7894 58.142 56.2818 58.8441 56.5726C59.5462 56.8634 60.3187 56.9394 61.064 56.7911C61.8093 56.6428 62.4939 56.2768 63.0312 55.7394C63.5684 55.202 63.9343 54.5174 64.0825 53.772C64.2306 53.0267 64.1544 52.2542 63.8635 51.5522C63.5726 50.8502 63.0801 50.2502 62.4482 49.8281C61.8163 49.406 61.0734 49.1808 60.3135 49.1809C59.2949 49.1821 58.3184 49.5873 57.5983 50.3076C56.8781 51.0278 56.4731 52.0044 56.4722 53.023ZM60.3135 51.7272C60.5698 51.7271 60.8203 51.803 61.0335 51.9453C61.2467 52.0875 61.4129 52.2899 61.5111 52.5266C61.6092 52.7634 61.635 53.0239 61.5851 53.2753C61.5352 53.5267 61.4118 53.7576 61.2306 53.9389C61.0495 54.1202 60.8186 54.2437 60.5672 54.2937C60.3159 54.3438 60.0553 54.3182 59.8185 54.2201C59.5817 54.1221 59.3793 53.956 59.2369 53.7429C59.0945 53.5298 59.0185 53.2793 59.0185 53.023C59.0189 52.6799 59.1551 52.351 59.3974 52.1082C59.6397 51.8654 59.9683 51.7284 60.3113 51.7272H60.3135Z" fill="#002390"/>
</svg>
