<svg width="485" height="271" viewBox="0 0 485 271" fill="none" xmlns="http://www.w3.org/2000/svg">
<g clip-path="url(#clip0_406_1936)">
<rect width="485" height="271" rx="16" fill="#1A2261"/>
<line x1="60" y1="57.8345" x2="426" y2="57.8345" stroke="#273388" stroke-opacity="0.3"/>
<line x1="60" y1="89.8345" x2="426" y2="89.8345" stroke="#273388" stroke-opacity="0.3"/>
<line x1="60" y1="121.834" x2="426" y2="121.834" stroke="#273388" stroke-opacity="0.3"/>
<line x1="402.5" y1="39.3345" x2="402.5" y2="140.334" stroke="#273388" stroke-opacity="0.3"/>
<line x1="370.5" y1="39.3345" x2="370.5" y2="140.334" stroke="#273388" stroke-opacity="0.3"/>
<line x1="338.5" y1="39.3345" x2="338.5" y2="140.334" stroke="#273388" stroke-opacity="0.3"/>
<line x1="306.5" y1="39.3345" x2="306.5" y2="140.334" stroke="#273388" stroke-opacity="0.3"/>
<line x1="274.5" y1="39.3345" x2="274.5" y2="140.334" stroke="#273388" stroke-opacity="0.3"/>
<line x1="242.5" y1="39.3345" x2="242.5" y2="140.334" stroke="#273388" stroke-opacity="0.3"/>
<line x1="210.5" y1="39.3345" x2="210.5" y2="140.334" stroke="#273388" stroke-opacity="0.3"/>
<line x1="178.5" y1="39.3345" x2="178.5" y2="140.334" stroke="#273388" stroke-opacity="0.3"/>
<line x1="146.5" y1="39.3345" x2="146.5" y2="140.334" stroke="#273388" stroke-opacity="0.3"/>
<line x1="114.5" y1="39.3345" x2="114.5" y2="140.334" stroke="#273388" stroke-opacity="0.3"/>
<line x1="82.5" y1="39.3345" x2="82.5" y2="140.334" stroke="#273388" stroke-opacity="0.3"/>
<path d="M178.549 63.9961V89.7318H211" stroke="url(#paint0_linear_406_1936)" stroke-linecap="round" stroke-linejoin="round"/>
<circle cx="178.5" cy="63.8345" r="4.5" fill="url(#paint1_linear_406_1936)"/>
<path d="M161 121.334L242 121.334" stroke="url(#paint2_linear_406_1936)" stroke-linecap="round" stroke-linejoin="round"/>
<circle cx="158.5" cy="120.834" r="4.5" fill="url(#paint3_linear_406_1936)"/>
<path d="M337 57.3342L256 57.3342" stroke="url(#paint4_linear_406_1936)" stroke-linecap="round" stroke-linejoin="round"/>
<circle cx="339.5" cy="56.8345" r="4.5" transform="rotate(180 339.5 56.8345)" fill="url(#paint5_linear_406_1936)"/>
<path d="M306.451 115.07L306.451 89.3346L274 89.3346" stroke="url(#paint6_linear_406_1936)" stroke-linecap="round" stroke-linejoin="round"/>
<circle cx="306.5" cy="118.232" r="4.5" transform="rotate(180 306.5 118.232)" fill="url(#paint7_linear_406_1936)"/>
<path d="M238.75 50.7424C241.071 49.4027 243.929 49.4027 246.25 50.7424L269.427 64.1236C271.747 65.4634 273.177 67.9393 273.177 70.6188V97.3812C273.177 100.061 271.747 102.537 269.427 103.876L246.25 117.258C243.929 118.597 241.071 118.597 238.75 117.258L215.573 103.876C213.253 102.537 211.823 100.061 211.823 97.3812V70.6188C211.823 67.9393 213.253 65.4634 215.573 64.1236L238.75 50.7424Z" fill="url(#paint8_linear_406_1936)" stroke="url(#paint9_linear_406_1936)"/>
<g clip-path="url(#clip1_406_1936)">
<path d="M242.501 64.3345C231.472 64.3345 222.5 73.3058 222.5 84.3336C222.5 95.3623 231.473 104.334 242.5 104.334C253.528 104.334 262.499 95.3623 262.499 84.3336C262.5 73.3062 253.528 64.3345 242.501 64.3345ZM224.519 84.3336C224.519 81.7272 225.078 79.2518 226.076 77.0161L234.653 100.517C228.656 97.6021 224.519 91.4513 224.519 84.3336ZM242.501 102.317C240.736 102.317 239.032 102.058 237.421 101.584L242.816 85.9068L248.344 101.049C248.38 101.139 248.424 101.22 248.472 101.297C246.603 101.955 244.595 102.317 242.501 102.317ZM244.978 75.9031C246.061 75.8461 247.037 75.7318 247.037 75.7318C248.005 75.6171 247.892 74.1936 246.922 74.2505C246.922 74.2505 244.01 74.4787 242.129 74.4787C240.362 74.4787 237.392 74.2505 237.392 74.2505C236.423 74.1936 236.31 75.6749 237.279 75.7318C237.279 75.7318 238.197 75.8461 239.165 75.9031L241.966 83.5793L238.031 95.381L231.484 75.9035C232.568 75.8469 233.542 75.7322 233.542 75.7322C234.51 75.6179 234.396 74.1936 233.427 74.2518C233.427 74.2518 230.515 74.4799 228.634 74.4799C228.296 74.4799 227.899 74.4712 227.477 74.4583C230.692 69.576 236.219 66.3528 242.501 66.3528C247.183 66.3528 251.445 68.1425 254.643 71.073C254.566 71.0689 254.491 71.0585 254.41 71.0585C252.644 71.0585 251.391 72.5971 251.391 74.2501C251.391 75.7314 252.245 76.9858 253.156 78.4671C253.841 79.6649 254.639 81.204 254.639 83.4263C254.639 84.9658 254.048 86.7513 253.27 89.2393L251.477 95.2331L244.978 75.9031ZM251.54 99.8773L257.033 83.997C258.06 81.4321 258.4 79.381 258.4 77.556C258.4 76.8947 258.357 76.28 258.279 75.7069C259.684 78.2684 260.483 81.2081 260.482 84.3345C260.482 90.9679 256.886 96.7601 251.54 99.8773Z" fill="white"/>
</g>
<g filter="url(#filter0_f_406_1936)">
<circle cx="441.5" cy="198.834" r="39.5" fill="url(#paint10_linear_406_1936)" fill-opacity="0.9"/>
</g>
<path d="M151.856 184L146.408 167.056H150.152L154.136 180.088H152.672L156.56 167.056H159.512L163.4 180.088H161.96L165.92 167.056H169.64L164.192 184H161.24L157.328 170.968H158.72L154.808 184H151.856ZM175.459 184.264C174.259 184.264 173.171 184 172.195 183.472C171.235 182.928 170.475 182.192 169.915 181.264C169.355 180.336 169.075 179.296 169.075 178.144C169.075 176.992 169.355 175.96 169.915 175.048C170.475 174.136 171.235 173.416 172.195 172.888C173.155 172.344 174.243 172.072 175.459 172.072C176.675 172.072 177.763 172.336 178.723 172.864C179.683 173.392 180.443 174.12 181.003 175.048C181.563 175.96 181.843 176.992 181.843 178.144C181.843 179.296 181.563 180.336 181.003 181.264C180.443 182.192 179.683 182.928 178.723 183.472C177.763 184 176.675 184.264 175.459 184.264ZM175.459 180.928C175.987 180.928 176.451 180.816 176.851 180.592C177.251 180.352 177.555 180.024 177.763 179.608C177.987 179.176 178.099 178.688 178.099 178.144C178.099 177.6 177.987 177.128 177.763 176.728C177.539 176.312 177.227 175.992 176.827 175.768C176.443 175.528 175.987 175.408 175.459 175.408C174.947 175.408 174.491 175.528 174.091 175.768C173.691 175.992 173.379 176.312 173.155 176.728C172.931 177.144 172.819 177.624 172.819 178.168C172.819 178.696 172.931 179.176 173.155 179.608C173.379 180.024 173.691 180.352 174.091 180.592C174.491 180.816 174.947 180.928 175.459 180.928ZM183.671 184V172.336H187.343V184H183.671ZM187.343 177.592L185.807 176.392C186.111 175.032 186.623 173.976 187.343 173.224C188.063 172.472 189.063 172.096 190.343 172.096C190.903 172.096 191.391 172.184 191.807 172.36C192.239 172.52 192.615 172.776 192.935 173.128L190.751 175.888C190.591 175.712 190.391 175.576 190.151 175.48C189.911 175.384 189.639 175.336 189.335 175.336C188.727 175.336 188.239 175.528 187.871 175.912C187.519 176.28 187.343 176.84 187.343 177.592ZM198.553 184.24C197.449 184.24 196.465 183.976 195.601 183.448C194.753 182.92 194.081 182.2 193.585 181.288C193.105 180.376 192.865 179.336 192.865 178.168C192.865 177 193.105 175.96 193.585 175.048C194.081 174.136 194.753 173.416 195.601 172.888C196.465 172.36 197.449 172.096 198.553 172.096C199.353 172.096 200.073 172.248 200.713 172.552C201.369 172.856 201.905 173.28 202.321 173.824C202.753 174.352 202.993 174.96 203.041 175.648V180.568C202.993 181.256 202.761 181.88 202.345 182.44C201.929 182.984 201.393 183.424 200.737 183.76C200.081 184.08 199.353 184.24 198.553 184.24ZM199.201 180.928C199.729 180.928 200.185 180.816 200.569 180.592C200.953 180.352 201.257 180.024 201.481 179.608C201.705 179.192 201.817 178.712 201.817 178.168C201.817 177.624 201.705 177.152 201.481 176.752C201.273 176.336 200.969 176.008 200.569 175.768C200.185 175.528 199.737 175.408 199.225 175.408C198.713 175.408 198.257 175.528 197.857 175.768C197.473 176.008 197.161 176.336 196.921 176.752C196.697 177.168 196.585 177.64 196.585 178.168C196.585 178.696 196.697 179.168 196.921 179.584C197.145 180 197.457 180.328 197.857 180.568C198.257 180.808 198.705 180.928 199.201 180.928ZM205.273 184H201.673V180.856L202.225 178.024L201.601 175.192V166.576H205.273V184ZM214.579 184.24C213.795 184.24 213.075 184.088 212.419 183.784C211.763 183.48 211.227 183.064 210.811 182.536C210.395 181.992 210.155 181.376 210.09 180.688V175.768C210.155 175.08 210.395 174.456 210.811 173.896C211.227 173.336 211.763 172.896 212.419 172.576C213.075 172.256 213.795 172.096 214.579 172.096C215.683 172.096 216.659 172.36 217.507 172.888C218.371 173.416 219.043 174.136 219.523 175.048C220.019 175.96 220.267 177 220.267 178.168C220.267 179.336 220.019 180.376 219.523 181.288C219.043 182.2 218.371 182.92 217.507 183.448C216.659 183.976 215.683 184.24 214.579 184.24ZM213.907 180.928C214.435 180.928 214.891 180.808 215.275 180.568C215.675 180.328 215.987 180 216.211 179.584C216.435 179.168 216.547 178.696 216.547 178.168C216.547 177.624 216.435 177.144 216.211 176.728C215.987 176.312 215.675 175.992 215.275 175.768C214.891 175.528 214.443 175.408 213.931 175.408C213.419 175.408 212.963 175.528 212.562 175.768C212.179 175.992 211.875 176.312 211.651 176.728C211.427 177.144 211.315 177.624 211.315 178.168C211.315 178.696 211.419 179.168 211.627 179.584C211.851 180 212.163 180.328 212.562 180.568C212.963 180.808 213.411 180.928 213.907 180.928ZM207.859 188.92V172.336H211.531V175.336L210.931 178.168L211.483 181V188.92H207.859ZM222.132 184V172.336H225.804V184H222.132ZM225.804 177.592L224.268 176.392C224.572 175.032 225.084 173.976 225.804 173.224C226.524 172.472 227.524 172.096 228.804 172.096C229.364 172.096 229.852 172.184 230.268 172.36C230.7 172.52 231.076 172.776 231.396 173.128L229.212 175.888C229.052 175.712 228.852 175.576 228.612 175.48C228.372 175.384 228.1 175.336 227.796 175.336C227.188 175.336 226.7 175.528 226.332 175.912C225.98 176.28 225.804 176.84 225.804 177.592ZM237.806 184.264C236.542 184.264 235.414 184.008 234.422 183.496C233.446 182.968 232.678 182.24 232.118 181.312C231.558 180.384 231.278 179.336 231.278 178.168C231.278 177 231.55 175.96 232.094 175.048C232.654 174.12 233.406 173.392 234.35 172.864C235.294 172.336 236.358 172.072 237.542 172.072C238.694 172.072 239.71 172.32 240.59 172.816C241.47 173.312 242.158 174 242.654 174.88C243.166 175.76 243.422 176.768 243.422 177.904C243.422 178.112 243.406 178.336 243.374 178.576C243.358 178.8 243.318 179.064 243.254 179.368L233.198 179.392V176.872L241.694 176.848L240.11 177.904C240.094 177.232 239.99 176.68 239.798 176.248C239.606 175.8 239.318 175.464 238.934 175.24C238.566 175 238.11 174.88 237.566 174.88C236.99 174.88 236.486 175.016 236.054 175.288C235.638 175.544 235.31 175.912 235.07 176.392C234.846 176.872 234.734 177.456 234.734 178.144C234.734 178.832 234.854 179.424 235.094 179.92C235.35 180.4 235.702 180.776 236.15 181.048C236.614 181.304 237.158 181.432 237.782 181.432C238.358 181.432 238.878 181.336 239.342 181.144C239.806 180.936 240.214 180.632 240.566 180.232L242.582 182.248C242.006 182.92 241.31 183.424 240.494 183.76C239.678 184.096 238.782 184.264 237.806 184.264ZM249.442 184.288C248.754 184.288 248.074 184.2 247.402 184.024C246.746 183.848 246.13 183.6 245.554 183.28C244.994 182.944 244.514 182.56 244.114 182.128L246.202 180.016C246.586 180.432 247.042 180.76 247.57 181C248.098 181.224 248.674 181.336 249.298 181.336C249.73 181.336 250.058 181.272 250.282 181.144C250.522 181.016 250.642 180.84 250.642 180.616C250.642 180.328 250.498 180.112 250.21 179.968C249.938 179.808 249.586 179.672 249.154 179.56C248.722 179.432 248.266 179.296 247.786 179.152C247.306 179.008 246.85 178.808 246.418 178.552C245.986 178.296 245.634 177.944 245.362 177.496C245.09 177.032 244.954 176.448 244.954 175.744C244.954 174.992 245.146 174.344 245.53 173.8C245.914 173.24 246.458 172.8 247.162 172.48C247.866 172.16 248.69 172 249.634 172C250.626 172 251.538 172.176 252.37 172.528C253.218 172.864 253.906 173.368 254.434 174.04L252.346 176.152C251.978 175.72 251.562 175.416 251.098 175.24C250.65 175.064 250.21 174.976 249.778 174.976C249.362 174.976 249.05 175.04 248.842 175.168C248.634 175.28 248.53 175.448 248.53 175.672C248.53 175.912 248.666 176.104 248.938 176.248C249.21 176.392 249.562 176.52 249.994 176.632C250.426 176.744 250.882 176.88 251.362 177.04C251.842 177.2 252.298 177.416 252.73 177.688C253.162 177.96 253.514 178.328 253.786 178.792C254.058 179.24 254.194 179.832 254.194 180.568C254.194 181.704 253.762 182.608 252.898 183.28C252.05 183.952 250.898 184.288 249.442 184.288ZM260.435 184.288C259.747 184.288 259.067 184.2 258.395 184.024C257.739 183.848 257.123 183.6 256.547 183.28C255.987 182.944 255.507 182.56 255.107 182.128L257.195 180.016C257.579 180.432 258.035 180.76 258.563 181C259.091 181.224 259.667 181.336 260.291 181.336C260.723 181.336 261.051 181.272 261.275 181.144C261.515 181.016 261.635 180.84 261.635 180.616C261.635 180.328 261.491 180.112 261.203 179.968C260.931 179.808 260.579 179.672 260.147 179.56C259.715 179.432 259.259 179.296 258.779 179.152C258.299 179.008 257.843 178.808 257.411 178.552C256.979 178.296 256.627 177.944 256.355 177.496C256.083 177.032 255.947 176.448 255.947 175.744C255.947 174.992 256.139 174.344 256.523 173.8C256.907 173.24 257.451 172.8 258.155 172.48C258.859 172.16 259.683 172 260.627 172C261.619 172 262.531 172.176 263.363 172.528C264.211 172.864 264.899 173.368 265.427 174.04L263.339 176.152C262.971 175.72 262.555 175.416 262.091 175.24C261.643 175.064 261.203 174.976 260.771 174.976C260.355 174.976 260.043 175.04 259.835 175.168C259.627 175.28 259.523 175.448 259.523 175.672C259.523 175.912 259.659 176.104 259.931 176.248C260.203 176.392 260.555 176.52 260.987 176.632C261.419 176.744 261.875 176.88 262.355 177.04C262.835 177.2 263.291 177.416 263.723 177.688C264.155 177.96 264.507 178.328 264.779 178.792C265.051 179.24 265.187 179.832 265.187 180.568C265.187 181.704 264.755 182.608 263.891 183.28C263.043 183.952 261.891 184.288 260.435 184.288ZM274.965 177.832V174.904H278.613C279.077 174.904 279.501 174.808 279.885 174.616C280.269 174.424 280.573 174.144 280.797 173.776C281.021 173.408 281.133 172.96 281.133 172.432C281.133 171.92 281.021 171.48 280.797 171.112C280.573 170.744 280.269 170.464 279.885 170.272C279.501 170.08 279.077 169.984 278.613 169.984H274.965V167.056H279.165C280.237 167.056 281.205 167.272 282.069 167.704C282.933 168.136 283.613 168.76 284.109 169.576C284.621 170.376 284.877 171.328 284.877 172.432C284.877 173.536 284.621 174.496 284.109 175.312C283.613 176.112 282.933 176.736 282.069 177.184C281.205 177.616 280.237 177.832 279.165 177.832H274.965ZM272.085 184V167.056H275.853V184H272.085ZM286.819 184V166.576H290.491V184H286.819ZM298.261 184.264C297.189 184.264 296.237 184.048 295.405 183.616C294.589 183.168 293.949 182.56 293.485 181.792C293.021 181.008 292.789 180.112 292.789 179.104V172.336H296.461V179.056C296.461 179.456 296.525 179.8 296.653 180.088C296.797 180.376 297.005 180.6 297.277 180.76C297.549 180.92 297.877 181 298.261 181C298.805 181 299.237 180.832 299.557 180.496C299.877 180.144 300.037 179.664 300.037 179.056V172.336H303.709V179.08C303.709 180.104 303.477 181.008 303.013 181.792C302.549 182.56 301.909 183.168 301.093 183.616C300.277 184.048 299.333 184.264 298.261 184.264ZM310.959 189.232C309.679 189.232 308.551 189.008 307.575 188.56C306.615 188.128 305.855 187.512 305.295 186.712L307.551 184.456C307.967 184.952 308.431 185.328 308.943 185.584C309.471 185.84 310.103 185.968 310.839 185.968C311.751 185.968 312.463 185.744 312.975 185.296C313.503 184.848 313.767 184.216 313.767 183.4V180.424L314.391 177.88L313.839 175.336V172.336H317.439V183.304C317.439 184.504 317.159 185.544 316.599 186.424C316.039 187.304 315.271 187.992 314.295 188.488C313.319 188.984 312.207 189.232 310.959 189.232ZM310.791 183.64C309.719 183.64 308.767 183.384 307.935 182.872C307.103 182.36 306.447 181.664 305.967 180.784C305.487 179.904 305.247 178.928 305.247 177.856C305.247 176.768 305.487 175.792 305.967 174.928C306.447 174.048 307.103 173.36 307.935 172.864C308.767 172.352 309.719 172.096 310.791 172.096C311.591 172.096 312.303 172.248 312.927 172.552C313.567 172.84 314.079 173.256 314.463 173.8C314.863 174.328 315.087 174.944 315.135 175.648V180.088C315.087 180.776 314.863 181.392 314.463 181.936C314.079 182.464 313.567 182.88 312.927 183.184C312.287 183.488 311.575 183.64 310.791 183.64ZM311.487 180.376C311.999 180.376 312.439 180.264 312.807 180.04C313.191 179.816 313.479 179.52 313.671 179.152C313.879 178.768 313.983 178.336 313.983 177.856C313.983 177.376 313.879 176.944 313.671 176.56C313.479 176.176 313.191 175.872 312.807 175.648C312.439 175.424 311.999 175.312 311.487 175.312C310.991 175.312 310.551 175.424 310.167 175.648C309.783 175.872 309.487 176.176 309.279 176.56C309.071 176.944 308.967 177.376 308.967 177.856C308.967 178.304 309.071 178.728 309.279 179.128C309.487 179.512 309.775 179.816 310.143 180.04C310.527 180.264 310.975 180.376 311.487 180.376ZM320.03 184V172.336H323.702V184H320.03ZM321.878 170.728C321.302 170.728 320.822 170.536 320.438 170.152C320.07 169.752 319.886 169.272 319.886 168.712C319.886 168.136 320.07 167.656 320.438 167.272C320.822 166.888 321.302 166.696 321.878 166.696C322.454 166.696 322.926 166.888 323.294 167.272C323.662 167.656 323.846 168.136 323.846 168.712C323.846 169.272 323.662 169.752 323.294 170.152C322.926 170.536 322.454 170.728 321.878 170.728ZM333.992 184V177.352C333.992 176.744 333.8 176.256 333.416 175.888C333.048 175.504 332.576 175.312 332 175.312C331.6 175.312 331.248 175.4 330.944 175.576C330.64 175.736 330.4 175.976 330.224 176.296C330.048 176.6 329.96 176.952 329.96 177.352L328.544 176.656C328.544 175.744 328.744 174.944 329.144 174.256C329.544 173.568 330.096 173.04 330.8 172.672C331.52 172.288 332.328 172.096 333.224 172.096C334.088 172.096 334.848 172.304 335.504 172.72C336.176 173.12 336.704 173.656 337.088 174.328C337.472 175 337.664 175.736 337.664 176.536V184H333.992ZM326.288 184V172.336H329.96V184H326.288Z" fill="white"/>
<path d="M60.6656 217.16C59.791 217.16 59.0443 217 58.4256 216.68C57.807 216.36 57.2576 215.896 56.7776 215.288L57.8016 214.264C58.1536 214.755 58.559 215.128 59.0176 215.384C59.4763 215.629 60.0416 215.752 60.7136 215.752C61.375 215.752 61.903 215.608 62.2976 215.32C62.703 215.032 62.9056 214.637 62.9056 214.136C62.9056 213.72 62.8096 213.384 62.6176 213.128C62.4256 212.872 62.1643 212.664 61.8336 212.504C61.5136 212.333 61.1616 212.184 60.7776 212.056C60.3936 211.917 60.0096 211.773 59.6256 211.624C59.2416 211.464 58.8896 211.272 58.5696 211.048C58.2496 210.813 57.9883 210.509 57.7856 210.136C57.5936 209.763 57.4976 209.293 57.4976 208.728C57.4976 208.099 57.647 207.565 57.9456 207.128C58.255 206.68 58.671 206.339 59.1936 206.104C59.727 205.859 60.3243 205.736 60.9856 205.736C61.711 205.736 62.3616 205.88 62.9376 206.168C63.5136 206.445 63.983 206.813 64.3456 207.272L63.3216 208.296C62.991 207.912 62.6336 207.624 62.2496 207.432C61.8763 207.24 61.4443 207.144 60.9536 207.144C60.3563 207.144 59.8816 207.277 59.5296 207.544C59.1776 207.8 59.0016 208.163 59.0016 208.632C59.0016 209.005 59.0976 209.309 59.2896 209.544C59.4923 209.768 59.7536 209.96 60.0736 210.12C60.3936 210.28 60.7456 210.429 61.1296 210.568C61.5243 210.696 61.9136 210.84 62.2976 211C62.6816 211.16 63.0336 211.363 63.3536 211.608C63.6736 211.853 63.9296 212.173 64.1216 212.568C64.3243 212.952 64.4256 213.437 64.4256 214.024C64.4256 215.005 64.0843 215.773 63.4016 216.328C62.7296 216.883 61.8176 217.16 60.6656 217.16ZM71.5726 217V212.568C71.5726 211.992 71.3913 211.517 71.0286 211.144C70.666 210.771 70.1966 210.584 69.6206 210.584C69.2366 210.584 68.8953 210.669 68.5966 210.84C68.298 211.011 68.0633 211.245 67.8926 211.544C67.722 211.843 67.6366 212.184 67.6366 212.568L67.0446 212.232C67.0446 211.656 67.1726 211.144 67.4286 210.696C67.6846 210.248 68.042 209.896 68.5006 209.64C68.9593 209.373 69.4766 209.24 70.0526 209.24C70.6286 209.24 71.1353 209.368 71.5726 209.624C72.0206 209.88 72.3726 210.237 72.6286 210.696C72.8846 211.155 73.0126 211.683 73.0126 212.28V217H71.5726ZM66.1966 217V205.576H67.6366V217H66.1966ZM78.4343 217.16C77.6876 217.16 77.0156 216.984 76.4183 216.632C75.8209 216.28 75.3463 215.805 74.9943 215.208C74.6423 214.6 74.4663 213.923 74.4663 213.176C74.4663 212.44 74.6423 211.779 74.9943 211.192C75.3463 210.595 75.8209 210.12 76.4183 209.768C77.0156 209.416 77.6876 209.24 78.4343 209.24C79.1703 209.24 79.8369 209.416 80.4343 209.768C81.0423 210.109 81.5223 210.579 81.8743 211.176C82.2263 211.773 82.4023 212.44 82.4023 213.176C82.4023 213.923 82.2263 214.6 81.8743 215.208C81.5223 215.805 81.0423 216.28 80.4343 216.632C79.8369 216.984 79.1703 217.16 78.4343 217.16ZM78.4343 215.768C78.9143 215.768 79.3409 215.656 79.7143 215.432C80.0876 215.208 80.3809 214.904 80.5943 214.52C80.8076 214.125 80.9143 213.677 80.9143 213.176C80.9143 212.685 80.8023 212.248 80.5783 211.864C80.3649 211.48 80.0716 211.181 79.6983 210.968C79.3356 210.744 78.9143 210.632 78.4343 210.632C77.9543 210.632 77.5276 210.744 77.1543 210.968C76.7809 211.181 76.4876 211.48 76.2743 211.864C76.0609 212.248 75.9543 212.685 75.9543 213.176C75.9543 213.677 76.0609 214.125 76.2743 214.52C76.4876 214.904 76.7809 215.208 77.1543 215.432C77.5276 215.656 77.9543 215.768 78.4343 215.768ZM88.0248 217.16C87.4488 217.16 86.9261 217.043 86.4568 216.808C85.9981 216.563 85.6301 216.227 85.3528 215.8C85.0754 215.373 84.9208 214.888 84.8888 214.344V212.056C84.9208 211.501 85.0754 211.016 85.3528 210.6C85.6408 210.173 86.0141 209.843 86.4728 209.608C86.9421 209.363 87.4594 209.24 88.0248 209.24C88.7181 209.24 89.3421 209.416 89.8968 209.768C90.4621 210.12 90.9048 210.595 91.2248 211.192C91.5448 211.789 91.7048 212.461 91.7048 213.208C91.7048 213.955 91.5448 214.627 91.2248 215.224C90.9048 215.821 90.4621 216.296 89.8968 216.648C89.3421 216.989 88.7181 217.16 88.0248 217.16ZM87.7848 215.8C88.2648 215.8 88.6861 215.688 89.0488 215.464C89.4114 215.24 89.6994 214.936 89.9128 214.552C90.1261 214.157 90.2328 213.704 90.2328 213.192C90.2328 212.691 90.1261 212.243 89.9128 211.848C89.6994 211.453 89.4114 211.149 89.0488 210.936C88.6861 210.712 88.2701 210.6 87.8008 210.6C87.3208 210.6 86.8994 210.712 86.5368 210.936C86.1741 211.149 85.8914 211.453 85.6888 211.848C85.4861 212.243 85.3848 212.696 85.3848 213.208C85.3848 213.709 85.4808 214.157 85.6728 214.552C85.8754 214.936 86.1581 215.24 86.5208 215.464C86.8941 215.688 87.3154 215.8 87.7848 215.8ZM84.0247 220.184V209.4H85.4648V211.4L85.1928 213.24L85.4648 215.096V220.184H84.0247ZM100.665 217.16C100.089 217.16 99.5667 217.043 99.0974 216.808C98.6387 216.563 98.2707 216.227 97.9934 215.8C97.716 215.373 97.5614 214.888 97.5294 214.344V212.056C97.5614 211.501 97.716 211.016 97.9934 210.6C98.2814 210.173 98.6547 209.843 99.1134 209.608C99.5827 209.363 100.1 209.24 100.665 209.24C101.359 209.24 101.983 209.416 102.537 209.768C103.103 210.12 103.545 210.595 103.865 211.192C104.185 211.789 104.345 212.461 104.345 213.208C104.345 213.955 104.185 214.627 103.865 215.224C103.545 215.821 103.103 216.296 102.537 216.648C101.983 216.989 101.359 217.16 100.665 217.16ZM100.425 215.8C100.905 215.8 101.327 215.688 101.689 215.464C102.052 215.24 102.34 214.936 102.553 214.552C102.767 214.157 102.873 213.704 102.873 213.192C102.873 212.691 102.767 212.243 102.553 211.848C102.34 211.453 102.052 211.149 101.689 210.936C101.327 210.712 100.911 210.6 100.441 210.6C99.9614 210.6 99.54 210.712 99.1774 210.936C98.8147 211.149 98.532 211.453 98.3294 211.848C98.1267 212.243 98.0254 212.696 98.0254 213.208C98.0254 213.709 98.1214 214.157 98.3134 214.552C98.516 214.936 98.7987 215.24 99.1614 215.464C99.5347 215.688 99.956 215.8 100.425 215.8ZM96.6654 217V205.576H98.1054V211.256L97.8334 213.096L98.1054 214.952V217H96.6654ZM108.177 217.064L104.881 209.4H106.481L108.929 215.4H108.417L110.993 209.4H112.593L109.041 217.064H108.177ZM106.001 220.184L108.241 215.592L109.041 217.064L107.601 220.184H106.001ZM120.572 217.16C119.697 217.16 118.951 217 118.332 216.68C117.713 216.36 117.164 215.896 116.684 215.288L117.708 214.264C118.06 214.755 118.465 215.128 118.924 215.384C119.383 215.629 119.948 215.752 120.62 215.752C121.281 215.752 121.809 215.608 122.204 215.32C122.609 215.032 122.812 214.637 122.812 214.136C122.812 213.72 122.716 213.384 122.524 213.128C122.332 212.872 122.071 212.664 121.74 212.504C121.42 212.333 121.068 212.184 120.684 212.056C120.3 211.917 119.916 211.773 119.532 211.624C119.148 211.464 118.796 211.272 118.476 211.048C118.156 210.813 117.895 210.509 117.692 210.136C117.5 209.763 117.404 209.293 117.404 208.728C117.404 208.099 117.553 207.565 117.852 207.128C118.161 206.68 118.577 206.339 119.1 206.104C119.633 205.859 120.231 205.736 120.892 205.736C121.617 205.736 122.268 205.88 122.844 206.168C123.42 206.445 123.889 206.813 124.252 207.272L123.228 208.296C122.897 207.912 122.54 207.624 122.156 207.432C121.783 207.24 121.351 207.144 120.86 207.144C120.263 207.144 119.788 207.277 119.436 207.544C119.084 207.8 118.908 208.163 118.908 208.632C118.908 209.005 119.004 209.309 119.196 209.544C119.399 209.768 119.66 209.96 119.98 210.12C120.3 210.28 120.652 210.429 121.036 210.568C121.431 210.696 121.82 210.84 122.204 211C122.588 211.16 122.94 211.363 123.26 211.608C123.58 211.853 123.836 212.173 124.028 212.568C124.231 212.952 124.332 213.437 124.332 214.024C124.332 215.005 123.991 215.773 123.308 216.328C122.636 216.883 121.724 217.16 120.572 217.16ZM126.119 217V209.4H127.559V217H126.119ZM126.839 207.88C126.572 207.88 126.354 207.795 126.183 207.624C126.012 207.443 125.927 207.219 125.927 206.952C125.927 206.696 126.012 206.483 126.183 206.312C126.354 206.131 126.572 206.04 126.839 206.04C127.106 206.04 127.324 206.131 127.495 206.312C127.666 206.483 127.751 206.696 127.751 206.952C127.751 207.219 127.666 207.443 127.495 207.624C127.324 207.795 127.106 207.88 126.839 207.88ZM129.681 217V209.4H131.121V217H129.681ZM134.817 217V212.408C134.817 211.843 134.641 211.4 134.289 211.08C133.948 210.749 133.516 210.584 132.993 210.584C132.641 210.584 132.326 210.659 132.049 210.808C131.772 210.957 131.548 211.165 131.377 211.432C131.206 211.699 131.121 212.019 131.121 212.392L130.529 212.104C130.529 211.528 130.652 211.027 130.897 210.6C131.153 210.173 131.5 209.843 131.937 209.608C132.374 209.363 132.865 209.24 133.409 209.24C133.942 209.24 134.422 209.357 134.849 209.592C135.286 209.827 135.628 210.157 135.873 210.584C136.129 211.011 136.257 211.517 136.257 212.104V217H134.817ZM139.953 217V212.408C139.953 211.843 139.777 211.4 139.425 211.08C139.084 210.749 138.657 210.584 138.145 210.584C137.793 210.584 137.473 210.659 137.185 210.808C136.908 210.957 136.684 211.165 136.513 211.432C136.342 211.699 136.257 212.019 136.257 212.392L135.441 212.104C135.473 211.517 135.628 211.016 135.905 210.6C136.193 210.173 136.561 209.843 137.009 209.608C137.457 209.363 137.948 209.24 138.481 209.24C139.036 209.24 139.532 209.357 139.969 209.592C140.406 209.827 140.753 210.157 141.009 210.584C141.276 211.011 141.409 211.523 141.409 212.12V217H139.953ZM147.369 217.16C146.793 217.16 146.27 217.043 145.801 216.808C145.342 216.563 144.974 216.227 144.697 215.8C144.419 215.373 144.265 214.888 144.233 214.344V212.056C144.265 211.501 144.419 211.016 144.697 210.6C144.985 210.173 145.358 209.843 145.817 209.608C146.286 209.363 146.803 209.24 147.369 209.24C148.062 209.24 148.686 209.416 149.241 209.768C149.806 210.12 150.249 210.595 150.569 211.192C150.889 211.789 151.049 212.461 151.049 213.208C151.049 213.955 150.889 214.627 150.569 215.224C150.249 215.821 149.806 216.296 149.241 216.648C148.686 216.989 148.062 217.16 147.369 217.16ZM147.129 215.8C147.609 215.8 148.03 215.688 148.393 215.464C148.755 215.24 149.043 214.936 149.257 214.552C149.47 214.157 149.577 213.704 149.577 213.192C149.577 212.691 149.47 212.243 149.257 211.848C149.043 211.453 148.755 211.149 148.393 210.936C148.03 210.712 147.614 210.6 147.145 210.6C146.665 210.6 146.243 210.712 145.881 210.936C145.518 211.149 145.235 211.453 145.033 211.848C144.83 212.243 144.729 212.696 144.729 213.208C144.729 213.709 144.825 214.157 145.017 214.552C145.219 214.936 145.502 215.24 145.865 215.464C146.238 215.688 146.659 215.8 147.129 215.8ZM143.368 220.184V209.4H144.809V211.4L144.537 213.24L144.809 215.096V220.184H143.368ZM152.681 217V205.576H154.121V217H152.681ZM158.724 217.064L155.428 209.4H157.028L159.476 215.4H158.964L161.54 209.4H163.14L159.588 217.064H158.724ZM156.548 220.184L158.788 215.592L159.588 217.064L158.148 220.184H156.548ZM171.119 217.16C170.244 217.16 169.497 217 168.879 216.68C168.26 216.36 167.711 215.896 167.231 215.288L168.255 214.264C168.607 214.755 169.012 215.128 169.471 215.384C169.929 215.629 170.495 215.752 171.167 215.752C171.828 215.752 172.356 215.608 172.751 215.32C173.156 215.032 173.359 214.637 173.359 214.136C173.359 213.72 173.263 213.384 173.071 213.128C172.879 212.872 172.617 212.664 172.287 212.504C171.967 212.333 171.615 212.184 171.231 212.056C170.847 211.917 170.463 211.773 170.079 211.624C169.695 211.464 169.343 211.272 169.023 211.048C168.703 210.813 168.441 210.509 168.239 210.136C168.047 209.763 167.951 209.293 167.951 208.728C167.951 208.099 168.1 207.565 168.399 207.128C168.708 206.68 169.124 206.339 169.647 206.104C170.18 205.859 170.777 205.736 171.439 205.736C172.164 205.736 172.815 205.88 173.391 206.168C173.967 206.445 174.436 206.813 174.799 207.272L173.775 208.296C173.444 207.912 173.087 207.624 172.703 207.432C172.329 207.24 171.897 207.144 171.407 207.144C170.809 207.144 170.335 207.277 169.983 207.544C169.631 207.8 169.455 208.163 169.455 208.632C169.455 209.005 169.551 209.309 169.743 209.544C169.945 209.768 170.207 209.96 170.527 210.12C170.847 210.28 171.199 210.429 171.583 210.568C171.977 210.696 172.367 210.84 172.751 211C173.135 211.16 173.487 211.363 173.807 211.608C174.127 211.853 174.383 212.173 174.575 212.568C174.777 212.952 174.879 213.437 174.879 214.024C174.879 215.005 174.537 215.773 173.855 216.328C173.183 216.883 172.271 217.16 171.119 217.16ZM182.026 217V212.568C182.026 211.992 181.844 211.517 181.482 211.144C181.119 210.771 180.65 210.584 180.074 210.584C179.69 210.584 179.348 210.669 179.05 210.84C178.751 211.011 178.516 211.245 178.346 211.544C178.175 211.843 178.09 212.184 178.09 212.568L177.498 212.232C177.498 211.656 177.626 211.144 177.882 210.696C178.138 210.248 178.495 209.896 178.954 209.64C179.412 209.373 179.93 209.24 180.506 209.24C181.082 209.24 181.588 209.384 182.026 209.672C182.474 209.96 182.826 210.339 183.082 210.808C183.338 211.267 183.466 211.757 183.466 212.28V217H182.026ZM176.65 217V209.4H178.09V217H176.65ZM188.647 217.16C187.954 217.16 187.325 216.989 186.759 216.648C186.194 216.296 185.746 215.821 185.415 215.224C185.095 214.627 184.935 213.955 184.935 213.208C184.935 212.461 185.095 211.789 185.415 211.192C185.746 210.595 186.189 210.12 186.743 209.768C187.309 209.416 187.943 209.24 188.647 209.24C189.223 209.24 189.735 209.363 190.183 209.608C190.642 209.843 191.01 210.173 191.287 210.6C191.565 211.016 191.719 211.501 191.751 212.056V214.344C191.719 214.888 191.565 215.373 191.287 215.8C191.021 216.227 190.658 216.563 190.199 216.808C189.751 217.043 189.234 217.16 188.647 217.16ZM188.887 215.8C189.602 215.8 190.178 215.56 190.615 215.08C191.053 214.589 191.271 213.965 191.271 213.208C191.271 212.685 191.17 212.232 190.967 211.848C190.775 211.453 190.498 211.149 190.135 210.936C189.773 210.712 189.351 210.6 188.871 210.6C188.391 210.6 187.965 210.712 187.591 210.936C187.229 211.16 186.941 211.469 186.727 211.864C186.525 212.248 186.423 212.691 186.423 213.192C186.423 213.704 186.525 214.157 186.727 214.552C186.941 214.936 187.234 215.24 187.607 215.464C187.981 215.688 188.407 215.8 188.887 215.8ZM191.175 217V214.952L191.447 213.096L191.175 211.256V209.4H192.631V217H191.175ZM198.728 217.16C198.152 217.16 197.629 217.043 197.16 216.808C196.701 216.563 196.333 216.227 196.056 215.8C195.779 215.373 195.624 214.888 195.592 214.344V212.056C195.624 211.501 195.779 211.016 196.056 210.6C196.344 210.173 196.717 209.843 197.176 209.608C197.645 209.363 198.163 209.24 198.728 209.24C199.421 209.24 200.045 209.416 200.6 209.768C201.165 210.12 201.608 210.595 201.928 211.192C202.248 211.789 202.408 212.461 202.408 213.208C202.408 213.955 202.248 214.627 201.928 215.224C201.608 215.821 201.165 216.296 200.6 216.648C200.045 216.989 199.421 217.16 198.728 217.16ZM198.488 215.8C198.968 215.8 199.389 215.688 199.752 215.464C200.115 215.24 200.403 214.936 200.616 214.552C200.829 214.157 200.936 213.704 200.936 213.192C200.936 212.691 200.829 212.243 200.616 211.848C200.403 211.453 200.115 211.149 199.752 210.936C199.389 210.712 198.973 210.6 198.504 210.6C198.024 210.6 197.603 210.712 197.24 210.936C196.877 211.149 196.595 211.453 196.392 211.848C196.189 212.243 196.088 212.696 196.088 213.208C196.088 213.709 196.184 214.157 196.376 214.552C196.579 214.936 196.861 215.24 197.224 215.464C197.597 215.688 198.019 215.8 198.488 215.8ZM194.728 220.184V209.4H196.168V211.4L195.896 213.24L196.168 215.096V220.184H194.728ZM208.04 217.16C207.464 217.16 206.942 217.043 206.472 216.808C206.014 216.563 205.646 216.227 205.368 215.8C205.091 215.373 204.936 214.888 204.904 214.344V212.056C204.936 211.501 205.091 211.016 205.368 210.6C205.656 210.173 206.03 209.843 206.488 209.608C206.958 209.363 207.475 209.24 208.04 209.24C208.734 209.24 209.358 209.416 209.912 209.768C210.478 210.12 210.92 210.595 211.24 211.192C211.56 211.789 211.72 212.461 211.72 213.208C211.72 213.955 211.56 214.627 211.24 215.224C210.92 215.821 210.478 216.296 209.912 216.648C209.358 216.989 208.734 217.16 208.04 217.16ZM207.8 215.8C208.28 215.8 208.702 215.688 209.064 215.464C209.427 215.24 209.715 214.936 209.928 214.552C210.142 214.157 210.248 213.704 210.248 213.192C210.248 212.691 210.142 212.243 209.928 211.848C209.715 211.453 209.427 211.149 209.064 210.936C208.702 210.712 208.286 210.6 207.816 210.6C207.336 210.6 206.915 210.712 206.552 210.936C206.19 211.149 205.907 211.453 205.704 211.848C205.502 212.243 205.4 212.696 205.4 213.208C205.4 213.709 205.496 214.157 205.688 214.552C205.891 214.936 206.174 215.24 206.536 215.464C206.91 215.688 207.331 215.8 207.8 215.8ZM204.04 220.184V209.4H205.48V211.4L205.208 213.24L205.48 215.096V220.184H204.04ZM213.369 217V209.4H214.809V217H213.369ZM214.089 207.88C213.822 207.88 213.604 207.795 213.433 207.624C213.262 207.443 213.177 207.219 213.177 206.952C213.177 206.696 213.262 206.483 213.433 206.312C213.604 206.131 213.822 206.04 214.089 206.04C214.356 206.04 214.574 206.131 214.745 206.312C214.916 206.483 215.001 206.696 215.001 206.952C215.001 207.219 214.916 207.443 214.745 207.624C214.574 207.795 214.356 207.88 214.089 207.88ZM222.307 217V212.568C222.307 211.992 222.126 211.517 221.763 211.144C221.4 210.771 220.931 210.584 220.355 210.584C219.971 210.584 219.63 210.669 219.331 210.84C219.032 211.011 218.798 211.245 218.627 211.544C218.456 211.843 218.371 212.184 218.371 212.568L217.779 212.232C217.779 211.656 217.907 211.144 218.163 210.696C218.419 210.248 218.776 209.896 219.235 209.64C219.694 209.373 220.211 209.24 220.787 209.24C221.363 209.24 221.87 209.384 222.307 209.672C222.755 209.96 223.107 210.339 223.363 210.808C223.619 211.267 223.747 211.757 223.747 212.28V217H222.307ZM216.931 217V209.4H218.371V217H216.931ZM228.849 220.344C228.07 220.344 227.377 220.2 226.769 219.912C226.171 219.624 225.691 219.219 225.329 218.696L226.257 217.752C226.566 218.147 226.934 218.445 227.361 218.648C227.787 218.861 228.294 218.968 228.881 218.968C229.659 218.968 230.273 218.76 230.721 218.344C231.179 217.939 231.409 217.389 231.409 216.696V214.808L231.665 213.096L231.409 211.4V209.4H232.849V216.696C232.849 217.421 232.678 218.056 232.337 218.6C232.006 219.144 231.537 219.571 230.929 219.88C230.331 220.189 229.638 220.344 228.849 220.344ZM228.849 216.872C228.155 216.872 227.531 216.707 226.977 216.376C226.433 216.045 226.001 215.592 225.681 215.016C225.361 214.429 225.201 213.773 225.201 213.048C225.201 212.323 225.361 211.677 225.681 211.112C226.001 210.536 226.433 210.083 226.977 209.752C227.531 209.411 228.155 209.24 228.849 209.24C229.446 209.24 229.974 209.357 230.433 209.592C230.891 209.827 231.254 210.157 231.521 210.584C231.798 211 231.947 211.491 231.969 212.056V214.072C231.937 214.627 231.782 215.117 231.505 215.544C231.238 215.96 230.875 216.285 230.417 216.52C229.958 216.755 229.435 216.872 228.849 216.872ZM229.137 215.512C229.606 215.512 230.017 215.411 230.369 215.208C230.731 215.005 231.009 214.723 231.201 214.36C231.393 213.987 231.489 213.555 231.489 213.064C231.489 212.573 231.387 212.147 231.185 211.784C230.993 211.411 230.721 211.123 230.369 210.92C230.017 210.707 229.601 210.6 229.121 210.6C228.641 210.6 228.219 210.707 227.857 210.92C227.494 211.123 227.206 211.411 226.993 211.784C226.79 212.147 226.689 212.568 226.689 213.048C226.689 213.528 226.79 213.955 226.993 214.328C227.206 214.701 227.494 214.995 227.857 215.208C228.23 215.411 228.657 215.512 229.137 215.512ZM241.522 217.16C240.829 217.16 240.2 216.989 239.634 216.648C239.069 216.296 238.621 215.821 238.29 215.224C237.97 214.627 237.81 213.955 237.81 213.208C237.81 212.461 237.97 211.789 238.29 211.192C238.621 210.595 239.064 210.12 239.618 209.768C240.184 209.416 240.818 209.24 241.522 209.24C242.098 209.24 242.61 209.363 243.058 209.608C243.517 209.843 243.885 210.173 244.162 210.6C244.44 211.016 244.594 211.501 244.626 212.056V214.344C244.594 214.888 244.44 215.373 244.162 215.8C243.896 216.227 243.533 216.563 243.074 216.808C242.626 217.043 242.109 217.16 241.522 217.16ZM241.762 215.8C242.477 215.8 243.053 215.56 243.49 215.08C243.928 214.589 244.146 213.965 244.146 213.208C244.146 212.685 244.045 212.232 243.842 211.848C243.65 211.453 243.373 211.149 243.01 210.936C242.648 210.712 242.226 210.6 241.746 210.6C241.266 210.6 240.84 210.712 240.466 210.936C240.104 211.16 239.816 211.469 239.602 211.864C239.4 212.248 239.298 212.691 239.298 213.192C239.298 213.704 239.4 214.157 239.602 214.552C239.816 214.936 240.109 215.24 240.482 215.464C240.856 215.688 241.282 215.8 241.762 215.8ZM244.05 217V214.952L244.322 213.096L244.05 211.256V209.4H245.506V217H244.05ZM252.195 212.68V211.368H255.219C255.635 211.368 256.003 211.283 256.323 211.112C256.654 210.941 256.91 210.701 257.091 210.392C257.283 210.083 257.379 209.715 257.379 209.288C257.379 208.861 257.283 208.493 257.091 208.184C256.91 207.875 256.654 207.635 256.323 207.464C256.003 207.293 255.635 207.208 255.219 207.208H252.195V205.896H255.315C255.998 205.896 256.606 206.035 257.139 206.312C257.683 206.589 258.11 206.984 258.419 207.496C258.739 207.997 258.899 208.595 258.899 209.288C258.899 209.971 258.739 210.568 258.419 211.08C258.11 211.581 257.683 211.976 257.139 212.264C256.606 212.541 255.998 212.68 255.315 212.68H252.195ZM251.187 217V205.896H252.691V217H251.187ZM266.01 217V212.568C266.01 211.992 265.829 211.517 265.466 211.144C265.103 210.771 264.634 210.584 264.058 210.584C263.674 210.584 263.333 210.669 263.034 210.84C262.735 211.011 262.501 211.245 262.33 211.544C262.159 211.843 262.074 212.184 262.074 212.568L261.482 212.232C261.482 211.656 261.61 211.144 261.866 210.696C262.122 210.248 262.479 209.896 262.938 209.64C263.397 209.373 263.914 209.24 264.49 209.24C265.066 209.24 265.573 209.368 266.01 209.624C266.458 209.88 266.81 210.237 267.066 210.696C267.322 211.155 267.45 211.683 267.45 212.28V217H266.01ZM260.634 217V205.576H262.074V217H260.634ZM272.872 217.16C272.125 217.16 271.453 216.984 270.856 216.632C270.258 216.28 269.784 215.805 269.432 215.208C269.08 214.6 268.904 213.923 268.904 213.176C268.904 212.44 269.08 211.779 269.432 211.192C269.784 210.595 270.258 210.12 270.856 209.768C271.453 209.416 272.125 209.24 272.872 209.24C273.608 209.24 274.274 209.416 274.872 209.768C275.48 210.109 275.96 210.579 276.312 211.176C276.664 211.773 276.84 212.44 276.84 213.176C276.84 213.923 276.664 214.6 276.312 215.208C275.96 215.805 275.48 216.28 274.872 216.632C274.274 216.984 273.608 217.16 272.872 217.16ZM272.872 215.768C273.352 215.768 273.778 215.656 274.152 215.432C274.525 215.208 274.818 214.904 275.032 214.52C275.245 214.125 275.352 213.677 275.352 213.176C275.352 212.685 275.24 212.248 275.016 211.864C274.802 211.48 274.509 211.181 274.136 210.968C273.773 210.744 273.352 210.632 272.872 210.632C272.392 210.632 271.965 210.744 271.592 210.968C271.218 211.181 270.925 211.48 270.712 211.864C270.498 212.248 270.392 212.685 270.392 213.176C270.392 213.677 270.498 214.125 270.712 214.52C270.925 214.904 271.218 215.208 271.592 215.432C271.965 215.656 272.392 215.768 272.872 215.768ZM279.396 217V206.216H280.836V217H279.396ZM277.524 210.712V209.4H282.708V210.712H277.524ZM287.356 217.16C286.609 217.16 285.937 216.984 285.34 216.632C284.743 216.28 284.268 215.805 283.916 215.208C283.564 214.6 283.388 213.923 283.388 213.176C283.388 212.44 283.564 211.779 283.916 211.192C284.268 210.595 284.743 210.12 285.34 209.768C285.937 209.416 286.609 209.24 287.356 209.24C288.092 209.24 288.759 209.416 289.356 209.768C289.964 210.109 290.444 210.579 290.796 211.176C291.148 211.773 291.324 212.44 291.324 213.176C291.324 213.923 291.148 214.6 290.796 215.208C290.444 215.805 289.964 216.28 289.356 216.632C288.759 216.984 288.092 217.16 287.356 217.16ZM287.356 215.768C287.836 215.768 288.263 215.656 288.636 215.432C289.009 215.208 289.303 214.904 289.516 214.52C289.729 214.125 289.836 213.677 289.836 213.176C289.836 212.685 289.724 212.248 289.5 211.864C289.287 211.48 288.993 211.181 288.62 210.968C288.257 210.744 287.836 210.632 287.356 210.632C286.876 210.632 286.449 210.744 286.076 210.968C285.703 211.181 285.409 211.48 285.196 211.864C284.983 212.248 284.876 212.685 284.876 213.176C284.876 213.677 284.983 214.125 285.196 214.52C285.409 214.904 285.703 215.208 286.076 215.432C286.449 215.656 286.876 215.768 287.356 215.768ZM299.507 217.16C298.813 217.16 298.184 216.989 297.619 216.648C297.053 216.296 296.605 215.821 296.275 215.224C295.955 214.627 295.795 213.955 295.795 213.208C295.795 212.461 295.955 211.789 296.275 211.192C296.605 210.595 297.048 210.12 297.603 209.768C298.168 209.416 298.803 209.24 299.507 209.24C300.083 209.24 300.595 209.363 301.043 209.608C301.501 209.843 301.869 210.173 302.147 210.6C302.424 211.016 302.579 211.501 302.611 212.056V214.344C302.579 214.888 302.424 215.373 302.147 215.8C301.88 216.227 301.517 216.563 301.059 216.808C300.611 217.043 300.093 217.16 299.507 217.16ZM299.747 215.8C300.461 215.8 301.037 215.56 301.475 215.08C301.912 214.589 302.131 213.965 302.131 213.208C302.131 212.685 302.029 212.232 301.827 211.848C301.635 211.453 301.357 211.149 300.995 210.936C300.632 210.712 300.211 210.6 299.731 210.6C299.251 210.6 298.824 210.712 298.451 210.936C298.088 211.16 297.8 211.469 297.587 211.864C297.384 212.248 297.283 212.691 297.283 213.192C297.283 213.704 297.384 214.157 297.587 214.552C297.8 214.936 298.093 215.24 298.467 215.464C298.84 215.688 299.267 215.8 299.747 215.8ZM302.035 217V214.952L302.307 213.096L302.035 211.256V209.4H303.491V217H302.035ZM312.003 217L308.371 205.896H309.875L312.755 214.952H312.323L315.155 205.896H316.243L319.075 214.952H318.659L321.539 205.896H323.027L319.411 217H318.339L315.491 207.96H315.907L313.075 217H312.003ZM326.919 217.16C326.172 217.16 325.5 216.984 324.903 216.632C324.305 216.28 323.831 215.805 323.479 215.208C323.127 214.6 322.951 213.923 322.951 213.176C322.951 212.44 323.127 211.779 323.479 211.192C323.831 210.595 324.305 210.12 324.903 209.768C325.5 209.416 326.172 209.24 326.919 209.24C327.655 209.24 328.321 209.416 328.919 209.768C329.527 210.109 330.007 210.579 330.359 211.176C330.711 211.773 330.887 212.44 330.887 213.176C330.887 213.923 330.711 214.6 330.359 215.208C330.007 215.805 329.527 216.28 328.919 216.632C328.321 216.984 327.655 217.16 326.919 217.16ZM326.919 215.768C327.399 215.768 327.825 215.656 328.199 215.432C328.572 215.208 328.865 214.904 329.079 214.52C329.292 214.125 329.399 213.677 329.399 213.176C329.399 212.685 329.287 212.248 329.063 211.864C328.849 211.48 328.556 211.181 328.183 210.968C327.82 210.744 327.399 210.632 326.919 210.632C326.439 210.632 326.012 210.744 325.639 210.968C325.265 211.181 324.972 211.48 324.759 211.864C324.545 212.248 324.439 212.685 324.439 213.176C324.439 213.677 324.545 214.125 324.759 214.52C324.972 214.904 325.265 215.208 325.639 215.432C326.012 215.656 326.439 215.768 326.919 215.768ZM332.509 217V209.4H333.949V217H332.509ZM333.949 212.664L333.405 212.424C333.405 211.453 333.629 210.68 334.077 210.104C334.525 209.528 335.17 209.24 336.013 209.24C336.397 209.24 336.744 209.309 337.053 209.448C337.362 209.576 337.65 209.795 337.917 210.104L336.973 211.08C336.813 210.909 336.637 210.787 336.445 210.712C336.253 210.637 336.029 210.6 335.773 210.6C335.24 210.6 334.802 210.771 334.461 211.112C334.12 211.453 333.949 211.971 333.949 212.664ZM338.931 217V205.576H340.371V217H338.931ZM345.694 217.16C344.99 217.16 344.361 216.989 343.806 216.648C343.251 216.296 342.809 215.821 342.478 215.224C342.158 214.627 341.998 213.955 341.998 213.208C341.998 212.461 342.158 211.789 342.478 211.192C342.809 210.595 343.251 210.12 343.806 209.768C344.361 209.416 344.99 209.24 345.694 209.24C346.259 209.24 346.771 209.363 347.23 209.608C347.689 209.843 348.057 210.173 348.334 210.6C348.622 211.016 348.782 211.501 348.814 212.056V214.344C348.782 214.888 348.627 215.373 348.35 215.8C348.073 216.227 347.705 216.563 347.246 216.808C346.787 217.043 346.27 217.16 345.694 217.16ZM345.934 215.8C346.414 215.8 346.83 215.688 347.182 215.464C347.545 215.24 347.827 214.936 348.03 214.552C348.233 214.157 348.334 213.709 348.334 213.208C348.334 212.685 348.227 212.232 348.014 211.848C347.811 211.464 347.529 211.16 347.166 210.936C346.814 210.712 346.398 210.6 345.918 210.6C345.438 210.6 345.017 210.712 344.654 210.936C344.291 211.16 344.003 211.469 343.79 211.864C343.587 212.248 343.486 212.691 343.486 213.192C343.486 213.704 343.587 214.157 343.79 214.552C344.003 214.936 344.291 215.24 344.654 215.464C345.027 215.688 345.454 215.8 345.934 215.8ZM349.694 217H348.238V214.952L348.51 213.096L348.238 211.256V205.576H349.694V217ZM358.591 217.16C357.844 217.16 357.172 216.984 356.575 216.632C355.977 216.28 355.503 215.805 355.151 215.208C354.799 214.6 354.623 213.923 354.623 213.176C354.623 212.44 354.799 211.779 355.151 211.192C355.503 210.595 355.977 210.12 356.575 209.768C357.172 209.416 357.844 209.24 358.591 209.24C359.327 209.24 359.993 209.416 360.591 209.768C361.199 210.109 361.679 210.579 362.031 211.176C362.383 211.773 362.559 212.44 362.559 213.176C362.559 213.923 362.383 214.6 362.031 215.208C361.679 215.805 361.199 216.28 360.591 216.632C359.993 216.984 359.327 217.16 358.591 217.16ZM358.591 215.768C359.071 215.768 359.497 215.656 359.871 215.432C360.244 215.208 360.537 214.904 360.751 214.52C360.964 214.125 361.071 213.677 361.071 213.176C361.071 212.685 360.959 212.248 360.735 211.864C360.521 211.48 360.228 211.181 359.855 210.968C359.492 210.744 359.071 210.632 358.591 210.632C358.111 210.632 357.684 210.744 357.311 210.968C356.937 211.181 356.644 211.48 356.431 211.864C356.217 212.248 356.111 212.685 356.111 213.176C356.111 213.677 356.217 214.125 356.431 214.52C356.644 214.904 356.937 215.208 357.311 215.432C357.684 215.656 358.111 215.768 358.591 215.768ZM365.035 217V208.264C365.035 207.699 365.157 207.208 365.403 206.792C365.648 206.365 365.984 206.029 366.411 205.784C366.848 205.539 367.355 205.416 367.931 205.416C368.368 205.416 368.747 205.491 369.067 205.64C369.387 205.789 369.68 206.008 369.947 206.296L369.003 207.224C368.864 207.075 368.709 206.963 368.539 206.888C368.368 206.803 368.16 206.76 367.915 206.76C367.456 206.76 367.099 206.893 366.843 207.16C366.597 207.427 366.475 207.795 366.475 208.264V217H365.035ZM363.163 210.712V209.4H368.891V210.712H363.163ZM374.929 212.68V211.368H377.953C378.369 211.368 378.737 211.283 379.057 211.112C379.388 210.941 379.644 210.701 379.825 210.392C380.017 210.083 380.113 209.715 380.113 209.288C380.113 208.861 380.017 208.493 379.825 208.184C379.644 207.875 379.388 207.635 379.057 207.464C378.737 207.293 378.369 207.208 377.953 207.208H374.929V205.896H378.049C378.732 205.896 379.34 206.035 379.873 206.312C380.417 206.589 380.844 206.984 381.153 207.496C381.473 207.997 381.633 208.595 381.633 209.288C381.633 209.971 381.473 210.568 381.153 211.08C380.844 211.581 380.417 211.976 379.873 212.264C379.34 212.541 378.732 212.68 378.049 212.68H374.929ZM373.921 217V205.896H375.425V217H373.921ZM383.368 217V209.4H384.809V217H383.368ZM384.809 212.664L384.265 212.424C384.265 211.453 384.489 210.68 384.937 210.104C385.385 209.528 386.03 209.24 386.873 209.24C387.257 209.24 387.603 209.309 387.913 209.448C388.222 209.576 388.51 209.795 388.777 210.104L387.833 211.08C387.673 210.909 387.497 210.787 387.305 210.712C387.113 210.637 386.889 210.6 386.633 210.6C386.099 210.6 385.662 210.771 385.321 211.112C384.979 211.453 384.809 211.971 384.809 212.664ZM393.012 217.16C392.266 217.16 391.594 216.984 390.996 216.632C390.399 216.28 389.924 215.805 389.572 215.208C389.22 214.6 389.044 213.923 389.044 213.176C389.044 212.44 389.22 211.779 389.572 211.192C389.924 210.595 390.399 210.12 390.996 209.768C391.594 209.416 392.266 209.24 393.012 209.24C393.748 209.24 394.415 209.416 395.012 209.768C395.62 210.109 396.1 210.579 396.452 211.176C396.804 211.773 396.98 212.44 396.98 213.176C396.98 213.923 396.804 214.6 396.452 215.208C396.1 215.805 395.62 216.28 395.012 216.632C394.415 216.984 393.748 217.16 393.012 217.16ZM393.012 215.768C393.492 215.768 393.919 215.656 394.292 215.432C394.666 215.208 394.959 214.904 395.172 214.52C395.386 214.125 395.492 213.677 395.492 213.176C395.492 212.685 395.38 212.248 395.156 211.864C394.943 211.48 394.65 211.181 394.276 210.968C393.914 210.744 393.492 210.632 393.012 210.632C392.532 210.632 392.106 210.744 391.732 210.968C391.359 211.181 391.066 211.48 390.852 211.864C390.639 212.248 390.532 212.685 390.532 213.176C390.532 213.677 390.639 214.125 390.852 214.52C391.066 214.904 391.359 215.208 391.732 215.432C392.106 215.656 392.532 215.768 393.012 215.768ZM401.819 217.16C401.115 217.16 400.486 216.989 399.931 216.648C399.376 216.296 398.934 215.821 398.603 215.224C398.283 214.627 398.123 213.955 398.123 213.208C398.123 212.461 398.283 211.789 398.603 211.192C398.934 210.595 399.376 210.12 399.931 209.768C400.486 209.416 401.115 209.24 401.819 209.24C402.384 209.24 402.896 209.363 403.355 209.608C403.814 209.843 404.182 210.173 404.459 210.6C404.747 211.016 404.907 211.501 404.939 212.056V214.344C404.907 214.888 404.752 215.373 404.475 215.8C404.198 216.227 403.83 216.563 403.371 216.808C402.912 217.043 402.395 217.16 401.819 217.16ZM402.059 215.8C402.539 215.8 402.955 215.688 403.307 215.464C403.67 215.24 403.952 214.936 404.155 214.552C404.358 214.157 404.459 213.709 404.459 213.208C404.459 212.685 404.352 212.232 404.139 211.848C403.936 211.464 403.654 211.16 403.291 210.936C402.939 210.712 402.523 210.6 402.043 210.6C401.563 210.6 401.142 210.712 400.779 210.936C400.416 211.16 400.128 211.469 399.915 211.864C399.712 212.248 399.611 212.691 399.611 213.192C399.611 213.704 399.712 214.157 399.915 214.552C400.128 214.936 400.416 215.24 400.779 215.464C401.152 215.688 401.579 215.8 402.059 215.8ZM405.819 217H404.363V214.952L404.635 213.096L404.363 211.256V205.576H405.819V217ZM410.971 217.16C410.353 217.16 409.793 217.021 409.291 216.744C408.801 216.456 408.417 216.061 408.139 215.56C407.862 215.059 407.723 214.477 407.723 213.816V209.4H409.163V213.752C409.163 214.168 409.233 214.531 409.371 214.84C409.521 215.139 409.734 215.368 410.011 215.528C410.289 215.688 410.614 215.768 410.987 215.768C411.553 215.768 411.995 215.592 412.315 215.24C412.635 214.877 412.795 214.381 412.795 213.752V209.4H414.235V213.816C414.235 214.477 414.097 215.059 413.819 215.56C413.542 216.061 413.158 216.456 412.667 216.744C412.187 217.021 411.622 217.16 410.971 217.16ZM419.637 217.16C418.891 217.16 418.213 216.984 417.605 216.632C417.008 216.28 416.533 215.805 416.181 215.208C415.84 214.6 415.669 213.928 415.669 213.192C415.669 212.445 415.84 211.773 416.181 211.176C416.533 210.579 417.008 210.109 417.605 209.768C418.213 209.416 418.891 209.24 419.637 209.24C420.224 209.24 420.768 209.352 421.269 209.576C421.771 209.789 422.203 210.104 422.565 210.52L421.605 211.48C421.371 211.203 421.083 210.995 420.741 210.856C420.411 210.707 420.043 210.632 419.637 210.632C419.157 210.632 418.731 210.744 418.357 210.968C417.984 211.181 417.691 211.48 417.477 211.864C417.264 212.248 417.157 212.691 417.157 213.192C417.157 213.693 417.264 214.136 417.477 214.52C417.691 214.904 417.984 215.208 418.357 215.432C418.731 215.656 419.157 215.768 419.637 215.768C420.043 215.768 420.411 215.699 420.741 215.56C421.083 215.411 421.376 215.197 421.621 214.92L422.565 215.88C422.213 216.285 421.781 216.6 421.269 216.824C420.768 217.048 420.224 217.16 419.637 217.16ZM425.068 217V206.216H426.508V217H425.068ZM423.196 210.712V209.4H428.38V210.712H423.196Z" fill="#DDEBFF"/>
</g>
<rect x="0.5" y="0.5" width="484" height="270" rx="15.5" stroke="#1A2261"/>
<defs>
<filter id="filter0_f_406_1936" x="278" y="35.3345" width="327" height="327" filterUnits="userSpaceOnUse" color-interpolation-filters="sRGB">
<feFlood flood-opacity="0" result="BackgroundImageFix"/>
<feBlend mode="normal" in="SourceGraphic" in2="BackgroundImageFix" result="shape"/>
<feGaussianBlur stdDeviation="62" result="effect1_foregroundBlur_406_1936"/>
</filter>
<linearGradient id="paint0_linear_406_1936" x1="211.507" y1="90.134" x2="186.789" y2="57.0181" gradientUnits="userSpaceOnUse">
<stop stop-color="#1A2261"/>
<stop offset="1" stop-color="#005BEA"/>
</linearGradient>
<linearGradient id="paint1_linear_406_1936" x1="174" y1="68.3344" x2="183" y2="59.3344" gradientUnits="userSpaceOnUse">
<stop stop-color="#0017E4"/>
<stop offset="1" stop-color="#3793FF"/>
</linearGradient>
<linearGradient id="paint2_linear_406_1936" x1="258.676" y1="127.334" x2="242.007" y2="70.8566" gradientUnits="userSpaceOnUse">
<stop stop-color="#1A2261"/>
<stop offset="1" stop-color="#005BEA"/>
</linearGradient>
<linearGradient id="paint3_linear_406_1936" x1="154" y1="125.334" x2="163" y2="116.334" gradientUnits="userSpaceOnUse">
<stop stop-color="#0017E4"/>
<stop offset="1" stop-color="#3793FF"/>
</linearGradient>
<linearGradient id="paint4_linear_406_1936" x1="239.324" y1="51.3342" x2="255.993" y2="107.812" gradientUnits="userSpaceOnUse">
<stop stop-color="#1A2261"/>
<stop offset="1" stop-color="#005BEA"/>
</linearGradient>
<linearGradient id="paint5_linear_406_1936" x1="335" y1="61.3344" x2="344" y2="52.3344" gradientUnits="userSpaceOnUse">
<stop stop-color="#0017E4"/>
<stop offset="1" stop-color="#3793FF"/>
</linearGradient>
<linearGradient id="paint6_linear_406_1936" x1="273.493" y1="88.9325" x2="298.211" y2="122.048" gradientUnits="userSpaceOnUse">
<stop stop-color="#1A2261"/>
<stop offset="1" stop-color="#005BEA"/>
</linearGradient>
<linearGradient id="paint7_linear_406_1936" x1="302" y1="122.732" x2="311" y2="113.732" gradientUnits="userSpaceOnUse">
<stop stop-color="#0017E4"/>
<stop offset="1" stop-color="#3793FF"/>
</linearGradient>
<linearGradient id="paint8_linear_406_1936" x1="206.499" y1="120" x2="278.499" y2="47.9991" gradientUnits="userSpaceOnUse">
<stop stop-color="#0017E4"/>
<stop offset="1" stop-color="#3793FF"/>
</linearGradient>
<linearGradient id="paint9_linear_406_1936" x1="206.5" y1="48" x2="278.5" y2="120" gradientUnits="userSpaceOnUse">
<stop stop-color="#5EFCE8"/>
<stop offset="1" stop-color="#736EFE"/>
</linearGradient>
<linearGradient id="paint10_linear_406_1936" x1="401.999" y1="238.334" x2="480.999" y2="159.334" gradientUnits="userSpaceOnUse">
<stop stop-color="#0017E4"/>
<stop offset="1" stop-color="#3793FF"/>
</linearGradient>
<clipPath id="clip0_406_1936">
<rect width="485" height="271" rx="16" fill="white"/>
</clipPath>
<clipPath id="clip1_406_1936">
<rect width="40" height="40" fill="white" transform="translate(222.5 64.3345)"/>
</clipPath>
</defs>
</svg>
