<svg width="101" height="78" viewBox="0 0 101 78" fill="none" xmlns="http://www.w3.org/2000/svg">
<path d="M100.333 27.9999C100.333 12.8123 87.3848 0.5 71.4108 0.5C64.3889 0.5 57.9521 2.87941 52.9419 6.8366C47.8527 10.8566 41.0126 11.8841 34.9774 9.50983C31.9883 8.33371 28.6994 7.68324 25.2466 7.68324C11.4873 7.68324 0.333313 18.0119 0.333313 30.7538C0.333313 39.3994 5.46832 46.9333 13.0694 50.8846C17.7526 53.3183 21.4448 57.3061 23.6476 62.1031C27.7432 71.0204 36.7505 77.2135 47.2065 77.2135C56.6774 77.2135 64.9604 72.132 69.4797 64.5471C72.4901 59.4961 77.0935 55.5542 82.558 53.382C92.9978 49.2338 100.333 39.4316 100.333 27.9999Z" fill="#EAECF0"/>
</svg>
