<svg width="49" height="48" viewBox="0 0 49 48" fill="none" xmlns="http://www.w3.org/2000/svg">
<g clip-path="url(#clip0_356_5852)">
<path d="M40.1029 9.24277C40.0697 9.00042 39.8574 8.86636 39.6824 8.85174C39.5074 8.83711 36.0906 8.78517 36.0906 8.78517C36.0906 8.78517 33.233 6.00989 32.9507 5.72742C32.6684 5.44495 32.117 5.53064 31.9029 5.59364C31.8997 5.59458 31.3667 5.75967 30.467 6.0382C30.3169 5.55052 30.0954 4.95155 29.7799 4.34967C28.7623 2.40867 27.2727 1.38127 25.4722 1.37864C25.4702 1.37864 25.4683 1.37864 25.4662 1.37864C25.3414 1.37864 25.217 1.39036 25.0925 1.4017C25.0396 1.33795 24.9861 1.27477 24.9297 1.21449C24.1459 0.375517 23.1393 -0.0332332 21.9345 0.00211053C19.6087 0.0687668 17.2938 1.74811 15.4161 4.73049C14.0943 6.82955 13.0901 9.46645 12.8046 11.5073C10.1347 12.3341 8.26678 12.9126 8.22638 12.9253C6.87872 13.3482 6.83634 13.3905 6.65963 14.6602C6.52584 15.6214 3 42.8894 3 42.8894L32.5532 47.9999L45.3617 44.8162C45.3617 44.8162 40.136 9.48511 40.1029 9.24277ZM14.4602 10.9945C15.2593 7.25799 18.3902 1.65239 21.9792 1.54917C22.5252 1.53774 22.9851 1.65755 23.3778 1.91602C22.7497 2.24217 22.1421 2.71092 21.5722 3.32217C20.095 4.90674 18.9636 7.36711 18.5123 9.73964C17.1042 10.1757 15.7271 10.6021 14.4602 10.9945ZM25.1471 7.6853C23.5989 8.16464 21.9087 8.68805 20.2132 9.21305C20.6905 7.38699 21.5941 5.56889 22.7045 4.3778C23.1175 3.93474 23.6954 3.4403 24.3796 3.15802C25.0233 4.4993 25.1627 6.40074 25.1471 7.6853ZM26.6931 7.20661C26.6759 6.02902 26.5353 4.39111 25.9867 2.9752C27.7512 3.30952 28.62 5.30602 28.9867 6.49645C28.3067 6.70692 27.5321 6.94674 26.6931 7.20661Z" fill="#95BF47"/>
<path d="M39.6824 8.85177C39.5074 8.83714 36.0906 8.7852 36.0906 8.7852C36.0906 8.7852 33.233 6.00992 32.9507 5.72745C32.8454 5.62208 32.7026 5.56817 32.554 5.54492L32.5547 47.9996L45.3617 44.8162C45.3617 44.8162 40.1361 9.48514 40.1029 9.2428C40.0697 9.00045 39.8575 8.86639 39.6824 8.85177Z" fill="#5E8E3E"/>
<path d="M25.4552 15.4376L23.9675 21.0027C23.9675 21.0027 22.3081 20.247 20.3408 20.3713C17.4562 20.5534 17.4255 22.373 17.4543 22.829C17.6114 25.318 24.1591 25.8618 24.5272 31.6914C24.8168 36.2778 22.0945 39.4151 18.1719 39.6628C13.4648 39.96 10.8729 37.1824 10.8729 37.1824L11.8703 32.9388C11.8703 32.9388 14.4787 34.9068 16.5667 34.775C17.9306 34.6889 18.4179 33.5796 18.3684 32.7951C18.1633 29.5484 12.8316 29.7396 12.4947 24.405C12.2112 19.9151 15.1595 15.3666 21.665 14.9558C24.1716 14.7976 25.4552 15.4376 25.4552 15.4376Z" fill="white"/>
</g>
<defs>
<clipPath id="clip0_356_5852">
<rect width="48.3617" height="47.9999" fill="white"/>
</clipPath>
</defs>
</svg>
