<svg width="343" height="282" viewBox="0 0 343 282" fill="none" xmlns="http://www.w3.org/2000/svg">
<g clip-path="url(#clip0_108_8975)">
<path d="M45.8818 89.3126C50.7818 47.588 136.309 -18.8294 222.727 41.6278" stroke="#98A2B3" stroke-dasharray="4 4"/>
<path d="M32.7141 133.792C32.6166 133.792 32.5232 133.754 32.4542 133.686C32.3853 133.619 32.3466 133.527 32.3466 133.431V133.069C32.3466 132.973 32.3851 132.882 32.4538 132.814C32.5225 132.747 32.6156 132.709 32.7127 132.709C32.8099 132.709 32.903 132.747 32.9717 132.814C33.0403 132.882 33.0789 132.973 33.0789 133.069V133.429C33.0793 133.477 33.0701 133.524 33.052 133.568C33.0338 133.612 33.0071 133.652 32.9732 133.685C32.9393 133.719 32.8989 133.746 32.8545 133.764C32.81 133.783 32.7623 133.792 32.7141 133.792Z" fill="#4C3965"/>
<path d="M268.964 133.792C268.867 133.792 268.773 133.754 268.704 133.686C268.635 133.619 268.597 133.527 268.597 133.431V133.072C268.597 132.976 268.635 132.884 268.704 132.816C268.772 132.748 268.865 132.709 268.963 132.709C269.06 132.709 269.153 132.747 269.221 132.815C269.29 132.882 269.329 132.974 269.329 133.069V133.431C269.329 133.478 269.32 133.525 269.302 133.569C269.283 133.612 269.257 133.652 269.223 133.686C269.189 133.719 269.149 133.746 269.104 133.764C269.06 133.783 269.012 133.792 268.964 133.792Z" fill="#4C3965"/>
<g opacity="0.19">
<path d="M269.474 159.206C309.59 159.206 342.11 127.209 342.11 87.7389C342.11 48.269 309.59 16.2722 269.474 16.2722C229.359 16.2722 196.838 48.269 196.838 87.7389C196.838 127.209 229.359 159.206 269.474 159.206Z" fill="#D0D5DD"/>
</g>
<g opacity="0.19">
<path d="M94.8075 257.219C126.348 257.219 151.917 232.062 151.917 201.029C151.917 169.996 126.348 144.839 94.8075 144.839C63.267 144.839 37.6983 169.996 37.6983 201.029C37.6983 232.062 63.267 257.219 94.8075 257.219Z" fill="#D0D5DD"/>
</g>
<path d="M273.252 39.4551H200.37C197.461 39.4549 194.581 40.0185 191.894 41.1136C189.207 42.2087 186.765 43.8139 184.708 45.8375C182.651 47.8612 181.02 50.2636 179.907 52.9077C178.794 55.5518 178.221 58.3857 178.221 61.2475V259.961C178.224 265.739 180.559 271.279 184.712 275.363C188.866 279.447 194.498 281.741 200.37 281.741H273.247C279.121 281.741 284.755 279.445 288.908 275.358C293.062 271.271 295.396 265.728 295.396 259.949V61.2352C295.392 55.4585 293.058 49.9196 288.906 45.8355C284.754 41.7515 279.123 39.4565 273.252 39.4551ZM293.735 259.949C293.735 271.06 284.547 280.1 273.254 280.1H200.37C189.076 280.1 179.887 271.06 179.887 259.949V61.2352C179.887 50.1237 189.076 41.0833 200.37 41.0833H216.485V41.9428C216.485 42.6814 216.633 43.4128 216.921 44.0952C217.208 44.7776 217.629 45.3976 218.16 45.9199C218.691 46.4422 219.321 46.8565 220.014 47.1391C220.708 47.4218 221.451 47.5673 222.202 47.5673H251.414C252.164 47.5673 252.908 47.4218 253.601 47.1391C254.295 46.8565 254.925 46.4422 255.456 45.9199C255.987 45.3976 256.408 44.7776 256.695 44.0952C256.982 43.4128 257.13 42.6814 257.13 41.9428V41.0833H273.245C284.539 41.0833 293.727 50.1237 293.727 61.2352L293.735 259.949Z" fill="#171D4F"/>
<path d="M293.735 61.2421V259.947C293.735 271.06 284.548 280.101 273.255 280.101H200.37C189.452 280.101 180.504 271.654 179.918 261.054C179.897 260.688 179.887 260.319 179.887 259.947V61.2421C179.887 50.1293 189.076 41.0889 200.37 41.0889H216.485V41.9484C216.485 43.4401 217.088 44.8707 218.16 45.9255C219.232 46.9803 220.686 47.5728 222.202 47.5728H251.414C252.93 47.5725 254.384 46.9798 255.456 45.9251C256.528 44.8705 257.131 43.4401 257.131 41.9484V41.0889H273.245C284.546 41.0889 293.735 50.1293 293.735 61.2421Z" fill="white"/>
<path d="M284.969 101.586H187.63V102.082H284.969V101.586Z" fill="#D0D5DD"/>
<path d="M284.969 86.1809H187.63V86.6773H284.969V86.1809Z" fill="#D0D5DD"/>
<path d="M235.912 104.696H179.922V182.536H235.912V104.696Z" fill="#F2F4F7"/>
<path d="M293.744 104.696H237.754V182.536H293.744V104.696Z" fill="#F2F4F7"/>
<path d="M235.912 219.737H179.922V252.503H235.912V219.737Z" fill="#F2F4F7"/>
<path d="M293.734 219.737H237.755V252.503H293.734V219.737Z" fill="#F2F4F7"/>
<path d="M229.534 111.34C228.514 110.27 227.069 110.12 225.853 110.956L225.171 111.427L224.487 110.956C223.273 110.12 221.832 110.269 220.806 111.34C219.901 112.289 219.463 113.972 220.641 115.421L225.171 120.998L229.699 115.421C230.877 113.972 230.44 112.289 229.534 111.34Z" fill="white"/>
<path d="M225.171 112.304L226.269 111.547C228.389 110.087 230.779 112.954 229.132 114.985L225.171 119.863L221.208 114.985C219.56 112.957 221.95 110.09 224.072 111.547L225.171 112.304Z" fill="#D0D5DD"/>
<path d="M287.123 111.34C286.103 110.27 284.657 110.12 283.441 110.956L282.759 111.427L282.077 110.956C280.861 110.12 279.422 110.269 278.396 111.34C277.49 112.289 277.053 113.972 278.231 115.421L282.759 120.998L287.288 115.421C288.466 113.972 288.029 112.289 287.123 111.34Z" fill="white"/>
<g opacity="0.25">
<path d="M282.759 112.304L283.858 111.548C285.98 110.087 288.37 112.954 286.722 114.986L282.759 119.863L278.797 114.986C277.149 112.957 279.539 110.09 281.661 111.548L282.759 112.304Z" fill="white"/>
<path d="M282.759 120.258L278.6 115.138C277.598 113.9 277.971 112.473 278.74 111.666C279.589 110.773 280.793 110.648 281.803 111.344L282.758 112.001L283.713 111.344C284.723 110.648 285.926 110.773 286.776 111.666C287.546 112.473 287.92 113.903 286.916 115.138L282.759 120.258ZM280.457 111.399C280.203 111.405 279.952 111.462 279.72 111.566C279.488 111.67 279.28 111.819 279.109 112.004C278.74 112.379 278.525 112.873 278.504 113.394C278.483 113.915 278.657 114.425 278.994 114.827L282.759 119.464L286.525 114.827C286.862 114.425 287.036 113.915 287.015 113.394C286.994 112.873 286.778 112.379 286.41 112.004C285.903 111.472 284.968 111.087 284.002 111.751L282.759 112.606L281.517 111.751C281.21 111.528 280.839 111.404 280.457 111.399Z" fill="#002D4E"/>
</g>
<path d="M229.534 226.382C228.514 225.312 227.069 225.162 225.853 226L225.171 226.469L224.487 226C223.273 225.162 221.832 225.312 220.806 226.383C219.901 227.332 219.463 229.014 220.641 230.465L225.171 236.041L229.699 230.465C230.877 229.013 230.44 227.331 229.534 226.382Z" fill="white"/>
<g opacity="0.25">
<path d="M225.171 227.344L226.269 226.588C228.389 225.128 230.78 227.995 229.132 230.026L225.171 234.905L221.208 230.026C219.56 227.998 221.95 225.13 224.072 226.588L225.171 227.344Z" fill="white"/>
<path d="M225.171 235.298L221.011 230.179C220.009 228.941 220.381 227.514 221.151 226.706C222.001 225.815 223.204 225.689 224.216 226.386L225.171 227.042L226.124 226.386C227.136 225.689 228.338 225.815 229.189 226.706C229.959 227.514 230.331 228.945 229.329 230.179L225.171 235.298ZM222.873 226.44C222.618 226.446 222.367 226.503 222.135 226.607C221.904 226.711 221.696 226.861 221.524 227.046C221.156 227.421 220.941 227.916 220.92 228.436C220.899 228.957 221.074 229.467 221.411 229.869L225.176 234.505L228.942 229.869C229.278 229.467 229.453 228.957 229.432 228.436C229.411 227.915 229.195 227.421 228.827 227.046C228.32 226.512 227.383 226.127 226.419 226.792L225.176 227.648L223.932 226.792C223.625 226.569 223.255 226.445 222.873 226.44Z" fill="#002D4E"/>
</g>
<path d="M287.123 226.382C286.103 225.312 284.657 225.162 283.441 226L282.759 226.469L282.077 226C280.861 225.162 279.422 225.312 278.396 226.383C277.49 227.332 277.053 229.014 278.231 230.465L282.759 236.041L287.288 230.465C288.466 229.013 288.029 227.331 287.123 226.382Z" fill="white"/>
<g opacity="0.25">
<path d="M282.759 227.344L283.858 226.588C285.98 225.128 288.37 227.995 286.722 230.026L282.759 234.905L278.797 230.026C277.149 227.998 279.539 225.13 281.661 226.588L282.759 227.344Z" fill="white"/>
<path d="M282.759 235.298L278.6 230.179C277.598 228.941 277.971 227.514 278.74 226.706C279.589 225.815 280.793 225.689 281.803 226.386L282.758 227.042L283.713 226.386C284.723 225.689 285.926 225.815 286.776 226.706C287.546 227.514 287.92 228.945 286.916 230.179L282.759 235.298ZM280.457 226.44C280.203 226.446 279.952 226.503 279.72 226.607C279.488 226.711 279.28 226.86 279.109 227.046C278.74 227.421 278.525 227.915 278.504 228.436C278.483 228.957 278.657 229.467 278.994 229.869L282.759 234.505L286.525 229.869C286.862 229.467 287.036 228.957 287.015 228.436C286.994 227.915 286.778 227.421 286.41 227.046C285.903 226.512 284.968 226.127 284.002 226.792L282.759 227.648L281.517 226.792C281.209 226.569 280.839 226.446 280.457 226.44Z" fill="#002D4E"/>
</g>
<path d="M206.711 191.786H183.414V196.554H206.711V191.786Z" fill="#D0D5DD"/>
<path d="M195.155 204.254H183.414V209.022H195.155V204.254Z" fill="#D0D5DD"/>
<path d="M208.946 204.254H197.204V209.022H208.946V204.254Z" fill="#D0D5DD"/>
<path d="M215.844 201.136H183.414V202.604H215.844V201.136Z" fill="#D0D5DD"/>
<path d="M251.91 60.4182H219.479V61.8855H251.91V60.4182Z" fill="#D0D5DD"/>
<path d="M266.337 191.786H243.039V196.554H266.337V191.786Z" fill="#D0D5DD"/>
<path d="M254.781 204.254H243.039V209.022H254.781V204.254Z" fill="#D0D5DD"/>
<path d="M268.573 204.254H256.831V209.022H268.573V204.254Z" fill="#D0D5DD"/>
<path d="M275.469 201.136H243.039V202.604H275.469V201.136Z" fill="#D0D5DD"/>
<path d="M193.32 62.2818L188.582 58.0971L193.32 53.9138L193.657 54.2824L189.337 58.0971L193.657 61.9132L193.32 62.2818Z" fill="#002D4E"/>
<path d="M199.07 57.8496H188.96V58.3461H199.07V57.8496Z" fill="#002D4E"/>
<path d="M294.276 252.503H293.733" stroke="#002D4E" stroke-width="3" stroke-miterlimit="10"/>
<path d="M179.922 252.503H179.68" stroke="#002D4E" stroke-width="3" stroke-miterlimit="10"/>
<g opacity="0.25">
<path d="M198.703 271.302L194.673 269.217L190.644 271.302L191.412 266.888L188.153 263.761L192.658 263.117L194.673 259.1L196.687 263.117L201.193 263.761L197.933 266.888L198.703 271.302ZM189.236 264.107L191.955 266.72L191.312 270.401L194.673 268.663L198.028 270.401L197.386 266.72L200.105 264.107L196.348 263.569L194.671 260.221L192.993 263.569L189.236 264.107Z" fill="#D0D5DD"/>
</g>
<g opacity="0.25">
<path d="M228.5 259.623H215.991V260.119H228.5V259.623Z" fill="#D0D5DD"/>
<path d="M222.438 270.28H215.991V270.777H222.438V270.28Z" fill="#D0D5DD"/>
<path d="M223.598 266.727H215.991V267.223H223.598V266.727Z" fill="#D0D5DD"/>
<path d="M228.5 263.175H215.991V263.671H228.5V263.175Z" fill="#D0D5DD"/>
<path d="M226.437 266.019C226.969 264.756 226.359 263.309 225.076 262.786C223.794 262.263 222.323 262.863 221.791 264.125C221.26 265.388 221.869 266.835 223.152 267.358C224.435 267.88 225.906 267.281 226.437 266.019Z" fill="#D0D5DD"/>
<path d="M224.115 267.794C223.568 267.794 223.033 267.635 222.578 267.336C222.122 267.037 221.767 266.611 221.558 266.114C221.348 265.616 221.293 265.069 221.4 264.541C221.506 264.012 221.77 263.527 222.157 263.146C222.544 262.765 223.037 262.506 223.574 262.401C224.11 262.295 224.667 262.349 225.173 262.555C225.678 262.761 226.111 263.11 226.415 263.558C226.719 264.006 226.881 264.532 226.881 265.071C226.881 265.793 226.589 266.485 226.071 266.995C225.552 267.506 224.849 267.793 224.115 267.794ZM224.115 262.843C223.668 262.843 223.23 262.974 222.858 263.219C222.486 263.463 222.196 263.811 222.025 264.218C221.853 264.625 221.809 265.073 221.896 265.504C221.984 265.936 222.199 266.333 222.516 266.644C222.832 266.956 223.236 267.168 223.675 267.253C224.114 267.339 224.569 267.295 224.982 267.126C225.396 266.957 225.749 266.672 225.998 266.306C226.246 265.939 226.379 265.509 226.378 265.068C226.377 264.479 226.138 263.914 225.714 263.497C225.289 263.08 224.715 262.846 224.115 262.846V262.843Z" fill="#D0D5DD"/>
<path d="M226.228 266.8L225.871 267.151L228.385 269.625L228.742 269.274L226.228 266.8Z" fill="#D0D5DD"/>
</g>
<g opacity="0.25">
<path d="M249.883 271.82L244.126 264.733C242.758 263.048 243.266 261.094 244.318 259.991C245.473 258.78 247.113 258.608 248.485 259.555L249.883 260.518L251.281 259.555C252.656 258.608 254.293 258.78 255.449 259.991C256.5 261.091 257.008 263.048 255.64 264.733L249.883 271.82ZM246.652 259.444C246.28 259.453 245.915 259.536 245.577 259.687C245.239 259.839 244.935 260.057 244.685 260.327C243.778 261.278 243.339 262.966 244.52 264.419L249.883 271.02L255.245 264.419C256.426 262.966 255.987 261.278 255.08 260.327C254.339 259.551 252.975 258.989 251.569 259.957L249.883 261.119L248.196 259.957C247.748 259.633 247.208 259.455 246.652 259.448V259.444Z" fill="#D0D5DD"/>
</g>
<path d="M283.113 271.925H271.85L270.481 263.562H284.483L283.113 271.925ZM272.281 271.429H282.694L283.901 264.059H271.082L272.281 271.429Z" fill="#D0D5DD"/>
<path d="M280.576 265.713H280.073V261.588C280.073 260.863 279.78 260.167 279.259 259.655C278.738 259.142 278.031 258.854 277.294 258.854C276.557 258.854 275.851 259.142 275.33 259.655C274.808 260.167 274.516 260.863 274.516 261.588V265.713H274.011V261.588C274.011 260.731 274.357 259.909 274.973 259.303C275.589 258.697 276.425 258.356 277.296 258.356C278.167 258.356 279.002 258.697 279.618 259.303C280.234 259.909 280.58 260.731 280.58 261.588L280.576 265.713Z" fill="#D0D5DD"/>
<path d="M293.695 252.304H179.68V252.8H293.695V252.304Z" fill="#002D4E"/>
<path d="M184.979 215.532H184.157V214.378H184.985C185.082 214.694 185.264 214.851 185.544 214.851C185.741 214.851 185.84 214.774 185.84 214.617C185.84 214.578 185.831 214.539 185.813 214.504C185.795 214.469 185.769 214.438 185.736 214.415C185.59 214.317 185.434 214.235 185.27 214.17C185.04 214.074 184.819 213.959 184.61 213.825C184.471 213.73 184.355 213.605 184.272 213.459C184.154 213.252 184.109 213.012 184.143 212.777C184.178 212.542 184.291 212.325 184.465 212.16C184.69 211.969 184.98 211.868 185.277 211.876C185.574 211.87 185.864 211.967 186.096 212.152V211.927H186.927V212.956H186.107C186.006 212.673 185.828 212.531 185.573 212.531C185.394 212.531 185.303 212.605 185.303 212.757C185.301 212.788 185.307 212.819 185.321 212.848C185.334 212.877 185.354 212.901 185.38 212.92C185.533 213.015 185.693 213.099 185.858 213.172C186.107 213.288 186.348 213.417 186.582 213.56C186.652 213.607 186.716 213.663 186.771 213.727C186.832 213.795 186.886 213.869 186.93 213.949C187.024 214.117 187.072 214.307 187.07 214.499C187.072 214.644 187.042 214.787 186.983 214.92C186.924 215.053 186.836 215.171 186.726 215.268C186.61 215.374 186.474 215.457 186.326 215.512C186.177 215.567 186.019 215.592 185.861 215.587C185.544 215.589 185.236 215.49 184.982 215.303L184.979 215.532Z" fill="#D0D5DD"/>
<path d="M194.939 215.638H193.466V214.741H193.758V212.791H193.457V211.894H195.758L196.317 213.34L196.89 211.894H199.171V212.791H198.873V214.741H199.179V215.638H197.195V214.741H197.498V212.651L196.349 215.638H195.78L194.643 212.677V214.74H194.943L194.939 215.638Z" fill="#D0D5DD"/>
<path d="M208.847 215.555H205.227V214.66H205.568V212.708H205.227V211.813H207.401V212.708H207.04V214.66H207.94V214.059H208.847V215.555Z" fill="#D0D5DD"/>
<path d="M243.965 215.532H243.139V214.378H243.965C244.063 214.694 244.245 214.851 244.524 214.851C244.721 214.851 244.821 214.774 244.821 214.617C244.821 214.578 244.812 214.539 244.794 214.504C244.776 214.469 244.75 214.438 244.717 214.415C244.571 214.317 244.415 214.235 244.25 214.17C244.021 214.074 243.8 213.959 243.591 213.825C243.452 213.73 243.336 213.605 243.253 213.459C243.134 213.252 243.089 213.012 243.124 212.777C243.159 212.542 243.272 212.325 243.445 212.16C243.671 211.969 243.961 211.868 244.259 211.876C244.556 211.87 244.846 211.967 245.076 212.152V211.927H245.908V212.956H245.088C244.987 212.673 244.809 212.531 244.554 212.531C244.375 212.531 244.285 212.605 244.285 212.757C244.283 212.788 244.289 212.819 244.302 212.848C244.315 212.876 244.335 212.901 244.361 212.92C244.514 213.014 244.674 213.099 244.839 213.172C245.087 213.288 245.329 213.417 245.563 213.56C245.633 213.607 245.697 213.663 245.752 213.727C245.813 213.795 245.866 213.869 245.911 213.949C246.005 214.117 246.053 214.307 246.051 214.499C246.053 214.644 246.023 214.787 245.964 214.92C245.905 215.052 245.818 215.171 245.708 215.268C245.474 215.483 245.162 215.597 244.842 215.587C244.525 215.589 244.216 215.49 243.963 215.303L243.965 215.532Z" fill="#D0D5DD"/>
<path d="M253.925 215.638H252.452V214.741H252.744V212.791H252.444V211.894H254.74L255.299 213.34L255.874 211.894H258.153V212.791H257.855V214.741H258.162V215.638H256.177V214.741H256.48V212.651L255.331 215.638H254.762L253.625 212.677V214.74H253.925V215.638Z" fill="#D0D5DD"/>
<path d="M267.835 215.555H264.214V214.66H264.556V212.708H264.214V211.813H266.387V212.708H266.026V214.66H266.926V214.059H267.835V215.555Z" fill="#D0D5DD"/>
<path d="M278.769 144.794L278.35 143.494C278.318 143.393 278.249 143.308 278.156 143.254C278.063 143.201 277.954 143.183 277.849 143.205C277.744 143.227 277.651 143.287 277.588 143.373C277.526 143.459 277.498 143.565 277.511 143.67H277.489L278.513 163.648C278.516 163.705 278.507 163.762 278.487 163.816C278.467 163.87 278.436 163.92 278.395 163.961C278.355 164.003 278.307 164.036 278.253 164.059C278.199 164.082 278.141 164.093 278.083 164.093H252.103C252.044 164.093 251.986 164.081 251.933 164.059C251.879 164.036 251.831 164.003 251.791 163.961C251.75 163.919 251.719 163.87 251.699 163.816C251.678 163.762 251.669 163.705 251.672 163.648L252.681 144C252.681 143.991 252.681 143.981 252.681 143.971L252.734 143.529C252.751 143.422 252.727 143.313 252.665 143.224C252.604 143.135 252.51 143.073 252.403 143.049C252.296 143.026 252.184 143.043 252.09 143.098C251.996 143.153 251.926 143.241 251.896 143.344L251.401 144.802C251.368 144.899 251.301 144.98 251.212 145.032C251.123 145.084 251.018 145.103 250.916 145.085L243.431 143.751C243.373 143.741 243.318 143.719 243.269 143.687C243.22 143.655 243.179 143.613 243.147 143.565C243.114 143.516 243.093 143.462 243.083 143.405C243.073 143.348 243.075 143.289 243.089 143.233L244.702 136.76C245.424 133.861 247.026 131.247 249.294 129.265C251.563 127.283 254.391 126.028 257.403 125.666C257.491 125.656 257.581 125.672 257.66 125.714C257.739 125.755 257.803 125.819 257.843 125.897C258.948 127.993 261.776 129.484 265.09 129.484C268.404 129.484 271.233 127.993 272.337 125.897C272.377 125.819 272.441 125.755 272.52 125.714C272.599 125.672 272.688 125.656 272.777 125.666C275.788 126.028 278.617 127.283 280.885 129.265C283.154 131.247 284.756 133.861 285.478 136.76L287.091 143.233C287.105 143.289 287.107 143.348 287.097 143.405C287.088 143.462 287.066 143.517 287.034 143.565C287.002 143.614 286.96 143.655 286.911 143.687C286.862 143.72 286.806 143.741 286.748 143.751L279.253 145.084C279.15 145.101 279.045 145.081 278.956 145.028C278.867 144.975 278.801 144.891 278.769 144.794Z" fill="#FFB523"/>
<path d="M280.666 135.894C280.232 133.23 278.161 131.241 276.006 129.769C275.346 129.318 274.663 128.898 273.981 128.48C273.521 128.205 273.099 128.913 273.561 129.194C275.725 130.521 278.011 131.934 279.226 134.228C279.539 134.819 279.753 135.456 279.859 136.114C279.896 136.334 280.175 136.456 280.376 136.402C280.482 136.37 280.57 136.299 280.624 136.205C280.678 136.11 280.693 135.999 280.666 135.894Z" fill="white"/>
<path d="M281.918 138.973C281.915 138.864 281.871 138.759 281.795 138.68C281.715 138.603 281.609 138.56 281.497 138.559C281.289 138.568 281.054 138.742 281.078 138.971C281.125 139.447 281.174 139.923 281.218 140.4C281.221 140.509 281.265 140.613 281.341 140.692C281.38 140.73 281.426 140.761 281.477 140.782C281.528 140.802 281.583 140.813 281.638 140.813C281.847 140.805 282.082 140.63 282.058 140.4C282.014 139.924 281.966 139.449 281.918 138.973Z" fill="white"/>
<path d="M271.093 159.261C266.914 159.327 262.734 159.334 258.554 159.284C257.384 159.269 256.214 159.251 255.043 159.228C254.504 159.217 254.504 160.043 255.043 160.053C259.222 160.135 263.402 160.16 267.582 160.127C268.752 160.117 269.923 160.103 271.093 160.086C271.635 160.079 271.637 159.252 271.093 159.261Z" fill="white"/>
<path d="M274.903 159.382H273.709C273.598 159.382 273.491 159.425 273.413 159.503C273.334 159.58 273.29 159.685 273.29 159.794C273.29 159.904 273.334 160.009 273.413 160.086C273.491 160.163 273.598 160.207 273.709 160.207H274.903C275.014 160.207 275.121 160.163 275.199 160.086C275.278 160.009 275.322 159.904 275.322 159.794C275.322 159.685 275.278 159.58 275.199 159.503C275.121 159.425 275.014 159.382 274.903 159.382Z" fill="white"/>
<path d="M199.252 133.105C199.252 133.105 199.252 133.117 199.252 133.123L198.605 144.198L191.857 166.555H223.544L216.736 144.002L216.089 132.93H216.104C216.062 132.625 216.567 132.533 216.674 132.826L216.954 133.6C216.981 133.662 217.028 133.713 217.088 133.744C217.149 133.776 217.218 133.786 217.285 133.773L222.373 132.978C222.409 132.975 222.445 132.965 222.477 132.947C222.51 132.929 222.538 132.905 222.56 132.875C222.582 132.846 222.597 132.813 222.605 132.777C222.612 132.741 222.612 132.705 222.605 132.669L221.51 128.81C220.497 125.235 217.031 122.632 212.889 122.197C212.831 122.189 212.772 122.198 212.719 122.223C212.666 122.247 212.621 122.286 212.59 122.334C211.841 123.583 209.922 124.473 207.673 124.473C205.424 124.473 203.504 123.583 202.755 122.334C202.723 122.286 202.679 122.247 202.626 122.223C202.573 122.198 202.514 122.189 202.456 122.197C198.314 122.632 194.848 125.237 193.836 128.81L192.742 132.669C192.734 132.705 192.734 132.741 192.741 132.777C192.749 132.813 192.764 132.846 192.786 132.875C192.808 132.905 192.837 132.929 192.869 132.947C192.901 132.965 192.937 132.975 192.974 132.978L198.053 133.773C198.119 133.786 198.187 133.776 198.247 133.745C198.307 133.714 198.354 133.665 198.381 133.604L198.717 132.735C198.829 132.446 199.328 132.542 199.286 132.845L199.252 133.105Z" fill="#7799FF"/>
<path d="M209.233 126.005C207.983 126.041 206.733 125.949 205.503 125.73C204.942 125.637 204.388 125.507 203.845 125.339C203.444 125.202 203.03 125.012 202.788 124.652C202.49 124.21 201.762 124.624 202.063 125.064C202.725 126.045 204.02 126.28 205.12 126.489C206.474 126.748 207.853 126.861 209.233 126.827C209.772 126.818 209.774 125.991 209.233 126.005Z" fill="white"/>
<path d="M213.176 125.082C213.12 124.989 213.03 124.922 212.924 124.892C212.815 124.867 212.7 124.882 212.601 124.935L211.922 125.287C211.828 125.342 211.759 125.431 211.728 125.534C211.7 125.642 211.715 125.756 211.771 125.852C211.826 125.945 211.916 126.014 212.021 126.043C212.131 126.069 212.246 126.053 212.346 126.001L213.025 125.647C213.119 125.593 213.189 125.505 213.218 125.401C213.247 125.293 213.232 125.179 213.176 125.082Z" fill="white"/>
<path d="M75.2725 85.1648H23.4122C18.994 85.1648 15.4122 88.7465 15.4122 93.1648V184.557C15.4122 188.975 18.994 192.557 23.4122 192.557H75.2725C79.6908 192.557 83.2725 188.975 83.2725 184.557V93.1648C83.2725 88.7465 79.6908 85.1648 75.2725 85.1648Z" fill="#002D4E"/>
<path d="M70.6503 78.7881H8C3.58172 78.7881 0 82.3698 0 86.7881V180.13C0 184.548 3.58172 188.13 8 188.13H70.6503C75.0686 188.13 78.6503 184.548 78.6503 180.13V86.7881C78.6503 82.3698 75.0686 78.7881 70.6503 78.7881Z" fill="#F2F4F7"/>
<path d="M27.8782 121.238C27.8782 121.238 27.8782 121.254 27.8782 121.262L27.0088 136.144L17.942 166.182H60.5238L51.3774 135.873L50.5024 121.003H50.5234C50.4675 120.591 51.1468 120.468 51.2893 120.866L51.6667 121.907C51.7027 121.99 51.7664 122.058 51.8473 122.1C51.9281 122.142 52.0212 122.156 52.1112 122.139L58.9486 121.071C58.9979 121.067 59.0457 121.052 59.0889 121.029C59.1321 121.005 59.1697 120.973 59.1992 120.934C59.2287 120.895 59.2494 120.85 59.2599 120.802C59.2705 120.755 59.2706 120.706 59.2603 120.658L57.7899 115.474C56.4286 110.673 51.7701 107.17 46.2074 106.587C46.1295 106.578 46.0504 106.59 45.9793 106.623C45.9081 106.655 45.8477 106.707 45.8048 106.772C44.7985 108.451 42.2198 109.646 39.1966 109.646C36.1734 109.646 33.5961 108.451 32.5884 106.772C32.5455 106.707 32.4851 106.655 32.4139 106.623C32.3428 106.59 32.2637 106.578 32.1858 106.587C26.623 107.172 21.966 110.674 20.6046 115.474L19.1343 120.66C19.1237 120.707 19.1237 120.756 19.1341 120.804C19.1446 120.852 19.1652 120.896 19.1948 120.936C19.2243 120.975 19.262 121.007 19.3053 121.031C19.3487 121.054 19.3966 121.068 19.446 121.072L26.2708 122.141C26.3597 122.157 26.4518 122.144 26.5322 122.104C26.6125 122.063 26.6766 121.996 26.7139 121.915L27.1639 120.746C27.3135 120.358 27.9844 120.488 27.9271 120.895L27.8782 121.238Z" fill="#7799FF"/>
<path d="M41.2906 111.693C39.6111 111.74 37.9313 111.614 36.2785 111.318C35.5249 111.194 34.781 111.019 34.052 110.794C33.5125 110.616 32.9562 110.354 32.6319 109.875C32.2322 109.282 31.2538 109.838 31.6535 110.435C32.5438 111.752 34.2896 112.069 35.7599 112.349C37.5798 112.698 39.4329 112.85 41.2864 112.804C42.0132 112.785 42.0132 111.675 41.2906 111.693Z" fill="white"/>
<path d="M46.5889 110.454C46.5143 110.33 46.3936 110.238 46.2521 110.2C46.1053 110.165 45.9504 110.184 45.8174 110.255L44.9033 110.729C44.7775 110.804 44.6851 110.923 44.6448 111.062C44.6252 111.133 44.6201 111.208 44.6299 111.281C44.6398 111.355 44.6643 111.426 44.7021 111.49C44.776 111.615 44.897 111.706 45.0389 111.744C45.1857 111.779 45.3406 111.76 45.4736 111.689L46.3863 111.215C46.4509 111.178 46.5075 111.13 46.5529 111.072C46.5982 111.014 46.6312 110.947 46.6501 110.876C46.669 110.805 46.6733 110.732 46.6628 110.659C46.6523 110.587 46.6272 110.517 46.5889 110.454Z" fill="white"/>
<path d="M123.391 54.3747C138.398 54.3747 150.564 42.3658 150.564 27.552C150.564 12.7382 138.398 0.729248 123.391 0.729248C108.384 0.729248 96.2182 12.7382 96.2182 27.552C96.2182 42.3658 108.384 54.3747 123.391 54.3747Z" fill="#3F51F3"/>
<path d="M151.25 134.552C151.25 134.552 155.528 138.526 159.687 141.917C163.845 145.308 166.183 147.683 165.965 153.042" stroke="white" stroke-width="3" stroke-miterlimit="10" stroke-linecap="round"/>
<path d="M123.563 134.825C123.563 134.825 130.692 135.253 131.287 143.67C131.882 152.088 129.149 155.479 129.149 155.479" stroke="white" stroke-width="3" stroke-miterlimit="10" stroke-linecap="round"/>
<path d="M119.942 31.1987L123.786 27.4132M123.786 27.4132L127.63 31.1987M123.786 27.4132V35.9306M131.474 31.9017C132.648 30.947 133.396 29.5027 133.396 27.8864C133.396 25.0117 131.03 22.6813 128.111 22.6813C127.901 22.6813 127.704 22.5734 127.598 22.3952C126.345 20.301 124.031 18.8958 121.384 18.8958C117.403 18.8958 114.177 22.0736 114.177 25.9936C114.177 27.9489 114.979 29.7196 116.278 31.0033" stroke="#F5F9FF" stroke-width="1.66667" stroke-linecap="round" stroke-linejoin="round"/>
</g>
<defs>
<clipPath id="clip0_108_8975">
<rect width="343" height="281" fill="white" transform="translate(0 0.755127)"/>
</clipPath>
</defs>
</svg>


