<svg width="384" height="277" viewBox="0 0 384 277" fill="none" xmlns="http://www.w3.org/2000/svg">
<g clip-path="url(#clip0_108_9058)">
<g opacity="0.2">
<path d="M55.9738 57.6726C51.5005 55.5818 44.1021 58.9809 41.7433 63.9569C37.2401 73.4555 51.8038 87.2119 57.1006 85.7355C63.0195 84.0862 64.1875 61.5123 55.9738 57.6726Z" stroke="#0F31AC" stroke-miterlimit="10" stroke-linecap="round" stroke-dasharray="50 50 50 50 50 50"/>
<path d="M33.1856 79.5468C31.5931 78.6246 14.7181 68.8497 5.16798 76.5854C-1.53697 82.0176 -1.60155 93.628 3.43746 100.153C13.4178 113.078 44.3654 107.283 47.5762 98.0353C49.7386 91.8078 39.5871 83.255 33.1856 79.5468Z" stroke="#0F31AC" stroke-miterlimit="10" stroke-linecap="round" stroke-dasharray="50 50 50 50 50 50"/>
<path d="M102.373 256.255C144.249 245.841 191.831 235.239 265.716 237.045C307.038 238.055 316.401 225.207 347.718 209.233C375.631 194.997 389.341 166.686 380.921 150.641C372.42 134.443 346.529 140.892 325.325 116.78C315.668 105.798 317.367 98.1009 311.792 85.9228C294.14 47.362 227.966 17.2222 195.336 33.173C152.227 54.2454 189.082 145.3 140.894 170.169C110.413 185.903 87.3747 155.699 57.2783 178.755C42.3659 190.18 24.1274 206.206 22.717 223.606C22.717 223.606 20.742 266.148 102.373 256.255Z" stroke="#0F31AC" stroke-miterlimit="10" stroke-linecap="round" stroke-dasharray="4 4"/>
<path d="M331.484 215.19C331.484 215.19 323.33 224.256 315.173 236.695C307.82 247.912 302.228 263.028 300.993 275.646C297.53 275.509 293.726 275.38 289.613 275.257C265.255 274.532 230.09 274.078 190.989 274.078C146.537 274.078 107.172 274.666 82.9901 275.569C82.1573 275.601 81.3428 275.632 80.5467 275.664C50.356 244.287 -10.4384 189.624 45.509 167.136C45.509 167.136 49.6076 166.089 55.7524 163.841C75.2007 156.72 115.166 137.572 110.72 101.458C110.72 101.458 109.206 94.7192 109.206 85.3432C109.206 63.4192 117.484 27.0781 172.746 28.7367C206.212 29.7426 237.032 44.0218 255.666 66.8774C273.943 89.2946 303.167 116.873 326.969 101.13C332.463 97.4949 339.727 96.1464 346.509 97.7449C363.636 101.783 383.096 122.669 331.484 215.19Z" fill="#D0D5DD"/>
</g>
<path d="M68.7929 93.0767H350.42C358.981 93.0767 365.92 100.016 365.92 108.577V258.745C365.92 267.306 358.981 274.245 350.42 274.245H68.7929C60.2325 274.245 53.2929 267.306 53.2929 258.745V108.577C53.2929 100.016 60.2325 93.0767 68.7929 93.0767Z" fill="#F2F4F7" stroke="#171D4F"/>
<path d="M162.25 116.998V116.998C162.25 115.194 162.843 113.472 163.888 112.208C164.932 110.946 166.337 110.249 167.789 110.249H322.209C323.662 110.249 325.067 110.946 326.111 112.208C327.156 113.472 327.75 115.194 327.75 116.998C327.75 118.802 327.157 120.525 326.111 121.789C325.067 123.052 323.662 123.749 322.209 123.749H167.789C167.069 123.749 166.354 123.578 165.685 123.243C165.016 122.907 164.405 122.414 163.888 121.789C163.371 121.164 162.959 120.419 162.677 119.596C162.395 118.774 162.25 117.891 162.25 116.998Z" fill="white" stroke="#273388" stroke-width="0.5"/>
<path d="M322.471 119.036L320.209 116.783C320.339 116.506 320.406 116.204 320.405 115.898C320.405 114.849 319.643 113.999 318.703 113.999C317.762 113.999 317 114.849 317 115.898C317 116.946 317.762 117.796 318.703 117.796C319.09 117.794 319.464 117.651 319.753 117.392L321.997 119.628C322.03 119.662 322.07 119.689 322.115 119.707C322.159 119.724 322.207 119.731 322.255 119.728C322.303 119.725 322.349 119.712 322.391 119.689C322.434 119.666 322.47 119.634 322.499 119.596C322.562 119.515 322.594 119.414 322.589 119.311C322.584 119.208 322.542 119.111 322.471 119.036ZM318.703 117.451C317.935 117.451 317.312 116.755 317.312 115.898C317.312 115.04 317.938 114.344 318.703 114.344C319.468 114.344 320.094 115.04 320.094 115.898C320.094 116.755 319.476 117.451 318.703 117.451Z" fill="#ACBCF8"/>
<path d="M317.68 115.138C317.68 115.138 317.341 115.932 317.68 116.588" stroke="white" stroke-width="0.97" stroke-miterlimit="10" stroke-linecap="round"/>
<path d="M339.553 117.697H345.904L347.107 112.84C347.127 112.76 347.129 112.677 347.112 112.596C347.095 112.516 347.059 112.441 347.009 112.376C346.958 112.311 346.894 112.259 346.82 112.223C346.746 112.187 346.665 112.169 346.583 112.169H338.184L339.553 117.697ZM345.562 117.259H339.896L338.745 112.607H346.583C346.598 112.607 346.614 112.611 346.628 112.617C346.642 112.624 346.654 112.634 346.663 112.646C346.673 112.658 346.68 112.673 346.683 112.688C346.686 112.703 346.686 112.719 346.682 112.734L345.562 117.259Z" fill="#829CF8"/>
<path d="M339.485 118.399H346.341C346.371 118.401 346.402 118.397 346.43 118.388C346.459 118.378 346.485 118.362 346.508 118.341C346.53 118.321 346.548 118.296 346.56 118.268C346.572 118.24 346.578 118.21 346.578 118.18C346.578 118.149 346.572 118.119 346.56 118.092C346.548 118.064 346.53 118.039 346.508 118.018C346.485 117.998 346.459 117.982 346.43 117.972C346.402 117.962 346.371 117.958 346.341 117.96H339.49C339.275 117.96 339.149 117.86 339.149 117.828C339.149 117.796 339.275 117.697 339.49 117.697H345.771C345.801 117.7 345.831 117.696 345.86 117.686C345.889 117.676 345.915 117.66 345.937 117.64C345.96 117.619 345.977 117.594 345.989 117.566C346.002 117.539 346.008 117.509 346.008 117.478C346.008 117.448 346.002 117.418 345.989 117.39C345.977 117.362 345.96 117.337 345.937 117.317C345.915 117.296 345.889 117.28 345.86 117.27C345.831 117.26 345.801 117.257 345.771 117.259H339.49C339.054 117.259 338.711 117.51 338.711 117.828C338.711 118.147 339.048 118.399 339.485 118.399Z" fill="#829CF8"/>
<path d="M339.695 117.576C339.713 117.578 339.731 117.578 339.749 117.576C339.805 117.562 339.853 117.526 339.883 117.476C339.913 117.426 339.922 117.367 339.908 117.31L338.394 111.314C338.356 111.166 338.269 111.035 338.149 110.941C338.028 110.847 337.88 110.795 337.726 110.794H336.514C336.483 110.791 336.453 110.795 336.424 110.805C336.396 110.815 336.369 110.831 336.347 110.851C336.325 110.872 336.307 110.897 336.295 110.925C336.283 110.953 336.276 110.983 336.276 111.013C336.276 111.043 336.283 111.073 336.295 111.101C336.307 111.129 336.325 111.154 336.347 111.174C336.369 111.195 336.396 111.211 336.424 111.221C336.453 111.231 336.483 111.235 336.514 111.232H337.726C337.782 111.232 337.836 111.251 337.88 111.285C337.924 111.32 337.955 111.367 337.969 111.421L339.482 117.418C339.495 117.464 339.523 117.504 339.562 117.533C339.6 117.561 339.647 117.577 339.695 117.576Z" fill="#829CF8"/>
<path d="M345.47 120.664C345.698 120.664 345.92 120.596 346.109 120.47C346.299 120.343 346.446 120.163 346.533 119.953C346.62 119.743 346.643 119.511 346.599 119.288C346.554 119.065 346.445 118.859 346.284 118.698C346.123 118.537 345.918 118.428 345.695 118.383C345.472 118.339 345.24 118.362 345.03 118.449C344.82 118.536 344.64 118.684 344.514 118.873C344.387 119.062 344.32 119.285 344.32 119.512C344.32 119.818 344.442 120.11 344.657 120.326C344.873 120.542 345.165 120.663 345.47 120.664ZM345.47 118.8C345.611 118.8 345.749 118.842 345.866 118.92C345.983 118.998 346.074 119.109 346.128 119.24C346.182 119.37 346.196 119.513 346.169 119.651C346.141 119.79 346.073 119.917 345.974 120.016C345.874 120.116 345.747 120.184 345.609 120.211C345.471 120.239 345.328 120.225 345.198 120.171C345.068 120.117 344.956 120.026 344.878 119.908C344.8 119.791 344.758 119.653 344.758 119.512C344.758 119.418 344.776 119.325 344.811 119.238C344.847 119.151 344.899 119.072 344.965 119.005C345.031 118.939 345.11 118.886 345.197 118.849C345.283 118.813 345.376 118.794 345.47 118.794V118.8Z" fill="#829CF8"/>
<path d="M339.878 120.664C340.106 120.664 340.328 120.596 340.517 120.47C340.707 120.343 340.854 120.163 340.941 119.953C341.028 119.743 341.051 119.511 341.007 119.288C340.962 119.065 340.853 118.859 340.692 118.698C340.531 118.537 340.326 118.428 340.103 118.383C339.88 118.339 339.648 118.362 339.438 118.449C339.228 118.536 339.048 118.684 338.922 118.873C338.795 119.062 338.728 119.285 338.728 119.512C338.728 119.818 338.85 120.11 339.065 120.326C339.281 120.542 339.573 120.663 339.878 120.664ZM339.878 118.8C340.019 118.8 340.157 118.842 340.274 118.92C340.391 118.998 340.482 119.109 340.536 119.24C340.59 119.37 340.604 119.513 340.577 119.651C340.549 119.79 340.481 119.917 340.382 120.016C340.282 120.116 340.155 120.184 340.017 120.211C339.879 120.239 339.736 120.225 339.606 120.171C339.476 120.117 339.364 120.026 339.286 119.908C339.208 119.791 339.166 119.653 339.166 119.512C339.166 119.418 339.184 119.325 339.219 119.238C339.255 119.151 339.307 119.072 339.373 119.005C339.439 118.939 339.518 118.886 339.605 118.849C339.691 118.813 339.784 118.794 339.878 118.794V118.8Z" fill="#829CF8"/>
<path d="M150.79 115.391H143.696C143.511 115.391 143.334 115.318 143.204 115.187C143.073 115.057 143 114.88 143 114.695C143 114.51 143.073 114.333 143.204 114.203C143.334 114.072 143.511 113.999 143.696 113.999H150.79C150.974 113.999 151.151 114.072 151.281 114.203C151.412 114.333 151.485 114.51 151.485 114.695C151.485 114.88 151.412 115.057 151.281 115.187C151.151 115.318 150.974 115.391 150.79 115.391Z" fill="#9EBEFF"/>
<path d="M150.79 117.897H143.696C143.511 117.897 143.334 117.823 143.204 117.693C143.073 117.562 143 117.385 143 117.201C143 117.016 143.073 116.839 143.204 116.709C143.334 116.578 143.511 116.505 143.696 116.505H150.79C150.974 116.505 151.151 116.578 151.281 116.709C151.412 116.839 151.485 117.016 151.485 117.201C151.485 117.385 151.412 117.562 151.281 117.693C151.151 117.823 150.974 117.897 150.79 117.897Z" fill="#9EBEFF"/>
<path d="M150.79 120.403H143.696C143.511 120.403 143.334 120.329 143.204 120.199C143.073 120.068 143 119.891 143 119.707C143 119.522 143.073 119.345 143.204 119.215C143.334 119.084 143.511 119.011 143.696 119.011H150.79C150.974 119.011 151.151 119.084 151.281 119.215C151.412 119.345 151.485 119.522 151.485 119.707C151.485 119.891 151.412 120.068 151.281 120.199C151.151 120.329 150.974 120.403 150.79 120.403Z" fill="#9EBEFF"/>
<path d="M75.931 120.958H72V113.999H75.931V114.961H73.1364V116.854H75.7557V117.806H73.1364V119.99H75.931V120.958Z" fill="#7799FF"/>
<path d="M79.4365 121.054C78.6409 121.054 78.0381 120.822 77.6282 120.358C77.2183 119.894 77.0115 119.227 77.0078 118.358C77.0078 117.472 77.2239 116.792 77.656 116.316C78.0882 115.84 78.7132 115.602 79.5311 115.603C80.0471 115.595 80.5586 115.7 81.0292 115.912L80.6912 116.811C80.3215 116.649 79.9257 116.555 79.5228 116.533C78.613 116.533 78.1582 117.136 78.1582 118.342C78.1582 118.932 78.2713 119.375 78.4976 119.671C78.6154 119.821 78.7675 119.939 78.9409 120.016C79.1144 120.094 79.304 120.128 79.4936 120.117C79.9884 120.118 80.475 119.99 80.9054 119.745V120.72C80.7071 120.836 80.4916 120.921 80.2669 120.971C79.9939 121.029 79.7155 121.056 79.4365 121.054Z" fill="#7799FF"/>
<path d="M86.8005 118.318C86.8005 119.178 86.5803 119.849 86.1398 120.331C85.6993 120.812 85.0858 121.054 84.2994 121.055C83.8432 121.064 83.3931 120.948 82.9975 120.721C82.6175 120.497 82.3139 120.164 82.1267 119.764C81.9154 119.312 81.8112 118.817 81.8221 118.318C81.8221 117.464 82.0409 116.799 82.4786 116.321C82.9163 115.843 83.533 115.603 84.3287 115.603C85.0882 115.603 85.6909 115.847 86.137 116.337C86.583 116.827 86.8042 117.488 86.8005 118.318ZM82.9724 118.318C82.9724 119.534 83.4213 120.141 84.3189 120.14C85.2166 120.139 85.6603 119.532 85.6501 118.318C85.6501 117.116 85.2032 116.513 84.3092 116.509C83.8404 116.509 83.4996 116.665 83.2896 116.975C83.0795 117.285 82.9724 117.738 82.9724 118.318Z" fill="#7799FF"/>
<path d="M92.5151 120.958H91.3939V117.713C91.3939 117.311 91.3179 117.011 91.1658 116.813C91.0792 116.71 90.9693 116.629 90.8451 116.577C90.721 116.525 90.5863 116.504 90.4522 116.515C90.021 116.515 89.7047 116.654 89.5035 116.932C89.3023 117.211 89.2017 117.677 89.2017 118.332V120.953H88.0889V115.692H88.9638L89.121 116.388H89.178C89.3257 116.135 89.5469 115.932 89.8123 115.808C90.0975 115.669 90.4108 115.599 90.7276 115.603C91.5353 115.603 92.0709 115.879 92.3342 116.43H92.4107C92.5674 116.169 92.7945 115.958 93.0659 115.822C93.368 115.671 93.7021 115.596 94.0396 115.603C94.6665 115.603 95.1237 115.762 95.4111 116.079C95.6986 116.396 95.8419 116.88 95.841 117.529V120.959H94.7282V117.714C94.7282 117.313 94.6512 117.013 94.4973 116.814C94.4104 116.711 94.3002 116.63 94.1758 116.578C94.0515 116.526 93.9165 116.505 93.7823 116.516C93.3469 116.516 93.0297 116.655 92.828 116.922C92.6263 117.19 92.5262 117.61 92.5262 118.175L92.5151 120.958Z" fill="#7799FF"/>
<path d="M101.825 120.958H100.703V117.713C100.703 117.311 100.626 117.011 100.474 116.813C100.388 116.709 100.278 116.628 100.154 116.576C100.03 116.524 99.8949 116.503 99.7608 116.515C99.3296 116.515 99.0134 116.654 98.8121 116.932C98.6109 117.211 98.5103 117.677 98.5103 118.333V120.953H97.3975V115.692H98.2724L98.4296 116.388H98.4866C98.6351 116.135 98.8561 115.933 99.1209 115.808C99.4061 115.67 99.7194 115.6 100.036 115.603C100.844 115.603 101.379 115.879 101.643 116.43H101.719C101.877 116.169 102.104 115.958 102.376 115.822C102.678 115.671 103.012 115.596 103.35 115.603C103.976 115.603 104.434 115.762 104.721 116.079C105.009 116.396 105.152 116.88 105.151 117.529V120.959H104.038V117.715C104.038 117.313 103.961 117.013 103.807 116.814C103.72 116.711 103.61 116.63 103.486 116.578C103.362 116.526 103.227 116.505 103.092 116.516C102.658 116.516 102.34 116.655 102.139 116.923C101.939 117.19 101.838 117.61 101.838 118.175L101.825 120.958Z" fill="#7799FF"/>
<path d="M108.998 121.055C108.181 121.055 107.542 120.816 107.08 120.338C106.618 119.86 106.387 119.203 106.385 118.367C106.385 117.507 106.599 116.831 107.026 116.34C107.454 115.849 108.041 115.603 108.79 115.603C109.485 115.603 110.034 115.813 110.435 116.234C110.837 116.656 111.038 117.236 111.039 117.976V118.58H107.535C107.55 119.091 107.69 119.483 107.952 119.757C108.215 120.032 108.578 120.175 109.051 120.175C109.343 120.177 109.634 120.147 109.919 120.087C110.216 120.019 110.505 119.921 110.782 119.795V120.702C110.517 120.831 110.236 120.924 109.947 120.981C109.634 121.035 109.316 121.059 108.998 121.055ZM108.794 116.449C108.636 116.442 108.478 116.468 108.332 116.527C108.185 116.585 108.052 116.674 107.941 116.787C107.706 117.062 107.571 117.409 107.559 117.771H109.946C109.939 117.337 109.834 117.008 109.631 116.784C109.525 116.671 109.394 116.582 109.25 116.524C109.105 116.466 108.95 116.44 108.794 116.449Z" fill="#7799FF"/>
<path d="M114.979 115.603C115.166 115.599 115.352 115.615 115.536 115.65L115.427 116.692C115.265 116.653 115.099 116.634 114.932 116.634C114.73 116.627 114.529 116.662 114.342 116.737C114.155 116.813 113.985 116.927 113.846 117.073C113.561 117.382 113.411 117.791 113.428 118.21V120.959H112.315V115.698H113.19L113.338 116.626H113.395C113.557 116.324 113.791 116.068 114.076 115.879C114.343 115.699 114.658 115.604 114.979 115.603Z" fill="#7799FF"/>
<path d="M118.631 121.054C117.835 121.054 117.232 120.822 116.823 120.358C116.413 119.894 116.206 119.227 116.202 118.358C116.202 117.472 116.419 116.792 116.852 116.316C117.285 115.84 117.91 115.602 118.727 115.603C119.243 115.595 119.754 115.7 120.225 115.912L119.887 116.811C119.517 116.649 119.121 116.555 118.717 116.533C117.807 116.533 117.353 117.136 117.353 118.342C117.353 118.932 117.466 119.375 117.693 119.671C117.811 119.821 117.963 119.939 118.137 120.017C118.31 120.094 118.5 120.129 118.689 120.117C119.184 120.118 119.671 119.99 120.101 119.745V120.72C119.902 120.836 119.686 120.921 119.461 120.971C119.188 121.029 118.91 121.056 118.631 121.054Z" fill="#7799FF"/>
<path d="M123.629 121.055C122.811 121.055 122.171 120.816 121.709 120.338C121.247 119.86 121.016 119.203 121.014 118.367C121.014 117.507 121.228 116.831 121.656 116.34C122.085 115.849 122.673 115.603 123.42 115.603C124.114 115.603 124.662 115.813 125.064 116.234C125.467 116.656 125.668 117.236 125.668 117.976V118.58H122.164C122.181 119.091 122.32 119.484 122.581 119.757C122.84 120.036 123.207 120.175 123.679 120.175C123.97 120.177 124.261 120.147 124.547 120.087C124.843 120.019 125.132 119.921 125.409 119.795V120.702C125.147 120.83 124.869 120.924 124.583 120.981C124.268 121.035 123.948 121.06 123.629 121.055ZM123.424 116.449C123.266 116.442 123.108 116.468 122.961 116.526C122.814 116.585 122.681 116.674 122.57 116.787C122.335 117.062 122.2 117.409 122.188 117.771H124.575C124.567 117.337 124.462 117.008 124.26 116.784C124.154 116.671 124.024 116.582 123.879 116.524C123.735 116.466 123.58 116.441 123.424 116.449Z" fill="#7799FF"/>
<path d="M133.956 138.758H72.6955C70.8241 138.758 69.307 140.276 69.307 142.148V245.048C69.307 246.92 70.8241 248.438 72.6955 248.438H133.956C135.827 248.438 137.344 246.92 137.344 245.048V142.148C137.344 140.276 135.827 138.758 133.956 138.758Z" fill="white"/>
<path d="M204.81 138.758H143.549C141.678 138.758 140.161 140.276 140.161 142.148V245.048C140.161 246.92 141.678 248.438 143.549 248.438H204.81C206.681 248.438 208.198 246.92 208.198 245.048V142.148C208.198 140.276 206.681 138.758 204.81 138.758Z" fill="white"/>
<path d="M275.664 138.758H214.404C212.532 138.758 211.015 140.276 211.015 142.148V245.048C211.015 246.92 212.532 248.438 214.404 248.438H275.664C277.535 248.438 279.052 246.92 279.052 245.048V142.148C279.052 140.276 277.535 138.758 275.664 138.758Z" fill="white"/>
<path d="M346.518 138.758H285.258C283.386 138.758 281.869 140.276 281.869 142.148V245.048C281.869 246.92 283.386 248.438 285.258 248.438H346.518C348.389 248.438 349.906 246.92 349.906 245.048V142.148C349.906 140.276 348.389 138.758 346.518 138.758Z" fill="white"/>
<path d="M134.562 203.472V144.751C134.562 142.979 133.126 141.542 131.354 141.542H75.2967C73.5251 141.542 72.089 142.979 72.089 144.751V203.472C72.089 205.245 73.5251 206.682 75.2967 206.682H131.354C133.126 206.682 134.562 205.245 134.562 203.472Z" fill="#EDF4FF"/>
<path d="M205.416 203.472V144.751C205.416 142.979 203.98 141.542 202.208 141.542H146.151C144.379 141.542 142.943 142.979 142.943 144.751V203.472C142.943 205.245 144.379 206.682 146.151 206.682H202.208C203.98 206.682 205.416 205.245 205.416 203.472Z" fill="#EDF4FF"/>
<path d="M276.27 203.472V144.751C276.27 142.979 274.834 141.542 273.062 141.542H217.005C215.233 141.542 213.797 142.979 213.797 144.751V203.472C213.797 205.245 215.233 206.682 217.005 206.682H273.062C274.834 206.682 276.27 205.245 276.27 203.472Z" fill="#EDF4FF"/>
<path d="M347.124 203.472V144.751C347.124 142.979 345.688 141.542 343.916 141.542H287.859C286.087 141.542 284.651 142.979 284.651 144.751V203.472C284.651 205.245 286.087 206.682 287.859 206.682H343.916C345.688 206.682 347.124 205.245 347.124 203.472Z" fill="#EDF4FF"/>
<path d="M81.278 219.46C83.1211 219.32 84.9642 219.241 86.8073 219.19C87.7281 219.158 88.6504 219.151 89.5712 219.131L92.3366 219.112L95.1005 219.13C96.0227 219.149 96.9436 219.156 97.8658 219.188C99.7089 219.24 101.552 219.315 103.395 219.467C101.552 219.606 99.7089 219.688 97.8658 219.738C96.9436 219.771 96.0227 219.777 95.1005 219.796L92.3366 219.814L89.5712 219.795C88.6504 219.777 87.7281 219.77 86.8073 219.738C84.9698 219.679 83.1211 219.604 81.278 219.46Z" fill="#829CF8"/>
<path d="M81.278 223.914C84.9531 223.774 88.6267 223.695 92.3018 223.644C94.1393 223.612 95.9768 223.605 97.813 223.585L103.326 223.566L108.837 223.584C110.674 223.603 112.512 223.61 114.349 223.642C118.024 223.694 121.698 223.769 125.373 223.921C121.698 224.06 118.024 224.142 114.349 224.192C112.512 224.225 110.674 224.231 108.837 224.25L103.326 224.269L97.813 224.249C95.9768 224.231 94.1393 224.224 92.3018 224.192C88.6267 224.134 84.9531 224.058 81.278 223.914Z" fill="#829CF8"/>
<path d="M152.132 219.46C155.806 219.32 159.481 219.241 163.156 219.19C164.993 219.158 166.829 219.151 168.667 219.131L174.18 219.112L179.691 219.13C181.528 219.149 183.366 219.156 185.203 219.188C188.877 219.24 192.552 219.315 196.227 219.467C192.552 219.606 188.877 219.688 185.203 219.738C183.366 219.771 181.528 219.777 179.691 219.796L174.18 219.814L168.667 219.795C166.829 219.777 164.993 219.77 163.156 219.738C159.481 219.679 155.806 219.604 152.132 219.46Z" fill="#829CF8"/>
<path d="M152.132 223.914C154.264 223.774 156.397 223.695 158.531 223.644C159.596 223.612 160.663 223.605 161.73 223.585L164.929 223.566L168.129 223.584C169.194 223.603 170.261 223.61 171.328 223.642C173.46 223.694 175.593 223.769 177.727 223.921C175.593 224.06 173.46 224.142 171.328 224.192C170.261 224.225 169.194 224.231 168.129 224.25L164.929 224.269L161.73 224.249C160.663 224.231 159.596 224.224 158.531 224.192C156.397 224.134 154.264 224.058 152.132 223.914Z" fill="#829CF8"/>
<path d="M222.986 219.46C225.373 219.32 227.761 219.241 230.15 219.19C231.343 219.158 232.537 219.151 233.732 219.131L237.313 219.112L240.895 219.13C242.089 219.149 243.282 219.156 244.477 219.188C246.864 219.24 249.252 219.315 251.641 219.467C249.252 219.606 246.864 219.688 244.477 219.738C243.282 219.771 242.089 219.777 240.895 219.796L237.313 219.814L233.732 219.795C232.537 219.777 231.343 219.77 230.15 219.738C227.761 219.679 225.373 219.604 222.986 219.46Z" fill="#829CF8"/>
<path d="M222.986 223.914C226.66 223.774 230.335 223.695 234.01 223.644C235.846 223.612 237.683 223.605 239.521 223.585L245.034 223.566L250.545 223.584C252.382 223.603 254.22 223.61 256.057 223.642C259.731 223.694 263.406 223.769 267.081 223.921C263.406 224.06 259.731 224.142 256.057 224.192C254.22 224.225 252.382 224.231 250.545 224.25L245.034 224.269L239.521 224.249C237.683 224.231 235.846 224.224 234.01 224.192C230.331 224.134 226.66 224.058 222.986 223.914Z" fill="#829CF8"/>
<path d="M293.84 219.46C297.514 219.32 301.189 219.241 304.864 219.19C306.7 219.158 308.537 219.151 310.375 219.131L315.888 219.112L321.399 219.13C323.236 219.149 325.074 219.156 326.911 219.188C330.585 219.24 334.26 219.315 337.935 219.467C334.26 219.606 330.585 219.688 326.911 219.738C325.074 219.771 323.236 219.777 321.399 219.796L315.888 219.814L310.375 219.795C308.537 219.777 306.7 219.77 304.864 219.738C301.189 219.679 297.516 219.604 293.84 219.46Z" fill="#829CF8"/>
<path d="M293.84 223.913C295.416 223.774 296.992 223.695 298.569 223.643C300.147 223.592 301.721 223.567 303.299 223.565C304.876 223.564 306.451 223.586 308.028 223.642C309.606 223.698 311.18 223.769 312.758 223.92C311.18 224.06 309.604 224.142 308.028 224.192C306.452 224.242 304.875 224.268 303.299 224.268C301.723 224.268 300.145 224.246 298.569 224.192C296.993 224.138 295.416 224.058 293.84 223.913Z" fill="#829CF8"/>
<path d="M100.404 235.642L101.731 234.979L103.049 235.661L102.807 234.234L103.883 233.234L102.408 233.014L101.755 231.712L101.085 233.004L99.606 233.202L100.667 234.218L100.404 235.642Z" fill="#DEE4FC"/>
<path d="M95.885 235.642L97.2121 234.979L98.5294 235.661L98.2873 234.234L99.364 233.234L97.8881 233.014L97.2357 231.712L96.5652 233.004L95.0852 233.202L96.1479 234.218L95.885 235.642Z" fill="#FDB606"/>
<path d="M91.2822 235.642L92.6092 234.979L93.9265 235.661L93.6845 234.234L94.7625 233.234L93.2853 233.014L92.6343 231.712L91.9638 233.004L90.4838 233.202L91.5451 234.218L91.2822 235.642Z" fill="#FDB606"/>
<path d="M86.6807 235.642L88.0077 234.979L89.325 235.661L89.083 234.234L90.1596 233.234L88.6824 233.014L88.0314 231.712L87.3609 233.004L85.8809 233.202L86.9436 234.218L86.6807 235.642Z" fill="#FDB606"/>
<path d="M82.0778 235.642L83.4049 234.979L84.7221 235.661L84.4801 234.234L85.5568 233.234L84.0809 233.014L83.4285 231.712L82.758 233.004L81.278 233.202L82.3407 234.218L82.0778 235.642Z" fill="#FDB606"/>
<path d="M171.278 235.642L172.605 234.979L173.922 235.661L173.68 234.234L174.757 233.234L173.281 233.014L172.629 231.712L171.958 233.004L170.478 233.202L171.541 234.218L171.278 235.642Z" fill="#DEE4FC"/>
<path d="M166.759 235.642L168.086 234.979L169.403 235.661L169.161 234.234L170.237 233.234L168.762 233.014L168.109 231.712L167.439 233.004L165.959 233.202L167.021 234.218L166.759 235.642Z" fill="#DEE4FC"/>
<path d="M162.156 235.642L163.483 234.979L164.8 235.661L164.558 234.234L165.636 233.234L164.159 233.014L163.508 231.712L162.837 233.004L161.357 233.202L162.419 234.218L162.156 235.642Z" fill="#FDB606"/>
<path d="M157.554 235.642L158.881 234.979L160.199 235.661L159.957 234.234L161.033 233.234L159.556 233.014L158.905 231.712L158.234 233.004L156.754 233.202L157.817 234.218L157.554 235.642Z" fill="#FDB606"/>
<path d="M152.951 235.642L154.278 234.979L155.596 235.661L155.354 234.234L156.43 233.234L154.954 233.014L154.302 231.712L153.631 233.004L152.151 233.202L153.214 234.218L152.951 235.642Z" fill="#FDB606"/>
<path d="M242.08 235.642L243.407 234.979L244.725 235.661L244.483 234.234L245.559 233.234L244.083 233.014L243.431 231.712L242.761 233.004L241.282 233.202L242.343 234.218L242.08 235.642Z" fill="#FDB606"/>
<path d="M237.561 235.642L238.888 234.979L240.205 235.661L239.963 234.234L241.04 233.234L239.564 233.014L238.912 231.712L238.241 233.004L236.761 233.202L237.824 234.218L237.561 235.642Z" fill="#FDB606"/>
<path d="M232.958 235.642L234.285 234.979L235.602 235.661L235.36 234.234L236.438 233.234L234.961 233.014L234.31 231.712L233.64 233.004L232.16 233.202L233.221 234.218L232.958 235.642Z" fill="#FDB606"/>
<path d="M228.357 235.642L229.684 234.979L231 235.661L230.759 234.234L231.836 233.234L230.358 233.014L229.707 231.712L229.037 233.004L227.557 233.202L228.62 234.218L228.357 235.642Z" fill="#FDB606"/>
<path d="M223.754 235.642L225.081 234.979L226.398 235.661L226.156 234.234L227.233 233.234L225.757 233.014L225.105 231.712L224.434 233.004L222.954 233.202L224.017 234.218L223.754 235.642Z" fill="#FDB606"/>
<path d="M313.022 235.642L314.349 234.979L315.666 235.661L315.424 234.234L316.501 233.234L315.025 233.014L314.373 231.712L313.702 233.004L312.224 233.202L313.285 234.218L313.022 235.642Z" fill="#DEE4FC"/>
<path d="M308.503 235.642L309.83 234.979L311.147 235.661L310.905 234.234L311.981 233.234L310.506 233.014L309.853 231.712L309.183 233.004L307.703 233.202L308.765 234.218L308.503 235.642Z" fill="#DEE4FC"/>
<path d="M303.9 235.642L305.227 234.979L306.544 235.661L306.302 234.234L307.38 233.234L305.903 233.014L305.252 231.712L304.581 233.004L303.101 233.202L304.163 234.218L303.9 235.642Z" fill="#FDB606"/>
<path d="M299.298 235.642L300.625 234.979L301.941 235.661L301.701 234.234L302.777 233.234L301.3 233.014L300.649 231.712L299.978 233.004L298.498 233.202L299.561 234.218L299.298 235.642Z" fill="#FDB606"/>
<path d="M294.695 235.642L296.022 234.979L297.34 235.661L297.098 234.234L298.174 233.234L296.699 233.014L296.046 231.712L295.376 233.004L293.896 233.202L294.958 234.218L294.695 235.642Z" fill="#FDB606"/>
<path d="M244.983 177.591L244.945 177.687L244.814 178.02L244.142 178.954L242.334 181.459L240.866 183.503L239.197 185.82L237.827 187.727L236.714 189.279C230.904 192.063 230.899 188.122 231.358 185.684C231.465 185.113 231.609 184.551 231.79 184L232.289 182.759L232.996 181.007L233.712 179.234L234.238 177.931C234.434 177.448 234.588 176.949 234.696 176.439C234.802 175.944 234.866 175.441 234.887 174.936C234.897 174.702 234.897 174.465 234.887 174.231C234.876 173.953 234.854 173.675 234.817 173.396C234.742 172.819 234.612 172.249 234.428 171.697V171.684L234.004 170.896L232.752 168.566L231.658 166.527L230.356 164.111L229.382 162.302C229.352 162.249 229.326 162.195 229.303 162.14C229.062 161.6 229.033 160.989 229.222 160.429C229.411 159.869 229.804 159.401 230.322 159.117L235.039 156.527C235.515 156.264 236.068 156.174 236.603 156.273C237.138 156.372 237.622 156.654 237.973 157.069C238.109 157.228 238.222 157.404 238.309 157.593L239.304 159.72L240.261 161.767L241.481 164.377L242.41 166.366L243.72 169.169L244.651 171.16L244.803 171.481C245.249 172.433 245.496 173.466 245.527 174.517C245.558 175.569 245.373 176.615 244.983 177.591Z" fill="#7799FF"/>
<path d="M244.983 177.592L244.944 177.688L241.934 176.017C240.65 175.308 239.207 174.936 237.74 174.936H234.896C234.906 174.702 234.906 174.465 234.896 174.232H237.383C239.073 174.232 240.727 173.737 242.14 172.809L244.658 171.161L244.81 171.483C245.255 172.435 245.5 173.468 245.53 174.519C245.56 175.57 245.374 176.616 244.983 177.592Z" fill="#9BB0F9"/>
<path d="M243.727 169.171L234.825 173.396C234.751 172.819 234.621 172.25 234.437 171.697V171.684L234.013 170.897L242.417 166.367L243.727 169.171Z" fill="#9BB0F9"/>
<path d="M241.488 164.378L232.759 168.567L231.663 166.527L240.269 161.769L241.488 164.378Z" fill="#9BB0F9"/>
<path d="M239.311 159.721L230.361 164.111L229.387 162.302C229.358 162.249 229.331 162.195 229.308 162.14L237.978 157.07C238.114 157.228 238.227 157.404 238.315 157.593L239.311 159.721Z" fill="#9BB0F9"/>
<path d="M244.142 178.954L242.334 181.46C240.425 180.246 237.13 178.64 233.709 179.233L234.235 177.93C234.432 177.447 234.585 176.948 234.693 176.438C236.985 176.638 241.236 177.223 244.142 178.954Z" fill="#9BB0F9"/>
<path d="M240.872 183.507L239.202 185.825C237.44 184.646 234.84 183.18 232.292 182.762L232.998 181.01C234.953 181.071 238.031 181.517 240.872 183.507Z" fill="#9BB0F9"/>
<path d="M237.842 187.731L236.729 189.283C230.919 192.067 230.915 188.127 231.374 185.688C233.281 185.929 235.982 186.48 237.842 187.731Z" fill="#9BB0F9"/>
<path d="M258.899 184.028L258.83 184.103L258.586 184.364L257.622 184.994L255.035 186.682L252.93 188.057L250.542 189.617L248.576 190.899L246.975 191.943C240.553 192.436 241.968 188.764 243.28 186.654C243.585 186.161 243.922 185.688 244.289 185.239L245.202 184.264L246.494 182.885L247.803 181.493L248.763 180.469C249.467 179.719 250.037 178.853 250.449 177.91C250.543 177.695 250.628 177.475 250.706 177.255C250.799 176.99 250.878 176.721 250.944 176.446C251.083 175.88 251.167 175.302 251.196 174.72V174.708L251.084 173.821L250.756 171.194L250.47 168.896L250.129 166.172L249.874 164.136C249.867 164.076 249.86 164.015 249.859 163.957C249.83 163.366 250.024 162.787 250.403 162.333C250.781 161.879 251.316 161.584 251.901 161.505L257.236 160.796C257.775 160.723 258.322 160.839 258.785 161.125C259.248 161.411 259.598 161.848 259.774 162.363C259.844 162.559 259.887 162.763 259.899 162.971L260.059 165.315L260.212 167.57L260.407 170.444L260.557 172.635L260.767 175.722L260.916 177.914L260.941 178.269C261.013 179.318 260.869 180.37 260.518 181.361C260.166 182.351 259.615 183.259 258.899 184.028Z" fill="#7799FF"/>
<path d="M258.899 184.028L258.83 184.103L256.622 181.458C255.681 180.332 254.47 179.463 253.101 178.933L250.449 177.906C250.543 177.69 250.628 177.47 250.706 177.25L253.025 178.148C254.601 178.76 256.322 178.897 257.976 178.542L260.917 177.91L260.943 178.265C261.015 179.315 260.871 180.368 260.519 181.359C260.168 182.35 259.616 183.258 258.899 184.028Z" fill="#9BB0F9"/>
<path d="M260.769 175.721L250.944 176.445C251.083 175.879 251.167 175.301 251.196 174.719V174.706L251.084 173.82L260.557 172.634L260.769 175.721Z" fill="#9BB0F9"/>
<path d="M260.41 170.443L250.758 171.193L250.472 168.895L260.215 167.569L260.41 170.443Z" fill="#9BB0F9"/>
<path d="M260.061 165.314L250.13 166.171L249.876 164.135C249.869 164.075 249.862 164.014 249.86 163.955L259.775 162.362C259.846 162.557 259.888 162.762 259.901 162.97L260.061 165.314Z" fill="#9BB0F9"/>
<path d="M257.622 184.994L255.035 186.682C253.694 184.86 251.201 182.172 247.802 181.492L248.761 180.467C249.118 180.087 249.441 179.677 249.727 179.241C251.784 180.247 255.538 182.324 257.622 184.994Z" fill="#9BB0F9"/>
<path d="M252.93 188.057L250.542 189.617C249.323 187.88 247.427 185.581 245.202 184.266L246.494 182.886C248.293 183.641 251 185.174 252.93 188.057Z" fill="#9BB0F9"/>
<path d="M248.576 190.899L246.975 191.943C240.553 192.436 241.968 188.764 243.28 186.654C244.977 187.571 247.301 189.062 248.576 190.899Z" fill="#9BB0F9"/>
<path d="M125.031 182.428L124.575 192.713L124.562 192.979L124.507 194.22C124.498 194.418 124.413 194.605 124.271 194.742C124.128 194.879 123.938 194.955 123.74 194.955H120.235C120.031 194.955 119.836 194.874 119.692 194.73C119.548 194.586 119.467 194.391 119.467 194.187V189.805C119.467 189.805 118.517 170.493 115.294 168.585C115.249 168.557 115.203 168.532 115.155 168.511L113.811 192.305C113.798 192.531 113.698 192.743 113.532 192.897C113.366 193.051 113.147 193.134 112.921 193.129L104.604 192.952L100.688 192.869L101.175 161.204C102.153 160.801 103.082 160.287 103.943 159.672C105.733 158.406 107.813 156.319 108.269 153.27C108.269 153.27 113.099 153.27 116.739 155.607L116.752 155.615C118.162 156.523 119.395 157.784 120.09 159.533C120.087 159.532 124.753 170.319 125.031 182.428Z" fill="#7799FF"/>
<path d="M106.252 160.297L104.604 192.951H104.117L93.7192 193C93.4968 193.001 93.2824 192.917 93.1195 192.766C92.9567 192.614 92.8578 192.406 92.8429 192.184L91.2293 168.092C91.2293 168.092 91.1945 168.153 91.132 168.276C91.0874 168.366 91.0276 168.487 90.9567 168.645C90.2153 170.262 88.1747 175.507 87.6183 185.347L87.0855 192.709L87.066 192.975L86.9742 194.239C86.9601 194.432 86.8733 194.614 86.7311 194.746C86.5889 194.878 86.4019 194.951 86.2078 194.951H82.7873C82.5898 194.951 82.4 194.875 82.2571 194.739C82.1142 194.602 82.0291 194.416 82.0194 194.219L81.961 192.975L81.9471 192.66L81.6369 186.043C81.6369 186.043 81.6369 174.491 83.4452 168.088C83.4452 168.088 84.3035 160.001 89.6102 155.786C89.6178 155.779 89.6262 155.773 89.6352 155.767C91.5826 154.229 94.1143 153.213 97.4249 153.296C97.6781 153.296 97.934 153.314 98.1955 153.334C98.1955 153.334 98.0842 157.576 103.954 159.663C104.705 159.927 105.473 160.139 106.252 160.297Z" fill="#7799FF"/>
<path opacity="0.1" d="M91.1264 168.276C91.0819 168.366 91.0221 168.487 90.9511 168.645C91.463 161.01 90.4267 157.405 89.5991 155.79C89.5267 155.651 89.46 155.52 89.3876 155.408C89.4711 155.526 89.549 155.647 89.6241 155.771C91.7857 159.294 91.4908 165.124 91.1264 168.276Z" fill="black"/>
<path opacity="0.1" d="M116.746 155.614C115.911 157.131 114.775 160.7 115.297 168.585C115.252 168.557 115.206 168.532 115.157 168.511C114.776 165.376 114.406 159.196 116.738 155.605C116.778 155.539 116.823 155.473 116.868 155.408C116.824 155.472 116.786 155.54 116.746 155.614Z" fill="black"/>
<path opacity="0.1" d="M106.252 160.297L104.604 192.951H104.117L105.557 160.854C98.8146 159.391 97.5376 155.596 97.4138 153.3C97.667 153.3 97.9229 153.318 98.1844 153.338C98.1844 153.338 98.0453 158.627 106.252 160.297Z" fill="black"/>
<path opacity="0.1" d="M87.0744 192.713L87.0549 192.979H81.9499L81.936 192.664L87.0744 192.713Z" fill="black"/>
<path opacity="0.1" d="M124.569 192.713L124.557 192.979H119.461V192.666L124.569 192.713Z" fill="black"/>
<path d="M103.971 162.954C104.394 162.954 104.736 162.612 104.736 162.189C104.736 161.766 104.394 161.423 103.971 161.423C103.548 161.423 103.206 161.766 103.206 162.189C103.206 162.612 103.548 162.954 103.971 162.954Z" fill="#9BB0F9"/>
<path d="M103.807 166.708C104.229 166.708 104.572 166.366 104.572 165.943C104.572 165.52 104.229 165.177 103.807 165.177C103.384 165.177 103.042 165.52 103.042 165.943C103.042 166.366 103.384 166.708 103.807 166.708Z" fill="#9BB0F9"/>
<path d="M103.691 170.458C104.113 170.434 104.436 170.073 104.412 169.651C104.389 169.229 104.028 168.906 103.606 168.929C103.184 168.953 102.861 169.314 102.885 169.736C102.908 170.158 103.269 170.481 103.691 170.458Z" fill="#9BB0F9"/>
<path d="M103.719 174.177C104.12 174.045 104.338 173.611 104.205 173.21C104.072 172.809 103.639 172.591 103.238 172.724C102.837 172.857 102.62 173.29 102.752 173.691C102.885 174.093 103.318 174.31 103.719 174.177Z" fill="#9BB0F9"/>
<path d="M104.077 177.241C104.07 177.392 104.019 177.538 103.929 177.66C103.839 177.782 103.716 177.875 103.573 177.926C103.431 177.978 103.277 177.986 103.13 177.95C102.983 177.914 102.85 177.835 102.748 177.723C102.646 177.612 102.579 177.472 102.556 177.322C102.533 177.173 102.555 177.02 102.619 176.883C102.683 176.745 102.787 176.63 102.916 176.552C103.046 176.473 103.195 176.435 103.346 176.442C103.447 176.446 103.545 176.471 103.636 176.513C103.727 176.556 103.809 176.616 103.877 176.69C103.945 176.764 103.997 176.851 104.032 176.946C104.066 177.04 104.081 177.14 104.077 177.241Z" fill="#9BB0F9"/>
<path d="M103.198 181.721C103.619 181.698 103.942 181.336 103.919 180.914C103.895 180.492 103.534 180.169 103.112 180.193C102.69 180.216 102.367 180.578 102.391 181C102.415 181.422 102.776 181.745 103.198 181.721Z" fill="#9BB0F9"/>
<path d="M102.985 185.481C103.407 185.481 103.75 185.138 103.75 184.715C103.75 184.292 103.407 183.95 102.985 183.95C102.562 183.95 102.22 184.292 102.22 184.715C102.22 185.138 102.562 185.481 102.985 185.481Z" fill="#9BB0F9"/>
<path d="M102.819 189.236C103.242 189.236 103.584 188.893 103.584 188.471C103.584 188.048 103.242 187.705 102.819 187.705C102.397 187.705 102.054 188.048 102.054 188.471C102.054 188.893 102.397 189.236 102.819 189.236Z" fill="#9BB0F9"/>
<path d="M188.404 171.913C188.404 171.913 188.404 171.924 188.404 171.931C188.361 172.249 188.29 172.563 188.191 172.869C187.967 173.539 187.635 174.168 187.209 174.733C187.067 174.927 186.944 175.136 186.842 175.355C186.698 175.662 186.582 175.982 186.496 176.311C186.286 177.124 186.161 177.958 186.123 178.797C186.105 179.109 186.092 179.427 186.089 179.753C186.077 180.549 186.105 181.387 186.158 182.238C186.178 182.555 186.203 182.875 186.233 183.194C186.305 184.029 186.4 184.864 186.511 185.68C186.553 186.003 186.598 186.323 186.65 186.636C186.781 187.517 186.921 188.356 187.067 189.122C187.128 189.456 187.187 189.776 187.247 190.078C187.43 191.025 187.599 191.803 187.714 192.322C187.733 192.408 187.733 192.498 187.713 192.584C187.693 192.67 187.653 192.751 187.598 192.82C187.543 192.889 187.472 192.945 187.393 192.983C187.313 193.022 187.225 193.041 187.137 193.041H160.599C160.506 193.041 160.414 193.018 160.332 192.975C160.249 192.932 160.178 192.87 160.124 192.795C160.069 192.719 160.034 192.631 160.02 192.539C160.006 192.447 160.014 192.353 160.043 192.265C160.291 191.51 160.51 190.781 160.698 190.078C160.788 189.752 160.869 189.435 160.945 189.122C161.159 188.253 161.331 187.425 161.463 186.636C161.516 186.31 161.566 185.992 161.602 185.68C161.724 184.799 161.8 183.971 161.836 183.194C161.851 182.865 161.861 182.548 161.862 182.238C161.872 181.408 161.833 180.578 161.745 179.753C161.709 179.417 161.667 179.098 161.62 178.797C161.488 177.953 161.285 177.121 161.014 176.311C161.002 176.275 160.989 176.239 160.977 176.201C160.88 175.923 160.788 175.637 160.699 175.355C160.454 174.539 160.259 173.709 160.115 172.869C160.059 172.551 160.013 172.233 159.976 171.913C159.874 171.088 159.819 170.258 159.813 169.427C159.813 169.108 159.813 168.791 159.827 168.47C159.84 168.07 159.865 167.667 159.901 167.268C159.94 166.836 159.986 166.408 160.04 165.986C160.077 165.664 160.119 165.344 160.164 165.03C160.285 164.171 160.424 163.337 160.573 162.544C160.635 162.217 160.699 161.899 160.762 161.588C160.947 160.691 161.142 159.853 161.329 159.102C161.413 158.765 161.496 158.446 161.574 158.145C161.815 157.245 162.033 156.511 162.192 155.999C162.265 155.762 162.413 155.554 162.614 155.407C162.814 155.26 163.056 155.181 163.305 155.182H166.267C166.571 155.183 166.862 155.302 167.079 155.515C167.296 155.727 167.421 156.016 167.429 156.319C167.445 156.93 167.497 157.54 167.583 158.145C167.633 158.481 167.692 158.8 167.761 159.102C167.798 159.259 167.835 159.412 167.875 159.561C168.068 160.284 168.382 160.97 168.805 161.588C169.044 161.934 169.318 162.254 169.624 162.544C171.997 164.794 175.917 164.842 178.35 162.544C178.656 162.254 178.932 161.934 179.173 161.588C179.478 161.155 179.73 160.688 179.926 160.196C180.065 159.83 180.204 159.465 180.304 159.107C180.406 158.78 180.489 158.459 180.563 158.151C180.713 157.511 180.829 156.862 180.908 156.209C180.942 155.927 181.078 155.668 181.291 155.48C181.503 155.292 181.777 155.188 182.061 155.188H184.239C184.469 155.188 184.694 155.257 184.885 155.385C185.076 155.513 185.225 155.695 185.313 155.907C185.633 156.681 185.926 157.429 186.192 158.151C186.308 158.477 186.423 158.794 186.528 159.107C186.828 159.976 187.084 160.805 187.308 161.593C187.4 161.919 187.486 162.238 187.564 162.549C187.791 163.43 187.969 164.259 188.108 165.035C188.169 165.364 188.222 165.681 188.266 165.992C188.405 166.899 188.483 167.727 188.525 168.476C188.542 168.811 188.551 169.129 188.554 169.432C188.564 170.262 188.513 171.09 188.404 171.913Z" fill="#3F51F3"/>
<path d="M167.753 159.102H161.327C161.41 158.765 161.494 158.446 161.571 158.146H167.575C167.625 158.481 167.684 158.801 167.753 159.102Z" fill="#6F90EF"/>
<path d="M186.514 159.102H180.296C180.397 158.775 180.481 158.453 180.555 158.146H186.184C186.299 158.471 186.415 158.789 186.514 159.102Z" fill="#6F90EF"/>
<path d="M169.616 162.544H160.574C160.637 162.217 160.701 161.899 160.763 161.588H168.8C169.038 161.934 169.312 162.254 169.616 162.544Z" fill="#6F90EF"/>
<path d="M187.556 162.544H178.341C178.648 162.254 178.924 161.934 179.165 161.588H187.3C187.391 161.913 187.478 162.232 187.556 162.544Z" fill="#6F90EF"/>
<path d="M188.258 165.986H160.037C160.075 165.665 160.116 165.344 160.161 165.03H188.099C188.161 165.358 188.213 165.676 188.258 165.986Z" fill="#6F90EF"/>
<path d="M188.546 169.427H159.813C159.813 169.108 159.813 168.791 159.827 168.47H188.517C188.533 168.806 188.543 169.123 188.546 169.427Z" fill="#6F90EF"/>
<path d="M188.404 171.913C188.404 171.913 188.404 171.924 188.404 171.931C188.361 172.249 188.29 172.563 188.191 172.869H160.119C160.064 172.551 160.018 172.233 159.98 171.913H188.404Z" fill="#6F90EF"/>
<path d="M186.839 175.355C186.695 175.662 186.579 175.982 186.493 176.311H161.015C161.004 176.275 160.99 176.239 160.979 176.201C160.881 175.923 160.79 175.637 160.701 175.355H186.839Z" fill="#6F90EF"/>
<path d="M186.12 178.797C186.102 179.109 186.089 179.427 186.087 179.753H161.754C161.717 179.417 161.676 179.098 161.628 178.797H186.12Z" fill="#6F90EF"/>
<path d="M186.235 183.194H161.837C161.852 182.865 161.862 182.548 161.864 182.238H186.155C186.176 182.555 186.201 182.881 186.235 183.194Z" fill="#6F90EF"/>
<path d="M186.642 186.639H161.464C161.517 186.313 161.567 185.994 161.603 185.683H186.503C186.548 186.003 186.594 186.323 186.642 186.639Z" fill="#6F90EF"/>
<path d="M187.233 190.078H160.694C160.784 189.753 160.865 189.435 160.941 189.122H187.053C187.114 189.456 187.173 189.776 187.233 190.078Z" fill="#6F90EF"/>
<path d="M335.842 188.941C335.768 189.81 334.893 189.961 333.633 189.709C330.024 188.988 323.277 184.96 323.277 184.96C317.132 181.677 296.331 166.38 296.331 166.38C294.94 164.494 297.657 165.266 297.657 165.266L305.103 167.275L305.307 167.331C306.021 166.845 306.945 166.024 307.888 165.112C310.084 162.989 312.386 160.379 312.386 160.379C314.551 157.377 317.482 158.709 317.482 158.709C320.635 159.32 323.629 160.573 326.277 162.392C329.87 164.859 331.582 167.51 331.582 167.51C333.747 170.304 330.675 174.425 330.675 174.425C329.901 175.573 329.464 177.019 329.219 178.381C329.162 178.699 329.115 179.013 329.08 179.317C328.981 180.105 328.941 180.83 328.927 181.405C329.383 181.869 329.813 182.309 330.218 182.723C331.019 183.549 331.719 184.287 332.328 184.939C334.9 187.691 335.842 188.941 335.842 188.941Z" fill="#3F51F3"/>
<path d="M330.215 182.714C327.572 182.357 321.66 180.602 311.445 172.911C311.445 172.911 307.43 170.067 305.103 167.271L305.308 167.326C306.021 166.841 306.945 166.019 307.888 165.108C311.285 168.07 321.689 176.719 329.219 178.368C329.045 179.368 328.946 180.38 328.924 181.396C329.38 181.858 329.811 182.297 330.215 182.714Z" fill="#9BB0F9"/>
<path opacity="0.1" d="M335.841 188.941C335.768 189.81 334.893 189.961 333.633 189.709C330.54 187.325 323.745 181.124 327.918 175.356C331.272 170.72 328.655 165.553 326.277 162.38C329.87 164.846 331.582 167.498 331.582 167.498C333.747 170.291 330.675 174.412 330.675 174.412C329.9 175.561 329.464 177.007 329.219 178.368C329.162 178.687 329.115 179 329.08 179.305C328.981 180.093 328.941 180.818 328.927 181.393C329.383 181.857 329.813 182.296 330.218 182.711C331.019 183.536 331.718 184.274 332.328 184.927C334.9 187.691 335.841 188.941 335.841 188.941Z" fill="black"/>
<path d="M197.645 263.68C198.797 263.68 199.731 262.745 199.731 261.592C199.731 260.439 198.797 259.504 197.645 259.504C196.492 259.504 195.558 260.439 195.558 261.592C195.558 262.745 196.492 263.68 197.645 263.68Z" fill="#EBEFFD"/>
<path d="M203.626 263.68C204.778 263.68 205.712 262.745 205.712 261.592C205.712 260.439 204.778 259.504 203.626 259.504C202.473 259.504 201.539 260.439 201.539 261.592C201.539 262.745 202.473 263.68 203.626 263.68Z" fill="#D7DFFC"/>
<path d="M209.607 263.68C210.76 263.68 211.694 262.745 211.694 261.592C211.694 260.439 210.76 259.504 209.607 259.504C208.455 259.504 207.521 260.439 207.521 261.592C207.521 262.745 208.455 263.68 209.607 263.68Z" fill="#CDD7FB"/>
<path d="M215.589 263.68C216.741 263.68 217.675 262.745 217.675 261.592C217.675 260.439 216.741 259.504 215.589 259.504C214.436 259.504 213.502 260.439 213.502 261.592C213.502 262.745 214.436 263.68 215.589 263.68Z" fill="#D7DFFC"/>
<path d="M221.57 263.68C222.722 263.68 223.656 262.745 223.656 261.592C223.656 260.439 222.722 259.504 221.57 259.504C220.418 259.504 219.483 260.439 219.483 261.592C219.483 262.745 220.418 263.68 221.57 263.68Z" fill="#EBEFFD"/>
</g>
<defs>
<clipPath id="clip0_108_9058">
<rect width="384" height="275.782" fill="white" transform="translate(0 0.754883)"/>
</clipPath>
</defs>
</svg>
