<svg width="304" height="235" viewBox="0 0 304 235" fill="none" xmlns="http://www.w3.org/2000/svg">
<g clip-path="url(#clip0_108_8943)">
<path opacity="0.4" d="M136.645 26.2252C162.314 13.6931 214.373 37.3731 228.259 67.6692C232.645 77.2372 231.308 83.2846 238.905 91.9127C255.586 110.857 275.955 105.79 282.642 118.517C289.265 131.123 278.48 153.366 256.522 164.551C231.885 177.101 224.519 187.195 192.012 186.401C133.887 184.983 96.4551 193.312 63.5118 201.494C-0.705929 209.267 0.847731 175.843 0.847731 175.843C1.9573 162.172 26.6907 113.265 38.4221 104.289" stroke="#98A2B3" stroke-miterlimit="10" stroke-linecap="round" stroke-dasharray="4 4"/>
<path d="M159.461 196.961C177.731 176.919 182.743 184.54 209.562 178.509C241.132 171.411 254.875 127.558 255.838 104.669C256.58 87.0298 240.591 50.0533 208.592 35.1102C186.812 24.9396 129.038 3.27642 75.6795 42.1695C52.8542 58.8075 -19.3548 126.701 55.7466 191.976C73.2251 207.168 123.206 236.741 159.461 196.961Z" fill="#F2F4F7"/>
<path d="M127.108 151.221C130.051 153.221 133.198 153.751 134.158 152.397L142.66 140.374C143.623 139.014 142.006 136.267 139.049 134.24L139.005 134.209C136.061 132.208 132.915 131.68 131.955 133.034L123.452 145.057C122.49 146.417 124.106 149.163 127.063 151.191L127.108 151.221Z" fill="#CECDFF"/>
<path d="M140.595 143.176L137.935 147.083L127.112 139.913L129.994 135.682C129.994 135.682 130.469 138.453 134.19 140.821C138.572 143.608 140.595 143.176 140.595 143.176Z" fill="#2C3BD6"/>
<path d="M162.255 147.129C188.467 147.129 209.717 125.895 209.717 99.702C209.717 73.5088 188.467 52.2749 162.255 52.2749C136.043 52.2749 114.794 73.5088 114.794 99.702C114.794 125.895 136.043 147.129 162.255 147.129Z" fill="#9EBEFF"/>
<path d="M162.255 137.644C183.225 137.644 200.225 120.657 200.225 99.7021C200.225 78.7474 183.225 61.7603 162.255 61.7603C141.285 61.7603 124.286 78.7474 124.286 99.7021C124.286 120.657 141.285 137.644 162.255 137.644Z" fill="#273388"/>
<path d="M187.762 125.19C201.849 111.113 201.849 88.2908 187.762 74.2143C173.675 60.1377 150.836 60.1377 136.749 74.2143C122.662 88.2908 122.662 111.113 136.749 125.19C150.836 139.267 173.675 139.267 187.762 125.19Z" fill="#DDEBFF"/>
<path d="M67.8533 226.694C68.8544 229.12 71.0101 230.643 72.2507 231.519C73.4662 232.378 75.9281 234.117 78.8254 234.156C82.2033 234.203 84.7837 231.922 87.3891 229.316C90.8996 225.806 95.7183 220.442 100.821 212.81L127.495 173.643C136.789 159.996 142.1 147.27 139.296 145.364C137.056 144.931 134.927 144.046 133.04 142.763C131.154 141.48 129.549 139.826 128.323 137.902C125.52 135.995 115.623 145.601 106.328 159.248L79.653 198.415C74.4205 206.037 71.1903 212.472 69.2165 216.957C67.7966 220.189 66.5402 223.512 67.8533 226.694Z" fill="#9EBEFF"/>
<path d="M178.758 126.171C179.451 126.641 180.279 126.868 181.115 126.819C181.95 126.77 182.745 126.446 183.378 125.898C193.779 116.877 195.783 106.44 195.633 99.2727C195.395 87.9109 189.676 77.5144 184.152 73.1119C183.763 72.7958 183.315 72.5598 182.834 72.4176C182.354 72.2754 181.85 72.2299 181.351 72.2836C180.853 72.3373 180.37 72.4892 179.93 72.7306C179.491 72.9719 179.104 73.2979 178.792 73.6896C178.479 74.0814 178.247 74.5312 178.11 75.013C177.972 75.4947 177.932 75.999 177.991 76.4965C178.049 76.994 178.206 77.475 178.452 77.9116C178.698 78.3482 179.028 78.7317 179.423 79.04C182.885 81.7969 187.849 89.9458 188.049 99.4311C188.216 107.498 184.973 114.476 178.405 120.172C177.966 120.553 177.621 121.03 177.396 121.565C177.17 122.101 177.071 122.681 177.105 123.26C177.139 123.84 177.306 124.404 177.593 124.91C177.879 125.415 178.278 125.848 178.758 126.175V126.171Z" fill="#F3F5FF"/>
<path d="M190.883 98.7675C191.169 98.9617 191.503 99.0739 191.848 99.0921C192.194 99.1102 192.538 99.0336 192.843 98.8704C193.148 98.7073 193.403 98.4639 193.579 98.1666C193.756 97.8692 193.848 97.5293 193.845 97.1836C193.803 91.8907 192.438 86.7004 189.897 82.1779C188.13 79.0338 185.824 76.2247 183.083 73.8789C182.896 73.7049 182.676 73.5704 182.436 73.4835C182.196 73.3965 181.941 73.359 181.686 73.373C181.431 73.387 181.182 73.4523 180.952 73.565C180.723 73.6778 180.519 73.8356 180.353 74.029C180.186 74.2224 180.061 74.4474 179.983 74.6906C179.906 74.9337 179.878 75.19 179.902 75.444C179.927 75.6981 180.002 75.9446 180.124 76.1689C180.245 76.3931 180.411 76.5905 180.611 76.7491C183.015 78.8061 185.039 81.2696 186.589 84.0269C189.405 89.043 190.027 93.9657 190.052 97.2119C190.054 97.5191 190.13 97.8212 190.275 98.0922C190.42 98.3632 190.628 98.595 190.883 98.7675Z" fill="white"/>
<path d="M144.348 101.356C144.443 97.3861 141.299 94.0918 137.326 93.9976C133.354 93.9033 130.057 97.0448 129.963 101.014C129.869 104.984 133.013 108.278 136.985 108.372C140.957 108.467 144.254 105.325 144.348 101.356Z" fill="#F3F5FF"/>
<path d="M142.296 102.988C143.516 101.768 143.516 99.7902 142.296 98.5703C141.075 97.3504 139.096 97.3504 137.875 98.5703C136.654 99.7902 136.654 101.768 137.875 102.988C139.096 104.208 141.075 104.208 142.296 102.988Z" fill="white" stroke="white" stroke-miterlimit="10"/>
<path d="M106.2 159.441L91.2075 181.456C96.1849 188.776 103.812 193.88 112.481 195.692L127.473 173.679C118.803 171.867 111.176 166.763 106.199 159.442L106.2 159.441Z" fill="#9EBEFF"/>
<path d="M117.9 163.987C114.509 161.639 111.482 158.805 108.917 155.575C109.312 155.03 109.708 154.494 110.103 153.968C115.455 160.75 122.802 165.683 131.109 168.07C130.765 168.63 130.413 169.194 130.051 169.763C125.717 168.503 121.613 166.553 117.9 163.987Z" fill="#273388"/>
<path d="M108.917 155.575C114.317 162.382 121.703 167.341 130.051 169.763C129.239 171.042 128.383 172.339 127.498 173.643L127.474 173.678C118.805 171.866 111.178 166.762 106.201 159.441L106.332 159.248C107.19 157.988 108.052 156.763 108.917 155.575Z" fill="#E4E7FF"/>
<path d="M76.9804 0C68.1228 3.18454 59.2691 6.3763 50.4193 9.57529C41.4344 12.8232 32.4523 16.0794 23.4729 19.344C22.5377 26.1932 21.4807 41.0497 28.5535 57.5176C33.4347 68.8844 40.2806 76.574 44.8891 80.9748C55.8469 68.8767 69.4473 59.4647 84.6347 53.4694C79.758 45.5577 76.5619 36.7282 75.2451 27.5298C73.9283 18.3314 74.519 8.96063 76.9804 0Z" fill="#DDEBFF"/>
<path d="M37.6098 51.3872C38.7973 54.152 40.2581 56.7914 41.9705 59.2661C43.753 61.8445 45.7935 64.235 48.0605 66.4004C49.0616 65.2933 50.2054 64.107 51.4927 62.8766C54.2693 60.2241 57.2658 57.8116 60.4501 55.6647C61.6864 54.831 62.9061 54.0683 64.0974 53.3705C67.1091 51.6074 70.2518 50.0779 73.4978 48.7954C72.3974 47.0072 72.6969 47.695 71.0493 44.4779C69.903 42.2388 68.1661 36.2924 67.653 33.2487C66.6123 27.029 66.9354 20.6577 68.5999 14.575C62.9314 16.6135 57.2652 18.6565 51.6011 20.7039C45.8509 22.7819 40.102 24.8661 34.3545 26.9563C33.7589 31.3396 33.0831 40.8474 37.6098 51.3872Z" fill="#3F51F3"/>
<path d="M41.9701 59.266C43.7526 61.8444 45.7931 64.2349 48.0602 66.4003C49.0613 65.2932 50.205 64.1069 51.4923 62.8765C54.2689 60.224 57.2654 57.8115 60.4497 55.6646C61.6861 54.8309 62.9057 54.0682 64.0971 53.3704C63.7901 53.0778 63.5865 52.5567 63.1527 52.4784C59.4428 51.8115 58.47 51.0612 55.8488 49.1913C52.2757 46.6412 49.5593 42.6822 47.6873 43.2807C42.2946 45.0047 49.8822 54.0848 47.4779 55.3161C46.0071 56.0664 43.6887 52.5934 42.217 53.2053C41.5163 53.4971 40.8772 54.2549 41.9701 59.266Z" fill="#EBF1FF"/>
<path d="M51.4961 62.8762C54.2727 60.2238 57.2692 57.8112 60.4535 55.6643C61.6899 54.8307 62.9096 54.0679 64.1009 53.3701C67.1126 51.607 70.2553 50.0775 73.5013 48.795C72.4009 47.0069 72.0171 46.8776 70.8317 43.729C65.0753 41.0871 62.4457 32.7298 59.0762 33.5534C57.0431 34.0536 57.129 40.8112 57.8031 43.5047C59.228 49.2019 61.0976 49.266 61.1726 51.1368C61.2152 52.2097 60.5203 52.7415 59.8245 53.0817C57.4277 54.2546 55.9802 50.6191 53.3298 51.8587C51.1591 52.8716 50.9622 57.5442 51.4961 62.8762Z" fill="#D2DBFC"/>
<path d="M248.252 47.3757C257.365 50.5603 266.475 53.752 275.581 56.951C284.826 60.1989 294.068 63.4552 303.308 66.7197C304.27 73.569 305.358 88.4255 298.08 104.893C293.057 116.264 286.011 123.95 281.272 128.352C275.33 121.982 268.643 116.351 261.354 111.579C254.764 107.264 247.732 103.664 240.377 100.842C243.47 95.9566 247.85 87.6618 249.774 76.5493C251.446 66.8328 250.926 56.8659 248.252 47.3757Z" fill="#EDF4FF"/>
<path d="M288.759 98.7627C287.534 101.534 286.031 104.173 284.273 106.641C282.431 109.227 280.33 111.617 278.002 113.776C276.971 112.669 275.796 111.482 274.471 110.252C271.607 107.594 268.524 105.181 265.255 103.04C263.983 102.206 262.728 101.444 261.501 100.746C258.396 98.981 255.163 97.4525 251.829 96.1733C252.962 94.3852 252.653 95.0729 254.349 91.8559C255.528 89.6167 257.315 83.6703 257.843 80.6266C258.913 74.4072 258.581 68.0276 256.87 61.9529C262.701 63.9914 268.531 66.0344 274.36 68.0819C280.275 70.1599 286.191 72.244 292.105 74.3342C292.721 78.7151 293.417 88.2228 288.759 98.7627Z" fill="#FFB523"/>
<path d="M284.273 106.641C282.431 109.227 280.33 111.617 278.002 113.776C276.971 112.669 275.796 111.482 274.471 110.252C271.607 107.594 268.524 105.181 265.255 103.04C263.983 102.206 262.728 101.444 261.501 100.746C261.817 100.453 262.025 99.9322 262.473 99.8539C266.289 99.187 267.291 98.4367 269.988 96.5668C273.664 94.0167 276.459 90.0577 278.385 90.6562C283.933 92.3802 276.127 101.46 278.601 102.692C280.114 103.442 282.5 99.9689 284.014 100.581C284.739 100.873 285.396 101.63 284.273 106.641Z" fill="#EBF1FF"/>
<path d="M274.471 110.252C271.607 107.594 268.524 105.181 265.255 103.04C263.983 102.206 262.728 101.444 261.501 100.746C258.396 98.9809 255.163 97.4524 251.829 96.1732C252.962 94.385 253.356 94.2558 254.582 91.1071C260.505 88.4653 263.211 80.108 266.679 80.9316C268.77 81.4276 268.681 88.1893 267.989 90.8829C266.522 96.5809 264.598 96.6442 264.522 98.5149C264.477 99.5878 265.189 100.12 265.908 100.46C268.375 101.633 269.864 97.9972 272.591 99.2369C274.817 100.247 275.02 104.92 274.471 110.252Z" fill="#DDEBFF"/>
</g>
<defs>
<clipPath id="clip0_108_8943">
<rect width="304" height="234.755" fill="white"/>
</clipPath>
</defs>
</svg>


