<svg width="71" height="83" viewBox="0 0 71 83" fill="none" xmlns="http://www.w3.org/2000/svg">
<path d="M51.355 41.7698L52.6841 30.8212L52.7444 30.8294C62.3051 26.2937 64.4286 23.7113 64.4286 23.7113C61.1589 16.9636 55.5701 9.83429 55.5701 9.83429H55.5649C51.1125 5.66458 47.7982 5.57086 47.7982 5.57086C47.459 6.63746 47.0246 7.79852 46.5255 9.01388C44.0256 15.1048 39.8998 22.5368 37.8908 26.0401C37.1693 27.2986 36.7216 28.0513 36.7216 28.0513L36.7119 28.0565C33.2771 22.1121 29.602 15.1256 27.3416 9.01388C26.9742 8.02166 26.6447 7.05399 26.3613 6.11978C26.304 5.93458 26.2504 5.7516 26.1976 5.57086C26.1976 5.57086 22.8803 5.66458 18.4287 9.83429C18.4287 9.83429 12.8398 16.9636 9.57086 23.7113C9.57086 23.7113 11.6937 26.2937 21.2544 30.8294L21.3117 30.8212L22.614 41.7698H22.623V46.4959H22.614L21.4983 49.5997L11.8424 76.444C11.8424 76.444 20.9212 82.7387 35.1031 81.4311L36.9975 73.2264L38.8897 81.4311C53.0717 82.7387 62.1504 76.444 62.1504 76.444L52.4952 49.5997L51.3788 46.4959H51.3542V41.7698H51.355Z" fill="#7799FF"/>
<path d="M51.3551 41.7698V46.4958H22.6238V41.7698H51.3551Z" fill="#BBC9EC"/>
<path d="M52.7058 79.7813L52.5072 79.8326C52.2022 79.9107 52.017 80.2224 52.0951 80.5274C52.1613 80.7854 52.3934 80.9573 52.6485 80.9573C52.6954 80.9573 52.743 80.9521 52.7906 80.9394L52.9914 80.8881C53.2971 80.8092 53.4808 80.4976 53.402 80.1919C53.3231 79.8862 53.0115 79.7025 52.7058 79.7813Z" fill="#20385F"/>
<path d="M64.9429 23.4629C61.6843 16.7367 56.0768 9.55391 56.0203 9.48176C55.9906 9.44383 55.9556 9.41259 55.9191 9.38358C51.3798 5.14842 47.9583 5.00412 47.8148 5.0004C47.5611 4.99074 47.3313 5.15511 47.2539 5.39833C46.9639 6.31097 46.5853 7.34484 46.1286 8.47467L36.9978 9.26086L27.7554 8.47541C27.3671 7.40658 27.0265 6.37642 26.7468 5.41172C26.6747 5.16181 26.4418 4.99074 26.1823 5.0004C26.038 5.00412 22.5964 5.14842 18.0392 9.41705C18.0243 9.43119 18.0124 9.44681 17.9998 9.46168C17.9931 9.46912 17.9857 9.47433 17.9797 9.48176C17.9232 9.55317 12.3157 16.7367 9.05715 23.4621C8.95971 23.6629 8.98872 23.9017 9.13004 24.0743C9.2193 24.1829 11.4127 26.766 20.786 31.2377L22.0475 41.8375C22.0483 41.8465 22.0512 41.8539 22.0527 41.8621V46.3702L11.3056 76.2507C11.2179 76.4939 11.3049 76.7661 11.5176 76.9134C11.8583 77.1499 19.2694 82.1832 31.1902 82.1832C32.4621 82.1832 33.7846 82.1259 35.1561 81.9995C35.4016 81.9771 35.6046 81.7994 35.6597 81.5591L36.9978 75.7657L38.3344 81.5591C38.3894 81.7994 38.5925 81.9771 38.8379 81.9995C42.2333 82.3126 45.6273 82.2181 48.926 81.719C49.2384 81.6722 49.4526 81.3806 49.4057 81.069C49.3581 80.7573 49.0673 80.5424 48.7549 80.5892C45.6808 81.0548 42.5204 81.1582 39.3541 80.8979L37.5549 73.097C37.4946 72.8381 37.264 72.6544 36.9978 72.6544C36.7322 72.6544 36.5009 72.8381 36.4414 73.097L34.6399 80.8979C22.6299 81.8834 14.3344 77.3083 12.5344 76.2075L23.0159 47.0672H27.1693L25.7851 52.5616C25.7077 52.8673 25.8937 53.1774 26.1994 53.2548C26.2462 53.2667 26.2931 53.2726 26.3392 53.2726C26.5943 53.2726 26.8271 53.1001 26.8926 52.8405L28.3474 47.0672H45.6466L47.1015 52.8405C47.1669 53.0993 47.399 53.2726 47.6549 53.2726C47.701 53.2726 47.7478 53.2667 47.7947 53.2548C48.1004 53.1782 48.2863 52.8673 48.209 52.5616L46.8248 47.0672H50.9781L61.4597 76.209C60.7493 76.6464 59.0267 77.6297 56.4822 78.5877C56.1869 78.6985 56.0374 79.028 56.1482 79.3233C56.2345 79.5524 56.4524 79.6937 56.683 79.6937C56.7507 79.6937 56.8184 79.6818 56.8846 79.6565C60.4228 78.3244 62.3946 76.9707 62.4772 76.9134C62.6892 76.7661 62.7762 76.4946 62.6884 76.2507L51.9265 46.3278V41.8048L53.2088 31.2407C62.5865 26.7675 64.7807 24.1829 64.87 24.0743C65.0113 23.9024 65.0403 23.6629 64.9429 23.4629ZM36.7211 26.923C32.9195 20.2779 30.0559 14.4786 28.1979 9.66027L34.8579 10.2256C33.6611 10.927 32.2799 12.0159 31.8522 13.4692C31.6253 14.2339 31.8314 15.0126 32.4011 15.5519C32.7462 15.8784 33.1769 16.0688 33.6195 16.1082C33.5042 17.8197 33.7563 19.6375 34.3722 21.5223C34.451 21.7633 34.6742 21.9165 34.9151 21.9165C34.9739 21.9165 35.0334 21.9076 35.0922 21.8882C35.3927 21.7901 35.5563 21.4673 35.4581 21.1675C34.8467 19.2939 34.6266 17.5058 34.7932 15.8412C34.8988 15.7795 35.0007 15.7073 35.0981 15.6248C35.8508 14.9858 36.4779 13.8434 36.9978 12.1639C37.5162 13.8434 38.1432 14.9851 38.8952 15.6233C38.9145 15.6404 38.9354 15.6538 38.9554 15.6694C39.0328 17.0387 38.8892 18.562 38.5218 20.2073C38.4534 20.5152 38.6468 20.8209 38.9547 20.8893C38.9971 20.899 39.0387 20.9035 39.0796 20.9035C39.3415 20.9035 39.5772 20.722 39.6368 20.4564C39.9826 18.9049 40.141 17.4471 40.115 16.1075C40.1433 16.109 40.1723 16.1134 40.2005 16.1134C40.6438 16.1134 41.0872 15.9639 41.4568 15.6709C42.1262 15.1413 42.3895 14.2971 42.1448 13.4692C41.7134 12.0114 40.3329 10.9232 39.1377 10.2233L45.6347 9.66399C42.7904 16.3329 38.2161 24.3532 36.7211 26.923ZM33.7526 14.971C33.5495 14.9598 33.348 14.875 33.1866 14.7218C33.0653 14.6072 32.8005 14.2889 32.9478 13.7928C33.2267 12.8459 34.0985 12.0657 34.9791 11.4893C34.4756 12.3699 33.9936 13.528 33.7526 14.971ZM40.0451 14.9546C39.8896 13.5005 39.5096 12.3811 39.0804 11.5376C39.961 12.1297 40.7852 12.9025 41.0492 13.7935C41.1608 14.1706 41.0477 14.5381 40.748 14.7753C40.5762 14.9107 40.3218 15.0096 40.0451 14.9546ZM18.3442 10.8875C19.3461 12.956 21.8221 19.3259 20.7503 29.9539C13.717 26.5533 11.0245 24.3197 10.2621 23.6005C12.8862 18.3069 16.9057 12.7976 18.3442 10.8875ZM50.784 45.9247H23.1952V42.3418H26.305C26.6204 42.3418 26.8762 42.086 26.8762 41.7706C26.8762 41.4545 26.6204 41.1994 26.305 41.1994H23.1215L21.8467 30.4835C23.158 18.3932 20.0705 11.6417 19.1527 9.94589C21.2122 8.08789 22.9787 7.15666 24.1212 6.69923C24.8568 6.40394 25.4288 6.26485 25.7881 6.1994C26.0774 7.15592 26.4195 8.16748 26.8063 9.21177C26.807 9.21325 26.8078 9.21474 26.8078 9.21623C26.81 9.22218 26.8123 9.22739 26.8145 9.23334C28.7528 14.4696 31.9162 20.899 36.2175 28.3421C39.6531 34.2918 42.8789 39.2477 44.1724 41.1994H34.1118C33.7965 41.1994 33.5406 41.4545 33.5406 41.7706C33.5406 42.086 33.7965 42.3418 34.1118 42.3418H50.784V45.9247ZM50.8487 41.1994H45.5455C44.7496 40.013 41.2158 34.6875 37.3771 28.0647C38.4028 26.319 43.982 16.7174 47.0546 9.23111C47.5068 8.13029 47.8891 7.11129 48.1956 6.19568C49.1454 6.36452 51.6505 7.06518 54.8414 9.94589C53.9243 11.641 50.8383 18.3917 52.1489 30.4835L50.8487 41.1994ZM53.2459 29.9562C52.1719 19.3184 54.6525 12.9464 55.6529 10.8831C57.0884 12.7887 61.1116 18.3024 63.7379 23.5997C62.9718 24.3219 60.2778 26.5563 53.2459 29.9562Z" fill="#20385F"/>
<path d="M30.3394 41.1995H30.114C29.7979 41.1995 29.5428 41.4546 29.5428 41.7707C29.5428 42.0861 29.7979 42.3419 30.114 42.3419H30.3394C30.6548 42.3419 30.9106 42.0861 30.9106 41.7707C30.9106 41.4546 30.6548 41.1995 30.3394 41.1995Z" fill="#20385F"/>
<path d="M60.7025 0.943787C59.5 0.943787 58.5218 1.92205 58.5218 3.12364C58.5218 4.32609 59.5 5.30435 60.7025 5.30435C61.9041 5.30435 62.8823 4.32609 62.8823 3.12449C62.8823 1.92205 61.9049 0.943787 60.7025 0.943787ZM60.7025 4C60.2193 4 59.8261 3.60683 59.8261 3.12449C59.8261 2.64131 60.2193 2.24813 60.7025 2.24813C61.1857 2.24813 61.578 2.64131 61.578 3.12449C61.578 3.60683 61.1857 4 60.7025 4Z" fill="#273388"/>
<path d="M2.86278 42.0307C1.66033 42.0307 0.682922 43.009 0.682922 44.2106C0.682922 45.413 1.66033 46.3913 2.86278 46.3913C4.06523 46.3913 5.04349 45.413 5.04349 44.2114C5.04349 43.009 4.06523 42.0307 2.86278 42.0307ZM2.86278 45.0869C2.37959 45.0869 1.98727 44.6938 1.98727 44.2114C1.98727 43.7283 2.37959 43.3351 2.86278 43.3351C3.34597 43.3351 3.73914 43.7283 3.73914 44.2114C3.73914 44.6938 3.34597 45.0869 2.86278 45.0869Z" fill="#273388"/>
<path d="M69.3913 39.4348H67.8696V37.913C67.8696 37.553 67.5775 37.2609 67.2174 37.2609C66.8574 37.2609 66.5652 37.553 66.5652 37.913V39.4348H65.0435C64.6834 39.4348 64.3913 39.7269 64.3913 40.087C64.3913 40.4479 64.6834 40.7391 65.0435 40.7391H66.5652V42.2609C66.5652 42.6218 66.8574 42.913 67.2174 42.913C67.5775 42.913 67.8696 42.6218 67.8696 42.2609V40.7391H69.3913C69.7514 40.7391 70.0435 40.4479 70.0435 40.087C70.0435 39.7269 69.7514 39.4348 69.3913 39.4348Z" fill="#273388"/>
<path d="M10.6957 14H9.17394V12.4783C9.17394 12.1182 8.88182 11.8261 8.52177 11.8261C8.16171 11.8261 7.86959 12.1182 7.86959 12.4783V14H6.34785C5.9878 14 5.69568 14.2921 5.69568 14.6522C5.69568 15.0131 5.9878 15.3044 6.34785 15.3044H7.86959V16.8261C7.86959 17.187 8.16171 17.4783 8.52177 17.4783C8.88182 17.4783 9.17394 17.187 9.17394 16.8261V15.3044H10.6957C11.0557 15.3044 11.3479 15.0131 11.3479 14.6522C11.3479 14.2921 11.0557 14 10.6957 14Z" fill="#273388"/>
</svg>
