<svg width="79" height="56" viewBox="0 0 79 56" fill="none" xmlns="http://www.w3.org/2000/svg">
<g clip-path="url(#clip0_607_716)">
<path d="M32.848 6.88956H29.8536V14.0044H32.848V6.88956Z" fill="#DEDEDE"/>
<path d="M35.8771 11.6921H26.8243C25.2939 11.6921 24.0533 12.9328 24.0533 14.4631V19.5722H38.6482V14.4631C38.6482 12.9328 37.4076 11.6921 35.8771 11.6921Z" fill="#F2F2F2"/>
<path opacity="0.1" d="M30.1056 11.6921H26.8243C25.2939 11.6921 24.0533 12.9328 24.0533 14.4631V19.5722H27.3345V14.4631C27.3345 12.9328 28.5752 11.6921 30.1056 11.6921Z" fill="#171D4F"/>
<path d="M38.7533 8.41729C38.4905 8.41992 38.2247 8.37245 37.9705 8.26887C37.1384 7.9297 36.2609 7.75776 35.3624 7.75776H31.0926C29.1708 7.75776 27.2732 7.25376 25.6047 6.30045C24.6092 5.73148 24.2635 4.46349 24.8323 3.46807C25.4011 2.47264 26.6693 2.12713 27.6646 2.69566C28.7068 3.29121 29.8922 3.60599 31.0927 3.60599H35.3625C36.801 3.60599 38.2058 3.88129 39.5379 4.42433C41.5954 5.26313 40.9653 8.39509 38.7533 8.41729Z" fill="#F2F2F2"/>
<path d="M43.0524 18.0807C41.9546 16.7858 40.3458 16.0353 38.6482 16.0353H24.0533C22.3557 16.0353 20.7469 16.7858 19.6491 18.0807C16.8645 21.3654 15.1536 25.82 15.1536 30.7261C15.1536 35.6323 16.8645 40.0869 19.6491 43.3715C20.7469 44.6664 22.3557 45.417 24.0533 45.417H38.6482C40.3458 45.417 41.9546 44.6664 43.0524 43.3715C45.837 40.0869 47.5478 35.6323 47.5478 30.7261C47.5478 25.82 45.837 21.3654 43.0524 18.0807Z" fill="#7799FF"/>
<path d="M58.5776 22.4495H52.023C50.8257 22.4495 49.8551 23.4201 49.8551 24.6174V30.6093H60.7455V24.6174C60.7455 23.4201 59.7749 22.4495 58.5776 22.4495Z" fill="#F2F2F2"/>
<path opacity="0.1" d="M55.3043 22.4495H52.023C50.8257 22.4495 49.8551 23.4202 49.8551 24.6174V30.6093H53.1364V24.6174C53.1364 23.4201 54.107 22.4495 55.3043 22.4495Z" fill="#171D4F"/>
<path d="M65.3177 27.7562H45.2829C42.9658 27.7562 41.0875 29.6346 41.0875 31.9516V44.8209C41.0875 47.138 42.9659 49.0163 45.2829 49.0163H65.3176C67.6347 49.0163 69.513 47.1379 69.513 44.8209V31.9517C69.5131 29.6346 67.6347 27.7562 65.3177 27.7562Z" fill="#C2D9FF"/>
<path d="M45.2829 45.4578C44.9318 45.4578 44.6461 45.1721 44.6461 44.821V34.3241C44.6461 33.973 44.9318 33.6873 45.2829 33.6873H65.3176C65.6688 33.6873 65.9545 33.973 65.9545 34.3241V44.821C65.9545 45.1721 65.6688 45.4578 65.3176 45.4578H45.2829Z" fill="#F2F2F2"/>
<path d="M44.9288 37.2425H30.2319C27.4092 37.2425 25.1211 39.5307 25.1211 42.3533V48.4672C25.1211 51.2899 27.4092 53.578 30.2319 53.578H44.9288C47.7515 53.578 50.0396 51.2899 50.0396 48.4672V42.3533C50.0396 39.5307 47.7515 37.2425 44.9288 37.2425Z" fill="#D0D5DD"/>
<path d="M41.3584 41.8041H33.8023C32.3511 41.8041 31.1747 42.9805 31.1747 44.4317V46.3888C31.1747 47.8399 32.3511 49.0164 33.8023 49.0164H41.3584C42.8096 49.0164 43.986 47.8399 43.986 46.3888V44.4317C43.986 42.9805 42.8096 41.8041 41.3584 41.8041Z" fill="#F2F2F2"/>
<path d="M41.3584 40.9794H33.8023C31.9012 40.9794 30.3544 42.5262 30.3544 44.4273V46.3844C30.3544 48.2856 31.9012 49.8323 33.8023 49.8323H41.3584C43.2596 49.8323 44.8063 48.2856 44.8063 46.3844V44.4273C44.8063 42.5262 43.2597 40.9794 41.3584 40.9794ZM43.1657 46.3844C43.1657 47.3809 42.3549 48.1917 41.3584 48.1917H33.8023C32.8058 48.1917 31.995 47.3809 31.995 46.3844V44.4273C31.995 43.4308 32.8058 42.62 33.8023 42.62H41.3584C42.3549 42.62 43.1657 43.4308 43.1657 44.4273V46.3844Z" fill="#171D4F"/>
<path d="M65.3177 26.9315H61.5658V24.6131C61.5658 22.9654 60.2253 21.6249 58.5776 21.6249H52.023C50.3754 21.6249 49.0349 22.9654 49.0349 24.6131V26.9315H48.0324C47.4016 23.4042 45.9043 20.1718 43.6781 17.546C42.5993 16.2733 41.0969 15.4678 39.4685 15.2637V14.4589C39.4685 12.4787 37.8574 10.8676 35.8771 10.8676H33.6682V8.57379C35.0306 8.57379 36.3725 8.49909 37.6608 9.02431C39.3587 9.71654 41.2185 8.62728 41.5556 6.85999C42.1973 3.49583 37.7616 2.78139 35.3622 2.78139H31.0926C30.0346 2.78139 28.9899 2.50401 28.0714 1.97901C26.7008 1.19621 24.9023 1.68775 24.12 3.0568C23.3277 4.44335 23.8111 6.21599 25.1977 7.0083C26.3889 7.68895 27.6891 8.15488 29.0332 8.3919V10.8674H26.8244C24.8442 10.8674 23.233 12.4785 23.233 14.4587V15.2635C21.6046 15.4677 20.1022 16.273 19.0233 17.5457C18.7326 17.8886 18.4449 18.255 18.1686 18.6349C17.9019 19.0012 17.9827 19.5143 18.349 19.7808C18.7153 20.0475 19.2284 19.9668 19.4951 19.6003C19.7478 19.2532 20.0101 18.9188 20.2748 18.6066C21.2206 17.4908 22.5978 16.851 24.0533 16.851H38.6482C40.1036 16.851 41.4808 17.4909 42.4267 18.6067C44.4045 20.9396 45.7553 23.8017 46.3635 26.9313H45.2829C42.5171 26.9313 40.2672 29.1814 40.2672 31.9471V36.4177C40.2672 36.4177 30.2402 36.4177 30.2319 36.4177C27.0171 36.4177 24.3007 39.1399 24.3007 42.3487V44.5921H24.0532C22.5977 44.5921 21.2206 43.9522 20.2747 42.8366C17.5014 39.5653 15.9739 35.2628 15.9739 30.7217C15.9739 27.8082 16.6193 24.923 17.8402 22.3783C18.0361 21.9697 17.8638 21.4798 17.4553 21.2838C17.0468 21.0878 16.5569 21.2602 16.3609 21.6686C15.0344 24.4335 14.3333 27.5641 14.3333 30.7217C14.3333 35.6508 15.999 40.3301 19.0233 43.8976C20.2815 45.3817 22.1148 46.233 24.0533 46.233H24.3008V48.4629C24.3008 51.7334 26.9614 54.394 30.232 54.394H44.9288C47.7279 54.394 50.0786 52.4445 50.6986 49.8324H65.3176C68.0834 49.8324 70.3333 47.5824 70.3333 44.8167V31.9473C70.3334 29.1815 68.0834 26.9315 65.3177 26.9315ZM25.5445 3.87077C25.8827 3.27883 26.6672 3.0662 27.2576 3.40352C28.4236 4.06972 29.7497 4.42191 31.0927 4.42191C33.7914 4.42191 36.679 4.10625 39.2281 5.17955C39.897 5.45222 40.0367 6.06735 39.9443 6.5521C39.8006 7.3057 39.0136 7.80368 38.2803 7.50487C36.5449 6.79765 34.6807 6.93294 32.848 6.93294C30.4179 6.93294 28.1777 6.82138 26.0117 5.58369C25.4106 5.24025 25.2011 4.47178 25.5445 3.87077ZM30.6739 8.56581C30.6746 8.56581 30.6755 8.56581 30.6763 8.56581C30.8148 8.57062 32.0275 8.57357 32.0275 8.57357V10.8674H30.6738L30.6739 8.56581ZM24.8736 15.2105V14.4587C24.8736 13.3831 25.7487 12.508 26.8244 12.508H35.8772C36.9529 12.508 37.828 13.3831 37.828 14.4587V15.2105H24.8736ZM50.6755 24.613C50.6755 23.8699 51.28 23.2654 52.023 23.2654H58.5776C59.3207 23.2654 59.9252 23.8699 59.9252 24.613V26.9314H50.6755V24.613ZM44.9288 52.7533H30.2319C27.8661 52.7533 25.9413 50.8286 25.9413 48.4628V42.3489C25.9413 39.9831 27.8661 38.0584 30.2319 38.0584H44.9288C47.2946 38.0584 49.2194 39.9831 49.2194 42.3489C49.2194 42.3489 49.2194 48.4536 49.2194 48.4628C49.2194 50.7974 47.264 52.7533 44.9288 52.7533ZM45.4665 36.4419V34.5033H65.1343V44.6331H50.86V42.3489C50.86 42.3425 50.8596 42.3363 50.8596 42.3299C50.853 40.0532 49.4644 37.9094 47.3979 36.9579C46.7918 36.679 46.1313 36.5019 45.4665 36.4419ZM68.6928 44.8166C68.6928 46.6776 67.1787 48.1917 65.3177 48.1917H50.86V46.2736H65.3177C66.1212 46.2736 66.7749 45.6199 66.7749 44.8165V34.3196C66.7749 33.5162 66.1212 32.8625 65.3177 32.8625H45.283C44.4795 32.8625 43.8259 33.5162 43.8259 34.3196V36.4178H41.9079V31.9473C41.9079 30.0863 43.422 28.5722 45.283 28.5722H65.3177C67.1788 28.5722 68.6928 30.0863 68.6928 31.9473V44.8166Z" fill="#171D4F"/>
</g>
<path d="M67.9359 2.95605C66.7334 2.95605 65.7552 3.93431 65.7552 5.13676C65.7552 6.33835 66.7334 7.31661 67.9359 7.31661C69.1375 7.31661 70.1157 6.33835 70.1157 5.13676C70.1157 3.93431 69.1375 2.95605 67.9359 2.95605ZM67.9359 6.01226C67.4527 6.01226 67.0595 5.61909 67.0595 5.13676C67.0595 4.65357 67.4527 4.2604 67.9359 4.2604C68.4191 4.2604 68.8114 4.65357 68.8114 5.13676C68.8114 5.61994 68.4182 6.01226 67.9359 6.01226Z" fill="#171D4F"/>
<path d="M2.51401 48.3047C1.31157 48.3047 0.333313 49.2829 0.333313 50.4854C0.333313 51.687 1.31157 52.6652 2.51401 52.6652C3.71646 52.6652 4.69472 51.687 4.69472 50.4854C4.69472 49.2829 3.71646 48.3047 2.51401 48.3047ZM2.51401 51.3609C2.03083 51.3609 1.63766 50.9677 1.63766 50.4854C1.63766 50.0022 2.03083 49.609 2.51401 49.609C2.9972 49.609 3.38952 50.0022 3.38952 50.4854C3.39037 50.9686 2.9972 51.3609 2.51401 51.3609Z" fill="#171D4F"/>
<path d="M77.7249 46.5655H76.2032V45.0438C76.2032 44.6837 75.911 44.3916 75.551 44.3916C75.1909 44.3916 74.8988 44.6837 74.8988 45.0438V46.5655H73.3771C73.017 46.5655 72.7249 46.8576 72.7249 47.2177C72.7249 47.5777 73.017 47.8699 73.3771 47.8699H74.8988V49.3916C74.8988 49.7516 75.1909 50.0438 75.551 50.0438C75.911 50.0438 76.2032 49.7516 76.2032 49.3916V47.8699H77.7249C78.085 47.8699 78.3771 47.5777 78.3771 47.2177C78.3771 46.8576 78.085 46.5655 77.7249 46.5655Z" fill="#171D4F"/>
<path d="M19.0286 3.17391H17.5069V1.65217C17.5069 1.29212 17.2148 1 16.8547 1C16.4947 1 16.2025 1.29212 16.2025 1.65217V3.17391H14.6808C14.3207 3.17391 14.0286 3.46603 14.0286 3.82608C14.0286 4.18613 14.3207 4.47825 14.6808 4.47825H16.2025V5.99999C16.2025 6.36004 16.4947 6.65216 16.8547 6.65216C17.2148 6.65216 17.5069 6.36004 17.5069 5.99999V4.47825H19.0286C19.3887 4.47825 19.6808 4.18613 19.6808 3.82608C19.6808 3.46603 19.3887 3.17391 19.0286 3.17391Z" fill="#171D4F"/>
<defs>
<clipPath id="clip0_607_716">
<rect width="56" height="56" fill="white" transform="translate(14.3333)"/>
</clipPath>
</defs>
</svg>
