<svg width="30" height="32" viewBox="0 0 30 32" fill="none" xmlns="http://www.w3.org/2000/svg">
<path fill-rule="evenodd" clip-rule="evenodd" d="M18.9693 7.41406C21.4482 7.41406 23.4815 9.32106 23.6827 11.7481C23.4302 11.7898 23.171 11.8117 22.9068 11.8117C20.4279 11.8117 18.3946 9.90475 18.1934 7.47775C18.4458 7.43612 18.705 7.41406 18.9693 7.41406Z" fill="#6CF5C2"/>
<path fill-rule="evenodd" clip-rule="evenodd" d="M23.6194 11.2755C23.6481 11.4302 23.6695 11.5875 23.6827 11.7471C23.4302 11.7888 23.171 11.8108 22.9068 11.8108C20.4279 11.8108 18.3946 9.9038 18.1934 7.4768C18.2144 7.4733 18.2355 7.46998 18.2567 7.4668C18.6642 9.66467 20.5909 11.3292 22.9068 11.3292C23.149 11.3292 23.3869 11.3107 23.6194 11.2755Z" fill="#00E499"/>
<path fill-rule="evenodd" clip-rule="evenodd" d="M28.397 7.41406C25.9181 7.41406 23.8848 9.32106 23.6836 11.7481C23.9361 11.7898 24.1952 11.8117 24.4595 11.8117C26.9385 11.8117 28.9717 9.90475 29.173 7.47775C28.9205 7.43612 28.6613 7.41406 28.397 7.41406Z" fill="#6CF5C2"/>
<path fill-rule="evenodd" clip-rule="evenodd" d="M23.7424 11.3C23.7159 11.4472 23.6962 11.5968 23.6836 11.7484C23.9361 11.7901 24.1952 11.8121 24.4595 11.8121C26.9385 11.8121 28.9717 9.90506 29.173 7.47806C29.1534 7.47481 29.1338 7.47169 29.1142 7.46875C28.716 9.67812 26.7837 11.3544 24.4595 11.3544C24.2157 11.3544 23.9763 11.3356 23.7424 11.3Z" fill="#00E499"/>
<path fill-rule="evenodd" clip-rule="evenodd" d="M23.1836 5.23242C23.1836 4.9563 23.4075 4.73242 23.6836 4.73242C23.9597 4.73242 24.1836 4.9563 24.1836 5.23242V15.1347C24.1836 15.4108 23.9597 15.6347 23.6836 15.6347C23.4075 15.6347 23.1836 15.4108 23.1836 15.1347V5.23242Z" fill="#685E68"/>
<path d="M26.6979 5.24572C27.3861 3.58546 26.598 1.68166 24.9378 0.993479C23.2775 0.305295 21.3737 1.09332 20.6855 2.75359C19.9973 4.41385 20.7854 6.31765 22.4456 7.00583C24.1059 7.69402 26.0097 6.90599 26.6979 5.24572Z" fill="#FFC338"/>
<path fill-rule="evenodd" clip-rule="evenodd" d="M23.6828 0.748047C25.4796 0.748047 26.9362 2.20467 26.9362 4.00148C26.9362 5.7983 25.4796 7.25492 23.6828 7.25492C23.589 7.25492 23.4961 7.25067 23.4043 7.24292C25.0707 7.10161 26.3792 5.70448 26.3792 4.00148C26.3792 2.29848 25.0707 0.901359 23.4043 0.760047C23.4961 0.752297 23.5889 0.748047 23.6828 0.748047Z" fill="#F5B829"/>
<path fill-rule="evenodd" clip-rule="evenodd" d="M24.9869 2.86747C25.0672 3.05884 24.9771 3.27916 24.7857 3.35941C24.5944 3.43966 24.3741 3.34959 24.2938 3.15822C24.2104 2.95941 24.052 2.84472 23.8781 2.80066C23.7646 2.77191 23.6462 2.77009 23.5364 2.79216C23.431 2.81334 23.3344 2.85591 23.2595 2.91678C23.1715 2.98834 23.1156 3.09116 23.1218 3.21822C23.1272 3.33034 23.1867 3.40791 23.2698 3.46209C23.3964 3.54478 23.5749 3.59128 23.7457 3.61934C24.0093 3.66259 24.2976 3.73522 24.541 3.88209C24.8282 4.05547 25.0448 4.31659 25.0935 4.71859C25.0972 4.74841 25.0994 4.78528 25.1005 4.82853C25.1093 5.19916 24.9407 5.47484 24.6875 5.66703C24.5062 5.80459 24.2827 5.89334 24.0585 5.93872V6.05972C24.0585 6.26734 23.8902 6.43566 23.6825 6.43566C23.4749 6.43566 23.3066 6.26734 23.3066 6.05972V5.93116C23.1283 5.89009 22.9587 5.81991 22.8096 5.72066C22.5537 5.55028 22.3577 5.29866 22.2746 4.96572C22.2252 4.76459 22.3481 4.56141 22.5492 4.51197C22.7504 4.46253 22.9535 4.58547 23.003 4.78659C23.0366 4.92147 23.1176 5.02447 23.2237 5.09516C23.3602 5.18609 23.5365 5.22941 23.7162 5.22516C23.745 5.22447 23.7819 5.22147 23.8267 5.21603C23.9796 5.19747 24.1306 5.15022 24.2351 5.07091C24.3064 5.01684 24.3538 4.94247 24.3515 4.84622C24.3514 4.84103 24.35 4.82803 24.3475 4.80672C24.3315 4.67553 24.2552 4.58678 24.1532 4.52528C24.0075 4.43728 23.8107 4.38984 23.6252 4.35941C23.3695 4.31741 23.0912 4.24047 22.8615 4.09059C22.5882 3.91222 22.3919 3.64797 22.3728 3.25347C22.3539 2.86334 22.5217 2.55053 22.7865 2.33522C22.935 2.21453 23.1144 2.12709 23.3065 2.07697V1.94234C23.3065 1.73472 23.4748 1.56641 23.6824 1.56641C23.89 1.56641 24.0584 1.73472 24.0584 1.94234V2.07178L24.0601 2.07222C24.4484 2.17072 24.8015 2.42591 24.9869 2.86747Z" fill="#FFE177"/>
<path fill-rule="evenodd" clip-rule="evenodd" d="M22.2559 14.2227H24.9917C25.1638 14.2227 25.3042 14.363 25.3042 14.5352V30.4363C25.3042 30.6084 25.1638 30.7488 24.9917 30.7488H22.2559C22.0837 30.7488 21.9434 30.6084 21.9434 30.4363V14.5352C21.9434 14.363 22.0837 14.2227 22.2559 14.2227Z" fill="#8AC9FE"/>
<path fill-rule="evenodd" clip-rule="evenodd" d="M24.3652 14.2227H24.9902C25.1624 14.2227 25.3027 14.363 25.3027 14.5352V30.4363C25.3027 30.6084 25.1624 30.7488 24.9902 30.7488H24.3652C24.5374 30.7488 24.6777 30.6084 24.6777 30.4363V14.5352C24.6777 14.363 24.5374 14.2227 24.3652 14.2227Z" fill="#60B7FF"/>
<path fill-rule="evenodd" clip-rule="evenodd" d="M18.7514 17.3965H16.0156C15.8435 17.3965 15.7031 17.5369 15.7031 17.709V30.4369C15.7031 30.609 15.8435 30.7494 16.0156 30.7494H18.7514C18.9236 30.7494 19.0639 30.609 19.0639 30.4369V17.709C19.0639 17.5369 18.9236 17.3965 18.7514 17.3965Z" fill="#6CF5C2"/>
<path fill-rule="evenodd" clip-rule="evenodd" d="M18.75 17.3965H18.125C18.2971 17.3965 18.4375 17.5369 18.4375 17.709V30.4369C18.4375 30.609 18.2971 30.7494 18.125 30.7494H18.75C18.9221 30.7494 19.0625 30.609 19.0625 30.4369V17.709C19.0625 17.5369 18.9221 17.3965 18.75 17.3965Z" fill="#00E499"/>
<path fill-rule="evenodd" clip-rule="evenodd" d="M12.5092 20.9238C11.5973 20.9238 10.6854 20.9238 9.77344 20.9238C9.60131 20.9238 9.46094 21.0642 9.46094 21.2363V30.437C9.46094 30.6091 9.60131 30.7495 9.77344 30.7495H12.5092C12.6814 30.7495 12.8217 30.6091 12.8217 30.437C12.8217 27.1646 12.8217 24.5087 12.8217 21.2363C12.8217 21.0642 12.6814 20.9238 12.5092 20.9238Z" fill="#FFE177"/>
<path fill-rule="evenodd" clip-rule="evenodd" d="M12.5098 20.9238H11.8848C12.0569 20.9238 12.1973 21.0642 12.1973 21.2363V30.437C12.1973 30.6091 12.0569 30.7495 11.8848 30.7495H12.5098C12.6819 30.7495 12.8223 30.6091 12.8223 30.437C12.8223 27.1646 12.8223 24.5087 12.8223 21.2363C12.8223 21.0642 12.6819 20.9238 12.5098 20.9238Z" fill="#FFD064"/>
<path fill-rule="evenodd" clip-rule="evenodd" d="M3.5332 24.3027H6.26902C6.44114 24.3027 6.58152 24.4431 6.58152 24.6152V30.4377C6.58152 30.6099 6.44114 30.7502 6.26902 30.7502H3.5332C3.36108 30.7502 3.2207 30.6099 3.2207 30.4377V24.6152C3.2207 24.4431 3.36108 24.3027 3.5332 24.3027Z" fill="#FE646F"/>
<path fill-rule="evenodd" clip-rule="evenodd" d="M5.64453 24.3027H6.26953C6.44166 24.3027 6.58203 24.4431 6.58203 24.6152V30.4377C6.58203 30.6099 6.44166 30.7502 6.26953 30.7502H5.64453C5.81666 30.7502 5.95703 30.6099 5.95703 30.4377V24.6152C5.95703 24.4431 5.81666 24.3027 5.64453 24.3027Z" fill="#FD4755"/>
<path fill-rule="evenodd" clip-rule="evenodd" d="M2.59849 20.2545C2.36011 20.3925 2.05492 20.3112 1.91686 20.0729C1.7788 19.8345 1.86011 19.5293 2.09849 19.3912L13.7402 12.6699H13.4578C13.1817 12.6699 12.9578 12.446 12.9578 12.1699C12.9578 11.8938 13.1817 11.6699 13.4578 11.6699H15.6039C15.88 11.6699 16.1039 11.8938 16.1039 12.1699C16.1039 12.2777 16.0697 12.3777 16.0116 12.4593L14.9625 14.2765C14.8255 14.5149 14.5212 14.597 14.2828 14.4601C14.0444 14.3231 13.9622 14.0188 14.0992 13.7804L14.2427 13.5317L2.59849 20.2545Z" fill="#A79BA7"/>
<path fill-rule="evenodd" clip-rule="evenodd" d="M1.57422 31.25C1.29809 31.25 1.07422 31.0261 1.07422 30.75C1.07422 30.4739 1.29809 30.25 1.57422 30.25H26.9505C27.2267 30.25 27.4505 30.4739 27.4505 30.75C27.4505 31.0261 27.2267 31.25 26.9505 31.25H1.57422Z" fill="#837683"/>
<path d="M11.2072 8.40366C11.3506 5.53965 9.14502 3.10171 6.28101 2.95837C3.417 2.81502 0.979062 5.02056 0.835719 7.88457C0.692375 10.7486 2.89791 13.1865 5.76192 13.3299C8.62593 13.4732 11.0639 11.2677 11.2072 8.40366Z" fill="#FFC338"/>
<path fill-rule="evenodd" clip-rule="evenodd" d="M6.01859 2.95312C8.88547 2.95312 11.2095 5.27719 11.2095 8.14406C11.2095 11.0109 8.88547 13.335 6.01859 13.335C5.86884 13.335 5.72072 13.3282 5.57422 13.3159C8.23297 13.0904 10.3207 10.8612 10.3207 8.14412C10.3207 5.427 8.23297 3.19781 5.57422 2.97237C5.72072 2.95981 5.86884 2.95312 6.01859 2.95312Z" fill="#F5B829"/>
<path fill-rule="evenodd" clip-rule="evenodd" d="M8.09887 6.33564C8.22693 6.64102 8.08324 6.99245 7.77786 7.12052C7.47249 7.24858 7.12105 7.10489 6.99299 6.79952C6.8598 6.48233 6.60718 6.29933 6.32974 6.22902C6.14862 6.18314 5.95974 6.1802 5.78449 6.21552C5.61637 6.24939 5.4623 6.3172 5.34274 6.41439C5.20236 6.52852 5.11324 6.69264 5.12305 6.89539C5.13174 7.07427 5.22668 7.19795 5.35918 7.28445C5.56124 7.41633 5.84599 7.49058 6.11849 7.53533C6.53899 7.60433 6.99905 7.7202 7.3873 7.95464C7.84549 8.23127 8.19111 8.64789 8.26899 9.28933C8.27474 9.33683 8.27843 9.3957 8.28005 9.46477C8.29412 10.056 8.02518 10.496 7.62105 10.8026C7.3318 11.0221 6.9753 11.1638 6.61749 11.2361V11.4292C6.61749 11.7605 6.34893 12.029 6.01768 12.029C5.68643 12.029 5.41786 11.7605 5.41786 11.4292V11.2241C5.13336 11.1586 4.86274 11.0466 4.62486 10.8882C4.21661 10.6163 3.9038 10.2149 3.77137 9.68364C3.69243 9.36277 3.88861 9.03858 4.20949 8.95964C4.53036 8.8807 4.85455 9.07689 4.93349 9.39777C4.98718 9.61302 5.11636 9.77733 5.28561 9.89002C5.50349 10.0351 5.7848 10.1043 6.07143 10.0974C6.11743 10.0963 6.1763 10.0915 6.2478 10.0828C6.49174 10.0531 6.73261 9.97777 6.89936 9.8512C7.01299 9.76502 7.08868 9.64627 7.08505 9.4927C7.08486 9.48439 7.08274 9.46364 7.07861 9.4297C7.05324 9.22039 6.93124 9.07883 6.76868 8.9807C6.53618 8.84033 6.22212 8.76464 5.9263 8.71608C5.5183 8.64908 5.07411 8.52633 4.70774 8.28714C4.27174 8.00252 3.95855 7.58095 3.92805 6.95152C3.8978 6.32902 4.16568 5.83002 4.58818 5.48645C4.82505 5.29389 5.11124 5.15433 5.4178 5.07439V4.85958C5.4178 4.52833 5.68636 4.25977 6.01761 4.25977C6.34886 4.25977 6.61743 4.52833 6.61743 4.85958V5.06608L6.62018 5.06677C7.23961 5.22395 7.80299 5.63108 8.09887 6.33564Z" fill="#FFE177"/>
</svg>
