<svg width="32" height="32" viewBox="0 0 32 32" fill="none" xmlns="http://www.w3.org/2000/svg">
<g clip-path="url(#clip0_356_5962)">
<path d="M24.375 26.8156V31.375H0.625V26.8156C0.625 24.4862 2.23375 22.4656 4.50375 21.9431L9.6875 20.75H15.3125L20.4963 21.9431C22.7663 22.4656 24.375 24.4862 24.375 26.8156Z" fill="#EDEFF1"/>
<path d="M12.5004 24.5625C14.5259 24.5625 16.1868 22.9746 16.3054 20.9784L15.3129 20.75H9.68787L8.69531 20.9784C8.81394 22.9746 10.4749 24.5625 12.5004 24.5625Z" fill="#D3D3D3"/>
<path d="M19.25 28.875H20.5V31.375H19.25V28.875Z" fill="#D3D3D3"/>
<path d="M4.5 28.875H5.75V31.375H4.5V28.875Z" fill="#D3D3D3"/>
<path d="M15.3125 20.75V17.75H9.6875V20.75C9.6875 22.3033 10.9467 23.5625 12.5 23.5625C14.0533 23.5625 15.3125 22.3033 15.3125 20.75Z" fill="#FFD3B3"/>
<path d="M12.5 19.7419C13.4978 19.7419 14.4478 19.5358 15.3125 19.1671V17.75H9.6875V19.1671C10.5523 19.5358 11.5022 19.7419 12.5 19.7419Z" fill="#FCB98B"/>
<path d="M19.0625 9.125H18.3125V12.375H19.0625C19.5458 12.375 19.9375 11.9832 19.9375 11.5V10C19.9375 9.51675 19.5458 9.125 19.0625 9.125Z" fill="#FFD3B3"/>
<path d="M5.9375 9.125H6.6875V12.375H5.9375C5.45425 12.375 5.0625 11.9832 5.0625 11.5V10C5.0625 9.51675 5.45425 9.125 5.9375 9.125Z" fill="#FFD3B3"/>
<path d="M18.3125 6.5625V12.9062C18.3125 16.1219 15.71 18.5 12.5 18.5C9.29 18.5 6.6875 16.1219 6.6875 12.9062V6.5625H18.3125Z" fill="#FFD3B3"/>
<path d="M12.5 0.625C8.89062 0.625 5.9375 3.57812 5.9375 7.1875V9.125H6.6875V12.375L7.625 9.0625C11.1805 8.9605 14.1766 8.408 15.6875 6.625C15.6875 6.625 16.2322 8.33431 17.4375 9.0625L18.3125 12.375V9.125H19.0625V7.1875C19.0625 3.57812 16.1094 0.625 12.5 0.625Z" fill="#6E83B7"/>
<path d="M30.625 31.375H22.5C22.0858 31.375 21.75 31.0392 21.75 30.625V13.375C21.75 12.9608 22.0858 12.625 22.5 12.625H30.625C31.0392 12.625 31.375 12.9608 31.375 13.375V30.625C31.375 31.0392 31.0392 31.375 30.625 31.375Z" fill="#6E83B7"/>
<path d="M30.625 14.5V29.5H22.5V14.5H30.625Z" fill="#80D6FB"/>
<path d="M29.3125 27.7656H23.8125L24.2292 21.3906H28.8958L29.3125 27.7656Z" fill="#FFE352"/>
<path d="M25.5 22.5469C25.6898 22.5469 25.8438 22.393 25.8438 22.2031C25.8438 22.0133 25.6898 21.8594 25.5 21.8594C25.3102 21.8594 25.1562 22.0133 25.1562 22.2031C25.1562 22.393 25.3102 22.5469 25.5 22.5469Z" fill="#6E83B7"/>
<path d="M27.625 22.5469C27.8148 22.5469 27.9688 22.393 27.9688 22.2031C27.9688 22.0133 27.8148 21.8594 27.625 21.8594C27.4352 21.8594 27.2812 22.0133 27.2812 22.2031C27.2812 22.393 27.4352 22.5469 27.625 22.5469Z" fill="#6E83B7"/>
<path d="M27.8125 22.2031H27.4375V20.2127C27.4375 19.7594 27.045 19.3906 26.5625 19.3906C26.08 19.3906 25.6875 19.7594 25.6875 20.2127V22.2031H25.3125V20.2127C25.3125 19.5526 25.8733 19.0156 26.5625 19.0156C27.2517 19.0156 27.8125 19.5526 27.8125 20.2127V22.2031Z" fill="#6E83B7"/>
<path d="M29.5331 16.9356C28.7385 16.1408 27.6836 15.7031 26.5628 15.7031C25.4421 15.7031 24.3872 16.1408 23.5925 16.9356L23.2832 16.6262C24.1605 15.7488 25.3253 15.2656 26.5629 15.2656C27.8005 15.2656 28.9653 15.7488 29.8426 16.6262L29.5331 16.9356Z" fill="#EDEFF1"/>
<path d="M28.7519 17.7325C28.1661 17.1468 27.3887 16.8242 26.5628 16.8242C25.737 16.8242 24.9595 17.1468 24.3738 17.7325L24.0645 17.4232C24.7328 16.7548 25.6201 16.3867 26.5629 16.3867C27.5057 16.3867 28.393 16.7548 29.0613 17.4232L28.7519 17.7325Z" fill="#EDEFF1"/>
<path d="M27.9721 18.5268C27.5958 18.1505 27.0956 17.9434 26.5636 17.9434C26.0315 17.9434 25.5313 18.1505 25.155 18.5268L24.8457 18.2174C25.3046 17.7585 25.9147 17.5059 26.5636 17.5059C27.2125 17.5059 27.8226 17.7585 28.2815 18.2174L27.9721 18.5268Z" fill="#EDEFF1"/>
<path d="M26.5625 29.0156C27.2529 29.0156 27.8125 28.456 27.8125 27.7656C27.8125 27.0753 27.2529 26.5156 26.5625 26.5156C25.8721 26.5156 25.3125 27.0753 25.3125 27.7656C25.3125 28.456 25.8721 29.0156 26.5625 29.0156Z" fill="#6E83B7"/>
<path d="M27.4375 27.5H26.8281V26.8906H26.2969V27.5H25.6875V28.0312H26.2969V28.6406H26.8281V28.0312H27.4375V27.5Z" fill="#EDEFF1"/>
</g>
<defs>
<clipPath id="clip0_356_5962">
<rect width="32" height="32" fill="white"/>
</clipPath>
</defs>
</svg>
