<svg width="49" height="48" viewBox="0 0 49 48" fill="none" xmlns="http://www.w3.org/2000/svg">
<path d="M10.6547 3.33789C11.6747 3.33789 12.5009 4.16404 12.5009 5.18404C12.5009 6.20404 11.6747 7.0302 10.6547 7.0302C9.63475 7.0302 8.80859 6.20404 8.80859 5.18404C8.80859 4.16404 9.63475 3.33789 10.6547 3.33789Z" fill="#74829C"/>
<path d="M40.6541 4.26172C41.4185 4.26172 42.0388 4.88203 42.0388 5.64633C42.0388 6.41064 41.4185 7.03095 40.6541 7.03095C39.8898 7.03095 39.2695 6.41064 39.2695 5.64633C39.2695 4.88203 39.8898 4.26172 40.6541 4.26172Z" fill="#74829C"/>
<path d="M42.2538 10.8145H6.74676C4.82584 10.8145 3.26953 12.3708 3.26953 14.2917V18.1991H45.7311V14.2917C45.7311 12.3708 44.1748 10.8145 42.2538 10.8145Z" fill="#57606F"/>
<path d="M3.26953 18.1074V41.1843C3.26953 43.1043 4.82584 44.6616 6.74676 44.6616H42.2538C44.1748 44.6616 45.7311 43.1043 45.7311 41.1843V18.1074H3.26953Z" fill="#ECF0F1"/>
<path d="M25.1455 24.3193C24.9314 24.3083 24.7154 24.3027 24.4994 24.3027C24.2861 24.3027 24.0728 24.3083 23.8614 24.3193C19.1122 24.5547 14.8882 27.4181 12.0488 31.813C18.5185 41.8266 30.4693 41.8359 36.9534 31.813C34.1123 27.4209 29.892 24.5584 25.1455 24.3193Z" fill="#3C3B3D"/>
<path d="M25.144 24.3193C24.9299 24.3083 24.7139 24.3027 24.4979 24.3027C24.2846 24.3027 24.0713 24.3083 23.8599 24.3193C20.0043 24.6433 16.9766 27.876 16.9766 31.8147C16.9766 35.7535 20.0043 38.9861 23.8599 39.3101C24.284 39.3324 24.7193 39.3321 25.144 39.3101C28.9969 38.9833 32.0228 35.7526 32.0228 31.8147C32.0228 27.8769 28.997 24.6461 25.144 24.3193Z" fill="#D7DEED"/>
<path d="M41.7691 13.8544C41.9361 14.0215 42.0395 14.2523 42.0395 14.5071C42.0395 14.7618 41.9361 14.9926 41.7691 15.1597C41.6019 15.3268 41.3711 15.4301 41.1164 15.4301C40.6069 15.4301 40.1934 15.0166 40.1934 14.5071C40.1934 14.2523 40.2967 14.0215 40.4638 13.8544C40.631 13.6874 40.8618 13.584 41.1164 13.584C41.3711 13.584 41.602 13.6874 41.7691 13.8544Z" fill="#D8F2F1"/>
<path d="M37.1538 23.9169C37.3209 24.0841 37.4243 24.3149 37.4243 24.5696C37.4243 24.8242 37.3209 25.0551 37.1538 25.2222C36.9866 25.3893 36.7559 25.4926 36.5012 25.4926C35.9917 25.4926 35.5781 25.0791 35.5781 24.5696C35.5781 24.3148 35.6815 24.084 35.8486 23.9169C36.0158 23.7499 36.2465 23.6465 36.5012 23.6465C36.7559 23.6465 36.9867 23.7499 37.1538 23.9169Z" fill="#65B2FE"/>
<path d="M37.1538 37.7626C37.3209 37.9298 37.4243 38.1606 37.4243 38.4153C37.4243 38.6699 37.3209 38.9008 37.1538 39.0679C36.9866 39.235 36.7559 39.3383 36.5012 39.3383C35.9917 39.3383 35.5781 38.9248 35.5781 38.4153C35.5781 38.1605 35.6815 37.9297 35.8486 37.7626C36.0158 37.5956 36.2465 37.4922 36.5012 37.4922C36.7559 37.4922 36.9867 37.5956 37.1538 37.7626Z" fill="#65B2FE"/>
<path d="M34.3843 5.45406C34.5514 5.62113 34.6547 5.8519 34.6547 6.10667C34.6547 6.36144 34.5514 6.59221 34.3843 6.75929C34.2171 6.92636 33.9863 7.02975 33.7317 7.02975C33.2221 7.02975 32.8086 6.61621 32.8086 6.10667C32.8086 5.8519 32.912 5.62113 33.0791 5.45406C33.2462 5.28698 33.477 5.18359 33.7317 5.18359C33.9863 5.18359 34.2172 5.28698 34.3843 5.45406Z" fill="#74829C"/>
<path d="M26.0757 3.60835C26.2428 3.77543 26.3462 4.0062 26.3462 4.26097C26.3462 4.51574 26.2428 4.74651 26.0757 4.91358C25.9085 5.08066 25.6778 5.18404 25.4231 5.18404C24.9135 5.18404 24.5 4.77051 24.5 4.26097C24.5 4.0062 24.6034 3.77543 24.7705 3.60835C24.9376 3.44128 25.1684 3.33789 25.4231 3.33789C25.6778 3.33789 25.9086 3.44128 26.0757 3.60835Z" fill="#74829C"/>
<path d="M29.4454 31.7522C30.0047 31.6498 30.2536 30.9931 30.0177 30.5438C29.6017 29.758 28.0508 29.9066 27.5947 30.4995L28.1153 31.0977C28.1947 30.974 28.2916 30.878 28.407 30.8114C28.6514 30.6676 28.9583 30.69 29.1048 30.7985C29.1842 30.8567 29.2239 30.9425 29.2239 31.0561C29.2239 31.1871 29.1694 31.2914 29.0614 31.3708C28.8478 31.526 28.5411 31.4811 28.4403 31.489V32.0816H28.5944C28.9712 32.0816 29.3117 32.1714 29.3117 32.5514C29.3117 32.8367 29.1169 32.9788 28.7292 32.9788C28.4381 32.9788 28.1948 32.9015 27.9871 32.6853L27.543 33.2723C27.8384 33.5787 28.2473 33.731 28.7697 33.731C29.4978 33.731 30.1674 33.4058 30.1674 32.6797C30.1673 32.4567 29.8796 31.8351 29.4454 31.7522Z" fill="#EA7E23"/>
<path d="M26.528 31.7517C26.8798 31.5457 27.1418 31.294 27.1418 30.8757C27.1418 30.3822 26.8058 29.9785 25.9926 29.9785C25.6949 29.9785 25.3999 30.0389 25.1729 30.1307C24.9893 30.2029 24.7666 30.3212 24.6366 30.4686L25.1617 31.076C25.2614 30.9633 25.3648 30.871 25.4719 30.801C25.5779 30.7298 25.7036 30.6948 25.8475 30.6948C26.1235 30.6948 26.2445 30.8404 26.2445 31.0142C26.2445 31.2134 25.991 31.3131 25.4044 31.6382C24.8084 31.9765 24.6309 32.3165 24.6309 32.973H27.198V32.2308H25.7959C25.939 32.0755 26.359 31.8562 26.528 31.7517Z" fill="#EA7E23"/>
<path d="M23.651 30.0312H22.811C22.7477 30.1612 22.2025 30.5206 21.9766 30.5206V31.284C22.2571 31.284 22.6972 31.0729 22.811 30.9175V32.2319H22.079V32.974H24.3064V32.2319H23.651V30.0312Z" fill="#EA7E23"/>
<path d="M20.7119 30.015C20.3883 29.8579 19.9729 29.8561 19.6421 30.015C18.7062 30.4648 18.601 31.8777 19.2147 32.5848C19.4555 32.8647 19.7933 33.0252 20.1784 33.0252C21.0028 33.0252 21.5233 32.2967 21.5233 31.4634C21.5233 31.2372 21.4892 31.0277 21.4209 30.8375C21.2894 30.4747 21.0543 30.1814 20.7119 30.015ZM20.5495 32.0457C20.4535 32.1935 20.3298 32.2673 20.1784 32.2673C20.0196 32.2673 19.8941 32.1934 19.799 32.0457C19.7049 31.8981 19.6578 31.7042 19.6578 31.4633C19.6578 31.2232 19.7049 31.0276 19.799 30.8781C19.8941 30.7294 20.0196 30.6547 20.1784 30.6547C20.3298 30.6547 20.4535 30.7294 20.5495 30.8781C20.6455 31.0276 20.6935 31.2232 20.6935 31.4633C20.6935 31.7042 20.6455 31.8981 20.5495 32.0457Z" fill="#EA7E23"/>
<path d="M18.6909 6.37788C18.858 6.54496 18.9614 6.77573 18.9614 7.0305C18.9614 7.28527 18.858 7.51604 18.6909 7.68311C18.5239 7.85019 18.2931 7.95358 18.0383 7.95358C17.5288 7.95358 17.1152 7.54004 17.1152 7.0305C17.1152 6.77573 17.2186 6.54496 17.3857 6.37788C17.5528 6.21081 17.7835 6.10742 18.0383 6.10742C18.2931 6.10742 18.5239 6.21081 18.6909 6.37788Z" fill="#74829C"/>
<path d="M12.5 13.584H14.3462V15.4301H12.5V13.584Z" fill="#E3835A"/>
<path d="M13.1538 23.9169C13.3209 24.0841 13.4243 24.3149 13.4243 24.5696C13.4243 25.0792 13.0107 25.4926 12.5012 25.4926C11.9917 25.4926 11.5781 25.0791 11.5781 24.5696C11.5781 24.3148 11.6815 24.084 11.8486 23.9169C12.0157 23.7499 12.2464 23.6465 12.5012 23.6465C12.756 23.6465 12.9867 23.7499 13.1538 23.9169Z" fill="#65B2FE"/>
<path d="M9.73047 13.584H11.5766V15.4301H9.73047V13.584Z" fill="#80AF52"/>
<path d="M6.96094 13.584H8.80709V15.4301H6.96094V13.584Z" fill="#FFD24D"/>
<path d="M42.0391 22.7227H43.8852V40.2611H42.0391V22.7227Z" fill="#BEC3C7"/>
<path d="M42.0391 19.9531H43.8852V21.7993H42.0391V19.9531Z" fill="#BEC3C7"/>
<path d="M7.88477 19.9531H41.1155V21.7993H7.88477V19.9531Z" fill="#BEC3C7"/>
<path d="M5.11523 22.7227H6.96139V40.2611H5.11523V22.7227Z" fill="#BEC3C7"/>
<path d="M5.11523 19.9531H6.96139V21.7993H5.11523V19.9531Z" fill="#BEC3C7"/>
<path d="M38.3456 15.4301H19.884C19.3742 15.4301 18.9609 15.0169 18.9609 14.5071C18.9609 13.9972 19.3742 13.584 19.884 13.584H38.3456C38.8553 13.584 39.2686 13.9972 39.2686 14.5071C39.2686 15.0169 38.8553 15.4301 38.3456 15.4301Z" fill="#D8F2F1"/>
</svg>
