<svg width="49" height="48" viewBox="0 0 49 48" fill="none" xmlns="http://www.w3.org/2000/svg">
<path d="M46.8927 38.2213L43.3483 32.0862C43.325 32.0458 43.2981 32.009 43.2689 31.9748L43.2693 31.9745L43.2597 31.9632C43.2597 31.9632 43.2595 31.9631 43.2594 31.9629L41.7192 30.1581C43.54 28.3688 44.6711 25.8809 44.6711 23.1338C44.6711 20.3708 43.5268 17.8702 41.6877 16.0786C42.1483 15.1006 42.3888 14.0318 42.3888 12.9278C42.3888 8.83419 39.0558 5.50391 34.959 5.50391C30.8622 5.50391 27.5292 8.83428 27.5292 12.9278C27.5292 13.9535 27.7382 14.9497 28.1389 15.8717C26.1715 17.6749 24.936 20.2629 24.936 23.1338C24.936 25.8009 26.0024 28.2235 27.7312 29.9998V40.9965H26.1597V29.4149C26.1597 29.0007 25.8238 28.6649 25.4097 28.6649H20.9511C20.5369 28.6649 20.2011 29.0007 20.2011 29.4149V40.9965H18.6296V23.1683C18.6296 22.7541 18.2938 22.4183 17.8796 22.4183H13.421C13.0068 22.4183 12.671 22.7541 12.671 23.1683V40.9965H11.0995V32.5092C11.0995 32.095 10.7637 31.7592 10.3495 31.7592H5.891C5.47681 31.7592 5.141 32.095 5.141 32.5092V40.9965H2.46875C2.05456 40.9965 1.71875 41.3323 1.71875 41.7465C1.71875 42.1607 2.05456 42.4965 2.46875 42.4965H36.3617C36.7759 42.4965 37.1117 42.1607 37.1117 41.7465C37.1117 41.3323 36.7759 40.9965 36.3617 40.9965H33.6895V32.9278C34.0557 32.9692 34.4277 32.9911 34.8047 32.9911C35.7597 32.9911 36.6832 32.8543 37.5571 32.6003L38.3469 34.8149L38.3473 34.8147C38.3625 34.8573 38.3811 34.8987 38.404 34.9384L41.9505 41.0728C42.4771 41.9865 43.4383 42.498 44.4259 42.498C44.8937 42.498 45.3677 42.3832 45.804 42.142C45.8064 42.1408 45.8087 42.1397 45.811 42.1385C46.4644 41.8114 46.9433 41.2332 47.1597 40.5103C47.3889 39.7448 47.2914 38.9103 46.8925 38.2213H46.8927Z" fill="#678D98"/>
<path d="M34.9591 5.50391C30.8623 5.50391 27.5293 8.83428 27.5293 12.9278C27.5293 14.4945 28.0139 15.9935 28.9303 17.262C29.2525 17.7088 29.5759 18.0702 29.8885 18.4198C30.4632 19.0621 30.9084 19.5597 31.1439 20.34C30.7223 20.6224 30.4441 21.1031 30.4441 21.6478V22.2252C30.1257 22.3119 29.8913 22.6022 29.8913 22.9481C29.8913 23.2939 30.1257 23.5842 30.4441 23.671V24.2484C30.4441 25.1141 31.1489 25.8184 32.0151 25.8184H32.0436V25.8512C32.0436 26.9364 32.9272 27.8193 34.0132 27.8193H35.9051C36.9911 27.8193 37.8747 26.9365 37.8747 25.8512V25.8184H37.9032C38.771 25.8184 39.4769 25.1141 39.4769 24.2484V23.671C39.7952 23.5842 40.0295 23.2939 40.0295 22.9481C40.0295 22.6022 39.7952 22.312 39.4769 22.2252V21.6478C39.4769 21.1025 39.1975 20.6216 38.7746 20.3393C39.0105 19.5587 39.4564 19.0608 40.0321 18.4183C40.3445 18.0693 40.6677 17.7086 40.9901 17.2626C41.9053 15.9959 42.389 14.497 42.389 12.9278C42.389 8.83419 39.056 5.50391 34.9593 5.50391H34.9591Z" fill="#F9D641"/>
<path d="M38.7745 20.3376C39.1974 20.6198 39.4768 21.1008 39.4768 21.646V22.2234C39.7951 22.3102 40.0294 22.6005 40.0294 22.9463C40.0294 23.2922 39.7951 23.5824 39.4768 23.6693V24.2467C39.4768 25.1123 38.7708 25.8167 37.9031 25.8167H37.8746V25.8495C37.8746 26.9347 36.991 27.8176 35.905 27.8176H34.0131C32.9271 27.8176 32.0435 26.9347 32.0435 25.8495V25.8167H32.015C31.1488 25.8167 30.444 25.1123 30.444 24.2467V23.6693C30.1256 23.5825 29.8912 23.2922 29.8912 22.9463C29.8912 22.6005 30.1256 22.3102 30.444 22.2234V21.646C30.444 21.1013 30.7223 20.6207 31.1438 20.3383C30.9083 19.558 30.4631 19.0604 29.8884 18.418C29.8582 18.3844 29.8279 18.3503 29.7976 18.3164C28.5917 19.5664 27.8477 21.2637 27.8477 23.1323C27.8477 26.9614 30.9687 30.0767 34.8049 30.0767C38.6412 30.0767 41.7593 26.9614 41.7593 23.1323C41.7593 21.3472 41.0814 19.7175 39.9699 18.4857C39.4244 19.0954 39.0017 19.5854 38.7743 20.3377L38.7745 20.3376Z" fill="#C8EFFE"/>
<path d="M32.043 25.8164V25.8492C32.043 26.9344 32.9266 27.8173 34.0126 27.8173H35.9044C36.9904 27.8173 37.874 26.9345 37.874 25.8492V25.8164H32.0431H32.043Z" fill="#537983"/>
<path d="M39.2788 23.6972H30.6407C30.5724 23.6972 30.5064 23.6872 30.4435 23.6701V24.2475C30.4435 25.1132 31.1483 25.8175 32.0145 25.8175H37.9025C38.7703 25.8175 39.4762 25.1132 39.4762 24.2475V23.6701C39.4132 23.6872 39.3473 23.6972 39.2789 23.6972H39.2788Z" fill="#A8D3D8"/>
<path d="M30.6407 22.1972H39.2787C39.3472 22.1972 39.4132 22.2071 39.4761 22.2243V21.6469C39.4761 20.7797 38.7701 20.0742 37.9024 20.0742H32.0144C31.1482 20.0742 30.4434 20.7797 30.4434 21.6469V22.2243C30.5064 22.2071 30.5723 22.1972 30.6406 22.1972H30.6407Z" fill="#A8D3D8"/>
<path d="M38.347 34.8129C38.362 34.8552 38.3805 34.8963 38.4032 34.9357L43.348 32.0849L43.3477 32.0843C43.3244 32.044 43.2975 32.0072 43.2684 31.9729L43.2687 31.9727L43.2591 31.9614C43.2591 31.9614 43.2589 31.9612 43.2588 31.961L41.7186 30.1562C40.5692 31.2858 39.1451 32.1366 37.5566 32.5984L38.3464 34.8131L38.3469 34.8129H38.347Z" fill="#A8D3D8"/>
<path d="M16.8123 13.5547H16.1055C15.6913 13.5547 15.3555 13.2189 15.3555 12.8047C15.3555 12.3906 15.6913 12.0547 16.1055 12.0547H16.8123C17.2264 12.0547 17.5623 12.3906 17.5623 12.8047C17.5623 13.2189 17.2264 13.5547 16.8123 13.5547Z" fill="#678D98"/>
<path d="M23.9401 13.5547H19.3674C18.9532 13.5547 18.6174 13.2189 18.6174 12.8047C18.6174 12.3906 18.9532 12.0547 19.3674 12.0547H23.9401C24.3543 12.0547 24.6901 12.3906 24.6901 12.8047C24.6901 13.2189 24.3543 13.5547 23.9401 13.5547Z" fill="#678D98"/>
<path d="M23.94 16.213H16.0859C15.6717 16.213 15.3359 15.8771 15.3359 15.463C15.3359 15.0488 15.6717 14.713 16.0859 14.713H23.94C24.3542 14.713 24.69 15.0488 24.69 15.463C24.69 15.8771 24.3542 16.213 23.94 16.213Z" fill="#678D98"/>
<path d="M7.66587 9.24805C4.38659 9.24805 1.71875 11.9118 1.71875 15.1859C1.71875 18.46 4.38669 21.1265 7.66587 21.1265C10.9451 21.1265 13.6131 18.4615 13.6131 15.1859C13.6131 11.9103 10.9452 9.24805 7.66587 9.24805Z" fill="#01D0FB"/>
<path d="M7.66602 9.24805V15.1859H13.6132C13.6132 11.9118 10.9454 9.24805 7.66602 9.24805Z" fill="#F46240"/>
<path d="M3.66016 19.572C4.71794 20.5367 6.12437 21.1261 7.66619 21.1261C10.9455 21.1261 13.6134 18.4612 13.6134 15.1855H7.66619L3.66016 19.572Z" fill="#F9D641"/>
<path d="M23.94 18.875H16.0859C15.6717 18.875 15.3359 18.5392 15.3359 18.125C15.3359 17.7108 15.6717 17.375 16.0859 17.375H23.94C24.3542 17.375 24.69 17.7108 24.69 18.125C24.69 18.5392 24.3542 18.875 23.94 18.875Z" fill="#678D98"/>
<path d="M26.1597 29.4141C26.1597 28.9999 25.8239 28.6641 25.4097 28.6641H20.9512C20.537 28.6641 20.2012 28.9999 20.2012 29.4141V40.9957H26.1597V29.4141Z" fill="#F9D641"/>
<path d="M18.6285 23.168C18.6285 22.7538 18.2927 22.418 17.8785 22.418H13.4199C13.0057 22.418 12.6699 22.7538 12.6699 23.168V40.9962H18.6285V23.168Z" fill="#01D0FB"/>
<path d="M11.0991 32.5078C11.0991 32.0936 10.7633 31.7578 10.3491 31.7578H5.89062C5.47644 31.7578 5.14062 32.0936 5.14062 32.5078V40.9952H11.0991V32.5078Z" fill="#F46240"/>
<path d="M10.3496 31.7578H8.94336C9.35755 31.7578 9.69336 32.0936 9.69336 32.5078V40.9952H11.0996V32.5078C11.0996 32.0936 10.7638 31.7578 10.3496 31.7578Z" fill="#EA5334"/>
<path d="M25.4102 28.6641H24.0039C24.4181 28.6641 24.7539 28.9999 24.7539 29.4141V40.9957H26.1602V29.4141C26.1602 28.9999 25.8243 28.6641 25.4102 28.6641Z" fill="#E5C335"/>
<path d="M17.8789 22.418H16.4727C16.8868 22.418 17.2227 22.7538 17.2227 23.168V40.9962H18.6289V23.168C18.6289 22.7538 18.2931 22.418 17.8789 22.418Z" fill="#01C0FA"/>
<path d="M27.7305 29.998V40.9947H33.6889V32.926C31.3636 32.6636 29.2807 31.591 27.7305 29.9981V29.998Z" fill="#30E5A3"/>
<path d="M32.2832 32.6641V40.9961H33.6895V32.9274C33.2095 32.8732 32.74 32.7847 32.2832 32.6641Z" fill="#24D18F"/>
<path d="M43.3472 32.0843C43.3239 32.044 43.297 32.0072 43.2679 31.9729L43.2683 31.9727L43.2586 31.9614C43.2586 31.9614 43.2584 31.9612 43.2583 31.961L41.7181 30.1562C41.3511 30.5169 40.9558 30.8488 40.5364 31.1491L41.898 32.7447C41.898 32.7447 41.8982 32.7449 41.8983 32.7451L41.9079 32.7563L41.9076 32.7566C41.9367 32.7908 41.9635 32.8277 41.9869 32.868L41.9873 32.8685L38.4023 34.9353L38.4026 34.9358L43.3475 32.085L43.3471 32.0844L43.3472 32.0843Z" fill="#9DCCCE"/>
<path d="M46.8925 38.2205L43.3483 32.0858L41.9884 32.8699L45.5322 39.004C45.9312 39.6929 46.0287 40.5275 45.7995 41.293C45.6717 41.7202 45.4514 42.0963 45.1584 42.4004C45.379 42.3416 45.5959 42.2561 45.8041 42.141C45.8065 42.1399 45.8088 42.1388 45.8111 42.1375C46.4645 41.8104 46.9434 41.2322 47.1598 40.5094C47.389 39.7438 47.2915 38.9093 46.8926 38.2204L46.8925 38.2205Z" fill="#608189"/>
<path d="M34.9582 5.50391C34.7731 5.50391 34.5901 5.513 34.4082 5.52641C38.2489 5.80887 41.288 9.01934 41.288 12.9278C41.288 14.497 40.8042 15.9959 39.889 17.2626C39.5667 17.7086 39.2435 18.0693 38.931 18.4183C38.4232 18.9851 38.0173 19.4402 37.7665 20.0751H37.9021C38.2242 20.0751 38.5238 20.1727 38.7735 20.3393C39.0094 19.5587 39.4552 19.0608 40.031 18.4183C40.3434 18.0693 40.6666 17.7086 40.989 17.2626C41.9042 15.9959 42.3879 14.497 42.3879 12.9278C42.3879 8.83419 39.0549 5.50391 34.9581 5.50391H34.9582Z" fill="#E5C335"/>
<path d="M33.0621 15.5442H33.2687V20.0734H34.7687V15.5442H35.1525V20.0734H36.6525V15.5442H37.0583C38.7689 15.5442 39.3025 14.543 39.4525 14.1125C39.7125 13.3663 39.5198 12.4953 39.0037 12.0859C38.4338 11.6348 37.5532 11.5724 36.8126 11.9306C36.4159 12.1225 35.6014 12.6731 35.2836 14.0442H34.6374C34.3196 12.6731 33.5052 12.1225 33.1084 11.9306C32.3678 11.5724 31.4872 11.6348 30.9183 12.0851C30.4281 12.4719 30.2644 13.2564 30.5201 13.9933C30.857 14.9645 31.8073 15.5442 33.062 15.5442H33.0621ZM37.4659 13.2809C37.7216 13.1572 37.9417 13.1944 38.0381 13.241C38.0708 13.3254 38.0965 13.5248 38.0018 13.6956C37.8335 13.9989 37.3384 14.0442 37.0583 14.0442H36.8448C36.9835 13.6758 37.1944 13.4124 37.4659 13.2809ZM31.9068 13.2308C32.013 13.1896 32.2191 13.1666 32.4554 13.2809C32.7269 13.4123 32.9377 13.6757 33.0765 14.0442H33.0622C32.6992 14.0442 32.2211 13.9742 32.0052 13.6404C31.9017 13.4804 31.8944 13.3158 31.9069 13.2308H31.9068Z" fill="#E8B800"/>
<path d="M39.2787 23.6973H30.6406C30.2264 23.6973 29.8906 23.3615 29.8906 22.9473C29.8906 22.5331 30.2264 22.1973 30.6406 22.1973H39.2787C39.6928 22.1973 40.0287 22.5331 40.0287 22.9473C40.0287 23.3615 39.6928 23.6973 39.2787 23.6973Z" fill="#8EBAC5"/>
<path d="M38.3764 21.6468V22.1971H39.279C39.3475 22.1971 39.4135 22.207 39.4764 22.2242V21.6468C39.4764 20.7796 38.7705 20.0741 37.9027 20.0741H36.8027C37.6705 20.0741 38.3764 20.7796 38.3764 21.6468Z" fill="#9BCCCE"/>
<path d="M39.279 23.6971H38.3764V24.2474C38.3764 25.1131 37.6705 25.8174 36.8027 25.8174H37.9027C38.7705 25.8174 39.4764 25.1131 39.4764 24.2474V23.67C39.4134 23.6872 39.3475 23.6971 39.279 23.6971Z" fill="#9BCCCE"/>
<path d="M36.7743 25.8164V25.8492C36.7743 26.9344 35.8907 27.8173 34.8047 27.8173H35.9047C36.9907 27.8173 37.8743 26.9345 37.8743 25.8492V25.8164H36.7743Z" fill="#426972"/>
<path d="M12.9381 15.1317C12.9381 15.1494 12.9369 15.1668 12.9368 15.1846H13.6131C13.6131 11.9549 11.0168 9.32116 7.79883 9.25C10.6971 9.64497 12.9381 12.1312 12.9381 15.1316V15.1317Z" fill="#EA5334"/>
<path d="M12.9361 15.1855C12.9075 18.4368 10.2519 21.0732 6.99033 21.0732C6.94308 21.0732 6.89648 21.0708 6.84961 21.0697C7.11642 21.1064 7.38858 21.1261 7.66533 21.1261C10.9446 21.1261 13.6125 18.4612 13.6125 15.1855H12.9362H12.9361Z" fill="#E5C335"/>
</svg>

