<svg width="49" height="48" viewBox="0 0 49 48" fill="none" xmlns="http://www.w3.org/2000/svg">
<g clip-path="url(#clip0_356_6136)">
<path d="M39.4338 38.4708V21.2266L22.2324 27.6944L24.4998 47.093L39.4338 38.4708Z" fill="#FD5426"/>
<path d="M9.56641 38.4708L24.5004 47.0929V26.6039L9.56641 21.2266V38.4708Z" fill="#FE7D43"/>
<path d="M39.1652 42.6283L30.0996 37.3942L30.0998 33.084L42.2958 38.6878L39.1652 42.6283Z" fill="#01998D"/>
<path d="M39.166 45.0934L39.1668 40.782L44.8935 39.6426L48.5 41.8589L48.5003 46.1708L39.166 45.0934Z" fill="#0AB69F"/>
<path d="M33.5651 31.082L44.7656 37.5486L46.6322 36.4709L48.4992 41.8597L39.1653 40.7819L41.3001 39.5493L30.0996 33.0828L33.5651 31.082Z" fill="#5DE1C4"/>
<path d="M9.83372 42.6283L18.8993 37.3942L18.8992 33.084L6.70312 38.6878L9.83372 42.6283Z" fill="#FFC344"/>
<path d="M9.83431 45.0934L9.83356 40.782L4.10684 39.6426L0.500281 41.8589L0.5 46.1708L9.83431 45.0934Z" fill="#FFD15B"/>
<path d="M15.4343 31.0822L4.23384 37.5488L2.36718 36.4711L0.500244 41.8599L9.83409 40.7821L7.69931 39.5495L18.8998 33.0829L15.4343 31.0822Z" fill="#FFF0AD"/>
<path d="M24.5004 12.6055L9.56641 21.2276L24.5004 29.8498L39.4344 21.2276L24.5004 12.6055Z" fill="#FEAD8A"/>
<path d="M28.2337 10.7604V21.2285L24.5008 23.3835L23.2559 10.0195L28.2337 10.7604Z" fill="#0593FC"/>
<path d="M30.3693 9.52677L26.6353 11.6818L22.7852 7.29214L22.9012 3.06055L26.6353 0.904297L30.3693 9.52677Z" fill="#B3DAFE"/>
<path d="M21.0347 21.3828V8.44958L19.168 7.37183L22.9015 3.06055L26.635 11.6828L24.5002 10.4503V23.3835L21.0347 21.3828Z" fill="#60B7FF"/>
</g>
<defs>
<clipPath id="clip0_356_6136">
<rect width="48" height="48" fill="white" transform="translate(0.5)"/>
</clipPath>
</defs>
</svg>
