<svg width="49" height="48" viewBox="0 0 49 48" fill="none" xmlns="http://www.w3.org/2000/svg">
<g clip-path="url(#clip0_356_6031)">
<path d="M7.1206 24.0011C6.66357 24.0011 6.29297 23.6305 6.29297 23.1734V20.6909C6.29297 20.2335 6.66357 19.8633 7.1206 19.8633C7.57763 19.8633 7.94823 20.2335 7.94823 20.6909V23.1734C7.94823 23.6305 7.57763 24.0011 7.1206 24.0011Z" fill="#FF5364"/>
<path d="M7.1206 18.2066C6.66357 18.2066 6.29297 17.836 6.29297 17.379V15.7238C6.29297 15.2667 6.66357 14.8965 7.1206 14.8965C7.57763 14.8965 7.94823 15.2667 7.94823 15.7238V17.379C7.94823 17.836 7.57763 18.2066 7.1206 18.2066Z" fill="#FF5364"/>
<path d="M7.1206 13.2417C6.66357 13.2417 6.29297 12.8711 6.29297 12.414V11.5864C6.29297 10.2153 7.40478 9.10352 8.77587 9.10352H9.6035C10.0605 9.10352 10.4311 9.47412 10.4311 9.93115C10.4311 10.3882 10.0605 10.7588 9.6035 10.7588H8.77587C8.31884 10.7588 7.94823 11.1294 7.94823 11.5864V12.414C7.94823 12.8711 7.57763 13.2417 7.1206 13.2417Z" fill="#FF5364"/>
<path d="M15.3966 10.7588H12.9137C12.4567 10.7588 12.0861 10.3882 12.0861 9.93115C12.0861 9.47412 12.4567 9.10352 12.9137 9.10352H15.3966C15.8536 9.10352 16.2242 9.47412 16.2242 9.93115C16.2242 10.3882 15.8536 10.7588 15.3966 10.7588Z" fill="#FF5364"/>
<path d="M40.2241 39.7237C39.7671 39.7237 39.3965 39.3535 39.3965 38.8965V36.4136C39.3965 35.9565 39.7671 35.5859 40.2241 35.5859C40.6811 35.5859 41.0517 35.9565 41.0517 36.4136V38.8965C41.0517 39.3535 40.6811 39.7237 40.2241 39.7237Z" fill="#FF5364"/>
<path d="M38.5693 45.5167H37.7417C37.2847 45.5167 36.9141 45.1465 36.9141 44.6894C36.9141 44.232 37.2847 43.8618 37.7417 43.8618H38.5693C39.0264 43.8618 39.397 43.4912 39.397 43.0342V42.2065C39.397 41.7495 39.7676 41.3789 40.2246 41.3789C40.6816 41.3789 41.0522 41.7495 41.0522 42.2065V43.0342C41.0522 44.4053 39.9404 45.5167 38.5693 45.5167Z" fill="#FF5364"/>
<path d="M34.4302 45.5162H32.7749C32.3179 45.5162 31.9473 45.146 31.9473 44.689C31.9473 44.2316 32.3179 43.8613 32.7749 43.8613H34.4302C34.8872 43.8613 35.2578 44.2316 35.2578 44.689C35.2578 45.146 34.8872 45.5162 34.4302 45.5162Z" fill="#FF5364"/>
<path d="M29.4645 45.5162H26.9819C26.5249 45.5162 26.1543 45.146 26.1543 44.689C26.1543 44.2316 26.5249 43.8613 26.9819 43.8613H29.4645C29.9219 43.8613 30.2921 44.2316 30.2921 44.689C30.2921 45.146 29.9219 45.5162 29.4645 45.5162Z" fill="#FF5364"/>
<path d="M26.9826 36.4136L15.3965 23.1722V1.65527C15.3965 0.741207 16.1373 0 17.0517 0H46.8447C47.7588 0 48.4996 0.741207 48.4996 1.65527V34.7584C48.4996 35.6724 47.7588 36.4136 46.8447 36.4136H26.9826Z" fill="#90BAE1"/>
<path d="M26.9824 31.4473H48.4994V34.7574C48.4994 35.6715 47.7586 36.4127 46.8445 36.4127H26.9824V31.4473Z" fill="#35495E"/>
<path d="M22.8457 32.2749H20.3628C19.9058 32.2749 19.5352 31.9043 19.5352 31.4472V28.9644C19.5352 28.5073 19.9058 28.1367 20.3628 28.1367C20.8198 28.1367 21.1904 28.5073 21.1904 28.9644V30.6196H22.8457C23.3027 30.6196 23.673 30.9902 23.673 31.4472C23.673 31.9043 23.3027 32.2749 22.8457 32.2749Z" fill="black"/>
<path d="M26.9828 24V46.4006C26.9674 47.2993 26.2262 48.0156 25.3275 48.0002H2.15527C1.25659 48.0156 0.515381 47.2993 0.5 46.4006V25.6C0.515381 24.7013 1.25659 23.985 2.15527 24.0004H22.0173" fill="#35495E"/>
<path d="M26.9828 24.8271V44.6892H0.5V24.8271C0.5 23.9131 1.24121 23.1719 2.15527 23.1719H25.3275C26.2416 23.1719 26.9828 23.9131 26.9828 24.8271Z" fill="#B0D3F0"/>
<path d="M20.3623 32.2763C20.0441 32.2759 19.7544 32.0936 19.6167 31.8068C19.479 31.5201 19.5178 31.1795 19.7167 30.9312L27.165 21.6211C27.35 21.39 27.6437 21.2754 27.9363 21.3201C28.2285 21.3644 28.475 21.5618 28.5826 21.8372C28.6899 22.1125 28.6427 22.4246 28.4577 22.6556L21.0094 31.9658C20.8523 32.1624 20.6139 32.2767 20.3623 32.2763Z" fill="#FF5364"/>
<path d="M31.9492 31.4476L38.7603 18.2783C39.0401 17.7264 39.6063 17.3789 40.2252 17.3789C40.8437 17.3789 41.4099 17.7264 41.69 18.2783L48.5008 31.4476H31.9492Z" fill="#4FBA6F"/>
<path d="M33.7359 23.701C33.5715 23.3766 33.2383 23.1719 32.8746 23.1719C32.5106 23.1719 32.1773 23.3766 32.0129 23.701L28.0059 31.4475H31.9492L34.8459 25.847L33.7359 23.701Z" fill="#24AE5F"/>
<path d="M16.2734 44.6889L20.6804 36.1647C20.8613 35.8072 21.2279 35.582 21.6281 35.582C22.0288 35.582 22.3954 35.8072 22.5763 36.1647L26.9832 44.6889H16.2734Z" fill="#4FBA6F"/>
<path d="M26.1554 7.03489C26.1554 9.09152 24.488 10.7589 22.4314 10.7589C20.3744 10.7589 18.707 9.09152 18.707 7.03489C18.707 4.9779 20.3744 3.31055 22.4314 3.31055C24.488 3.31055 26.1554 4.9779 26.1554 7.03489Z" fill="#F0C419"/>
<path d="M8.77598 28.965C8.77598 30.336 7.66453 31.4479 6.29308 31.4479C4.92199 31.4479 3.81055 30.336 3.81055 28.965C3.81055 27.5939 4.92199 26.4824 6.29308 26.4824C7.66453 26.4824 8.77598 27.5939 8.77598 28.965Z" fill="#F0C419"/>
<path d="M40.6378 8.27527C39.8797 8.2738 39.1513 8.57117 38.6108 9.10254L38.528 9.11499C38.7196 7.88526 38.1029 6.67054 36.9969 6.09962C35.891 5.5287 34.5437 5.72938 33.652 6.59803C32.7602 7.46631 32.5244 8.8081 33.066 9.9287L32.7756 9.97155C32.0029 9.81481 31.2083 10.1107 30.7263 10.7347C30.2444 11.3591 30.1591 12.2029 30.5066 12.9107C30.8538 13.6186 31.5734 14.0672 32.3618 14.0683H40.6378C42.2374 14.0683 43.5341 12.7712 43.5341 11.1716C43.5341 9.57202 42.2374 8.27527 40.6378 8.27527Z" fill="#E6E7E8"/>
<path d="M15.9055 40.0547C15.815 39.8547 15.6158 39.7266 15.3965 39.7266C15.1771 39.7266 14.9779 39.8547 14.8874 40.0547L12.0859 44.6894H16.2728L17.3949 42.5185L15.9055 40.0547Z" fill="#24AE5F"/>
</g>
<defs>
<clipPath id="clip0_356_6031">
<rect width="48" height="48" fill="white" transform="translate(0.5)"/>
</clipPath>
</defs>
</svg>

