<svg width="32" height="32" viewBox="0 0 32 32" fill="none" xmlns="http://www.w3.org/2000/svg">
<path fill-rule="evenodd" clip-rule="evenodd" d="M18.5347 28.3558L24.7182 30.0127C24.63 29.4995 24.5765 29.0552 24.5621 28.6616C24.5317 28.1923 24.5745 27.7581 24.7115 27.3468C24.8517 26.9078 25.0917 26.5287 25.4456 26.1477C25.446 26.1473 25.4464 26.1469 25.4467 26.1465L27.7959 23.6195C28.3309 23.0441 28.6319 22.3868 28.632 21.601L28.6321 11.89C28.6321 11.0235 27.9232 10.3146 27.0566 10.3145C26.1901 10.3143 25.4809 11.0235 25.481 11.89L25.4809 18.6528C25.4704 18.6416 25.4597 18.6305 25.4488 18.6196C24.7746 17.94 23.6636 17.9356 22.9839 18.6098L18.6644 22.8955C18.1854 23.5188 17.9951 24.2259 18.097 25.0053L18.5347 28.3558Z" fill="#FFD6BD"/>
<path fill-rule="evenodd" clip-rule="evenodd" d="M24.8735 20.519C25.4578 19.9388 25.5434 19.0386 25.1283 18.3652C25.2424 18.4355 25.3499 18.5202 25.4481 18.6192C26.1233 19.2997 26.1193 20.4093 25.4384 21.084C24.5968 21.9177 23.764 22.7584 22.9261 23.5963C22.7702 23.7522 22.5151 23.7522 22.3591 23.5963C22.2032 23.4404 22.2032 23.1852 22.3591 23.0292C23.1953 22.1931 24.0295 21.3572 24.8735 20.519Z" fill="#F9C6AA"/>
<path fill-rule="evenodd" clip-rule="evenodd" d="M23.7923 29.7643L24.7189 30.0126C24.6308 29.4993 24.5773 29.0551 24.5628 28.6615C24.5325 28.1921 24.5753 27.758 24.7123 27.3466C24.8525 26.9077 25.0924 26.5286 25.4464 26.1476C25.4468 26.1471 25.4471 26.1468 25.4475 26.1463L27.7967 23.6194C28.3316 23.044 28.6327 22.3868 28.6328 21.601L28.6329 11.8899C28.6329 11.0234 27.9239 10.3145 27.0573 10.3145C27.0314 10.3145 27.0056 10.3151 26.9799 10.3164C27.416 10.5974 27.7063 11.0872 27.7063 11.6416L27.7061 21.3527C27.7061 22.1385 27.405 22.7958 26.8701 23.3711L24.5209 25.8981C24.5205 25.8985 24.5201 25.8989 24.5198 25.8993C24.1658 26.2803 23.9259 26.6595 23.7856 27.0984C23.6487 27.5097 23.6059 27.9439 23.6362 28.4131C23.6506 28.8068 23.7041 29.251 23.7923 29.7643Z" fill="#F9C6AA"/>
<path fill-rule="evenodd" clip-rule="evenodd" d="M17.6119 27.3341L25.1706 29.3594C25.3551 29.4088 25.4654 29.6 25.4161 29.7844L25.0418 31.1814C24.9924 31.3658 24.8012 31.4761 24.6168 31.4267L17.058 29.4014C16.8736 29.3519 16.7632 29.1608 16.8126 28.9764L17.1869 27.5794C17.2363 27.395 17.4275 27.2846 17.6119 27.3341Z" fill="#64B5F6"/>
<path fill-rule="evenodd" clip-rule="evenodd" d="M17.6119 27.3341L17.6999 27.3576L17.3494 28.6659C17.3 28.8502 17.4103 29.0414 17.5948 29.0908L25.0654 31.0926L25.0417 31.1813C24.9923 31.3656 24.8011 31.476 24.6167 31.4266L17.058 29.4012C16.8736 29.3518 16.7632 29.1605 16.8126 28.9763L17.1869 27.5793C17.2363 27.3951 17.4275 27.2846 17.6119 27.3341Z" fill="#42A5F5"/>
<path fill-rule="evenodd" clip-rule="evenodd" d="M12.1638 28.3558L5.98034 30.0127C6.06853 29.4995 6.12203 29.0552 6.13647 28.6616C6.16678 28.1923 6.12397 27.7581 5.98703 27.3468C5.84678 26.9078 5.60684 26.5287 5.25291 26.1477C5.25253 26.1473 5.25216 26.1469 5.25178 26.1465L2.90259 23.6195C2.36766 23.0441 2.06659 22.3868 2.06653 21.601L2.06641 11.89C2.06641 11.0235 2.77534 10.3146 3.64197 10.3145C4.50847 10.3143 5.21759 11.0235 5.21753 11.89L5.21766 18.6528C5.22816 18.6416 5.23884 18.6305 5.24972 18.6196C5.92391 17.94 7.03497 17.9356 7.71459 18.6098L12.0342 22.8955C12.5132 23.5188 12.7035 24.2259 12.6016 25.0053L12.1638 28.3558Z" fill="#FFD6BD"/>
<path fill-rule="evenodd" clip-rule="evenodd" d="M5.82438 20.519C5.24007 19.9388 5.15451 19.0386 5.56963 18.3652C5.45551 18.4355 5.34801 18.5202 5.24976 18.6192C4.57463 19.2997 4.57857 20.4093 5.25951 21.084C6.10107 21.9177 6.93394 22.7584 7.77176 23.5963C7.92769 23.7522 8.18282 23.7522 8.33875 23.5963C8.49469 23.4404 8.49469 23.1852 8.33875 23.0292C7.50263 22.1931 6.66838 21.3572 5.82438 20.519Z" fill="#F9C6AA"/>
<path fill-rule="evenodd" clip-rule="evenodd" d="M6.90703 29.7644L5.98034 30.0127C6.06853 29.4994 6.12203 29.0552 6.13647 28.6616C6.16678 28.1923 6.12397 27.7581 5.98703 27.3468C5.84678 26.9078 5.60684 26.5287 5.25291 26.1477C5.25253 26.1473 5.25216 26.1469 5.25178 26.1465L2.90259 23.6195C2.36766 23.0441 2.06659 22.3869 2.06653 21.6011L2.06641 11.89C2.06641 11.0235 2.77534 10.3146 3.64197 10.3146C3.66791 10.3146 3.69372 10.3153 3.71934 10.3165C3.28328 10.5975 2.99303 11.0873 2.99303 11.6418L2.99316 21.3528C2.99316 22.1386 3.29428 22.7959 3.82922 23.3713L6.17841 25.8982C6.17878 25.8986 6.17916 25.899 6.17953 25.8994C6.53353 26.2804 6.77341 26.6596 6.91366 27.0985C7.05059 27.5098 7.09341 27.944 7.06309 28.4133C7.04866 28.8069 6.99522 29.2511 6.90703 29.7644Z" fill="#F9C6AA"/>
<path fill-rule="evenodd" clip-rule="evenodd" d="M13.0874 27.3341L5.52867 29.3594C5.34423 29.4088 5.23386 29.6 5.28329 29.7844L5.65754 31.1814C5.70698 31.3658 5.89817 31.4761 6.08254 31.4267L13.6412 29.4014C13.8257 29.3519 13.936 29.1608 13.8866 28.9764L13.5123 27.5794C13.4629 27.395 13.2717 27.2846 13.0874 27.3341Z" fill="#64B5F6"/>
<path fill-rule="evenodd" clip-rule="evenodd" d="M13.0863 27.3341L12.9983 27.3576L13.3489 28.6659C13.3982 28.8502 13.2879 29.0414 13.1034 29.0908L5.63281 31.0926L5.65656 31.1813C5.70594 31.3656 5.89719 31.4761 6.08156 31.4266L13.6402 29.4013C13.8247 29.3518 13.9351 29.1606 13.8856 28.9763L13.5113 27.5793C13.462 27.3951 13.2708 27.2846 13.0863 27.3341Z" fill="#42A5F5"/>
<path d="M15.3492 19.718C19.0521 19.718 22.0539 16.7162 22.0539 13.0133C22.0539 9.31038 19.0521 6.30859 15.3492 6.30859C11.6463 6.30859 8.64453 9.31038 8.64453 13.0133C8.64453 16.7162 11.6463 19.718 15.3492 19.718Z" fill="#FDB800"/>
<path fill-rule="evenodd" clip-rule="evenodd" d="M19.6951 7.9082C21.1383 9.13802 22.054 10.9686 22.054 13.0133C22.054 16.7162 19.0521 19.718 15.3493 19.718C13.3045 19.718 11.4739 18.8024 10.2441 17.3591C11.4145 18.3564 12.9318 18.9586 14.59 18.9586C18.2928 18.9586 21.2946 15.9568 21.2946 12.254C21.2946 10.5959 20.6923 9.07858 19.6951 7.9082Z" fill="#F4A40E"/>
<path d="M17.8196 16.9956C20.0191 15.6361 20.7 12.751 19.3405 10.5516C17.9811 8.3521 15.096 7.67116 12.8965 9.03064C10.6971 10.3901 10.0161 13.2752 11.3756 15.4747C12.7351 17.6741 15.6202 18.3551 17.8196 16.9956Z" fill="#FFDA2D"/>
<path fill-rule="evenodd" clip-rule="evenodd" d="M15.3497 8.33398C16.7029 8.33398 17.9217 8.90855 18.7761 9.8268C18 9.25492 17.041 8.91673 16.003 8.91673C13.4185 8.91673 11.3233 11.0119 11.3233 13.5965C11.3233 14.8279 11.7992 15.9479 12.5767 16.7835C11.4203 15.9314 10.6699 14.5603 10.6699 13.0138C10.6699 10.4292 12.765 8.33398 15.3497 8.33398Z" fill="#FFC700"/>
<path fill-rule="evenodd" clip-rule="evenodd" d="M15.3881 10.8711C15.3881 10.595 15.6119 10.3711 15.8881 10.3711C16.1642 10.3711 16.3881 10.595 16.3881 10.8711V11.2358C16.5164 11.2633 16.6395 11.308 16.7548 11.3672C16.9653 11.4752 17.1454 11.63 17.2802 11.8164C17.4421 12.0397 17.3922 12.3518 17.1689 12.5137C16.9457 12.6755 16.6335 12.6256 16.4717 12.4023C16.4258 12.3388 16.3674 12.2876 16.3017 12.2538C16.2392 12.2218 16.166 12.2037 16.0859 12.2037H15.7792C15.6493 12.2037 15.5307 12.2572 15.4445 12.3434C15.3583 12.4297 15.3048 12.5482 15.3048 12.6781C15.3048 12.808 15.3583 12.9266 15.4445 13.0128C15.5307 13.099 15.6493 13.1526 15.7792 13.1526H15.997C16.403 13.1526 16.7718 13.3183 17.0388 13.5853C17.3058 13.8523 17.4715 14.221 17.4715 14.627C17.4715 15.033 17.3058 15.4018 17.0388 15.6688C16.8608 15.8468 16.6375 15.9798 16.3881 16.0487V16.434C16.3881 16.7102 16.1643 16.934 15.8881 16.934C15.612 16.934 15.3881 16.7102 15.3881 16.434V16.0693C15.2598 16.0418 15.1367 15.9972 15.0214 15.938C14.8109 15.8299 14.6308 15.6752 14.4959 15.4887C14.3341 15.2654 14.384 14.9532 14.6073 14.7915C14.8306 14.6297 15.1427 14.6795 15.3045 14.9028C15.3504 14.9663 15.4088 15.0175 15.4745 15.0513C15.5369 15.0833 15.6102 15.1015 15.6903 15.1015H15.997C16.1269 15.1015 16.2455 15.0479 16.3317 14.9617C16.4179 14.8755 16.4714 14.757 16.4714 14.627C16.4714 14.4971 16.4179 14.3786 16.3317 14.2923C16.2454 14.2061 16.1269 14.1526 15.997 14.1526H15.7792C15.3732 14.1526 15.0044 13.9868 14.7374 13.7198C14.4705 13.4529 14.3047 13.0841 14.3047 12.6781C14.3047 12.2721 14.4704 11.9033 14.7374 11.6363C14.9154 11.4583 15.1388 11.3253 15.3881 11.2565V10.8711H15.3881Z" fill="#FFC700"/>
<path fill-rule="evenodd" clip-rule="evenodd" d="M14.849 10.2324C14.849 9.9563 15.0729 9.73242 15.349 9.73242C15.6251 9.73242 15.849 9.9563 15.849 10.2324V10.5971C15.9773 10.6247 16.1004 10.6693 16.2157 10.7285C16.4262 10.8365 16.6064 10.9913 16.7412 11.1777C16.903 11.401 16.8531 11.7132 16.6299 11.875C16.4066 12.0368 16.0944 11.9869 15.9326 11.7637C15.8867 11.7001 15.8283 11.6489 15.7626 11.6152C15.7002 11.5831 15.6269 11.565 15.5469 11.565H15.2401C15.1102 11.565 14.9916 11.6185 14.9054 11.7047C14.8192 11.791 14.7657 11.9095 14.7657 12.0394C14.7657 12.1694 14.8192 12.2879 14.9054 12.3741C14.9917 12.4604 15.1102 12.5139 15.2401 12.5139H15.458C15.864 12.5139 16.2328 12.6797 16.4998 12.9467C16.7668 13.2136 16.9325 13.5824 16.9325 13.9884C16.9325 14.3944 16.7668 14.7631 16.4998 15.0301C16.3218 15.2081 16.0985 15.3411 15.8491 15.41V15.7954C15.8491 16.0715 15.6252 16.2954 15.3491 16.2954C15.0729 16.2954 14.8491 16.0715 14.8491 15.7954V15.4307C14.7208 15.4031 14.5976 15.3585 14.4823 15.2993C14.2719 15.1912 14.0917 15.0365 13.9569 14.85C13.7951 14.6268 13.8449 14.3146 14.0682 14.1528C14.2914 13.991 14.6036 14.0409 14.7654 14.2641C14.8114 14.3277 14.8697 14.3789 14.9354 14.4126C14.9979 14.4447 15.0711 14.4628 15.1512 14.4628H15.458C15.5879 14.4628 15.7065 14.4092 15.7927 14.323C15.8789 14.2368 15.9324 14.1183 15.9324 13.9884C15.9324 13.8584 15.8789 13.7399 15.7927 13.6537C15.7064 13.5674 15.5879 13.5139 15.458 13.5139H15.2401C14.8341 13.5139 14.4654 13.3482 14.1984 13.0812C13.9314 12.8142 13.7656 12.4454 13.7656 12.0394C13.7656 11.6334 13.9314 11.2647 14.1984 10.9977C14.3764 10.8197 14.5997 10.6867 14.849 10.6178V10.2324Z" fill="#FDB800"/>
<path fill-rule="evenodd" clip-rule="evenodd" d="M24.482 7.01573L18.8178 12.6802C18.5425 12.9554 18.0832 12.9636 17.8164 12.6802C17.5446 12.3913 17.5259 11.9692 17.8164 11.6787L23.4805 6.01423L23.6408 4.03611C23.6455 3.97842 23.6679 3.93029 23.7088 3.88929L27.0008 0.597107C27.0722 0.525732 27.1942 0.571607 27.201 0.672232L27.3654 3.13086L29.824 3.29523C29.9247 3.30186 29.9704 3.42398 29.899 3.49529L26.607 6.78748C26.566 6.82836 26.5179 6.85054 26.4603 6.85523L24.482 7.01573Z" fill="#B4D2D7"/>
<path fill-rule="evenodd" clip-rule="evenodd" d="M24.4825 7.01573L18.8184 12.6802C18.543 12.9554 18.0838 12.9636 17.817 12.6802C17.7749 12.6354 17.7388 12.5874 17.709 12.5372C17.9401 12.5909 18.197 12.5249 18.376 12.3459L24.0402 6.68142L26.0185 6.52092C26.0761 6.51623 26.1243 6.49404 26.1652 6.45317L29.3544 3.26379L29.8245 3.29523C29.9252 3.30186 29.9709 3.42398 29.8995 3.49529L26.6075 6.78748C26.5665 6.82836 26.5184 6.85054 26.4608 6.85523L24.4825 7.01573ZM26.7907 0.807794L27.0014 0.597107C27.0727 0.525732 27.1947 0.571607 27.2015 0.672232L27.366 3.13086L26.9442 3.10267L26.7907 0.807794Z" fill="#9BB9C3"/>
</svg>

