<svg width="49" height="48" viewBox="0 0 49 48" fill="none" xmlns="http://www.w3.org/2000/svg">
<path d="M23.5207 47.9998C22.1822 47.9998 21.097 46.9147 21.097 45.5761V39.4456V32.6934H36.4842V45.368C36.4842 46.8215 35.306 47.9997 33.8526 47.9997H23.5207V47.9998Z" fill="#F9F7F8"/>
<path d="M13.664 18.7123V28.7915H8.3468V17.9495C8.3468 16.4905 8.86337 15.078 9.80477 13.9628L10.8582 12.7162C11.3004 12.1919 12.1385 12.3088 12.4214 12.9345C12.8308 13.8421 13.1417 14.7893 13.3502 15.7577C13.5578 16.7261 13.664 17.7158 13.664 18.7123Z" fill="#EB5569"/>
<path d="M15.1602 36.8384H6.85089V26.6993C6.85089 26.3083 7.16788 25.9912 7.55902 25.9912H14.4522C14.8433 25.9912 15.1603 26.3083 15.1603 26.6993V36.8384H15.1602Z" fill="#C9BFC8"/>
<path d="M28.7908 32.6934H21.0972V45.5761C21.0972 46.9146 22.1822 47.9998 23.5209 47.9998H31.2145C29.876 47.9998 28.7908 46.9147 28.7908 45.5761V43.2968C28.7908 42.2974 29.601 41.4872 30.6004 41.4872H35.6946C35.9644 41.4872 36.2281 41.4614 36.4845 41.4144V32.6935H28.7908V32.6934Z" fill="#EFEDEF"/>
<path d="M40.3082 0.519462V2.93235L37.6529 7.4144V37.1145C37.6529 38.1959 36.7753 39.0736 35.6939 39.0736H29.1021H21.0833C20.3253 39.0736 19.6996 38.4855 19.6572 37.7344L18.1133 7.91648L15.1597 2.93235V0.519462C15.1597 0.232696 15.3943 0 15.683 0H39.7858C40.0745 0 40.3082 0.232696 40.3082 0.519462Z" fill="#DFF6FD"/>
<path d="M37.1058 33.6536H37.6529V37.1145C37.6529 38.1965 36.7758 39.0736 35.6939 39.0736H29.1021H21.0833C20.3253 39.0736 19.6996 38.4855 19.6572 37.7344L18.1133 7.91648L15.1597 2.93235V0.519462C15.1597 0.232696 15.3943 0 15.683 0H24.6375L26.1169 2.49651L27.2379 25.1673C27.4743 29.9482 31.4368 33.6932 36.2234 33.6598L37.1058 33.6536Z" fill="#C8EFFE"/>
<path d="M40.3082 0.519462V2.93235L40.2966 2.95263H15.1713L15.1597 2.93235V0.519462C15.1597 0.232696 15.3943 0 15.683 0H39.7858C40.0745 0 40.3082 0.232696 40.3082 0.519462Z" fill="#99E6FC"/>
<path d="M26.1395 2.95263L26.1169 2.49651L24.6375 0H15.683C15.3943 0 15.1597 0.232696 15.1597 0.519462V2.93235L15.16 2.93283L15.1717 2.95263H26.1395Z" fill="#62DBFB"/>
<path d="M39.2155 39.1279H33.7513V46.5132C33.7513 47.3342 34.4168 47.9997 35.2378 47.9997H37.7289C38.5499 47.9997 39.2155 47.3342 39.2155 46.5132V39.1279Z" fill="#EFEDEF"/>
<path d="M31.0171 8.43164C30.246 8.43164 29.5013 8.75452 28.9741 9.31753C28.4469 9.88063 28.1735 10.645 28.224 11.4134L28.2714 12.1404H28.271L28.3989 14.0952L30.0191 38.8711C30.0235 38.9389 30.0296 39.0063 30.0372 39.0732H35.6933C36.7747 39.0732 37.6523 38.1955 37.6523 37.1141V8.43164H31.0171Z" fill="#C8EFFE"/>
<path d="M41.9496 10.3623H31.0177C30.5156 10.3623 30.1188 10.7871 30.1516 11.2873L30.3331 14.071L33.6086 17.949H40.9777L42.6341 14.071L42.8157 11.2873C42.8485 10.7871 42.4517 10.3623 41.9496 10.3623Z" fill="#FEF0AE"/>
<path d="M39.2153 43.2574V39.1278H36.6292H33.7511V43.2574V46.5129C33.7511 47.334 34.4166 47.9995 35.2376 47.9995H37.7287C37.7945 47.9995 37.8588 47.9938 37.9222 47.9855C37.1929 47.8905 36.6292 47.2682 36.6292 46.5129V44.6691C36.6292 43.896 37.2551 43.2687 38.0282 43.2666C38.6889 43.265 39.1706 43.2619 39.2153 43.2574Z" fill="#E5E1E5"/>
<path d="M42.6343 14.0713L41.0209 38.7448C40.9427 39.9382 39.953 40.8661 38.7567 40.8661H34.2109C33.0156 40.8661 32.0249 39.9382 31.9467 38.7448L30.3333 14.0713H42.6343Z" fill="#FEE97D"/>
<path d="M35.8324 10.4144L35.8291 10.3632H31.0178C30.5158 10.3632 30.1189 10.788 30.1517 11.2881L30.3333 14.0718L33.6087 17.9498H36.3252L35.8324 10.4144Z" fill="#FEE97D"/>
<path d="M39.7102 37.2097C38.5148 37.2097 37.5242 36.2818 37.446 35.0884L36.0717 14.0723H30.3333L31.9467 38.7457C32.0249 39.9391 33.0156 40.867 34.2109 40.867H38.7567C39.953 40.867 40.9427 39.9391 41.0209 38.7457L41.1213 37.2097H39.7102Z" fill="#FEE45A"/>
<path d="M12.9128 14.181L12.8597 14.3741L12.6695 15.1475C12.1317 17.3354 10.5675 19.1274 8.47136 19.9539H8.3468V17.9495C8.3468 16.4905 8.86337 15.078 9.80477 13.9628L10.8582 12.7162C11.3004 12.1919 12.1385 12.3088 12.4214 12.9345C12.6058 13.3429 12.769 13.759 12.9128 14.181Z" fill="#E53950"/>
<path d="M13.1729 27.0393H15.1603V26.6993C15.1603 26.3083 14.8434 25.9912 14.4522 25.9912H7.55902C7.16798 25.9912 6.85089 26.3083 6.85089 26.6993V36.8384H10.1257H10.589H15.1603V31.1412H11.5695C11.028 31.1412 10.589 30.7022 10.589 30.1607V29.6232C10.5889 28.1961 11.7458 27.0393 13.1729 27.0393Z" fill="#BAAFB9"/>
<path d="M15.7335 36.9624V36.0887L16.16 35.7604V33.865C16.16 33.4276 15.8047 33.0723 15.3673 33.0723H6.64264C6.20525 33.0723 5.85089 33.4276 5.85089 33.865V45.3066C5.85089 46.7936 7.05685 47.9995 8.54379 47.9995H13.4661C14.954 47.9995 16.16 46.7936 16.16 45.3066V37.2087L15.7335 36.9624Z" fill="#D7D0D6"/>
<path d="M16.16 35.0579V33.865C16.16 33.4272 15.8051 33.0723 15.3673 33.0723H6.64264C6.20534 33.0723 5.85089 33.4267 5.85089 33.864V45.3066C5.85089 46.7939 7.05656 47.9995 8.54379 47.9995H13.4661C14.4621 47.9995 15.3311 47.4587 15.7972 46.6555C13.1508 46.6555 11.0054 44.5102 11.0054 41.8637V36.9799C11.0054 35.9184 11.8659 35.0579 12.9274 35.0579H16.16Z" fill="#C9BFC8"/>
<path d="M5.85089 35.7609H16.16V37.2092H5.85089V35.7609Z" fill="#FEE97D"/>
<path d="M11.0054 36.9803C11.0054 36.5173 11.1693 36.0926 11.4421 35.7609H5.85089V37.2092H11.0054V36.9803Z" fill="#FEDF30"/>
</svg>

