<svg width="49" height="48" viewBox="0 0 49 48" fill="none" xmlns="http://www.w3.org/2000/svg">
<g clip-path="url(#clip0_356_5486)">
<path d="M20.2555 26.1772C27.4841 26.1772 33.3441 20.3173 33.3441 13.0886C33.3441 5.85998 27.4841 0 20.2555 0C13.0268 0 7.16687 5.85998 7.16687 13.0886C7.16687 20.3173 13.0268 26.1772 20.2555 26.1772Z" fill="#E08726"/>
<path d="M32.7546 16.6163C31.413 16.8406 29.7476 16.589 28.2882 15.9221C29.3954 14.8074 30.3517 13.5947 31.0875 12.3452C31.8518 11.0473 32.3399 9.78272 32.5504 8.59247C32.2923 7.88416 31.9731 7.19962 31.5964 6.54656C31.3386 6.10105 31.0544 5.67129 30.7454 5.25956C32.1716 8.00278 30.2069 12.0242 26.9734 15.1612C26.3154 14.6828 25.7577 14.0983 25.3734 13.4158C24.3116 11.53 24.3586 10.1526 24.4131 8.55759C24.4705 6.88088 24.5354 4.98038 23.1258 2.47453C22.7872 1.87238 21.9553 0.855563 21.1714 0.0334688C20.8658 0.0117188 20.5585 0 20.2497 0C19.8547 0 19.4607 0.0194062 19.0685 0.0553125C19.0907 0.0765938 19.1118 0.0987188 19.1372 0.117469C19.8517 0.64425 21.4282 2.42316 21.8581 3.18741C23.0678 5.33794 23.0152 6.87769 22.9595 8.50772C22.9028 10.1695 22.844 11.8881 24.106 14.1293C24.5497 14.9173 25.1618 15.5917 25.8749 16.1514C25.176 16.7367 24.4364 17.2775 23.6712 17.755L14.1224 1.53141C13.9859 1.60372 13.8507 1.67845 13.7168 1.75556C13.4287 1.92188 13.1511 2.10094 12.8789 2.28628L22.4053 18.4718C21.6515 18.857 20.8709 19.1874 20.0696 19.4603C19.9408 18.5323 19.6748 17.637 19.2287 16.9241C17.8896 14.7843 16.3441 13.921 14.8496 13.0863C13.4032 12.2783 12.037 11.5152 10.8902 9.52913C10.7704 9.32156 9.34439 6.999 9.21839 6.35147C9.20451 6.28031 9.18323 6.21375 9.1851 6.10763C8.82821 6.67472 8.51569 7.26855 8.25032 7.88381C8.53598 8.47528 9.52214 10.0683 9.6307 10.2563C10.9777 12.5896 12.5855 13.4876 14.1403 14.3561C15.5361 15.1358 16.8546 15.8722 17.9958 17.6957C18.3539 18.2678 18.5631 19.0559 18.6539 19.8825C14.2756 20.989 9.88748 20.3567 8.1532 18.0594C8.37492 18.5965 8.63048 19.1235 8.92589 19.6352C9.21093 20.1288 9.52759 20.6036 9.87389 21.0563C11.0637 21.5455 12.4747 21.8288 14.0481 21.8728C14.1974 21.877 14.3469 21.8791 14.4973 21.8791C15.875 21.8791 17.296 21.7046 18.6943 21.3734C18.6744 21.7508 18.6334 22.1144 18.5716 22.4449C18.5669 22.4704 18.5673 22.4953 18.5653 22.5206L20.0331 22.5168C20.1161 22.0027 20.1599 21.483 20.1643 20.9622C21.193 20.6327 22.1952 20.219 23.1443 19.7273L24.7787 22.5043L26.4639 22.5L24.4095 19.0097C25.3762 18.4107 26.2985 17.7265 27.1552 16.9822C28.6057 17.7546 30.267 18.1491 31.759 18.1491C31.9554 18.1491 32.1484 18.1414 32.3382 18.1276C32.5433 17.6327 32.718 17.1257 32.8612 16.6095C32.8259 16.6102 32.7905 16.6104 32.7546 16.6163Z" fill="#D17728"/>
<path opacity="0.5" d="M10.2084 15.4627C10.0361 15.4624 9.86948 15.401 9.73821 15.2894C9.60694 15.1778 9.51956 15.0231 9.49162 14.8531C9.24093 13.3252 9.31959 11.7824 9.72543 10.2676C10.4796 7.45342 12.2842 5.10133 14.8072 3.64464C17.3304 2.18796 20.2696 1.80096 23.0838 2.55517C24.2901 2.87852 25.4175 3.39583 26.4347 4.09277C26.5135 4.14674 26.5809 4.2157 26.633 4.29572C26.6852 4.37574 26.721 4.46525 26.7386 4.55913C26.7561 4.65302 26.755 4.74944 26.7353 4.84289C26.7155 4.93634 26.6776 5.02499 26.6236 5.10377C26.5696 5.1826 26.5007 5.25002 26.4207 5.30219C26.3407 5.35435 26.2511 5.39023 26.1572 5.40777C26.0633 5.42532 25.9669 5.42418 25.8735 5.40443C25.78 5.38468 25.6914 5.34671 25.6126 5.29267C24.7315 4.68911 23.7541 4.24071 22.7072 3.96021C20.2686 3.30658 17.7212 3.64211 15.5346 4.90436C13.3479 6.1668 11.784 8.20521 11.1305 10.644C10.7783 11.9579 10.7099 13.2948 10.927 14.6174C10.9441 14.7216 10.9384 14.8282 10.9101 14.93C10.8819 15.0317 10.8318 15.126 10.7635 15.2065C10.6951 15.2869 10.61 15.3515 10.5142 15.3957C10.4183 15.44 10.314 15.4628 10.2084 15.4627Z" fill="white"/>
<path opacity="0.1" d="M24.7689 0.798828C26.6923 2.7657 27.8794 5.45548 27.8794 8.4238C27.8794 14.4487 22.9952 19.3328 16.9703 19.3328C12.6662 19.3328 8.94562 16.8394 7.17065 13.2189C7.24115 20.387 13.0712 26.1768 20.2559 26.1768C27.4845 26.1768 33.3445 20.3168 33.3445 13.0881C33.3445 7.4457 29.7739 2.63736 24.7689 0.798828Z" fill="black"/>
<path d="M43.5341 29.3312H38.1411C37.9969 29.3312 37.8561 29.2883 37.7363 29.2081C37.6166 29.1279 37.5234 29.0138 37.4685 28.8805L35.6491 24.458C35.6037 24.3475 35.5862 24.2276 35.5981 24.1087C35.6101 23.9899 35.6511 23.8758 35.7176 23.7766C35.784 23.6774 35.8739 23.596 35.9793 23.5398C36.0846 23.4836 36.2022 23.4541 36.3217 23.4541H43.5341C43.727 23.4541 43.912 23.5307 44.0484 23.6671C44.1848 23.8035 44.2615 23.9885 44.2615 24.1814V28.604C44.2614 28.7969 44.1848 28.9818 44.0484 29.1182C43.912 29.2546 43.727 29.3312 43.5341 29.3312Z" fill="#D2E2E0"/>
<path d="M33.2722 21.0908H43.454V24.8591H33.2722V21.0908Z" fill="#BBCBCA"/>
<path d="M43.5347 47.9998C43.3418 47.9998 43.1568 47.9232 43.0204 47.7868C42.884 47.6504 42.8074 47.4654 42.8074 47.2725V0.727312C42.8074 0.534417 42.884 0.349422 43.0204 0.213025C43.1568 0.0766274 43.3418 0 43.5347 0C43.7276 0 43.9126 0.0766274 44.049 0.213025C44.1854 0.349422 44.262 0.534417 44.262 0.727312V47.2726C44.262 47.4655 44.1853 47.6504 44.0489 47.7868C43.9125 47.9232 43.7276 47.9998 43.5347 47.9998Z" fill="#BBCBCA"/>
<path d="M32.8343 24.2276C32.8064 27.0348 31.479 31.3309 30.1925 35.4894C28.8605 39.7956 27.4832 44.2483 27.4832 47.273C27.4832 47.4659 27.5598 47.6509 27.6962 47.7873C27.8326 47.9237 28.0176 48.0003 28.2105 48.0003C28.4034 48.0003 28.5884 47.9237 28.7248 47.7873C28.8612 47.6509 28.9378 47.4659 28.9378 47.273C28.9378 44.4682 30.2821 40.1223 31.5821 35.9193C32.9011 31.6555 34.2623 27.25 34.2889 24.2275H32.8343V24.2276Z" fill="#E2F2F6"/>
<path d="M32.7856 24.2275C30.2122 33.5548 25.3672 44.8968 20.0419 46.5794C19.8765 46.6319 19.7352 46.7418 19.6437 46.8893C19.5522 47.0367 19.5164 47.2121 19.5428 47.3836C19.5692 47.5552 19.6561 47.7117 19.7878 47.8248C19.9195 47.9379 20.0873 48.0001 20.2608 48.0004C20.3334 48.0004 20.4073 47.9894 20.4801 47.9664C27.9446 45.608 32.9197 29.2762 34.2666 24.3268C34.2756 24.2937 34.2789 24.2606 34.2832 24.2275H32.7856ZM26.2959 24.2275C25.2674 28.9288 23.0959 34.4857 20.5945 38.7972C17.6957 43.7938 14.7538 46.5456 12.3108 46.5456C12.1179 46.5456 11.933 46.6222 11.7966 46.7586C11.6602 46.895 11.5835 47.08 11.5835 47.2729C11.5835 47.4658 11.6602 47.6508 11.7966 47.7872C11.933 47.9236 12.1179 48.0002 12.3108 48.0002C19.2628 48.0002 25.9711 32.7973 27.7732 24.2865C27.7774 24.2667 27.7772 24.2472 27.7796 24.2275H26.2959ZM19.5053 24.2275C18.1075 32.0396 15.7255 36.4299 10.4586 40.9322C10.386 40.9942 10.3263 41.07 10.283 41.1551C10.2397 41.2402 10.2136 41.333 10.2061 41.4282C10.1986 41.5234 10.21 41.6191 10.2396 41.71C10.2691 41.8008 10.3163 41.8849 10.3784 41.9574C10.4466 42.0375 10.5314 42.1017 10.627 42.1457C10.7225 42.1897 10.8264 42.2124 10.9316 42.2123C11.1048 42.2124 11.2723 42.1505 11.4038 42.0377C17.0131 37.2428 19.5184 32.591 20.9775 24.2613C20.9794 24.2499 20.9785 24.2389 20.9799 24.2275H19.5053ZM12.7157 24.2275C12.0042 29.9039 11.5397 31.4442 8.53487 34.4603C8.40226 34.5976 8.32898 34.7816 8.33085 34.9726C8.33271 35.1635 8.40956 35.346 8.54482 35.4808C8.68009 35.6155 8.86291 35.6917 9.05384 35.6929C9.24477 35.694 9.4285 35.62 9.56537 35.4869C13.0618 31.977 13.4821 29.8526 14.1816 24.2275H12.7157Z" fill="#D2E2E0"/>
<path d="M27.8034 24.2275H26.3413C26.9266 30.1477 28.1474 33.1064 31.0025 35.5283C31.1338 35.6398 31.3004 35.701 31.4727 35.7009C31.6788 35.7009 31.8839 35.6137 32.0277 35.4439C32.0895 35.371 32.1363 35.2867 32.1655 35.1958C32.1947 35.1049 32.2057 35.0091 32.1978 34.9139C32.19 34.8187 32.1635 34.726 32.1198 34.641C32.0761 34.5561 32.0162 34.4806 31.9433 34.4188C29.4418 32.297 28.351 29.6185 27.8034 24.2275ZM30.0152 40.8934C24.3565 36.8469 21.8216 32.1635 21.0035 24.2276H19.5406C20.3897 32.7238 23.0901 37.7296 29.1689 42.0766C29.2921 42.1649 29.4399 42.2124 29.5915 42.2123C29.7073 42.2124 29.8215 42.1849 29.9245 42.132C30.0275 42.0791 30.1163 42.0024 30.1836 41.9081C30.2958 41.7512 30.3411 41.5562 30.3095 41.3659C30.2779 41.1756 30.172 41.0056 30.0152 40.8934ZM28.2123 46.5457C25.7772 46.5457 22.6634 43.6215 19.6692 38.5228C17.0012 33.9798 14.875 28.3981 14.2139 24.2276H12.741C12.7416 24.2329 12.741 24.2379 12.7417 24.2431C13.3914 28.6029 15.6182 34.4971 18.4149 39.2596C20.3319 42.524 24.1539 48.0003 28.2122 48.0003C28.4051 48.0003 28.5901 47.9237 28.7265 47.7873C28.8629 47.6509 28.9396 47.4659 28.9396 47.273C28.9396 47.1775 28.9208 47.0829 28.8843 46.9946C28.8477 46.9064 28.7942 46.8262 28.7266 46.7587C28.6591 46.6911 28.5789 46.6376 28.4907 46.601C28.4024 46.5645 28.3079 46.5457 28.2123 46.5457Z" fill="#E2F2F6"/>
<path d="M7.68778 24.2275H6.23315C6.25978 27.25 7.62112 31.6554 8.94009 35.9193C10.2401 40.1222 11.5845 44.4681 11.5845 47.273C11.5845 47.4659 11.6611 47.6509 11.7975 47.7873C11.9339 47.9237 12.1189 48.0003 12.3118 48.0003C12.5047 48.0003 12.6897 47.9237 12.8261 47.7873C12.9625 47.6509 13.0391 47.4659 13.0391 47.273C13.0391 44.2483 11.6617 39.7956 10.3297 35.4894C9.04331 31.3308 7.71572 27.0347 7.68778 24.2275Z" fill="#D2E2E0"/>
<path d="M20.4368 46.5671C15.3075 45.2893 10.3795 34.4738 7.7317 24.2275H6.23901C6.24276 24.2569 6.24473 24.286 6.25223 24.3155C6.87051 26.7427 8.61408 32.9951 11.4438 38.6171C14.1966 44.0862 17.104 47.2358 20.0852 47.9786C20.1443 47.9933 20.2034 48.0005 20.2616 48.0005C20.4391 48.0002 20.6103 47.9351 20.7432 47.8174C20.876 47.6997 20.9612 47.5374 20.9827 47.3613C21.0043 47.1851 20.9607 47.0071 20.8601 46.8608C20.7596 46.7146 20.609 46.6101 20.4368 46.5671Z" fill="#E2F2F6"/>
<path opacity="0.1" d="M34.2909 24.2275H32.7853C32.0567 26.8687 31.1473 29.6696 30.0951 32.369C29.3131 31.1966 28.7615 29.7881 28.363 27.9534C28.2642 29.0049 28.0655 30.0446 27.7699 31.0585C28.2149 32.1704 28.7657 33.1149 29.4532 33.9598C28.7687 35.5974 28.033 37.175 27.2561 38.6304C26.465 37.8773 25.7606 37.0903 25.1332 36.2576C24.8259 36.6523 24.498 37.0304 24.1507 37.3905C24.8506 38.2861 25.6382 39.1327 26.5232 39.9445C25.6162 41.4988 24.66 42.8716 23.6686 43.972C22.827 43.11 21.9664 42.0437 21.1049 40.7888C21.445 40.2454 21.7721 39.6939 22.0861 39.135C21.1965 39.7422 20.2388 40.2316 19.2284 40.5835C19.272 40.6515 19.3145 40.7187 19.3592 40.7874C18.4832 42.101 17.6104 43.2037 16.7555 44.0804C16.0082 43.2698 15.2778 42.2934 14.5707 41.1907C13.0061 41.0722 11.518 40.6371 10.1533 39.9402C10.2508 40.2773 10.3463 40.6149 10.4397 40.9531C10.1548 41.2168 10.1248 41.6597 10.3794 41.9574C10.4803 42.0753 10.6164 42.1576 10.7677 42.1921C11.2561 44.1261 11.5847 45.8878 11.5847 47.2729C11.5847 47.4658 11.6613 47.6508 11.7977 47.7872C11.9341 47.9236 12.1191 48.0002 12.312 48.0002C13.8112 48.0002 15.2992 47.2919 16.7289 46.0973C17.8345 47.0675 18.9551 47.6967 20.0863 47.9785C20.0987 47.9816 20.111 47.9829 20.1232 47.9854C20.1355 47.9878 20.1477 47.9904 20.1602 47.9922C20.1935 47.997 20.2267 48 20.2596 48.0002L20.2619 48.0004H20.2625C20.265 48.0004 20.2673 47.9998 20.2697 47.9998C20.3055 47.9995 20.3413 47.9965 20.3767 47.9908C20.3932 47.9882 20.4092 47.9832 20.4255 47.9795C20.4441 47.9752 20.4627 47.9723 20.4812 47.9665C20.4859 47.965 20.4905 47.9632 20.4952 47.9617L20.5023 47.9592C21.634 47.5974 22.7081 46.9138 23.7213 45.9983C25.1197 47.1851 26.6482 48.0003 28.2123 48.0003C28.4052 48.0003 28.5902 47.9237 28.7266 47.7873C28.863 47.6509 28.9396 47.4659 28.9396 47.273C28.9396 45.888 29.2681 44.1266 29.7563 42.193C29.9288 42.1534 30.0807 42.0521 30.1836 41.9081C30.399 41.6068 30.3488 41.1994 30.0842 40.9542C30.5314 39.3255 31.0605 37.6117 31.5839 35.9194L31.6598 35.6736C31.7982 35.6367 31.928 35.5616 32.0276 35.4441C32.2626 35.167 32.252 34.7667 32.0215 34.5002C33.188 30.6968 34.2672 26.9154 34.2909 24.2275ZM13.0072 46.4742C12.9073 45.0123 12.5552 43.2906 12.0769 41.4487C12.28 41.267 12.4812 41.0831 12.6802 40.8969C13.664 42.5778 14.6653 43.9714 15.6808 45.0713C14.7529 45.829 13.8548 46.304 13.0072 46.4742ZM20.2389 46.5118C19.4184 46.268 18.6037 45.7838 17.8034 45.0989C18.647 44.2373 19.4648 43.2185 20.2472 42.0904C20.9602 43.0864 21.7698 44.0963 22.6479 44.9939C21.8611 45.6966 21.056 46.2168 20.2389 46.5118ZM27.5171 46.4705C26.6527 46.289 25.7189 45.7795 24.7469 44.9731C25.7943 43.8234 26.7684 42.4381 27.6648 40.929C27.9154 41.1328 28.1693 41.3323 28.4266 41.5276C27.9592 43.3383 27.6159 45.0302 27.5171 46.4705ZM28.8388 40.0049C28.6894 39.8861 28.5413 39.7656 28.3946 39.6435C28.8675 38.773 29.316 37.8744 29.7392 36.9655C29.4259 37.9878 29.1202 39.0071 28.8388 40.0049ZM28.2157 27.2082C28.0508 26.3147 27.9152 25.3294 27.8032 24.2275H26.2967C26.1318 24.9812 25.9358 25.7576 25.7153 26.5465C26.5569 26.7353 27.3909 26.956 28.2157 27.2082ZM8.40319 26.6601C8.16721 25.8527 7.94368 25.0418 7.73269 24.2276H6.23315C6.24084 25.1007 6.36131 26.0906 6.55856 27.1578C7.16861 26.9745 7.78373 26.8085 8.40319 26.6601ZM21.1994 25.8266C21.1239 25.2949 21.0585 24.7618 21.0034 24.2275H19.5063C19.4192 24.7138 19.3255 25.1988 19.2252 25.6825C19.8912 25.7142 20.5493 25.7629 21.1994 25.8266ZM14.5025 25.735C14.391 25.2356 14.2947 24.7329 14.2138 24.2275H12.7166C12.6462 24.7947 12.5711 25.3613 12.4912 25.9272C13.1599 25.8458 13.8305 25.7817 14.5025 25.735Z" fill="black"/>
<path d="M33.5666 24.859H6.95709C5.91825 24.859 5.073 24.0138 5.073 22.9749C5.073 21.9361 5.91825 21.0908 6.95709 21.0908H33.5666C34.6055 21.0908 35.4507 21.9361 35.4507 22.9749C35.4507 24.0138 34.6055 24.859 33.5666 24.859Z" fill="#D2E2E0"/>
<path d="M25.4689 23.6048H7.71672C7.02362 23.6048 6.45972 23.0409 6.45972 22.3478C6.45972 21.6547 7.02362 21.0908 7.71672 21.0908H25.469C26.1621 21.0908 26.7259 21.6547 26.7259 22.3478C26.7259 23.0409 26.162 23.6048 25.4689 23.6048Z" fill="#E2F2F6"/>
</g>
<defs>
<clipPath id="clip0_356_5486">
<rect width="48" height="48" fill="white" transform="translate(0.666748)"/>
</clipPath>
</defs>
</svg>

