<svg width="49" height="48" viewBox="0 0 49 48" fill="none" xmlns="http://www.w3.org/2000/svg">
<path d="M29.9571 2.95205C29.0581 2.85333 28.1508 2.79671 27.227 2.83168C20.0256 3.09127 13.7168 7.37033 10.2136 11.2897L10.2122 30.6597L11.4344 30.7983C15.1189 31.2185 17.6691 32.39 19.0163 34.2823C20.5049 36.3738 20.1081 38.8265 19.9515 39.5296C19.43 41.8652 20.807 44.2428 23.1663 44.6972C24.4998 44.9527 25.8401 45.079 27.1708 45.079C28.1079 45.079 29.0358 44.994 29.9572 44.8711C40.3743 43.4809 48.4177 34.6191 48.3319 23.8304C48.2378 12.3582 38.97 3.941 29.9571 2.95205Z" fill="#FABE2C"/>
<path d="M48.3331 23.8305C48.239 12.3583 38.9712 3.9411 29.9583 2.95215V44.8713C40.3754 43.481 48.4188 34.6192 48.3331 23.8305Z" fill="#FF9100"/>
<path d="M32.1171 19.0303C30.4733 17.3837 30.4733 14.7072 32.1157 13.062C33.7636 11.4168 36.4387 11.4168 38.0839 13.062C39.7291 14.7072 39.7291 17.3837 38.0839 19.0288V19.0303C36.439 20.6725 33.7624 20.6727 32.1171 19.0303Z" fill="#00C8C8"/>
<path d="M20.1599 14.2236C19.5614 12.0005 20.8669 9.66712 23.1426 9.05869C25.3838 8.4586 27.7061 9.7934 28.3089 12.0414C28.9129 14.2902 27.5801 16.6042 25.3261 17.2076C23.0671 17.813 20.7612 16.4727 20.1599 14.2236Z" fill="#474F54"/>
<path d="M15.1872 25.1629C12.9392 24.56 11.6016 22.2419 12.2044 19.9967C12.8035 17.756 15.1068 16.4062 17.3693 17.014C19.6228 17.6164 20.9588 19.9265 20.3535 22.1802C19.7484 24.4408 17.43 25.7637 15.1872 25.1629Z" fill="#FF435B"/>
<path d="M36.9208 30.9852C34.6733 30.3837 33.3316 28.0769 33.9381 25.819C34.5428 23.5601 36.8616 22.2346 39.1043 22.8363C41.3523 23.4392 42.6899 25.7573 42.087 28.0025C41.4846 30.2562 39.1689 31.5899 36.9208 30.9852Z" fill="#99341F"/>
<path d="M8.86444 0C5.37774 0 4.64575 13.0945 4.64575 23.9997C4.64575 24.4898 4.65194 24.9395 4.65569 25.4059L7.6339 26.8121H8.86444H10.8565L13.0739 25.4059C13.0773 24.9393 13.0831 24.4977 13.0831 23.9997C13.0831 13.0944 12.3511 0 8.86444 0Z" fill="#B35324"/>
<path d="M13.0739 25.4059C13.0773 24.9393 13.0831 24.4977 13.0831 23.9997C13.0831 13.0945 12.3511 0 8.86444 0V26.8121H10.8565L13.0739 25.4059Z" fill="#99341F"/>
<path d="M8.86433 25.4062H4.65558C4.70583 31.625 5.06226 35.7103 5.08232 36.0862H8.86433H12.6463C12.6833 35.3996 13.0272 31.8943 13.0737 25.4062H8.86433Z" fill="#FFF7E6"/>
<path d="M13.074 25.4062H8.86456V36.0862H12.6466C12.6834 35.3995 13.0275 31.8942 13.074 25.4062Z" fill="#FFCCB3"/>
<path d="M8.86445 33.8438C5.76221 33.8438 3.23952 36.3664 3.23952 39.4687V42.2811C3.23952 43.8316 1.88373 45.1873 0.333313 45.1873V47.9998H6.05199C7.043 47.9998 7.9804 47.7967 8.86445 47.4816C12.1311 46.3168 14.4894 43.1303 14.4894 39.4687C14.4894 36.3664 11.9667 33.8438 8.86445 33.8438Z" fill="#474F54"/>
<path d="M14.4895 39.4687C14.4895 36.3664 11.9668 33.8438 8.86456 33.8438V47.4816C12.1312 46.3168 14.4895 43.1303 14.4895 39.4687Z" fill="#32393F"/>
<path d="M29.9583 39.4686C32.2882 39.4686 34.1769 37.5799 34.1769 35.2499C34.1769 32.92 32.2882 31.0312 29.9583 31.0312C27.6283 31.0312 25.7396 32.92 25.7396 35.2499C25.7396 37.5799 27.6283 39.4686 29.9583 39.4686Z" fill="#FFF7E6"/>
<path d="M34.177 35.2499C34.177 32.92 32.2882 31.0312 29.9583 31.0312V39.4686C32.2882 39.4686 34.177 37.5799 34.177 35.2499Z" fill="#FFE6CC"/>
</svg>


