<svg width="48" height="48" viewBox="0 0 48 48" fill="none" xmlns="http://www.w3.org/2000/svg">
<g clip-path="url(#clip0_356_5386)">
<path d="M14.5159 44.2227C6.60702 43.3973 3.51758 38.9562 3.51758 38.9562C12.2066 26.5985 18.5026 14.0518 18.5026 14.0518H29.4982C29.4982 14.0518 35.7942 26.5985 44.4833 38.9562C44.4833 38.9562 41.3633 43.3973 33.485 44.2227H14.5159Z" fill="#FE93BC"/>
<path d="M29.4985 14.0518H25.6367C25.6367 14.0518 31.9327 26.5985 40.6218 38.9562C40.6218 38.9562 37.5018 43.3973 29.6235 44.2227H33.4853C41.3636 43.3973 44.4836 38.9562 44.4836 38.9562C35.7945 26.5985 29.4985 14.0518 29.4985 14.0518Z" fill="#FE7AAC"/>
<path d="M27.759 15.0206C27.759 15.0206 29.7595 31.0225 33.7994 45.4917C30.7467 47.1869 27.1405 48.0501 24.0103 47.9978C18.3032 47.9978 14.1699 45.4917 14.1699 45.4917C18.2099 31.0225 20.2344 14.96 20.2344 14.96L20.2677 13.6611H27.6534L27.759 15.0206Z" fill="#FE66A0"/>
<path d="M16.2886 8.62572C12.7529 8.62572 10.6289 5.61564 10.6289 5.61564C14.5151 3.81353 15.7335 0 15.7335 0H16.8928L16.2886 8.62572Z" fill="#FE93BC"/>
<path d="M31.71 8.62572C35.2457 8.62572 37.3697 5.61564 37.3697 5.61564C33.4834 3.81353 32.265 0 32.265 0H30.6621L31.71 8.62572Z" fill="#FE93BC"/>
<path d="M17.9629 0C17.9629 2.09107 19.4536 2.74796 21.6318 4.11079C23.7839 5.45731 23.9853 7.70256 23.9853 7.70256C23.9853 7.70256 24.1867 5.45731 26.3388 4.11079C28.5168 2.74796 30.0076 2.09107 30.0076 0V8.73733H17.9629V0Z" fill="#FE93BC"/>
<path d="M29.4677 14.0515C33.4143 7.70256 32.2359 0 32.2359 0H30.0075C30.0075 0 31.2767 7.70256 23.9851 7.70256C16.6934 7.70256 17.9628 0 17.9628 0H15.7343C15.7343 0 14.6202 7.70256 18.5026 14.0515C22.6118 15.8565 25.3585 15.8565 29.4677 14.0515Z" fill="#FFD6E8"/>
<path d="M32.2364 0H30.008C30.008 0 30.6672 4.00305 28.3032 6.23749C27.9698 8.65942 27.2126 11.4675 25.6063 14.0515C24.3163 14.6182 23.1605 15.0067 22.0547 15.2175C24.4711 15.6783 26.649 15.2898 29.4681 14.0515C33.4149 7.70256 32.2364 0 32.2364 0Z" fill="#FFCCE2"/>
<path d="M38.3717 14.0518L39.2875 16.1258L40.9621 17.0417L39.2875 17.9575L38.3717 20.0316L37.4558 17.9575L35.7812 17.0417L37.4558 16.1258L38.3717 14.0518Z" fill="#FFED59"/>
<path d="M8.93017 26.25L10.2023 29.1309L12.5284 30.4031L10.2023 31.6753L8.93017 34.5562L7.65809 31.6753L5.33203 30.4031L7.65809 29.1309L8.93017 26.25Z" fill="#FFED59"/>
</g>
<defs>
<clipPath id="clip0_356_5386">
<rect width="48" height="48" fill="white"/>
</clipPath>
</defs>
</svg>


