<svg width="48" height="48" viewBox="0 0 48 48" fill="none" xmlns="http://www.w3.org/2000/svg">
<path d="M13.8691 8.15332V18.5397H21.5664L22.4723 11.6896L21.5664 8.15332H13.8691Z" fill="#E12365"/>
<path d="M30.8073 8.15332H21.5664V18.5397H35.0167L30.8073 8.15332Z" fill="#BB1D64"/>
<path d="M44.6354 7.87109L34.377 14.461V17.692H34.5511L45.4609 10.6836H48V7.87109H44.6354Z" fill="#BB1D64"/>
<path d="M13.6313 6.16992L11.8867 12.6538L14.6026 13.3845L15.1115 11.6085L15.787 8.98242H20.1666L20.1419 24.9946H21.5663L22.5678 11.3551L21.5663 6.16992H13.6313Z" fill="#FC4579"/>
<path d="M47.9991 16.2577L35.0065 14.0782L30.657 6.16992H21.5663V24.9946H47.9991V21.4743L47.1657 20.0114L47.9991 18.6618V16.2577ZM22.9791 14.01V8.98242H28.9941L31.7592 14.01H22.9791Z" fill="#E12365"/>
<path d="M0 26.7197C0 33.6969 4.75303 39.5846 11.1912 41.3154C12.4418 41.6516 15.1124 40.144 15.1124 40.144L19.012 27.5561L15.1124 11.6085C6.78009 11.6085 0 18.3874 0 26.7197Z" fill="#8992E9"/>
<path d="M15.1133 11.6085V40.3137C15.1133 40.3137 18.8967 41.3516 19.0157 41.3198C25.4622 39.5946 30.2233 33.7027 30.2233 26.7197C30.2233 18.3874 23.4457 11.6085 15.1133 11.6085Z" fill="#5D6BE2"/>
<path d="M12.3527 18.084L12.0054 18.2089C8.58067 19.4396 6.2792 22.7125 6.2793 26.3531C6.2793 29.7017 8.22395 32.7365 11.1995 34.1608V41.3144C12.4501 41.6506 13.765 41.831 15.1204 41.831L17.5338 33.4083L15.1204 25.8335H12.3527V18.084Z" fill="#E6F2FE"/>
<path d="M17.8704 18.084L18.2178 18.2089C21.6424 19.4396 23.9439 22.7125 23.9438 26.3531C23.9438 29.7017 21.9992 32.7365 19.0236 34.1608V41.3204C17.773 41.6566 16.4763 41.831 15.1211 41.831V25.8335H17.8704V18.084Z" fill="#C7E4FD"/>
<path d="M38.2722 30.0308C35.4987 30.0308 33.2422 27.7744 33.2422 25.0008C33.2422 22.2272 35.4987 19.9707 38.2722 19.9707C41.0458 19.9707 43.3023 22.2272 43.3023 25.0008C43.3023 27.7744 41.0458 30.0308 38.2722 30.0308Z" fill="#4A3779"/>
<path d="M45.1875 18.6621H48V21.4746H45.1875V18.6621Z" fill="#FBD541"/>
</svg>
