<svg width="32" height="32" viewBox="0 0 32 32" fill="none" xmlns="http://www.w3.org/2000/svg">
<g clip-path="url(#clip0_356_5930)">
<path d="M26.5315 20.9607C26.3263 21.3765 25.0475 23.9675 24.8415 24.3848C24.3842 24.4512 21.5229 24.867 21.0625 24.9339C21.3935 25.2565 23.4639 27.2746 23.7971 27.5994C23.719 28.0549 23.2302 30.9046 23.1516 31.3632C23.5606 31.1481 26.1197 29.8027 26.5315 29.5861C26.5315 29.5825 27.2087 26.4431 27.2087 26.4431C27.2087 26.4431 26.5315 20.9814 26.5315 20.9607Z" fill="#F4D844"/>
<path d="M5.46838 20.9626C5.26318 21.3785 3.98488 23.9685 3.77898 24.3857C3.32161 24.4522 0.460373 24.8679 0 24.9348C0.330935 25.2574 2.40137 27.2756 2.73454 27.6003C2.65642 28.0558 2.16764 30.9056 2.08901 31.3642C2.49941 31.1484 5.05651 29.8039 5.46838 29.5874C5.46838 29.5837 6.42576 26.4865 6.42576 26.4865C6.42576 26.4865 5.46838 20.9875 5.46838 20.9626Z" fill="#F4D844"/>
<path d="M10.9385 24.9341C10.4811 24.8677 7.61973 24.4519 7.15936 24.3851C6.9548 23.9706 5.67523 21.3779 5.46939 20.9607L5.46907 20.9614L5.46875 20.962V29.5868L5.46907 29.5866L5.46939 29.5864C5.87845 29.8015 8.43766 31.147 8.84946 31.3635C8.77134 30.908 8.2825 28.0582 8.20386 27.5997C8.53486 27.277 10.6054 25.2588 10.9385 24.9341Z" fill="#ECBD2C"/>
<path d="M4.11523 26.2715C4.35203 26.5023 4.5555 26.7007 4.7923 26.9316C4.73638 27.2574 4.68839 27.5376 4.63248 27.8635C4.92499 27.7098 5.17633 27.5776 5.46885 27.4238L5.80923 26.7627L5.46885 25.2888C5.32269 25.585 5.19714 25.8394 5.05098 26.1355C4.72368 26.1831 4.44247 26.224 4.11523 26.2715Z" fill="#ECBD2C"/>
<path d="M5.46945 27.4228C5.76216 27.5767 6.01369 27.7089 6.3064 27.8629C6.25048 27.5369 6.20249 27.2568 6.14658 26.9309C6.38337 26.7 6.58684 26.5017 6.82364 26.2708C6.4964 26.2233 6.21519 26.1824 5.88789 26.1348C5.74154 25.8383 5.61574 25.5834 5.46939 25.2869L5.46907 25.2876L5.46875 25.2882V27.4232L5.46907 27.423L5.46945 27.4228Z" fill="#E58F22"/>
<path d="M15.999 18.8337C15.4478 19.9506 14.2888 22.299 13.9635 22.9581C12.731 23.1372 10.1395 23.5137 9.41211 23.6194C10.304 24.4888 12.1793 26.3167 12.7055 26.8297C12.495 28.0572 12.0523 30.6383 11.928 31.3627C13.0305 30.7831 15.3485 29.5645 15.999 29.2226C15.999 29.218 16.7861 25.2866 16.7861 25.2866C16.7861 25.2866 15.999 18.9584 15.999 18.8337Z" fill="#F4D844"/>
<path d="M0.681519 15.9546V16.9119H5.94712L6.42582 13.8005L5.94712 10.689C3.04376 10.689 0.681519 13.051 0.681519 15.9546Z" fill="#DD4E4E"/>
<path d="M5.94714 10.689V16.9119H8.65973L10.6477 14.3164L9.67315 12.2371C8.70115 11.2649 7.3663 10.689 5.94714 10.689Z" fill="#C21456"/>
<path d="M26.0514 10.6892L26.5301 13.8007L26.0514 16.9122C25.1018 16.9122 24.2884 16.9122 23.3388 16.9122L21.4081 14.798L22.3253 12.2374C23.2915 11.2711 24.6241 10.6892 26.0514 10.6892Z" fill="#A7CAFC"/>
<path d="M31.3182 15.9548V16.9122H26.0526V10.6892C28.9561 10.6892 31.3182 13.0513 31.3182 15.9548Z" fill="#8493FB"/>
<path d="M26.0523 5.30444L26.531 8.95449L26.0523 12.6045C24.0397 12.6045 22.4022 10.9673 22.4022 8.95449C22.4023 6.94189 24.0396 5.30444 26.0523 5.30444Z" fill="#EDBBA7"/>
<path d="M29.7027 8.95443C29.7027 10.967 28.0653 12.6045 26.0526 12.6045V5.30444C28.0652 5.30444 29.7027 6.94182 29.7027 8.95443Z" fill="#E8A38B"/>
<path d="M8.66003 15.9549V16.9123H16L16.9574 12.7636L16 8.61499C11.9426 8.61499 8.66003 11.9169 8.66003 15.9549Z" fill="#BFE85F"/>
<path d="M23.3398 16.9123C23.3398 16.5775 23.3398 16.2898 23.3398 15.9549C23.3398 11.9088 20.0469 8.61499 15.9999 8.61499V16.9123H23.3398Z" fill="#00CB76"/>
<path d="M11.0526 5.58295C11.0526 8.31035 13.2716 10.5294 15.9991 10.5294L16.9565 5.58295L15.9991 0.636475C13.2717 0.636475 11.0526 2.85537 11.0526 5.58295Z" fill="#EDBBA7"/>
<path d="M20.9461 5.58295C20.9461 2.85563 18.7272 0.636475 15.9996 0.636475V10.5294C18.7271 10.5294 20.9461 8.31054 20.9461 5.58295Z" fill="#E8A38B"/>
<path d="M2.29675 8.95449C2.29675 10.9671 3.93407 12.6045 5.94681 12.6045L6.4255 8.95449L5.94681 5.30444C3.9342 5.30451 2.29675 6.94189 2.29675 8.95449Z" fill="#EDBBA7"/>
<path d="M5.94714 5.30444V12.6045C7.95975 12.6045 9.59719 10.9671 9.59719 8.95443C9.59719 6.94176 7.95975 5.30444 5.94714 5.30444Z" fill="#E8A38B"/>
<path d="M22.587 23.6194C21.3544 23.4403 18.7628 23.0637 18.0355 22.9581C17.4843 21.8411 16.3253 19.4928 16 18.8337V29.2226C17.1025 29.8022 19.4204 31.0208 20.0709 31.3627C19.8604 30.1353 19.4177 27.5542 19.2934 26.8299C20.1854 25.9604 22.0607 24.1324 22.587 23.6194Z" fill="#ECBD2C"/>
<path d="M13.5273 24.956C13.9596 25.3775 14.3312 25.7395 14.7635 26.161C14.6614 26.756 14.5737 27.2672 14.4716 27.8622C15.006 27.5813 15.4652 27.3399 15.9995 27.059L16.4888 25.5111L15.9995 23.1599C15.7323 23.7013 15.5027 24.1664 15.2356 24.7078C14.6382 24.7945 14.1248 24.8692 13.5273 24.956Z" fill="#ECBD2C"/>
<path d="M32.0004 24.934C31.5431 24.8676 28.6817 24.4518 28.2213 24.3849C28.0168 23.9705 26.7372 21.3778 26.5313 20.9607V20.9608L26.5312 20.9608V29.5863L26.5313 29.5863C26.9404 29.8014 29.4996 31.1469 29.9114 31.3634C29.8333 30.9078 29.3445 28.0581 29.2659 27.5996C29.5968 27.2769 31.6672 25.2587 32.0004 24.934Z" fill="#ECBD2C"/>
<path d="M25.1758 26.2707C25.4126 26.5015 25.616 26.6999 25.8528 26.9308C25.7969 27.2566 25.7489 27.5367 25.693 27.8627C25.9857 27.7089 26.2371 27.5767 26.5298 27.4227L26.8915 26.5754L26.5298 25.2869C26.3835 25.5835 26.2578 25.8382 26.1115 26.1347C25.7842 26.1823 25.503 26.2231 25.1758 26.2707Z" fill="#ECBD2C"/>
<path d="M17.5279 27.8622C17.4259 27.2672 17.3382 26.7559 17.2361 26.1609C17.6685 25.7395 18.0399 25.3775 18.4722 24.956C17.8748 24.8693 17.3614 24.7946 16.7639 24.7078C16.4968 24.1664 16.2672 23.7012 16 23.1599V27.059C16.5344 27.3399 16.9936 27.5812 17.5279 27.8622Z" fill="#E58F22"/>
<path d="M26.5314 27.4228C26.8241 27.5767 27.0757 27.7089 27.3684 27.8629C27.3125 27.5369 27.2644 27.2568 27.2085 26.9309C27.4453 26.7 27.6488 26.5016 27.8856 26.2708C27.5583 26.2233 27.2771 26.1823 26.9499 26.1348C26.8035 25.8383 26.6777 25.5834 26.5313 25.2869V25.2869L26.5312 25.287V27.4229L26.5314 27.4228Z" fill="#E58F22"/>
</g>
<defs>
<clipPath id="clip0_356_5930">
<rect width="32" height="32" fill="white"/>
</clipPath>
</defs>
</svg>
